<svg xmlns="http://www.w3.org/2000/svg" width="18" height="18" viewBox="0 0 18 18">
  <g id="address_empty_18" data-name="address empty 18" transform="translate(1840 -5668)">
    <rect id="Rectangle_3453" data-name="Rectangle 3453" width="18" height="18" transform="translate(-1840 5668)" fill="#fff" opacity="0"/>
    <path id="Path_16987" data-name="Path 16987" d="M302.583,429.174H291.758a1.963,1.963,0,0,1-1.962-1.961V413.136a1.964,1.964,0,0,1,1.962-1.962h10.825a1.965,1.965,0,0,1,1.966,1.962v1.288h.338a.746.746,0,0,1,.743.744v1.351a.745.745,0,0,1-.742.744h-.344v1.494h.339a.745.745,0,0,1,.743.744v1.351a.745.745,0,0,1-.742.744h-.34v1.491h.339a.743.743,0,0,1,.743.743v1.351a.746.746,0,0,1-.741.744h-.341v1.286A1.963,1.963,0,0,1,302.583,429.174ZM291.758,411.85a1.288,1.288,0,0,0-1.286,1.286v14.077a1.289,1.289,0,0,0,1.286,1.286h10.825a1.289,1.289,0,0,0,1.286-1.286v-1.961h1.013a.07.07,0,0,0,.069-.069v-1.351a.069.069,0,0,0-.069-.069H303.87v-2.841h1.013a.069.069,0,0,0,.069-.069V419.5a.069.069,0,0,0-.069-.069H303.87v-2.845h1.016a.069.069,0,0,0,.069-.068v-1.351a.069.069,0,0,0-.069-.068h-1.011v-1.964a1.289,1.289,0,0,0-1.287-1.286Zm2.312,12.994a1.046,1.046,0,0,1-1.024-.963l0-.677a2.489,2.489,0,0,1,2.636-2.281h.215l.063.026a3.177,3.177,0,0,0,2.433,0l.13-.026h.169a2.473,2.473,0,0,1,2.611,2.258l0,.7a1.074,1.074,0,0,1-1.118.96H294.14Zm1.454-3.251a1.8,1.8,0,0,0-1.806,1.64v.622a.362.362,0,0,0,.4.313H300.2a.4.4,0,0,0,.421-.33l0-.628a1.8,1.8,0,0,0-1.914-1.612h-.125a3.854,3.854,0,0,1-2.827,0h-.105C295.613,421.594,295.568,421.592,295.525,421.592Zm1.647-1.08a2.5,2.5,0,0,1,0-5.007h0a2.5,2.5,0,0,1,0,5.007Zm0-4.331A1.828,1.828,0,1,0,299,418.009a1.833,1.833,0,0,0-1.828-1.828Z" transform="translate(-2128.796 5256.826)" fill="#030504"/>
  </g>
</svg>
