<svg xmlns="http://www.w3.org/2000/svg" width="21.083" height="20.17" viewBox="0 0 21.083 20.17"><g transform="translate(-1 -1)"><path d="M15.038,31.519A1.519,1.519,0,1,1,13.519,30,1.519,1.519,0,0,1,15.038,31.519Z" transform="translate(-3.429 -12.368)" fill="none" stroke="#000" stroke-linecap="round" stroke-linejoin="round" stroke-width="1"/><path d="M31.538,31.519A1.519,1.519,0,1,1,30.019,30,1.519,1.519,0,0,1,31.538,31.519Z" transform="translate(-11.781 -12.368)" fill="none" stroke="#000" stroke-linecap="round" stroke-linejoin="round" stroke-width="1"/><path d="M1.5,1.5H5.151L7.6,13.723a1.826,1.826,0,0,0,1.826,1.47H18.3a1.826,1.826,0,0,0,1.826-1.47l1.461-7.659H6.064" fill="none" stroke="#000" stroke-linecap="round" stroke-linejoin="round" stroke-width="1"/></g></svg>