<svg xmlns="http://www.w3.org/2000/svg" xmlns:xlink="http://www.w3.org/1999/xlink" width="84" height="84" viewBox="0 0 84 84">
  <defs>
    <filter id="Ellipse_390" x="0" y="0" width="84" height="84" filterUnits="userSpaceOnUse">
      <feOffset dy="3" input="SourceAlpha"/>
      <feGaussianBlur stdDeviation="6" result="blur"/>
      <feFlood flood-opacity="0.051"/>
      <feComposite operator="in" in2="blur"/>
      <feComposite in="SourceGraphic"/>
    </filter>
  </defs>
  <g id="Group_5067" data-name="Group 5067" transform="translate(18 15)">
    <g transform="matrix(1, 0, 0, 1, -18, -15)" filter="url(#Ellipse_390)">
      <circle id="Ellipse_390-2" data-name="Ellipse 390" cx="24" cy="24" r="24" transform="translate(18 15)" fill="#fff"/>
    </g>
    <g id="google-icon" transform="translate(10.029 9.357)">
      <path id="Path_17090" data-name="Path 17090" d="M144.176,109.663a12.163,12.163,0,0,0-.3-2.9H130.55v5.267h7.822a6.936,6.936,0,0,1-2.9,4.6l-.027.176,4.213,3.264.292.029a13.877,13.877,0,0,0,4.226-10.44" transform="translate(-116.357 -95.154)" fill="#4285f4"/>
      <path id="Path_17091" data-name="Path 17091" d="M26.6,167.756a13.528,13.528,0,0,0,9.4-3.438l-4.479-3.47a8.4,8.4,0,0,1-4.92,1.419,8.544,8.544,0,0,1-8.074-5.9l-.166.014-4.381,3.391-.057.159A14.183,14.183,0,0,0,26.6,167.756" transform="translate(-12.411 -139.37)" fill="#34a853"/>
      <path id="Path_17092" data-name="Path 17092" d="M6.119,80.559a8.738,8.738,0,0,1-.473-2.807A9.182,9.182,0,0,1,6.1,74.945L6.1,74.757,1.659,71.312l-.145.069a14.163,14.163,0,0,0,0,12.742l4.6-3.564" transform="translate(0 -63.559)" fill="#fbbc05"/>
      <path id="Path_17093" data-name="Path 17093" d="M26.6,5.488A7.866,7.866,0,0,1,32.092,7.6L36.1,3.69A13.637,13.637,0,0,0,26.6,0,14.183,14.183,0,0,0,13.925,7.822l4.589,3.564a8.58,8.58,0,0,1,8.09-5.9" transform="translate(-12.411)" fill="#eb4335"/>
    </g>
  </g>
</svg>
