<svg xmlns="http://www.w3.org/2000/svg" width="18.114" height="18.114" viewBox="0 0 18.114 18.114"><g transform="translate(-3.375 -3.375)"><g><path d="M 12.4317626953125 21.41352272033691 C 7.479202747344971 21.41352272033691 3.450002670288086 17.38432312011719 3.450002670288086 12.4317626953125 C 3.450002670288086 7.479202747344971 7.479202747344971 3.450002670288086 12.4317626953125 3.450002670288086 C 17.38432312011719 3.450002670288086 21.41352272033691 7.479202747344971 21.41352272033691 12.4317626953125 C 21.41352272033691 17.38432312011719 17.38432312011719 21.41352272033691 12.4317626953125 21.41352272033691 Z M 12.4317626953125 4.519182682037354 C 10.31707286834717 4.519182682037354 8.32972240447998 5.341912746429443 6.835822582244873 6.835822582244873 C 5.341912746429443 8.32972240447998 4.519182682037354 10.31707286834717 4.519182682037354 12.4317626953125 C 4.519182682037354 14.54645252227783 5.341912746429443 16.5338020324707 6.835822582244873 18.02770233154297 C 8.329712867736816 19.5216121673584 10.31706237792969 20.3443431854248 12.4317626953125 20.3443431854248 C 14.54646301269531 20.3443431854248 16.5338134765625 19.5216121673584 18.02770233154297 18.02770233154297 C 19.5216121673584 16.5338134765625 20.3443431854248 14.54646301269531 20.3443431854248 12.4317626953125 C 20.3443431854248 10.31706237792969 19.5216121673584 8.329712867736816 18.02770233154297 6.835822582244873 C 16.5338020324707 5.341912746429443 14.54645252227783 4.519182682037354 12.4317626953125 4.519182682037354 Z" stroke="none"/><path d="M 12.4317626953125 3.525003433227539 C 7.520563125610352 3.525003433227539 3.525003433227539 7.520563125610352 3.525003433227539 12.4317626953125 C 3.525003433227539 17.34296226501465 7.520563125610352 21.33852195739746 12.4317626953125 21.33852195739746 C 17.34296226501465 21.33852195739746 21.33852195739746 17.34296226501465 21.33852195739746 12.4317626953125 C 21.33852195739746 7.520563125610352 17.34296226501465 3.525003433227539 12.4317626953125 3.525003433227539 M 12.4317626953125 20.41934204101563 C 10.29702281951904 20.41934204101563 8.290853500366211 19.58881378173828 6.782783508300781 18.08074188232422 C 5.274713516235352 16.57267379760742 4.444183349609375 14.56650257110596 4.444183349609375 12.4317626953125 C 4.444183349609375 10.29702281951904 5.274713516235352 8.290853500366211 6.782783508300781 6.782783508300781 C 8.290853500366211 5.274713516235352 10.29702281951904 4.444183349609375 12.4317626953125 4.444183349609375 C 14.56650257110596 4.444183349609375 16.57267379760742 5.274713516235352 18.08074188232422 6.782783508300781 C 19.58881378173828 8.290853500366211 20.41934204101563 10.29702281951904 20.41934204101563 12.4317626953125 C 20.41934204101563 14.56650257110596 19.58881378173828 16.57267379760742 18.08074188232422 18.08074188232422 C 16.57267379760742 19.58881378173828 14.56650257110596 20.41934204101563 12.4317626953125 20.41934204101563 M 12.4317626953125 3.375001907348633 C 17.43475341796875 3.375001907348633 21.48852348327637 7.42877197265625 21.48852348327637 12.4317626953125 C 21.48852348327637 17.43475341796875 17.43475341796875 21.48852348327637 12.4317626953125 21.48852348327637 C 7.42877197265625 21.48852348327637 3.375001907348633 17.43475341796875 3.375001907348633 12.4317626953125 C 3.375001907348633 7.42877197265625 7.42877197265625 3.375001907348633 12.4317626953125 3.375001907348633 Z M 12.4317626953125 20.26934242248535 C 14.52614307403564 20.26934242248535 16.49424362182617 19.45511245727539 17.97467231750488 17.97467231750488 C 19.45511245727539 16.49424362182617 20.26934242248535 14.52614307403564 20.26934242248535 12.4317626953125 C 20.26934242248535 10.33738231658936 19.45511245727539 8.369281768798828 17.97467231750488 6.888853073120117 C 16.49424362182617 5.408412933349609 14.52614307403564 4.594182968139648 12.4317626953125 4.594182968139648 C 10.33738231658936 4.594182968139648 8.369281768798828 5.408412933349609 6.888853073120117 6.888853073120117 C 5.408412933349609 8.369281768798828 4.594182968139648 10.33738231658936 4.594182968139648 12.4317626953125 C 4.594182968139648 14.52614307403564 5.408412933349609 16.49424362182617 6.888853073120117 17.97467231750488 C 8.369281768798828 19.45511245727539 10.33738231658936 20.26934242248535 12.4317626953125 20.26934242248535 Z" stroke="none" fill="#f5f5f5"/></g><g transform="translate(-3.855 -2.998)"><path d="M 16.10382461547852 19.53508377075195 C 15.62337589263916 19.53508377075195 15.24701595306396 19.17403411865234 15.24701595306396 18.7131233215332 C 15.24701595306396 18.25988388061523 15.63137531280518 17.89115333557129 16.10382461547852 17.89115333557129 C 16.58671569824219 17.89115333557129 16.96497535705566 18.25220489501953 16.96497535705566 18.7131233215332 C 16.96497535705566 19.17403411865234 16.58671569824219 19.53508377075195 16.10382461547852 19.53508377075195 Z M 16.76032638549805 16.97916412353516 L 15.39684104919434 16.97916412353516 L 15.386305809021 16.67709350585938 C 15.31538581848145 15.81661415100098 15.60242557525635 15.28209400177002 16.37684631347656 14.82857418060303 C 17.12530517578125 14.38126373291016 17.45895576477051 14.08420372009277 17.45895576477051 13.50548458099365 C 17.45895576477051 12.93847370147705 16.91152572631836 12.49432373046875 16.21267509460449 12.49432373046875 C 15.53155422210693 12.49432373046875 15.04299545288086 12.92171001434326 14.97642517089844 13.56546401977539 L 13.57768154144287 13.56546401977539 C 13.60934829711914 12.91911792755127 13.86266994476318 12.37077808380127 14.31306552886963 11.97585391998291 C 14.79866504669189 11.55006408691406 15.49167537689209 11.32500457763672 16.31717491149902 11.32500457763672 C 17.89583587646484 11.32500457763672 18.9983959197998 12.20195388793945 18.9983959197998 13.45758438110352 C 18.9983959197998 14.2664041519165 18.6324348449707 14.84271430969238 17.81179618835449 15.32623386383057 C 17.02575492858887 15.78249454498291 16.76032638549805 16.13178443908691 16.76032638549805 16.71018409729004 L 16.76032638549805 16.97916412353516 Z" stroke="none"/><path d="M 16.31717491149902 11.40000343322754 C 14.76259231567383 11.40000343322754 13.75747299194336 12.19662284851074 13.65748977661133 13.49046325683594 L 14.91060829162598 13.49046325683594 C 15.00869750976563 12.8529167175293 15.52583312988281 12.41932487487793 16.21267509460449 12.41932487487793 C 16.95357513427734 12.41932487487793 17.53395462036133 12.89642333984375 17.53395462036133 13.50548362731934 C 17.53395462036133 14.11683464050293 17.17342567443848 14.43987464904785 16.41474533081055 14.89329433441162 C 15.66925621032715 15.32987403869629 15.39288520812988 15.84386444091797 15.46084594726563 16.6673641204834 L 15.46113586425781 16.67091369628906 L 15.46126556396484 16.67447280883789 L 15.46927642822266 16.9041633605957 L 16.68532562255859 16.9041633605957 L 16.68532562255859 16.71018409729004 C 16.68532562255859 16.09949493408203 16.96017456054688 15.73384380340576 17.77371597290039 15.2616138458252 C 18.56882476806641 14.79314422607422 18.92339515686035 14.23676490783691 18.92339515686035 13.45758438110352 C 18.92339515686035 12.24611473083496 17.85167503356934 11.40000343322754 16.31717491149902 11.40000343322754 M 16.10382461547852 17.96615409851074 C 15.6727352142334 17.96615409851074 15.3220157623291 18.30124282836914 15.3220157623291 18.7131233215332 C 15.3220157623291 19.13198471069336 15.66542625427246 19.4600830078125 16.10382461547852 19.4600830078125 C 16.54465484619141 19.4600830078125 16.88997650146484 19.13198471069336 16.88997650146484 18.7131233215332 C 16.88997650146484 18.29426383972168 16.54465484619141 17.96615409851074 16.10382461547852 17.96615409851074 M 16.31717491149902 11.25000381469727 C 17.95000457763672 11.25000381469727 19.07339477539063 12.15567398071289 19.07339477539063 13.45758438110352 C 19.07339477539063 14.31972503662109 18.6553840637207 14.91624450683594 17.8498649597168 15.39085388183594 C 17.09222412109375 15.83063411712646 16.83532524108887 16.1528434753418 16.83532524108887 16.71018409729004 L 16.83532524108887 17.05416488647461 L 15.32441520690918 17.05416488647461 L 15.31135559082031 16.67970275878906 C 15.23733520507813 15.78273391723633 15.55083465576172 15.2253942489624 16.33894538879395 14.76385498046875 C 17.07480621337891 14.32407379150391 17.38395690917969 14.0454044342041 17.38395690917969 13.50548362731934 C 17.38395690917969 12.9655647277832 16.8614559173584 12.5693244934082 16.21267509460449 12.5693244934082 C 15.55518531799316 12.5693244934082 15.08057594299316 12.99604415893555 15.04574584960938 13.64046478271484 L 13.49999618530273 13.64046478271484 C 13.53047561645508 12.2384033203125 14.56678581237793 11.25000381469727 16.31717491149902 11.25000381469727 Z M 16.10382461547852 17.81615447998047 C 16.62197494506836 17.81615447998047 17.03997421264648 18.20803451538086 17.03997421264648 18.7131233215332 C 17.03997421264648 19.21821403503418 16.62197494506836 19.61008453369141 16.10382461547852 19.61008453369141 C 15.58566474914551 19.61008453369141 15.17201614379883 19.21821403503418 15.17201614379883 18.7131233215332 C 15.17201614379883 18.21238327026367 15.59002494812012 17.81615447998047 16.10382461547852 17.81615447998047 Z" stroke="none" fill="#f5f5f5"/></g></g></svg>