<svg xmlns="http://www.w3.org/2000/svg" width="20.113" height="18.299" viewBox="0 0 20.113 18.299"><g transform="translate(23.19 -45.763)"><g transform="translate(-23.19 46.899)"><g transform="translate(0 0)"><path d="M24.208,97.665h-.754a5.544,5.544,0,0,0-.882.031,1.731,1.731,0,0,0-1.393,1.725v10.747a1.734,1.734,0,0,0,1.715,1.726h9.017a.306.306,0,1,0,0-.613H22.893l-.091,0-.06-.005q.048.007-.007,0a1.4,1.4,0,0,1-.172-.041c-.028-.008-.055-.018-.083-.028-.088-.032.052.025-.033-.014a1.4,1.4,0,0,1-.151-.083c-.024-.015-.048-.031-.071-.048l-.006,0-.043-.037a1.411,1.411,0,0,1-.121-.121s-.062-.076-.024-.026c-.017-.023-.033-.046-.049-.07a1.407,1.407,0,0,1-.086-.149s-.04-.091-.016-.032c-.015-.036-.027-.073-.039-.11a1.4,1.4,0,0,1-.041-.172c-.017-.1.005.06,0-.037,0-.03,0-.061,0-.091,0-.013,0-.026,0-.039V99.38c0-.031,0-.061,0-.091,0,0,.011-.1,0-.038a1.4,1.4,0,0,1,.037-.173c.008-.028.017-.056.026-.083,0,0,.037-.092.012-.034a1.4,1.4,0,0,1,.08-.153c.015-.025.031-.048.047-.072,0,0,.06-.078.021-.029a1.418,1.418,0,0,1,.116-.125c.02-.02.042-.039.063-.057.07-.061-.047.033.028-.022a1.409,1.409,0,0,1,.145-.092c.025-.014.051-.027.077-.039.084-.041-.055.02.033-.014a1.4,1.4,0,0,1,.167-.051c.029-.007.058-.012.087-.018.1-.017-.06.005.037,0,.239-.023.486-.005.725-.005h.711a.306.306,0,1,0,0-.613Z" transform="translate(-21.179 -97.663)"/></g></g><g transform="translate(-9.537 46.902)"><g transform="translate(0 0)"><path d="M645.185,98.388c.492,0,.987-.014,1.479,0,.03,0,.06,0,.09.007-.065-.006.031.006.036.007a1.386,1.386,0,0,1,.17.044c.028.009.055.019.082.03-.059-.023.027.014.032.016a1.4,1.4,0,0,1,.172.1s.078.06.029.021c.022.018.043.037.064.056a1.428,1.428,0,0,1,.118.123c.061.07-.033-.047.022.028.017.023.032.047.048.071a1.421,1.421,0,0,1,.095.177c-.026-.057.01.03.012.034.01.027.018.055.026.083a1.405,1.405,0,0,1,.037.173c-.01-.065,0,.033,0,.038,0,.03,0,.061,0,.091v6.032a.306.306,0,0,0,.613,0V99.509a1.734,1.734,0,0,0-1.715-1.735h-1.418a.306.306,0,1,0,0,.613Z" transform="translate(-644.878 -97.775)"/></g></g><g transform="translate(-16.949 46.902)"><g transform="translate(0 0)"><path d="M306.62,98.39h4.058a.306.306,0,1,0,0-.613H306.62a.306.306,0,0,0,0,.613Z" transform="translate(-306.314 -97.777)"/></g></g><g transform="translate(-18.698 45.763)"><g transform="translate(0 0)"><path d="M226.4,46.069v3a.306.306,0,1,0,.613,0v-3a.306.306,0,1,0-.613,0Z" transform="translate(-226.401 -45.763)"/></g></g><g transform="translate(-23.17 50.819)"><g transform="translate(0 0)"><path d="M22.433,277.322H38.871a.306.306,0,1,0,0-.613H22.433a.306.306,0,1,0,0,.613Z" transform="translate(-22.127 -276.709)"/></g></g><g transform="translate(-19.64 48.796)"><path d="M183.677,184.923h1.863a.306.306,0,0,0,0-.613h-1.863a.306.306,0,0,0,0,.613Z" transform="translate(-183.371 -184.31)"/></g><g transform="translate(-11.245 45.794)"><g transform="translate(0 0)"><path d="M566.856,47.487v3a.306.306,0,0,0,.613,0v-3a.306.306,0,0,0-.613,0Z" transform="translate(-566.856 -47.181)"/></g></g><g transform="translate(-12.187 48.796)"><path d="M524.133,184.923H526a.306.306,0,0,0,0-.613h-1.863a.306.306,0,0,0,0,.613Z" transform="translate(-523.827 -184.31)"/></g><g transform="translate(-20.344 53.965)"><path d="M151.523,421.07h1.2a.306.306,0,1,0,0-.613h-1.2a.306.306,0,1,0,0,.613Z" transform="translate(-151.217 -420.457)"/></g><g transform="translate(-15.603 53.965)"><path d="M368.092,421.07h1.2a.306.306,0,0,0,0-.613h-1.2a.306.306,0,1,0,0,.613Z" transform="translate(-367.786 -420.457)"/></g><g transform="translate(-20.344 57.361)"><g transform="translate(0 0)"><path d="M151.523,576.168h1.2a.306.306,0,1,0,0-.613h-1.2a.306.306,0,1,0,0,.613Z" transform="translate(-151.217 -575.555)"/></g></g><g transform="translate(-15.603 57.361)"><g transform="translate(0 0)"><path d="M368.092,576.168h1.2a.306.306,0,1,0,0-.613h-1.2a.306.306,0,1,0,0,.613Z" transform="translate(-367.786 -575.555)"/></g></g><g transform="translate(-9.6 56.856)"><path d="M642.32,556.889h1.454a1.247,1.247,0,0,0,.455-2.409,2.531,2.531,0,0,0-.966-.088.627.627,0,0,1-.5-.238c-.06-.068.031.046-.021-.028-.016-.023-.03-.048-.044-.073,0,0-.042-.089-.018-.031-.011-.027-.02-.055-.028-.082s-.015-.057-.021-.086c-.019-.093,0,.059,0-.037,0-.03,0-.061,0-.091s0-.04,0-.06c-.005.032,0,.03,0-.007a.619.619,0,0,1,.309-.451c.025-.015.05-.027.076-.04-.056.027.028-.01.034-.011.028-.01.056-.016.085-.023.006,0,.1-.015.036-.008a1.214,1.214,0,0,1,.132,0h1.413a.306.306,0,1,0,0-.613h-1.454a1.247,1.247,0,0,0-.455,2.409,2.533,2.533,0,0,0,.966.088.627.627,0,0,1,.5.238c.06.068-.031-.047.021.028.016.023.03.048.044.073,0,0,.042.089.018.031.011.027.02.055.028.082s.015.057.021.085c.019.093,0-.059,0,.037a.911.911,0,0,1,0,.091c0,.02,0,.04,0,.06.005-.032,0-.03,0,.007a.619.619,0,0,1-.309.451c-.025.015-.05.027-.076.04.056-.027-.028.01-.034.012-.028.009-.056.016-.085.023-.006,0-.1.015-.036.008a1.184,1.184,0,0,1-.132,0H642.32a.306.306,0,1,0,0,.613Z" transform="translate(-642.013 -552.509)"/></g><g transform="translate(-8.394 55.914)"><path d="M697.71,510.735v-.942a.306.306,0,1,0-.613,0v.942a.306.306,0,1,0,.613,0Z" transform="translate(-697.097 -509.487)"/></g><g transform="translate(-8.394 60.624)"><path d="M697.71,725.858v-.942a.306.306,0,0,0-.613,0v.942a.306.306,0,0,0,.613,0Z" transform="translate(-697.097 -724.61)"/></g><g transform="translate(-13.105 54.03)"><path d="M491.292,428.4a4.411,4.411,0,0,1-6.165,4.041,4.518,4.518,0,0,1-1.463-1.038,4.433,4.433,0,0,1-1.17-3.346c.01-.139.02-.22.035-.316.02-.13.047-.259.078-.387s.062-.232.1-.346c.018-.057.039-.113.059-.169.01-.028.021-.056.032-.083,0-.01.048-.116.026-.064a4.708,4.708,0,0,1,.344-.651,3.675,3.675,0,0,1,.409-.546,4.4,4.4,0,0,1,4.253-1.4c.152.033.3.075.448.123.073.024.145.05.217.077l.086.034.012,0,.056.025a4.7,4.7,0,0,1,.669.366,4.465,4.465,0,0,1,1.74,2.257,4.676,4.676,0,0,1,.175.7,3.065,3.065,0,0,1,.041.33c.011.129.015.259.016.389a.306.306,0,0,0,.613,0,5.027,5.027,0,0,0-1-3,5.01,5.01,0,0,0-6.215-1.513,5.032,5.032,0,0,0-2.175,2.044,5.022,5.022,0,0,0,1.416,6.523,5.017,5.017,0,0,0,6.864-.914,5.064,5.064,0,0,0,1.107-3.141.306.306,0,1,0-.613,0Z" transform="translate(-481.877 -423.388)"/></g></g></svg>