<svg xmlns="http://www.w3.org/2000/svg" width="18.364" height="15.517" viewBox="0 0 18.364 15.517"><g transform="translate(-10.875 -20.875)"><path d="M15.116,21a2.567,2.567,0,1,0,2.563,2.571A2.573,2.573,0,0,0,15.116,21Zm0,.518a2.05,2.05,0,1,1-2.046,2.054A2.048,2.048,0,0,1,15.116,21.518ZM25,23.458a2.571,2.571,0,1,0,2.563,2.571A2.573,2.573,0,0,0,25,23.458Zm0,.526a2.05,2.05,0,1,1-2.046,2.046A2.041,2.041,0,0,1,25,23.984ZM15.116,25.86C12.269,25.86,11,28.382,11,31.189v2.353a.259.259,0,0,0,.259.259H24.44a.259.259,0,1,0,0-.518H11.518V31.189c0-2.525,1.024-4.811,3.6-4.811s3.6,2.287,3.6,4.811v.76a.259.259,0,1,0,.518,0v-.76C19.232,28.382,17.963,25.86,15.116,25.86ZM25,28.318c-2.847,0-4.116,2.263-4.116,5.07a.259.259,0,1,0,.518,0c0-2.525,1.024-4.553,3.6-4.553s3.6,2.028,3.6,4.553V35.75H20.105a.259.259,0,1,0,0,.518h8.749a.259.259,0,0,0,.259-.259v-2.62C29.114,30.581,27.845,28.318,25,28.318Z" stroke="#000" stroke-width="0.25"/></g></svg>