<svg xmlns="http://www.w3.org/2000/svg" width="16.989" height="15.918" viewBox="0 0 16.989 15.918"><g transform="translate(-0.1 -0.8)"><g transform="translate(0.1 0.8)"><g transform="translate(0 0)"><g transform="translate(0 0)"><g transform="translate(0 0)"><path d="M8.3,16.6a.423.423,0,0,0,.579,0c.347-.363.83-.842,1.39-1.416,2.7-2.678,6.815-6.715,6.815-9.623A4.8,4.8,0,0,0,12.282.8C10.853.8,9.475,2.057,8.594,3.421,7.64,1.937,6.336.8,4.907.8A4.8,4.8,0,0,0,.1,5.564c0,2.908,4.093,6.945,6.815,9.623C7.475,15.742,7.977,16.22,8.3,16.6ZM8.266,4.282a.4.4,0,0,0,.656,0c.753-1.129,2.008-2.717,3.359-2.717a4.027,4.027,0,0,1,4.035,4c0,2.583-4.112,6.658-6.583,9.088-.425.421-.83.8-1.139,1.129-.309-.325-.714-.708-1.139-1.129C4.984,12.222.872,8.147.872,5.564a4.027,4.027,0,0,1,4.035-4C6.258,1.565,7.513,3.153,8.266,4.282Z" transform="translate(-0.1 -0.8)" fill-rule="evenodd"/></g></g></g></g></g></svg>