<svg id="Youtube" xmlns="http://www.w3.org/2000/svg" width="39.996" height="40" viewBox="0 0 39.996 40">
  <g id="Group_27" data-name="Group 27">
    <path id="Path_39" data-name="Path 39" d="M-3388.142,3893.652a20.018,20.018,0,0,1-20.013,19.991,20,20,0,0,1-19.983-20.018,20.006,20.006,0,0,1,20-19.982A20.019,20.019,0,0,1-3388.142,3893.652Zm-20,8.353h7.369a4.027,4.027,0,0,0,2.867-1.1,4,4,0,0,0,1.294-3.04q0-3.972,0-7.944a3.87,3.87,0,0,0-.029-.541,4.01,4.01,0,0,0-2.177-3.14,4.118,4.118,0,0,0-1.992-.454q-5.861,0-11.722,0-1.5,0-3,0a3.99,3.99,0,0,0-2.538.84,3.98,3.98,0,0,0-1.593,3.288q0,3.981,0,7.961a4.192,4.192,0,0,0,.039.624,3.983,3.983,0,0,0,2.138,3.036,4.062,4.062,0,0,0,1.989.466Z" transform="translate(3428.138 -3873.643)" fill="#010101"/>
    <path id="Path_40" data-name="Path 40" d="M-3179.613,4122.028c.014-2.4.028-4.756.042-7.147l6.769,3.515C-3175.081,4119.61-3177.332,4120.81-3179.613,4122.028Z" transform="translate(3196.843 -4098.203)" fill="#010101"/>
  </g>
</svg>
