<svg xmlns="http://www.w3.org/2000/svg" width="42.64" height="41.876" viewBox="0 0 42.64 41.876">
  <g id="Group_462" data-name="Group 462" transform="translate(-252.335 1457.469)">
    <path id="Path_136" data-name="Path 136" d="M252.335-1409.316l5.274,2.16v14.866h9.543v4.872H252.335Z" transform="translate(0 -31.74)" fill="#7400d7"/>
    <path id="Path_140" data-name="Path 140" d="M252.335-1409.316l5.274,2.16v14.866h9.543v4.872H252.335Z" transform="translate(15.716 -39.598)" fill="#ee4224"/>
    <path id="Path_137" data-name="Path 137" d="M283.4-1401.007v22.2h5.274V-1399Z" transform="translate(-18.858 -36.785)" fill="#ffc516"/>
    <path id="Exclusion_1" data-name="Exclusion 1" d="M21.446,22.1H15.871l-1.306-3.064H6.629L5.525,22.1H0L8.086,0l5.173,2.36L21.446,22.1ZM10.547,7.885l-2.26,6.931h4.872Z" transform="translate(273.529 -1437.792)" fill="#9e9e9e"/>
    <g id="Ellipse_185" data-name="Ellipse 185" transform="translate(259.555 -1457.469)" fill="none" stroke="#ffc516" stroke-width="1">
      <circle cx="7" cy="7" r="7" stroke="none"/>
      <circle cx="7" cy="7" r="6.5" fill="none"/>
    </g>
    <path id="Intersection_1" data-name="Intersection 1" d="M0,9.437V0L1.762.671V9.437Z" transform="translate(268.051 -1436.454)" fill="#010101"/>
  </g>
</svg>
