<svg xmlns="http://www.w3.org/2000/svg" width="82" height="86.007" viewBox="0 0 82 86.007"><defs><style>.a{fill:#ffc516;}</style></defs><g transform="translate(-9 -6.993)"><g transform="translate(0 -952.362)"><path class="a" d="M51.063,7a1,1,0,0,0-.531.25L30.5,25.469H18.188a11.129,11.129,0,0,0-6.375,1.813A5.953,5.953,0,0,0,9,32.094l.031,54.531A5.739,5.739,0,0,0,11.75,91.25,10.774,10.774,0,0,0,17.844,93H77.688a6.292,6.292,0,0,0,6.031-4.75,8.886,8.886,0,0,0,4.844-1.375A5.757,5.757,0,0,0,91,82.031V32.094a7.031,7.031,0,0,0-1.562-4.625,6,6,0,0,0-4.625-2l-10.469-.031-5.75-11.75a.942.942,0,0,0-1.344-.437l-7,3.594-8.312-9.5A1,1,0,0,0,51.063,7Zm.031,2.406,7.313,8.406L25.25,34.875a1.007,1.007,0,0,0-.156.125H23ZM67.25,15.469l9.5,19.5L29.406,35Zm8.063,11.969,9.5.031a3.826,3.826,0,0,1,3.094,1.313A5.04,5.04,0,0,1,89,32.094V51.188H67.625a3.154,3.154,0,0,0-3.031,3.25V64.5a3.183,3.183,0,0,0,3.031,3.281H89v14.25a3.51,3.51,0,0,1-1.562,3.188,7.037,7.037,0,0,1-3.531,1.031V70.406a1,1,0,1,0-2,0V86.625A4.28,4.28,0,0,1,77.688,91H17.844a8.914,8.914,0,0,1-4.969-1.406,3.733,3.733,0,0,1-1.844-2.969v-.031L11,34.969a6.811,6.811,0,0,0,.844.625A9.8,9.8,0,0,0,17.063,37L78.5,36.969a2.875,2.875,0,0,1,2.469,1.281,5.354,5.354,0,0,1,.938,3.094v7a1,1,0,1,0,2,0v-7a7.218,7.218,0,0,0-1.312-4.281,5.022,5.022,0,0,0-3.562-2.031Zm-57.125.031H28.281l-8.25,7.5L20,35H17.063a7.92,7.92,0,0,1-4.156-1.094,3.429,3.429,0,0,1-1.719-2.375,1,1,0,0,0-.062-.281,4.476,4.476,0,0,1,1.844-2.312A9.215,9.215,0,0,1,18.188,27.469ZM67.625,53.188H89V65.781H67.625A1.168,1.168,0,0,1,66.594,64.5V54.438A1.137,1.137,0,0,1,67.625,53.188Zm3.969,3.5a1,1,0,0,0-.875,1.031V61.25a1,1,0,1,0,2,0V57.719a1,1,0,0,0-1.125-1.031Z" transform="translate(0 952.362)"/></g></g></svg>