<svg xmlns="http://www.w3.org/2000/svg" xmlns:xlink="http://www.w3.org/1999/xlink" width="75" height="75" viewBox="0 0 75 75"><defs><clipPath id="a"><rect width="75" height="75" fill="none"/></clipPath></defs><g clip-path="url(#a)"><rect width="75" height="75" fill="none"/><g transform="translate(-16.458 -59.911)"><path d="M61.158,118.852c-1.308-.334-2.009.3-2.464,1.457a2.838,2.838,0,0,1-1.634,1.843,2.506,2.506,0,0,1-2.213-.189c-.48-.287-.943-.6-1.414-.9a1.235,1.235,0,0,0-1.439,0c-.416.269-.83.539-1.251.8a2.5,2.5,0,0,1-3.773-1.083c-.208-.414-.432-.82-.637-1.235a1.177,1.177,0,0,0-1.192-.712,13.533,13.533,0,0,1-2.2.006,2.4,2.4,0,0,1-2.061-2.629c.038-.557.044-1.118.063-1.677a1.075,1.075,0,0,0-.629-1.045c-.521-.278-1.053-.537-1.568-.828a2.467,2.467,0,0,1-.915-3.51c.274-.449.567-.888.856-1.329a1.256,1.256,0,0,0,0-1.518c-.278-.41-.539-.832-.8-1.254a2.435,2.435,0,0,1,.857-3.585c.479-.288.982-.533,1.48-.787a1.191,1.191,0,0,0,.717-1.191,14.218,14.218,0,0,1-.012-2.2A2.413,2.413,0,0,1,43.6,95.223c.541.045,1.086.04,1.628.053a1.118,1.118,0,0,0,1.077-.665q.344-.659.681-1.32a2.484,2.484,0,0,1,3.714-1.06c.41.249.821.5,1.214.771a1.287,1.287,0,0,0,1.6,0q.6-.4,1.209-.776a2.476,2.476,0,0,1,3.643.944c.271.471.509.96.754,1.444a1.123,1.123,0,0,0,1.116.672,16.649,16.649,0,0,1,2.246,0A2.391,2.391,0,0,1,64.558,97.9c-.038.543-.037,1.087-.062,1.629a1.115,1.115,0,0,0,.671,1.117c.44.227.879.457,1.32.681A2.494,2.494,0,0,1,67.575,105c-.27.452-.569.887-.854,1.33a1.232,1.232,0,0,0,0,1.438c.26.4.5.823.78,1.207A2.547,2.547,0,0,1,66.44,112.8c-.454.2-.884.445-1.321.679a1.085,1.085,0,0,0-.625,1.047,17.86,17.86,0,0,1,.008,2.247,2.4,2.4,0,0,1-2.581,2.116Zm-8.473-23.79a11.967,11.967,0,1,0,8.571,3.559,11.993,11.993,0,0,0-8.571-3.559Z" transform="translate(1.854 3.696)" fill="none"/><path d="M44.942,106.1l5.042,5.042,10.135-10.135" transform="translate(2.781 4.837)" fill="none" stroke="#ffc516" stroke-linecap="round" stroke-miterlimit="10" stroke-width="3"/><path d="M0,0H62.746V37.825a4.607,4.607,0,0,1-4.607,4.607H4.607A4.607,4.607,0,0,1,0,37.825Z" transform="translate(22.458 89.539)" fill="none" stroke="#ffc516" stroke-miterlimit="10" stroke-width="4"/><line y1="26.645" x2="56.465" transform="translate(22.458 61.911)" fill="none" stroke="#ffc516" stroke-linecap="round" stroke-miterlimit="10" stroke-width="4"/></g></g></svg>