<svg xmlns="http://www.w3.org/2000/svg" width="76.5" height="61.509" viewBox="0 0 76.5 61.509"><defs><style>.a{fill:#ffc516;stroke:#ffc516;stroke-width:1.5px;}</style></defs><g transform="translate(-9.25 -24.25)"><path class="a" d="M74.294,47.426a.937.937,0,0,0-.5-1.534l-6.723-1.511L63.56,38.457a.975.975,0,0,0-1.613,0l-3.514,5.925L51.71,45.893a.937.937,0,0,0-.5,1.534L55.761,52.6l-.639,6.859a.938.938,0,0,0,1.3.948l6.326-2.727,6.327,2.727a.938.938,0,0,0,1.3-.948l-.64-6.859Zm-6.225,4.24a.937.937,0,0,0-.23.706l.531,5.688L63.124,55.8a.932.932,0,0,0-.742,0L57.136,58.06l.53-5.688a.937.937,0,0,0-.23-.706l-3.773-4.291,5.575-1.252a.937.937,0,0,0,.6-.437l2.914-4.914,2.914,4.914a.937.937,0,0,0,.6.437l5.575,1.252Z" transform="translate(-2.561 -1.752)"/><path class="a" d="M85,25.938A.937.937,0,0,0,84.063,25H10.937a.937.937,0,0,0-.937.938V68.706a.937.937,0,0,0,.937.938H51V84.058a.937.937,0,0,0,1.33.851l7.861-3.628,7.861,3.628a.937.937,0,0,0,1.33-.851V69.644h14.68A.937.937,0,0,0,85,68.706Zm-24.808,38.9A16.256,16.256,0,1,1,76.448,48.586,16.274,16.274,0,0,1,60.192,64.842Zm-7.316.32a17.992,17.992,0,0,0,6.378,1.508V79.648l-6.378,2.945Zm8.253,14.487V66.669a17.992,17.992,0,0,0,6.378-1.508V82.593Zm22-11.88H69.383V64.187a18.131,18.131,0,1,0-18.382,0v3.581H11.875V26.875h71.25Z"/><path class="a" d="M20.761,36.69H37.356a.938.938,0,1,0,0-1.875H20.761a.938.938,0,0,0,0,1.875Z" transform="translate(-0.614 -1.551)"/><path class="a" d="M20.761,49.127H37.356a.938.938,0,1,0,0-1.875H20.761a.938.938,0,0,0,0,1.875Z" transform="translate(-0.614 -2.328)"/><path class="a" d="M20.761,61.344H37.356a.937.937,0,1,0,0-1.875H20.761a.937.937,0,1,0,0,1.875Z" transform="translate(-0.614 -3.092)"/></g></svg>