<svg xmlns="http://www.w3.org/2000/svg" width="75" height="75" viewBox="0 0 75 75">
  <defs>
    <style>
      .cls-1 {
        fill: #fff;
        opacity: 0;
      }

      .cls-2 {
        fill: #ffc516;
      }
    </style>
  </defs>
  <g id="Group_8" data-name="Group 8" transform="translate(-185 -302)">
    <rect id="Rectangle_1" data-name="Rectangle 1" class="cls-1" width="75" height="75" transform="translate(185 302)"/>
    <g id="Group_7" data-name="Group 7" transform="translate(184.42 301.63)">
      <path id="Path_8" data-name="Path 8" class="cls-2" d="M38.484,70.883A8.5,8.5,0,0,1,32.4,68.312l-1.406-1.406a13.285,13.285,0,0,0-9.36-3.857H.58V12.17H11.346v4.1H4.557V58.952H21.52a17.376,17.376,0,0,1,12.162,5.022l1.406,1.406a4.556,4.556,0,0,0,3.274,1.286,5.023,5.023,0,0,0,3.274-1.286l3.154-3.164a11.159,11.159,0,0,1,7.954-3.284h5.614v4.1H52.745A7.028,7.028,0,0,0,47.6,65.139l-3.164,3.154A8.034,8.034,0,0,1,38.484,70.883Z" transform="translate(0 0.034)"/>
      <path id="Path_9" data-name="Path 9" class="cls-2" d="M35.753,60.512l-2.34-2.34a13.281,13.281,0,0,0-9.35-3.857H9.55V4.37H29.315A10.393,10.393,0,0,1,37.742,8.7,10.284,10.284,0,0,1,46.158,4.48H66.245V24.135H62.227V8.578H46.158a6.238,6.238,0,0,0-6.321,6.152c0,.105,0,.211,0,.316V18.21H35.753V14.9A6.348,6.348,0,0,0,29.5,8.458c-.06,0-.122,0-.182,0H13.648V50.2H24.063a17.336,17.336,0,0,1,12.152,5.022l2.34,2.34Z" transform="translate(0.039 0)"/>
      <path id="Path_10" data-name="Path 10" class="cls-2" d="M74.465,48.426H70.488V16.378H63.94V12.17H74.465Z" transform="translate(0.275 0.034)"/>
      <path id="Path_11" data-name="Path 11" class="cls-2" d="M46.3,54.6A16.9,16.9,0,1,1,63.266,37.743,16.9,16.9,0,0,1,46.3,54.6Zm0-29.718A12.815,12.815,0,1,0,59.178,37.743,12.816,12.816,0,0,0,46.3,24.878Z" transform="translate(0.125 0.071)"/>
      <path id="Path_12" data-name="Path 12" class="cls-2" d="M69.952,64.19h-.944L53.22,48.633l3.043-3.043,14.5,14.392h1.175l.11,2.109v2.1Z" transform="translate(0.228 0.179)"/>
    </g>
  </g>
</svg>
