<svg xmlns="http://www.w3.org/2000/svg" width="75" height="58.125" viewBox="0 0 75 58.125"><defs><style>.a{fill:#ffc516;}</style></defs><path class="a" d="M10,971.362v45H85v-45H10Zm3.75,3.75h67.5v37.5H13.75Zm26.1,5.566a1.955,1.955,0,0,0-1.7,1.934v22.5a1.936,1.936,0,0,0,2.754,1.641l18.75-11.25a2.06,2.06,0,0,0,0-3.311l-18.75-11.25A1.8,1.8,0,0,0,39.854,980.678Zm1.992,5.244,13.213,7.939-13.213,7.91Zm-25.283,34.189a4.688,4.688,0,1,0,4.277,6.563H79.375a1.875,1.875,0,0,0,0-3.75H20.84A4.677,4.677,0,0,0,16.563,1020.112Z" transform="translate(-10 -971.362)"/></svg>