<svg xmlns="http://www.w3.org/2000/svg" width="18" height="18" viewBox="0 0 18 18">
  <g id="card_empty_18" data-name="card empty 18" transform="translate(1840 -5730)">
    <rect id="Rectangle_3457" data-name="Rectangle 3457" width="18" height="18" transform="translate(-1840 5730)" fill="#fff" opacity="0"/>
    <g id="Group_5075" data-name="Group 5075" transform="translate(-1894 5452.999)">
      <path id="Subtraction_4" data-name="Subtraction 4" d="M16,14H2a2,2,0,0,1-2-2V2A2,2,0,0,1,2,0H16a2,2,0,0,1,2,2V12A2,2,0,0,1,16,14ZM.473,7v4.533a2,2,0,0,0,2,2H15.527a2,2,0,0,0,2-2V7Zm2-6.533a2,2,0,0,0-2,2v.8H17.527v-.8a2,2,0,0,0-2-2Z" transform="translate(54 279)"/>
    </g>
  </g>
</svg>
