<svg xmlns="http://www.w3.org/2000/svg" width="40" height="40" viewBox="0 0 40 40">
  <g id="facebook" transform="translate(0 -0.255)">
    <path id="Subtraction_1" data-name="Subtraction 1" d="M20,40A20.005,20.005,0,0,1,12.215,1.572a20.005,20.005,0,0,1,15.57,36.857A19.874,19.874,0,0,1,20,40ZM13.481,16.188v4.595h2.572V33.857h5.407V20.783h3.569l.472-4.59H21.459v-2.7a1.232,1.232,0,0,1,.395-1.007,1.2,1.2,0,0,1,.752-.246h2.906V7.776l-4.005-.017c-4.022,0-5.455,2.818-5.455,5.456v2.973Z" transform="translate(0 0.255)" fill="#010101"/>
  </g>
</svg>
