<svg xmlns="http://www.w3.org/2000/svg" width="40" height="40" viewBox="0 0 40 40">
  <g id="Instagram" transform="translate(0.374 -0.255)">
    <path id="Subtraction_2" data-name="Subtraction 2" d="M20,40A20,20,0,0,1,5.858,5.858,20,20,0,0,1,34.143,34.142,19.869,19.869,0,0,1,20,40ZM19.636,8.333c-1.64,0-3.1,0-4.477.01A6.58,6.58,0,0,0,9.2,11.778a6.385,6.385,0,0,0-.849,3.278q0,1.486-.007,2.973c-.008,2.56-.017,5.2.018,7.805A6.507,6.507,0,0,0,12.4,32a6.211,6.211,0,0,0,2.689.546q1.611,0,3.222.007h.014q1.606.005,3.212.007c1.521,0,2.922-.008,4.284-.026A6.459,6.459,0,0,0,32,28.489a6.083,6.083,0,0,0,.377-1.3c.041-.192.083-.392.133-.584a1.7,1.7,0,0,0,.035-.18c0-.025.008-.049.012-.075V14.534c-.02-.113-.037-.227-.055-.341a6.509,6.509,0,0,0-.143-.748,6.591,6.591,0,0,0-5.247-4.979,6.5,6.5,0,0,0-1.362-.123h-.011C23.743,8.338,21.679,8.333,19.636,8.333Zm.529,22.074q-2.513,0-5.026-.005a4.494,4.494,0,0,1-4.392-3.1,5.125,5.125,0,0,1-.243-1.578c-.018-3.325-.014-6.7-.01-9.969v-.6a4.454,4.454,0,0,1,3.093-4.419,5.159,5.159,0,0,1,1.6-.245c1.739-.01,3.515-.015,5.428-.015q2.558,0,5.113.006a4.528,4.528,0,0,1,4.437,3.083,4.749,4.749,0,0,1,.244,1.628q0,1.64,0,3.281v7.236A4.559,4.559,0,0,1,25.777,30.4Q22.971,30.406,20.165,30.406Zm.3-16.2h-.019a6.219,6.219,0,0,0-4.422,1.862,6.156,6.156,0,0,0-1.808,4.391,6.266,6.266,0,0,0,6.236,6.225h.009a6.239,6.239,0,0,0,0-12.479Zm6.479-1.811a1.568,1.568,0,0,0-.047,3.136h.056a1.578,1.578,0,0,0,1.578-1.545,1.511,1.511,0,0,0-.422-1.087,1.589,1.589,0,0,0-1.119-.5ZM20.455,24.532H20.45a4.077,4.077,0,1,1,.006,0Z" transform="translate(-0.374 0.255)" fill="#010101"/>
  </g>
</svg>
