<svg xmlns="http://www.w3.org/2000/svg" width="17.328" height="15.162" viewBox="0 0 17.328 15.162"><g><path d="M 17.12788009643555 14.96189785003662 L 6.697960376739502 14.96189785003662 L 6.697960376739502 13.19590759277344 L 15.16190052032471 13.19590759277344 L 15.36190032958984 13.19590759277344 L 15.36190032958984 12.9959077835083 L 15.36190032958984 2.165987968444824 L 15.36190032958984 1.965987920761108 L 15.16190052032471 1.965987920761108 L 6.697960376739502 1.965987920761108 L 6.697960376739502 0.1999978721141815 L 17.12788009643555 0.1999978721141815 L 17.12788009643555 14.96189785003662 Z M 4.131970405578613 10.42992782592773 L 0.3333336114883423 7.580947875976563 L 4.131970405578613 4.731967926025391 L 4.131970405578613 6.497957706451416 L 4.131970405578613 6.697957992553711 L 4.33197021484375 6.697957992553711 L 12.79591083526611 6.697957992553711 L 12.79591083526611 8.463937759399414 L 4.33197021484375 8.463937759399414 L 4.131970405578613 8.463937759399414 L 4.131970405578613 8.663937568664551 L 4.131970405578613 10.42992782592773 Z" stroke="none"/><path d="M 6.897950172424316 0.3999977111816406 L 6.897950172424316 1.765988349914551 L 15.16190052032471 1.765988349914551 L 15.56190013885498 1.765988349914551 L 15.56190013885498 2.165987968444824 L 15.56190013885498 12.9959077835083 L 15.56190013885498 13.39590835571289 L 15.16190052032471 13.39590835571289 L 6.897950172424316 13.39590835571289 L 6.897950172424316 14.76189804077148 L 16.92788124084473 14.76189804077148 L 16.92788124084473 0.3999977111816406 L 6.897950172424316 0.3999977111816406 M 3.931970596313477 5.13196849822998 L 0.6666660308837891 7.580947875976563 L 3.931970596313477 10.02992820739746 L 3.931970596313477 8.663938522338867 L 3.931970596313477 8.263937950134277 L 4.33197021484375 8.263937950134277 L 12.59591102600098 8.263937950134277 L 12.59591102600098 6.897957801818848 L 4.33197021484375 6.897957801818848 L 3.931970596313477 6.897957801818848 L 3.931970596313477 6.497958183288574 L 3.931970596313477 5.13196849822998 M 6.497950553894043 -1.9073486328125e-06 L 17.327880859375 -1.9073486328125e-06 L 17.327880859375 15.16189765930176 L 6.497950553894043 15.16189765930176 L 6.497950553894043 12.9959077835083 L 15.16190052032471 12.9959077835083 L 15.16190052032471 2.165987968444824 L 6.497950553894043 2.165987968444824 L 6.497950553894043 -1.9073486328125e-06 Z M 4.33197021484375 4.331968307495117 L 4.33197021484375 6.497958183288574 L 12.99591064453125 6.497958183288574 L 12.99591064453125 8.663938522338867 L 4.33197021484375 8.663938522338867 L 4.33197021484375 10.82992744445801 L 0 7.580947875976563 L 4.33197021484375 4.331968307495117 Z" stroke="none" fill="#f5f5f5"/></g></svg>