<svg xmlns="http://www.w3.org/2000/svg" width="1018.543" height="410.695" viewBox="0 0 1018.543 410.695">
  <g id="_404error" data-name="404error" transform="translate(-130.728 -148.766)">
    <path id="Path_18890" data-name="Path 18890" d="M192.645-111.966h29.123V-60.8H192.645V0H126.331V-60.8H15.545L11.61-101.34,126.331-285.917v-.59h66.314Zm-117.87,0h51.556v-88.156l-4.132,6.69Zm375.058-5.116q0,58.049-26.073,89.534t-73.5,31.484q-47.817,0-73.988-31.681T250.1-117.083v-52.343q0-58.049,26.073-89.534t73.693-31.484q47.62,0,73.792,31.681t26.171,89.534Zm-66.314-60.8q0-30.894-8.068-46.144t-25.581-15.25q-17.12,0-24.892,14.168t-8.363,42.9v73.2q0,32.075,8.068,46.931t25.581,14.857q16.923,0,24.991-14.463t8.265-45.357ZM659.4-111.966h29.123V-60.8H659.4V0H593.087V-60.8H482.3l-3.936-40.536L593.087-285.917v-.59H659.4Zm-117.87,0h51.556v-88.156l-4.132,6.69Z" transform="translate(251.423 521.625)" fill="#e5e4e0"/>
    <g id="Plant" transform="translate(-46.083 -208.857)">
      <g id="Group_5495" data-name="Group 5495">
        <g id="Group_5481" data-name="Group 5481">
          <g id="Group_5480" data-name="Group 5480">
            <path id="Path_17891" data-name="Path 17891" d="M297.245,685.15a15.228,15.228,0,0,0-7.891,8.937,26.872,26.872,0,0,0-1.047,12.107c.89,7.856,5.354,15.787,10.161,22.066,6.615-5.774,8.137-15.847,8.589-21.005.713-8.152-2.948-23.32-9.813-22.1" fill="#ffb700"/>
          </g>
        </g>
        <g id="Group_5483" data-name="Group 5483">
          <g id="Group_5482" data-name="Group 5482">
            <path id="Path_17892" data-name="Path 17892" d="M290.777,741.226a13,13,0,0,0-4.2-12.349,17.255,17.255,0,0,0-12.722-3.973c-2.105.161-4.379.775-5.584,2.508a5.554,5.554,0,0,0-.086,5.629,11.25,11.25,0,0,0,4.167,4.1c5.732,3.6,11.94,6.026,18.422,4.08" fill="#ffb700"/>
          </g>
        </g>
        <g id="Group_5486" data-name="Group 5486">
          <g id="Group_5485" data-name="Group 5485">
            <g id="Group_5484" data-name="Group 5484">
              <path id="Path_17893" data-name="Path 17893" d="M299.261,765.317a9.34,9.34,0,0,0-.237-1.612c-.207-1.135-.476-2.6-.8-4.364-.732-3.646-1.671-8.869-4.5-13.938a27.918,27.918,0,0,0-10-10.629,19.013,19.013,0,0,0-4.079-1.8,11.975,11.975,0,0,0-1.175-.3,1.2,1.2,0,0,0-.42-.058,29.692,29.692,0,0,1,5.464,2.508,28.825,28.825,0,0,1,9.712,10.56C296,750.649,297,755.8,297.832,759.426c.4,1.828.727,3.309.98,4.327A8.4,8.4,0,0,0,299.261,765.317Z" fill="#1c262a"/>
            </g>
          </g>
        </g>
        <g id="Group_5489" data-name="Group 5489">
          <g id="Group_5488" data-name="Group 5488">
            <g id="Group_5487" data-name="Group 5487">
              <path id="Path_17894" data-name="Path 17894" d="M299.013,696.947a3.178,3.178,0,0,0-.081.7c-.032.523-.071,1.194-.12,2.024-.1,1.759-.2,4.306-.3,7.453-.2,6.295-.363,15-.323,24.608s.279,18.314.536,24.608c.129,3.146.254,5.692.363,7.45.056.83.1,1.5.137,2.023.038.463-.02,0,0,0-.087-.7.117.459.115,0q-.01-.785-.029-2.028c-.045-1.831-.107-4.36-.182-7.453-.155-6.293-.325-14.989-.368-24.6s.055-18.3.155-24.6c.049-3.1.088-5.623.117-7.456.006-.832.01-1.5.013-2.028A3.426,3.426,0,0,0,299.013,696.947Z" fill="#1c262a"/>
            </g>
          </g>
        </g>
        <g id="Group_5491" data-name="Group 5491">
          <g id="Group_5490" data-name="Group 5490">
            <path id="Path_17895" data-name="Path 17895" d="M302.22,746.009a30.382,30.382,0,0,1,16.6-22.258c2.211-1.058,5.1-1.75,6.916-.107s1.412,4.6.522,6.891a25.961,25.961,0,0,1-23.873,16.12" fill="#ffb700"/>
          </g>
        </g>
        <g id="Group_5494" data-name="Group 5494">
          <g id="Group_5493" data-name="Group 5493">
            <g id="Group_5492" data-name="Group 5492">
              <path id="Path_17896" data-name="Path 17896" d="M317.744,731.2a7.812,7.812,0,0,0-1.4.611,15.247,15.247,0,0,0-1.586.846c-.594.372-1.312.734-2.019,1.267a26.772,26.772,0,0,0-2.31,1.739,29.758,29.758,0,0,0-2.46,2.234,33.79,33.79,0,0,0-4.672,6,33.078,33.078,0,0,0-3.079,6.96,28.725,28.725,0,0,0-.777,3.232,24.3,24.3,0,0,0-.4,2.866,22.285,22.285,0,0,0-.11,2.381,13.52,13.52,0,0,0,.054,1.8,7.706,7.706,0,0,0,.169,1.522c.129,0-.1-2.185.29-5.66a26.039,26.039,0,0,1,.46-2.815,30.108,30.108,0,0,1,.815-3.168,34.462,34.462,0,0,1,3.065-6.821,35.188,35.188,0,0,1,4.559-5.929,31.391,31.391,0,0,1,2.388-2.239,28.463,28.463,0,0,1,2.238-1.771C315.809,732.221,317.8,731.314,317.744,731.2Z" fill="#1c262a"/>
            </g>
          </g>
        </g>
      </g>
    </g>
    <g id="Group_5500" data-name="Group 5500" transform="translate(338.751 -209.857)">
      <path id="Path_17897" data-name="Path 17897" d="M589.282,401.569s-.57-9.226-.5-13.221,9.937-15.455,13.288-15.455,2.234,10.562,1.676,13.846S604.863,393,603,395.61s-5.525,8.132-5.525,8.132Z" fill="#f58c5c"/>
      <path id="Path_17898" data-name="Path 17898" d="M648.16,416.777l-15.839,15.184a48.581,48.581,0,0,1-9.042-10.171c-.369-.544-.723-1.087-1.061-1.624a76.952,76.952,0,0,1-4.785-9.028q-.274-.6-.51-1.132c-.875-1.911,8.792-8.03,14.253-11.906a21.011,21.011,0,0,0,3.441-2.842,15.456,15.456,0,0,0-.018,4.307,17.688,17.688,0,0,0,4.775,8.943C644.905,414.579,648.16,416.777,648.16,416.777Z" fill="#faa178"/>
      <path id="Path_17899" data-name="Path 17899" d="M636.181,399.933s-3.139,16.688-12.9,21.857c-.369-.544-.723-1.087-1.061-1.624a77.115,77.115,0,0,1-4.786-9.028c1.188-2.469,9.325-7.664,14.163-11.094C634.326,399.988,636.181,399.933,636.181,399.933Z" fill="#f58c5c"/>
      <path id="Path_17900" data-name="Path 17900" d="M616.771,418.462s23.706-7.915,18.55-22.6-5.569-25.6-20.922-21.168-16.311,11.064-15.783,16.385S610.476,420.143,616.771,418.462Z" fill="#faa178"/>
      <path id="Path_17901" data-name="Path 17901" d="M637.141,400.3s-2.412-1.6,2.893-9.981c2.735-4.321,5.173-8.384,1.3-15.414s-3.63-12.694-14.309-12.692-11.755-4.946-17.2-3.221-10.275,9.719-14.932,11.219-8.19,25.906,2.468,25.232c0,0,4.007-1.994,5.8-5.218s10.879-10.569,13.768-8.175S631.409,400.408,637.141,400.3Z" fill="#030504"/>
      <path id="Path_17902" data-name="Path 17902" d="M631.454,428.981c-8.071-.479-22.749,6.85-35.992,15.46l3.049-41.537c-2.654-4.6-10.1-2.918-10.1-2.918s-4.4,3.858-12.673,27.486a149.944,149.944,0,0,0-8.066,41.553c.3,10.953,9.2,11.556,9.2,11.556,28.418-4.8,75.176-25.73,75.176-25.73C657.971,447.517,648.574,430,631.454,428.981Z" fill="#ffb600"/>
      <path id="Path_17903" data-name="Path 17903" d="M641.254,761.295c-.213,2.339-.723,4.316-1.776,4.815a3.689,3.689,0,0,1-.9.231h-35.6c-.953-.029-1.494-.048-1.494-.048s.09-4.4,6.141-5.251c4.89-.685,12.8-3.017,16.685-8.085a11.014,11.014,0,0,0,1.992-4.078c1.959-7.947,14.777,2.756,14.777,2.756s.146,1.385.235,3.307A47.437,47.437,0,0,1,641.254,761.295Z" fill="#1f313d"/>
      <path id="Path_17904" data-name="Path 17904" d="M674.631,766.341H635.07a9.057,9.057,0,0,1,6.183-5.046,10.73,10.73,0,0,1,1.265-.253c4.265-.6,10.824-2.447,15.01-6.271a11.775,11.775,0,0,0,3.668-5.892c1.958-7.947,14.777,2.756,14.777,2.756s.134,1.27.232,3.073C676.414,758.61,676.462,765.008,674.631,766.341Z" fill="#1f313d"/>
      <path id="Path_17905" data-name="Path 17905" d="M657.833,550.984s-.03,1.436-.087,4.018c-.359,16.647-1.781,81.012-3.131,116.9-.056,1.307-.1,2.569-.151,3.8-.026.648-.052,1.3-.078,1.946a388.941,388.941,0,0,1-5.541,47.921c-3.031,17.326-6.111,29.125-6.111,29.125-11.558,2.341-19.048-2.054-19.048-2.054s-3.117-26.889-4.3-43.163c-.39-5.281-2.293-23.3-4.681-45.218-1.852-16.95-3.99-36.235-5.956-53.773-.1-.935-.2-1.868-.311-2.79-3.171-28.355-5.8-51.45-5.8-51.45l20.436-1.947Z" fill="#292332"/>
      <path id="Path_17906" data-name="Path 17906" d="M648.845,725.564,614.7,664.253c-1.852-16.951-3.991-36.235-5.956-53.773-.1-.935-.2-1.868-.312-2.79-3.171-28.355-5.8-51.45-5.8-51.45l20.436-1.947L657.74,555Z" fill="#1a171f"/>
      <path id="Path_17907" data-name="Path 17907" d="M606.417,556.393s19.1,94.429,34.668,140,15.764,58.239,15.764,58.239,14.283,3.1,20.575-.5c0,0,3.6-86.4-5.823-109.342-6.23-15.177-11-47.478-9.376-59.111s3.131-34.967,3.131-34.967Z" fill="#292332"/>
      <path id="Path_17908" data-name="Path 17908" d="M667.865,548.258c-1.072,5.777-3.634,10.379-7.593,13.184-4.514,3.2-11.631,4.35-19.467,4.231a106.57,106.57,0,0,1-27.376-4.462,63.815,63.815,0,0,1-10.834-4.167c-12.1-6.309-10.384-14.707-10.093-46.136.293-32.077,20.037-73.542,23.593-80.484,6.328-12.357,33.18-8.293,33.18-8.293,5.887,5.4,11.042,13.239,14.554,25.771,1.422,5.072,2.253,12.167,2.729,20.137,1.453,24.349-.424,56.821.995,64.4A43.5,43.5,0,0,1,667.865,548.258Z" fill="#ffd04e"/>
      <path id="Path_17909" data-name="Path 17909" d="M645.767,409.881s4.393,10.4,3.506,12.25c0,0-24.124,2.276-33.943,9.271,0,0,3.23-10.1,7.156-12.607S645.767,409.881,645.767,409.881Z" fill="#ffb600"/>
      <path id="Path_17910" data-name="Path 17910" d="M667.87,548.258c-49.964-19.016-21.437-89.333-21.437-89.333,6.991.5,13.84,3.892,20.13,9.113,1.453,24.349-.424,56.821.994,64.4A43.485,43.485,0,0,1,667.87,548.258Z" fill="#ffb600"/>
      <path id="Path_17911" data-name="Path 17911" d="M650.979,519.527s-2.738,4.742-5.372,3.625-7.951-2.3-11.9.248-9.91,9.415-6.187,11.091,10.8-2.773,12.476-3.518,4.593.745,7.821-.869a32.516,32.516,0,0,0,6.58-4.841Z" fill="#faa178"/>
      <path id="Path_17912" data-name="Path 17912" d="M706.442,477.53c-18.594-22.021-61.421-50.715-61.421-50.715-9.327-1.363-19.628,15.64-11.793,30.9,4.53,8.82,23.9,19.337,40.6,25.967L646.676,520.81c-2.134,7.893,10.068,5.794,10.068,5.794S666.9,523.6,685.3,508.457a66.75,66.75,0,0,0,18.181-22.816A22.373,22.373,0,0,0,706.442,477.53Z" fill="#ffd04e"/>
    </g>
    <path id="Path_18891" data-name="Path 18891" d="M2.928,0V-34.08H17.616a10.354,10.354,0,0,1,4.608,1.032,11.961,11.961,0,0,1,3.624,2.688,12.553,12.553,0,0,1,2.376,3.792,11.375,11.375,0,0,1,.864,4.3,12.209,12.209,0,0,1-.816,4.392,12.3,12.3,0,0,1-2.28,3.792,10.856,10.856,0,0,1-3.552,2.64,10.617,10.617,0,0,1-4.584.984H12.288V0Zm9.36-18.624h4.944a2.191,2.191,0,0,0,1.608-.792,4.193,4.193,0,0,0,.744-2.856,3.774,3.774,0,0,0-.864-2.88,2.619,2.619,0,0,0-1.728-.768h-4.7ZM46.848-34.08h8.544L67.2,0H57.7L55.632-6.672H46.56L44.544,0H34.992Zm7.3,21.168L51.12-23.472l-3.168,10.56ZM99.456-2.832A12.661,12.661,0,0,1,91.056.24,17.328,17.328,0,0,1,84.72-.936a15.141,15.141,0,0,1-5.28-3.432,16.672,16.672,0,0,1-3.6-5.52,19.4,19.4,0,0,1-1.344-7.44,16.632,16.632,0,0,1,1.344-6.7,16.62,16.62,0,0,1,3.7-5.376A17.458,17.458,0,0,1,85.08-33a17.846,17.846,0,0,1,6.888-1.32,18.965,18.965,0,0,1,4.416.5,15.72,15.72,0,0,1,3.912,1.488,15.411,15.411,0,0,1,3.24,2.352,11.923,11.923,0,0,1,2.352,3.1l-6.96,5.328a7.847,7.847,0,0,0-3.024-3.24,8.1,8.1,0,0,0-4.272-1.224,6.973,6.973,0,0,0-3.072.672,7.181,7.181,0,0,0-2.4,1.872,8.971,8.971,0,0,0-1.584,2.856A10.965,10.965,0,0,0,84-16.992a10.907,10.907,0,0,0,.576,3.648,8.485,8.485,0,0,0,1.608,2.808,7.157,7.157,0,0,0,2.472,1.824,7.751,7.751,0,0,0,3.216.648,9.569,9.569,0,0,0,7.2-3.36h-5.9v-6.72h14.016V0H99.456Zm44.3-5.328V0H119.472V-34.08h23.856v8.16h-14.5v4.8h12.384v7.584H128.832V-8.16Zm39.888-8.592V0h-9.36V-34.08h7.3l13.68,17.328V-34.08h9.36V0h-7.44ZM233.52.288A16.393,16.393,0,0,1,226.464-1.2a17.457,17.457,0,0,1-5.424-3.912,17.725,17.725,0,0,1-3.5-5.544,17.169,17.169,0,0,1-1.248-6.432,16.733,16.733,0,0,1,1.3-6.48,17.206,17.206,0,0,1,3.624-5.5,17.67,17.67,0,0,1,5.52-3.792,17.029,17.029,0,0,1,6.984-1.416,16.393,16.393,0,0,1,7.056,1.488,17.269,17.269,0,0,1,5.424,3.936,17.661,17.661,0,0,1,3.48,5.568A17.34,17.34,0,0,1,250.9-16.9a16.557,16.557,0,0,1-1.3,6.456A17.484,17.484,0,0,1,246-4.968a17.708,17.708,0,0,1-5.5,3.816A16.786,16.786,0,0,1,233.52.288Zm-7.728-17.28a11.6,11.6,0,0,0,.48,3.336,8.732,8.732,0,0,0,1.44,2.856,7.274,7.274,0,0,0,2.424,2.016,7.4,7.4,0,0,0,3.48.768,7.354,7.354,0,0,0,3.5-.792,7.1,7.1,0,0,0,2.424-2.064,8.883,8.883,0,0,0,1.392-2.9,12.252,12.252,0,0,0,.456-3.312,11.6,11.6,0,0,0-.48-3.336,8.219,8.219,0,0,0-1.464-2.832A7.393,7.393,0,0,0,237-25.224a7.482,7.482,0,0,0-3.432-.744,7.4,7.4,0,0,0-3.48.768,7.155,7.155,0,0,0-2.424,2.04,8.649,8.649,0,0,0-1.416,2.88A11.994,11.994,0,0,0,225.792-16.992Zm62.784-8.928h-9.792V0h-9.36V-25.92h-9.84v-8.16h28.992ZM316.8,0V-34.08h23.376v8.16H326.16v5.664h11.424v7.584H326.16V0Zm49.632.288A16.393,16.393,0,0,1,359.376-1.2a17.457,17.457,0,0,1-5.424-3.912,17.725,17.725,0,0,1-3.5-5.544,17.169,17.169,0,0,1-1.248-6.432,16.733,16.733,0,0,1,1.3-6.48,17.207,17.207,0,0,1,3.624-5.5,17.669,17.669,0,0,1,5.52-3.792,17.029,17.029,0,0,1,6.984-1.416,16.393,16.393,0,0,1,7.056,1.488,17.269,17.269,0,0,1,5.424,3.936,17.661,17.661,0,0,1,3.48,5.568,17.34,17.34,0,0,1,1.224,6.384,16.557,16.557,0,0,1-1.3,6.456,17.485,17.485,0,0,1-3.6,5.472,17.708,17.708,0,0,1-5.5,3.816A16.786,16.786,0,0,1,366.432.288ZM358.7-16.992a11.6,11.6,0,0,0,.48,3.336,8.731,8.731,0,0,0,1.44,2.856,7.274,7.274,0,0,0,2.424,2.016,7.4,7.4,0,0,0,3.48.768,7.354,7.354,0,0,0,3.5-.792,7.1,7.1,0,0,0,2.424-2.064,8.883,8.883,0,0,0,1.392-2.9,12.252,12.252,0,0,0,.456-3.312,11.6,11.6,0,0,0-.48-3.336,8.218,8.218,0,0,0-1.464-2.832,7.393,7.393,0,0,0-2.448-1.968,7.482,7.482,0,0,0-3.432-.744A7.4,7.4,0,0,0,363-25.2a7.155,7.155,0,0,0-2.424,2.04,8.65,8.65,0,0,0-1.416,2.88A12,12,0,0,0,358.7-16.992Zm51.648,8.976a5.149,5.149,0,0,0,2.784-.72,5.733,5.733,0,0,0,1.872-1.9,8.721,8.721,0,0,0,1.056-2.712,15.013,15.013,0,0,0,.336-3.216V-34.08h9.36v17.52a23.425,23.425,0,0,1-.912,6.648,14.433,14.433,0,0,1-2.832,5.352,13.393,13.393,0,0,1-4.824,3.552,16.669,16.669,0,0,1-6.84,1.3,16.279,16.279,0,0,1-6.984-1.368,13.4,13.4,0,0,1-4.776-3.672,14.763,14.763,0,0,1-2.736-5.352,23.567,23.567,0,0,1-.864-6.456V-34.08h9.36v17.52a15.348,15.348,0,0,0,.336,3.24,8.711,8.711,0,0,0,1.056,2.736,5.591,5.591,0,0,0,1.848,1.872A5.16,5.16,0,0,0,410.352-8.016Zm37.824-8.736V0h-9.36V-34.08h7.3l13.68,17.328V-34.08h9.36V0h-7.44ZM482.688,0V-34.08h13.1a19.172,19.172,0,0,1,7.44,1.344,15.376,15.376,0,0,1,5.376,3.648,15.319,15.319,0,0,1,3.264,5.4,19.5,19.5,0,0,1,1.1,6.6,19.245,19.245,0,0,1-1.224,7.032,15.223,15.223,0,0,1-3.48,5.376,15.6,15.6,0,0,1-5.424,3.456A19.437,19.437,0,0,1,495.792,0Zm20.784-17.088a11.646,11.646,0,0,0-.528-3.6,8.039,8.039,0,0,0-1.512-2.784,6.821,6.821,0,0,0-2.424-1.8,7.751,7.751,0,0,0-3.216-.648h-3.744V-8.16h3.744a7.63,7.63,0,0,0,3.264-.672A6.82,6.82,0,0,0,501.48-10.7a8.249,8.249,0,0,0,1.488-2.832A11.986,11.986,0,0,0,503.472-17.088ZM525.936-14.4V-34.416h9.12V-14.4Zm0,14.4V-8.832h9.12V0Z" transform="translate(376.423 555.234)" fill="silver"/>
    <g id="Floor" transform="translate(-113.778 -210.22)">
      <g id="Group_5220" data-name="Group 5220" transform="translate(244.506 765.774)">
        <g id="Group_5219" data-name="Group 5219">
          <path id="Path_17743" data-name="Path 17743" d="M244.506,767.728c0-1.084,228.034-1.953,509.248-1.953,281.316,0,509.295.87,509.295,1.953s-227.979,1.953-509.295,1.953C472.535,769.681,244.506,768.812,244.506,767.728Z" transform="translate(-244.506 -765.774)" fill="#4d4e4e"/>
        </g>
      </g>
    </g>
  </g>
</svg>
