<svg xmlns="http://www.w3.org/2000/svg" width="1018.543" height="409.695" viewBox="0 0 1018.543 409.695">
  <g id="other_errors" data-name="other errors" transform="translate(-130.729 -149.766)">
    <path id="Path_18892" data-name="Path 18892" d="M-296.4-22.676a8.45,8.45,0,0,0-3.193-7.031q-3.193-2.52-11.221-5.215a107.648,107.648,0,0,1-13.125-5.215q-16.582-8.145-16.582-22.383a20.071,20.071,0,0,1,4.131-12.51A26.718,26.718,0,0,1-324.7-83.467a45.49,45.49,0,0,1,16.992-3.018A39.791,39.791,0,0,1-291.211-83.2a26.115,26.115,0,0,1,11.338,9.346A24.405,24.405,0,0,1-275.83-60h-20.508q0-5.215-3.193-8.086t-8.643-2.871q-5.508,0-8.7,2.432a7.459,7.459,0,0,0-3.193,6.182q0,3.281,3.516,5.947t12.363,5.508a75.736,75.736,0,0,1,14.531,6.123Q-275.83-36.8-275.83-22.793q0,11.191-8.437,17.578t-23.145,6.387a45.918,45.918,0,0,1-18.779-3.721,28.314,28.314,0,0,1-12.656-10.2A26.565,26.565,0,0,1-343.1-27.656h20.625q0,6.855,3.545,10.107t11.514,3.252q5.1,0,8.057-2.2A7.252,7.252,0,0,0-296.4-22.676ZM-193.037-40.9a50.309,50.309,0,0,1-4.629,22.09A34.211,34.211,0,0,1-210.82-4.014a36.628,36.628,0,0,1-19.424,5.186,37.146,37.146,0,0,1-19.336-5.01,34.153,34.153,0,0,1-13.154-14.326,48.861,48.861,0,0,1-4.951-21.387v-4.8a50.531,50.531,0,0,1,4.6-22.119A34.127,34.127,0,0,1-249.9-81.27a36.884,36.884,0,0,1,19.541-5.215,36.525,36.525,0,0,1,19.336,5.156A34.742,34.742,0,0,1-197.812-66.65a49.081,49.081,0,0,1,4.775,21.826Zm-20.918-3.574q0-12.715-4.248-19.307a13.626,13.626,0,0,0-12.158-6.592q-15.469,0-16.348,23.2l-.059,6.27q0,12.539,4.16,19.277a13.605,13.605,0,0,0,12.363,6.738A13.442,13.442,0,0,0-218.232-21.5q4.219-6.621,4.277-19.043Zm58.535-40.84,19.043,59.355,18.984-59.355h27.07V0h-20.625V-19.922l1.992-40.781L-129.58,0h-13.594l-20.684-60.762,1.992,40.84V0h-20.566V-85.312Zm131.074,49.1H-56.689V-15.82h38.2V0h-58.77V-85.312h58.887v15.879h-38.32v17.988h32.344ZM58.037-69.434H32.432V0H11.865V-69.434H-13.271V-85.312H58.037ZM138.018,0H117.568V-35.625H87.275V0H66.709V-85.312H87.275v33.867h30.293V-85.312h20.449Zm34.922,0H152.432V-85.312h20.508Zm85.547,0H238.037L207.8-53.086V0H187.236V-85.312H207.8l30.176,53.086V-85.312h20.508Zm82.852-10.547q-4.746,5.273-13.887,8.5a59.894,59.894,0,0,1-20.039,3.223q-16.758,0-26.777-10.254T269.912-37.617L269.854-45q0-12.6,4.453-22a33.068,33.068,0,0,1,12.744-14.473,36.049,36.049,0,0,1,19.189-5.068q15.938,0,24.756,7.295T341.279-57.48h-19.8q-1.055-7.148-4.57-10.2t-9.961-3.047A13.419,13.419,0,0,0,294.99-64.16q-4.219,6.563-4.277,18.75v5.156q0,12.773,4.365,19.189t13.74,6.416q8.027,0,11.953-3.574V-31.465h-14.3V-45.586h34.863Zm-679.1,78.73,9.785-53.5h20.391L-325.693,100h-21.328l-11.426-48.633L-369.639,100h-21.27l-18.164-85.312h20.449l9.785,53.5,11.719-53.5h17.461Zm91.113-4.395h-32.344V84.18h38.2V100h-58.77V14.688h58.887V30.566h-38.32V48.555h32.344ZM-161.162,100h-20.449l-30.234-53.086V100h-20.566V14.688h20.566l30.176,53.086V14.688h20.508Zm78.281-69.434h-25.605V100h-20.566V30.566h-25.137V14.688h71.309ZM18.252,68.184l9.785-53.5H48.428L30.322,100H8.994L-2.432,51.367-13.623,100h-21.27L-53.057,14.688h20.449l9.785,53.5,11.719-53.5H6.357Zm69.9,1.641H77.021V100H56.455V14.688H90.029q15.176,0,23.73,6.731t8.555,19.023q0,8.9-3.6,14.75t-11.279,9.482L125.244,99.12V100H103.213ZM77.021,54H90.029q5.859,0,8.818-3.084t2.959-8.605q0-5.522-2.988-8.664t-8.789-3.143H77.021Zm129.961,5.1a50.309,50.309,0,0,1-4.629,22.09A34.211,34.211,0,0,1,189.2,95.986a36.628,36.628,0,0,1-19.424,5.186,37.146,37.146,0,0,1-19.336-5.01,34.153,34.153,0,0,1-13.154-14.326,48.861,48.861,0,0,1-4.951-21.387v-4.8a50.531,50.531,0,0,1,4.6-22.119A34.127,34.127,0,0,1,150.117,18.73a39.026,39.026,0,0,1,38.877-.059A34.742,34.742,0,0,1,202.207,33.35a49.081,49.081,0,0,1,4.775,21.826Zm-20.918-3.574q0-12.715-4.248-19.307a13.626,13.626,0,0,0-12.158-6.592q-15.469,0-16.348,23.2l-.059,6.27q0,12.539,4.16,19.277a13.605,13.605,0,0,0,12.363,6.738A13.442,13.442,0,0,0,181.787,78.5q4.219-6.621,4.277-19.043ZM288.838,100H268.389L238.154,46.914V100H217.588V14.688h20.566L268.33,67.773V14.688h20.508Zm82.852-10.547q-4.746,5.273-13.887,8.5a59.894,59.894,0,0,1-20.039,3.223q-16.758,0-26.777-10.254T300.264,62.383L300.205,55q0-12.6,4.453-22A33.068,33.068,0,0,1,317.4,18.525a36.049,36.049,0,0,1,19.189-5.068q15.938,0,24.756,7.295T371.631,42.52h-19.8q-1.055-7.148-4.57-10.2t-9.961-3.047a13.419,13.419,0,0,0-11.953,6.563q-4.219,6.563-4.277,18.75v5.156q0,12.773,4.365,19.189t13.74,6.416q8.027,0,11.953-3.574V68.535h-14.3V54.414h34.863Zm30.645-16.465h-16l-2.52-58.3h21.035Zm-19.1,18.164a9.093,9.093,0,0,1,3.135-7.119,12.384,12.384,0,0,1,15.645,0,9.651,9.651,0,0,1,0,14.238,12.384,12.384,0,0,1-15.645,0A9.093,9.093,0,0,1,383.232,91.152Z" transform="translate(640 455.625)" fill="#e5e4e0"/>
    <g id="Plant" transform="translate(-97.012 -208.857)">
      <g id="Group_5495" data-name="Group 5495">
        <g id="Group_5481" data-name="Group 5481">
          <g id="Group_5480" data-name="Group 5480">
            <path id="Path_17891" data-name="Path 17891" d="M297.245,685.15a15.228,15.228,0,0,0-7.891,8.937,26.872,26.872,0,0,0-1.047,12.107c.89,7.856,5.354,15.787,10.161,22.066,6.615-5.774,8.137-15.847,8.589-21.005.713-8.152-2.948-23.32-9.813-22.1" fill="#ffb700"/>
          </g>
        </g>
        <g id="Group_5483" data-name="Group 5483">
          <g id="Group_5482" data-name="Group 5482">
            <path id="Path_17892" data-name="Path 17892" d="M290.777,741.226a13,13,0,0,0-4.2-12.349,17.255,17.255,0,0,0-12.722-3.973c-2.105.161-4.379.775-5.584,2.508a5.554,5.554,0,0,0-.086,5.629,11.25,11.25,0,0,0,4.167,4.1c5.732,3.6,11.94,6.026,18.422,4.08" fill="#ffb700"/>
          </g>
        </g>
        <g id="Group_5486" data-name="Group 5486">
          <g id="Group_5485" data-name="Group 5485">
            <g id="Group_5484" data-name="Group 5484">
              <path id="Path_17893" data-name="Path 17893" d="M299.261,765.317a9.34,9.34,0,0,0-.237-1.612c-.207-1.135-.476-2.6-.8-4.364-.732-3.646-1.671-8.869-4.5-13.938a27.918,27.918,0,0,0-10-10.629,19.013,19.013,0,0,0-4.079-1.8,11.975,11.975,0,0,0-1.175-.3,1.2,1.2,0,0,0-.42-.058,29.692,29.692,0,0,1,5.464,2.508,28.825,28.825,0,0,1,9.712,10.56C296,750.649,297,755.8,297.832,759.426c.4,1.828.727,3.309.98,4.327A8.4,8.4,0,0,0,299.261,765.317Z" fill="#1c262a"/>
            </g>
          </g>
        </g>
        <g id="Group_5489" data-name="Group 5489">
          <g id="Group_5488" data-name="Group 5488">
            <g id="Group_5487" data-name="Group 5487">
              <path id="Path_17894" data-name="Path 17894" d="M299.013,696.947a3.178,3.178,0,0,0-.081.7c-.032.523-.071,1.194-.12,2.024-.1,1.759-.2,4.306-.3,7.453-.2,6.295-.363,15-.323,24.608s.279,18.314.536,24.608c.129,3.146.254,5.692.363,7.45.056.83.1,1.5.137,2.023.038.463-.02,0,0,0-.087-.7.117.459.115,0q-.01-.785-.029-2.028c-.045-1.831-.107-4.36-.182-7.453-.155-6.293-.325-14.989-.368-24.6s.055-18.3.155-24.6c.049-3.1.088-5.623.117-7.456.006-.832.01-1.5.013-2.028A3.426,3.426,0,0,0,299.013,696.947Z" fill="#1c262a"/>
            </g>
          </g>
        </g>
        <g id="Group_5491" data-name="Group 5491">
          <g id="Group_5490" data-name="Group 5490">
            <path id="Path_17895" data-name="Path 17895" d="M302.22,746.009a30.382,30.382,0,0,1,16.6-22.258c2.211-1.058,5.1-1.75,6.916-.107s1.412,4.6.522,6.891a25.961,25.961,0,0,1-23.873,16.12" fill="#ffb700"/>
          </g>
        </g>
        <g id="Group_5494" data-name="Group 5494">
          <g id="Group_5493" data-name="Group 5493">
            <g id="Group_5492" data-name="Group 5492">
              <path id="Path_17896" data-name="Path 17896" d="M317.744,731.2a7.812,7.812,0,0,0-1.4.611,15.247,15.247,0,0,0-1.586.846c-.594.372-1.312.734-2.019,1.267a26.772,26.772,0,0,0-2.31,1.739,29.758,29.758,0,0,0-2.46,2.234,33.79,33.79,0,0,0-4.672,6,33.078,33.078,0,0,0-3.079,6.96,28.725,28.725,0,0,0-.777,3.232,24.3,24.3,0,0,0-.4,2.866,22.285,22.285,0,0,0-.11,2.381,13.52,13.52,0,0,0,.054,1.8,7.706,7.706,0,0,0,.169,1.522c.129,0-.1-2.185.29-5.66a26.039,26.039,0,0,1,.46-2.815,30.108,30.108,0,0,1,.815-3.168,34.462,34.462,0,0,1,3.065-6.821,35.188,35.188,0,0,1,4.559-5.929,31.391,31.391,0,0,1,2.388-2.239,28.463,28.463,0,0,1,2.238-1.771C315.809,732.221,317.8,731.314,317.744,731.2Z" fill="#1c262a"/>
            </g>
          </g>
        </g>
      </g>
    </g>
    <g id="Group_5500" data-name="Group 5500" transform="translate(442.83 -208.857)">
      <path id="Path_17897" data-name="Path 17897" d="M589.282,401.569s-.57-9.226-.5-13.221,9.937-15.455,13.288-15.455,2.234,10.562,1.676,13.846S604.863,393,603,395.61s-5.525,8.132-5.525,8.132Z" fill="#f58c5c"/>
      <path id="Path_17898" data-name="Path 17898" d="M648.16,416.777l-15.839,15.184a48.581,48.581,0,0,1-9.042-10.171c-.369-.544-.723-1.087-1.061-1.624a76.952,76.952,0,0,1-4.785-9.028q-.274-.6-.51-1.132c-.875-1.911,8.792-8.03,14.253-11.906a21.011,21.011,0,0,0,3.441-2.842,15.456,15.456,0,0,0-.018,4.307,17.688,17.688,0,0,0,4.775,8.943C644.905,414.579,648.16,416.777,648.16,416.777Z" fill="#faa178"/>
      <path id="Path_17899" data-name="Path 17899" d="M636.181,399.933s-3.139,16.688-12.9,21.857c-.369-.544-.723-1.087-1.061-1.624a77.115,77.115,0,0,1-4.786-9.028c1.188-2.469,9.325-7.664,14.163-11.094C634.326,399.988,636.181,399.933,636.181,399.933Z" fill="#f58c5c"/>
      <path id="Path_17900" data-name="Path 17900" d="M616.771,418.462s23.706-7.915,18.55-22.6-5.569-25.6-20.922-21.168-16.311,11.064-15.783,16.385S610.476,420.143,616.771,418.462Z" fill="#faa178"/>
      <path id="Path_17901" data-name="Path 17901" d="M637.141,400.3s-2.412-1.6,2.893-9.981c2.735-4.321,5.173-8.384,1.3-15.414s-3.63-12.694-14.309-12.692-11.755-4.946-17.2-3.221-10.275,9.719-14.932,11.219-8.19,25.906,2.468,25.232c0,0,4.007-1.994,5.8-5.218s10.879-10.569,13.768-8.175S631.409,400.408,637.141,400.3Z" fill="#030504"/>
      <path id="Path_17902" data-name="Path 17902" d="M631.454,428.981c-8.071-.479-22.749,6.85-35.992,15.46l3.049-41.537c-2.654-4.6-10.1-2.918-10.1-2.918s-4.4,3.858-12.673,27.486a149.944,149.944,0,0,0-8.066,41.553c.3,10.953,9.2,11.556,9.2,11.556,28.418-4.8,75.176-25.73,75.176-25.73C657.971,447.517,648.574,430,631.454,428.981Z" fill="#ffb600"/>
      <path id="Path_17903" data-name="Path 17903" d="M641.254,761.295c-.213,2.339-.723,4.316-1.776,4.815a3.689,3.689,0,0,1-.9.231h-35.6c-.953-.029-1.494-.048-1.494-.048s.09-4.4,6.141-5.251c4.89-.685,12.8-3.017,16.685-8.085a11.014,11.014,0,0,0,1.992-4.078c1.959-7.947,14.777,2.756,14.777,2.756s.146,1.385.235,3.307A47.437,47.437,0,0,1,641.254,761.295Z" fill="#1f313d"/>
      <path id="Path_17904" data-name="Path 17904" d="M674.631,766.341H635.07a9.057,9.057,0,0,1,6.183-5.046,10.73,10.73,0,0,1,1.265-.253c4.265-.6,10.824-2.447,15.01-6.271a11.775,11.775,0,0,0,3.668-5.892c1.958-7.947,14.777,2.756,14.777,2.756s.134,1.27.232,3.073C676.414,758.61,676.462,765.008,674.631,766.341Z" fill="#1f313d"/>
      <path id="Path_17905" data-name="Path 17905" d="M657.833,550.984s-.03,1.436-.087,4.018c-.359,16.647-1.781,81.012-3.131,116.9-.056,1.307-.1,2.569-.151,3.8-.026.648-.052,1.3-.078,1.946a388.941,388.941,0,0,1-5.541,47.921c-3.031,17.326-6.111,29.125-6.111,29.125-11.558,2.341-19.048-2.054-19.048-2.054s-3.117-26.889-4.3-43.163c-.39-5.281-2.293-23.3-4.681-45.218-1.852-16.95-3.99-36.235-5.956-53.773-.1-.935-.2-1.868-.311-2.79-3.171-28.355-5.8-51.45-5.8-51.45l20.436-1.947Z" fill="#292332"/>
      <path id="Path_17906" data-name="Path 17906" d="M648.845,725.564,614.7,664.253c-1.852-16.951-3.991-36.235-5.956-53.773-.1-.935-.2-1.868-.312-2.79-3.171-28.355-5.8-51.45-5.8-51.45l20.436-1.947L657.74,555Z" fill="#1a171f"/>
      <path id="Path_17907" data-name="Path 17907" d="M606.417,556.393s19.1,94.429,34.668,140,15.764,58.239,15.764,58.239,14.283,3.1,20.575-.5c0,0,3.6-86.4-5.823-109.342-6.23-15.177-11-47.478-9.376-59.111s3.131-34.967,3.131-34.967Z" fill="#292332"/>
      <path id="Path_17908" data-name="Path 17908" d="M667.865,548.258c-1.072,5.777-3.634,10.379-7.593,13.184-4.514,3.2-11.631,4.35-19.467,4.231a106.57,106.57,0,0,1-27.376-4.462,63.815,63.815,0,0,1-10.834-4.167c-12.1-6.309-10.384-14.707-10.093-46.136.293-32.077,20.037-73.542,23.593-80.484,6.328-12.357,33.18-8.293,33.18-8.293,5.887,5.4,11.042,13.239,14.554,25.771,1.422,5.072,2.253,12.167,2.729,20.137,1.453,24.349-.424,56.821.995,64.4A43.5,43.5,0,0,1,667.865,548.258Z" fill="#ffd04e"/>
      <path id="Path_17909" data-name="Path 17909" d="M645.767,409.881s4.393,10.4,3.506,12.25c0,0-24.124,2.276-33.943,9.271,0,0,3.23-10.1,7.156-12.607S645.767,409.881,645.767,409.881Z" fill="#ffb600"/>
      <path id="Path_17910" data-name="Path 17910" d="M667.87,548.258c-49.964-19.016-21.437-89.333-21.437-89.333,6.991.5,13.84,3.892,20.13,9.113,1.453,24.349-.424,56.821.994,64.4A43.485,43.485,0,0,1,667.87,548.258Z" fill="#ffb600"/>
      <path id="Path_17911" data-name="Path 17911" d="M650.979,519.527s-2.738,4.742-5.372,3.625-7.951-2.3-11.9.248-9.91,9.415-6.187,11.091,10.8-2.773,12.476-3.518,4.593.745,7.821-.869a32.516,32.516,0,0,0,6.58-4.841Z" fill="#faa178"/>
      <path id="Path_17912" data-name="Path 17912" d="M706.442,477.53c-18.594-22.021-61.421-50.715-61.421-50.715-9.327-1.363-19.628,15.64-11.793,30.9,4.53,8.82,23.9,19.337,40.6,25.967L646.676,520.81c-2.134,7.893,10.068,5.794,10.068,5.794S666.9,523.6,685.3,508.457a66.75,66.75,0,0,0,18.181-22.816A22.373,22.373,0,0,0,706.442,477.53Z" fill="#ffd04e"/>
    </g>
    <g id="Floor" transform="translate(-113.777 -210.22)">
      <g id="Group_5220" data-name="Group 5220" transform="translate(244.506 765.774)">
        <g id="Group_5219" data-name="Group 5219">
          <path id="Path_17743" data-name="Path 17743" d="M244.506,767.728c0-1.084,228.034-1.953,509.248-1.953,281.316,0,509.295.87,509.295,1.953s-227.979,1.953-509.295,1.953C472.535,769.681,244.506,768.812,244.506,767.728Z" transform="translate(-244.506 -765.774)" fill="#4d4e4e"/>
        </g>
      </g>
    </g>
  </g>
</svg>
