<svg xmlns="http://www.w3.org/2000/svg" width="511.67" height="520" viewBox="0 0 511.67 520">
  <g id="failed_520" data-name="failed 520" transform="translate(-244.506 -231.092)">
    <g id="Group_5496" data-name="Group 5496" transform="translate(244.506 231.092)">
      <g id="Background_Complete" data-name="Background Complete" transform="translate(3.156)">
        <g id="Group_5164" data-name="Group 5164" transform="translate(320.21 293.09)">
          <g id="Group_5142" data-name="Group 5142">
            <g id="Group_5141" data-name="Group 5141">
              <path id="Path_17691" data-name="Path 17691" d="M682.073,534.533s10.786,2.854,1.715,26.136-15.8,35.032-15.8,35.032-1.487,5.342,2.92,5.708,13.785-2.115,16.245,2.987c2.552,5.291-.915,10.873-8.547,16.231s-23.92,17.712-25.39,18.834c-1.442,1.1-2.742,3.649.221,4.379s24.621.81,23.966,11.086-24.367,21.709-26.935,23.009-3.1,2.5-2.728,3.942,7.643.787,13.807,1.064,13.255,1.675,12.378,7.57-14.239,19.447-49.293,26.475l-16.456,2.193-10.388-13.045c-20.529-29.27-20.859-48.3-17.424-53.169s9.536-.992,14.185,3.057,9.466,9.549,10.728,8.756,1.707-2.022.743-4.735-10.242-27.349-3.628-35.238,22.35,6.991,25,8.508,3.463-1.226,3.18-3.018c-.29-1.826-3.56-22.006-5.388-31.154s-.49-15.577,5.008-17.648c5.3-2,10.38,6.266,13.822,9.042s6.05-2.116,6.05-2.116,3.237-13.146,12.731-36.258,19.492-17.555,19.492-17.555" transform="translate(-578.728 -534.021)" fill="#dfddd8"/>
            </g>
          </g>
          <g id="Group_5145" data-name="Group 5145" transform="translate(28.65 21.374)">
            <g id="Group_5144" data-name="Group 5144">
              <g id="Group_5143" data-name="Group 5143">
                <path id="Path_17692" data-name="Path 17692" d="M608.679,723.859c6.905-17,18.673-47.425,28.9-73.493s19.519-49.642,26.337-66.677l8.1-20.165c.948-2.366,1.687-4.211,2.2-5.485l.56-1.431c.122-.324.173-.5.173-.5s-.083.158-.224.475L674.117,558c-.532,1.266-1.3,3.1-2.287,5.449-1.981,4.734-4.8,11.6-8.248,20.105-6.905,17-16.246,40.566-26.478,66.624s-21.946,56.51-28.763,73.545" transform="translate(-608.34 -556.113)" fill="#4d4e4e"/>
              </g>
            </g>
          </g>
          <g id="Group_5148" data-name="Group 5148" transform="translate(68.441 74.365)">
            <g id="Group_5147" data-name="Group 5147">
              <g id="Group_5146" data-name="Group 5146">
                <path id="Path_17693" data-name="Path 17693" d="M676.477,610.883a5.518,5.518,0,0,0-1.12.437c-.708.309-1.717.785-2.96,1.384-2.481,1.2-5.867,2.955-9.568,4.955l-9.456,5.154-2.873,1.543a5.381,5.381,0,0,0-1.034.608,5.359,5.359,0,0,0,1.122-.428c.706-.312,1.717-.787,2.954-1.4,2.47-1.23,5.832-3.023,9.532-5.023l9.488-5.083,2.883-1.53A5.245,5.245,0,0,0,676.477,610.883Z" transform="translate(-649.467 -610.883)" fill="#4d4e4e"/>
              </g>
            </g>
          </g>
          <g id="Group_5151" data-name="Group 5151" transform="translate(51.992 55.841)">
            <g id="Group_5150" data-name="Group 5150">
              <g id="Group_5149" data-name="Group 5149">
                <path id="Path_17694" data-name="Path 17694" d="M647.681,623.4c.129-.062-3.174-7.2-7.375-15.942s-7.712-15.782-7.837-15.721,3.173,7.2,7.376,15.944S647.552,623.459,647.681,623.4Z" transform="translate(-632.465 -591.737)" fill="#4d4e4e"/>
              </g>
            </g>
          </g>
          <g id="Group_5154" data-name="Group 5154" transform="translate(33.512 104.281)">
            <g id="Group_5153" data-name="Group 5153">
              <g id="Group_5152" data-name="Group 5152">
                <path id="Path_17695" data-name="Path 17695" d="M633.15,665.76a5.794,5.794,0,0,0-.774-.951l-2.225-2.48c-1.875-2.1-4.451-5-7.179-8.311s-5.106-6.386-6.8-8.622c-.8-1.054-1.476-1.942-2.015-2.653a5.764,5.764,0,0,0-.788-.94,5.438,5.438,0,0,0,.623,1.056c.43.66,1.064,1.6,1.885,2.753,1.625,2.3,3.958,5.418,6.7,8.735s5.363,6.192,7.31,8.231c.977,1.014,1.778,1.826,2.348,2.37A5.43,5.43,0,0,0,633.15,665.76Z" transform="translate(-613.365 -641.803)" fill="#4d4e4e"/>
              </g>
            </g>
          </g>
          <g id="Group_5157" data-name="Group 5157" transform="translate(53.321 121.975)">
            <g id="Group_5156" data-name="Group 5156">
              <g id="Group_5155" data-name="Group 5155">
                <path id="Path_17696" data-name="Path 17696" d="M661.976,660.091a4.849,4.849,0,0,0-1.126.133l-3.031.55c-2.554.484-6.077,1.192-9.966,2s-7.4,1.575-9.931,2.152l-3,.71a4.875,4.875,0,0,0-1.085.329,4.754,4.754,0,0,0,1.126-.133l3.031-.549c2.554-.484,6.077-1.194,9.965-2s7.395-1.575,9.93-2.152l3-.71A4.851,4.851,0,0,0,661.976,660.091Z" transform="translate(-633.839 -660.091)" fill="#4d4e4e"/>
              </g>
            </g>
          </g>
          <g id="Group_5160" data-name="Group 5160" transform="translate(37.62 159.496)">
            <g id="Group_5159" data-name="Group 5159">
              <g id="Group_5158" data-name="Group 5158">
                <path id="Path_17697" data-name="Path 17697" d="M653.736,698.872a7.753,7.753,0,0,0-1.44.184l-3.887.69c-3.277.6-7.8,1.475-12.786,2.467s-9.5,1.921-12.759,2.612l-3.854.85a7.951,7.951,0,0,0-1.4.381,7.763,7.763,0,0,0,1.44-.184l3.886-.69c3.278-.6,7.8-1.475,12.789-2.468s9.5-1.92,12.757-2.612l3.855-.85A7.825,7.825,0,0,0,653.736,698.872Z" transform="translate(-617.611 -698.872)" fill="#4d4e4e"/>
              </g>
            </g>
          </g>
          <g id="Group_5163" data-name="Group 5163" transform="translate(14.158 135.193)">
            <g id="Group_5162" data-name="Group 5162">
              <g id="Group_5161" data-name="Group 5161">
                <path id="Path_17698" data-name="Path 17698" d="M617.64,704.83a9.284,9.284,0,0,0-.949-1.231l-2.709-3.246c-2.283-2.742-5.418-6.541-8.769-10.836s-6.289-8.25-8.39-11.133l-2.494-3.412a8.965,8.965,0,0,0-.968-1.218,8.843,8.843,0,0,0,.8,1.332c.542.84,1.345,2.041,2.363,3.509,2.032,2.939,4.922,6.943,8.281,11.239s6.54,8.071,8.9,10.755c1.181,1.34,2.149,2.413,2.834,3.142A8.768,8.768,0,0,0,617.64,704.83Z" transform="translate(-593.361 -673.753)" fill="#4d4e4e"/>
              </g>
            </g>
          </g>
        </g>
        <g id="Group_5178" data-name="Group 5178" transform="translate(0 314.217)">
          <g id="Group_5177" data-name="Group 5177">
            <g id="Group_5176" data-name="Group 5176">
              <g id="Group_5175" data-name="Group 5175">
                <g id="Group_5165" data-name="Group 5165">
                  <path id="Rectangle_3452" data-name="Rectangle 3452" d="M339.776,760.733l-88.232-48.626a7.3,7.3,0,0,1-2.869-9.912h0l78.567-142.56a7.3,7.3,0,0,1,9.912-2.869h0l88.234,48.628a7.3,7.3,0,0,1,2.868,9.911h0l-78.567,142.56a7.3,7.3,0,0,1-9.913,2.869Z" transform="translate(-247.768 -555.858)" fill="#dfddd8"/>
                </g>
                <g id="Group_5166" data-name="Group 5166" transform="translate(75.73 31.698)">
                  <path id="Path_17699" data-name="Path 17699" d="M344.194,590.142a12.242,12.242,0,1,1-16.631,4.814A12.242,12.242,0,0,1,344.194,590.142Z" transform="translate(-326.04 -588.62)" fill="#fff"/>
                </g>
                <g id="Group_5167" data-name="Group 5167" transform="translate(82.378 18.208)">
                  <path id="Path_17700" data-name="Path 17700" d="M356.738,581.052a12.988,12.988,0,0,1,1.221,2.87,12.771,12.771,0,1,1-1.221-2.87Zm-21.191,12.285a11.651,11.651,0,1,0,15.7-16.046h0a11.648,11.648,0,0,0-16.814,13.439A11.78,11.78,0,0,0,335.547,593.337Z" transform="translate(-332.911 -574.677)" fill="#fff"/>
                </g>
                <g id="Group_5168" data-name="Group 5168" transform="translate(68.034 44.694)">
                  <path id="Path_17701" data-name="Path 17701" d="M319.7,736.212l8.621,4.751-.49.886L320,737.533l-1.121,2.035-.789-.435Z" transform="translate(-318.086 -606.411)" fill="#fff"/>
                  <path id="Path_17702" data-name="Path 17702" d="M332.547,731.408l.79.437L330,737.89l-.629-.348-1.533-5.517c-.427-1.5-.9-2.006-1.495-2.333-1-.549-2-.186-2.729,1.129a3.34,3.34,0,0,0-.333,2.884l-.887.329a4.419,4.419,0,0,1,.45-3.732c.966-1.749,2.461-2.369,3.9-1.574.822.456,1.423,1.119,1.917,2.9l1.268,4.518Z" transform="translate(-318.219 -606.157)" fill="#fff"/>
                  <path id="Path_17703" data-name="Path 17703" d="M336.273,721.233l-.95,1.724,2.264,1.251-.488.886-2.269-1.248-2.678,4.863-.64-.354-3.2-7.717.542-.984,3.135,7.472,2.066-3.74-2-1.1.474-.862,2,1.1.952-1.724Z" transform="translate(-318.418 -605.873)" fill="#fff"/>
                  <path id="Path_17704" data-name="Path 17704" d="M343.8,707.575l-.951,1.724,2.264,1.249-.488.887-2.269-1.249-2.678,4.864-.639-.354-3.2-7.718.543-.984,3.136,7.471,2.066-3.74-2-1.1.474-.862,2,1.1.951-1.725Z" transform="translate(-318.663 -605.429)" fill="#fff"/>
                  <path id="Path_17705" data-name="Path 17705" d="M347.782,699.583c1.465.809,2.046,2.462.886,4.57a5.087,5.087,0,0,1-2.809,2.482l-.47-.815a4.256,4.256,0,0,0,2.457-2.1c.807-1.466.522-2.634-.524-3.212-1.109-.61-2.181-.3-3.387,1.891l-1.01,1.832-4.08-2.826,2.6-4.718.79.437-2.172,3.938,2.583,1.809.612-1.111C344.689,699.165,346.254,698.743,347.782,699.583Z" transform="translate(-318.76 -605.127)" fill="#fff"/>
                  <path id="Path_17706" data-name="Path 17706" d="M352.624,690.764a3.069,3.069,0,0,1,1.164,4.18q-.065.115-.139.224c-1.261,2.292-3.537,2.661-6.259,1.155-2.931-1.611-3.575-4.055-2.286-6.394a4.533,4.533,0,0,1,1.594-1.788l.523.755a3.433,3.433,0,0,0-1.33,1.45c-1.029,1.858-.493,3.711,1.848,5,.2.109.45.233.722.35a3.144,3.144,0,0,1-.025-3.449C349.379,690.533,351.046,689.9,352.624,690.764Zm-.459.889c-1.134-.624-2.322-.187-3.054,1.144a2.277,2.277,0,0,0,.543,3.175c.039.028.077.054.118.079.951.521,2.284.229,3.107-1.263a2.155,2.155,0,0,0-.713-3.136Z" transform="translate(-318.943 -604.849)" fill="#fff"/>
                  <path id="Path_17707" data-name="Path 17707" d="M359.4,678.609c1.442.794,1.974,2.452.828,4.531a5.118,5.118,0,0,1-2.82,2.5l-.465-.819a4.306,4.306,0,0,0,2.47-2.127c.788-1.426.558-2.582-.516-3.172-1.034-.57-2.112-.217-2.994,1.384l-.341.617-.653-.359-1.677-4.039-2.428,4.408-.789-.434,3.055-5.543.629.344,1.721,4.131C356.544,678.237,358.025,677.848,359.4,678.609Z" transform="translate(-319.123 -604.44)" fill="#fff"/>
                  <path id="Path_17708" data-name="Path 17708" d="M364.27,669.631a3.071,3.071,0,0,1,1.165,4.182c-.044.076-.09.15-.138.223-1.262,2.292-3.539,2.66-6.26,1.156-2.932-1.613-3.576-4.056-2.286-6.4a4.519,4.519,0,0,1,1.594-1.788l.519.751a3.441,3.441,0,0,0-1.329,1.452c-1.026,1.861-.491,3.713,1.852,5,.2.109.449.233.722.35a3.143,3.143,0,0,1-.026-3.448C361.025,669.4,362.692,668.762,364.27,669.631Zm-.459.89c-1.132-.624-2.32-.189-3.053,1.142a2.281,2.281,0,0,0,.546,3.179c.039.027.077.053.117.077.949.521,2.283.228,3.1-1.262a2.153,2.153,0,0,0-.5-3A2.024,2.024,0,0,0,363.812,670.521Z" transform="translate(-319.321 -604.163)" fill="#fff"/>
                  <path id="Path_17709" data-name="Path 17709" d="M362.694,658.075l.629.347,6.005,8.014-.529.962-5.882-7.864-2.44,4.433,1.614.888-.484.874-2.4-1.322Z" transform="translate(-319.422 -603.873)" fill="#fff"/>
                  <path id="Path_17710" data-name="Path 17710" d="M369.715,645.332l.629.346,6.005,8.015-.529.962-5.881-7.863-2.441,4.433,1.615.888-.483.876-2.4-1.324Z" transform="translate(-319.65 -603.459)" fill="#fff"/>
                  <path id="Path_17711" data-name="Path 17711" d="M380.8,640.032c1.528.843,1.759,2.661.629,4.715s-2.781,2.8-4.307,1.963a2.455,2.455,0,0,1-1.2-2.831,2.225,2.225,0,0,1-2.644.308c-1.4-.773-1.621-2.452-.616-4.274s2.552-2.561,3.955-1.785a2.224,2.224,0,0,1,1.138,2.424A2.479,2.479,0,0,1,380.8,640.032Zm-.516.906c-1.058-.584-2.225-.041-3.067,1.487s-.671,2.793.386,3.378,2.233.057,3.074-1.471S381.359,641.527,380.287,640.937Zm-3.769,1.1c.74-1.342.581-2.476-.358-2.993-.973-.536-2.033-.013-2.746,1.282s-.581,2.457.382,2.984,1.981.068,2.721-1.274Z" transform="translate(-319.839 -603.215)" fill="#fff"/>
                  <path id="Path_17712" data-name="Path 17712" d="M383.588,630.291c2.933,1.614,3.578,4.061,2.287,6.4a4.5,4.5,0,0,1-1.594,1.787l-.517-.751a3.46,3.46,0,0,0,1.329-1.452c1.025-1.858.489-3.712-1.853-5-.2-.11-.448-.232-.721-.35a3.146,3.146,0,0,1,.024,3.449c-.943,1.714-2.613,2.351-4.187,1.484a3.069,3.069,0,0,1-1.165-4.18c.044-.077.09-.152.14-.225C378.593,629.157,380.866,628.79,383.588,630.291Zm-2.383.276c-.948-.521-2.282-.23-3.1,1.262a2.154,2.154,0,0,0,.5,3,2.223,2.223,0,0,0,.208.132c1.134.624,2.322.19,3.055-1.142a2.278,2.278,0,0,0-.545-3.177c-.039-.028-.077-.054-.118-.078Z" transform="translate(-319.993 -602.941)" fill="#fff"/>
                  <path id="Path_17713" data-name="Path 17713" d="M384.366,618.87l8.622,4.751-.491.886-7.833-4.315-1.118,2.032-.789-.435Z" transform="translate(-320.187 -602.599)" fill="#fff"/>
                  <path id="Path_17714" data-name="Path 17714" d="M397.22,614.064l.789.437-3.333,6.044-.628-.347-1.535-5.516c-.423-1.5-.9-2.007-1.493-2.334-1-.55-2-.183-2.729,1.129a3.345,3.345,0,0,0-.332,2.885l-.889.329a4.427,4.427,0,0,1,.451-3.734c.966-1.749,2.462-2.367,3.9-1.573.821.456,1.421,1.119,1.917,2.9l1.268,4.519Z" transform="translate(-320.319 -602.345)" fill="#fff"/>
                  <path id="Path_17715" data-name="Path 17715" d="M399.915,605.108c1.441.793,1.974,2.451.827,4.53a5.118,5.118,0,0,1-2.82,2.5l-.464-.818a4.313,4.313,0,0,0,2.468-2.127c.788-1.43.557-2.583-.514-3.174-1.035-.572-2.111-.218-3,1.386l-.341.617-.655-.36-1.674-4.038-2.426,4.405-.788-.433,3.056-5.542.629.345,1.719,4.13C397.052,604.735,398.535,604.347,399.915,605.108Z" transform="translate(-320.439 -602.053)" fill="#fff"/>
                </g>
                <g id="Group_5169" data-name="Group 5169" transform="translate(119.827 49.871)">
                  <rect id="Rectangle_3453" data-name="Rectangle 3453" width="78.866" height="4.275" transform="matrix(0.483, -0.876, 0.876, 0.483, 0, 69.073)" fill="#fff"/>
                </g>
                <g id="Group_5170" data-name="Group 5170" transform="translate(145.846 53.994)">
                  <rect id="Rectangle_3454" data-name="Rectangle 3454" width="40.451" height="4.276" transform="translate(0 35.423) rotate(-61.131)" fill="#fff"/>
                </g>
                <g id="Group_5171" data-name="Group 5171" transform="translate(39.336 136.559)">
                  <path id="Rectangle_3455" data-name="Rectangle 3455" d="M289.022,720.052l11.34-20.568a4.8,4.8,0,0,1,6.522-1.885l13.238,7.3a4.8,4.8,0,0,1,1.888,6.525h0L310.67,731.988a4.8,4.8,0,0,1-6.523,1.887h0l-13.238-7.3A4.8,4.8,0,0,1,289.022,720.052Z" transform="translate(-288.424 -697.001)" fill="#d9d9d8"/>
                </g>
                <g id="Group_5172" data-name="Group 5172" transform="translate(44.247 149.81)">
                  <path id="Path_17716" data-name="Path 17716" d="M302.524,733.332l-1.387-.763,8.225-14.921a3.567,3.567,0,1,0-6.246-3.444l-8.227,14.921-1.388-.765,8.225-14.922a5.152,5.152,0,0,1,9.1,4.825q-.039.074-.081.148Z" transform="translate(-293.5 -710.697)" fill="#e6e6e6"/>
                </g>
                <g id="Group_5173" data-name="Group 5173" transform="translate(58.389 140.602)">
                  <rect id="Rectangle_3456" data-name="Rectangle 3456" width="11.688" height="1.585" transform="translate(0 10.231) rotate(-61.082)" fill="#e6e6e6"/>
                </g>
                <g id="Group_5174" data-name="Group 5174" transform="translate(21.685 76.04)">
                  <rect id="Rectangle_3457" data-name="Rectangle 3457" width="85.106" height="7.304" transform="matrix(0.483, -0.876, 0.876, 0.483, 0, 74.534)" fill="#fff"/>
                </g>
              </g>
            </g>
          </g>
        </g>
        <g id="Group_5218" data-name="Group 5218" transform="translate(197.256)">
          <g id="Group_5180" data-name="Group 5180">
            <g id="Group_5179" data-name="Group 5179">
              <path id="Path_17717" data-name="Path 17717" d="M555.41,231.092c.9,12.827-.007,36.713,4.667,48.692s10.9,24.321,22.592,29.679c14.394,6.6,31.31,3.8,46.664,7.668,24.069,6.057,41.469,28.136,48.9,51.816S684.837,418,683.94,442.8L561.107,459.845s-.646-49.913-11.359-63.534-61.6-25.885-78.412-63.191c-15.128-33.573-19.69-86.817-19.69-86.817Z" transform="translate(-451.646 -231.092)" fill="#dfddd8"/>
            </g>
          </g>
          <g id="Group_5181" data-name="Group 5181" transform="translate(27.985 25.1)">
            <path id="Path_17718" data-name="Path 17718" d="M487.186,270.291l-2.2-2.5a5.608,5.608,0,0,1-.67.105l-2.259.237.282,2.664-.889.093-.876-8.4,3.146-.329c2.133-.223,3.543.723,3.732,2.521a2.619,2.619,0,0,1-1.644,2.843l2.352,2.668Zm-.624-5.516c-.14-1.348-1.11-2.028-2.789-1.847l-2.234.232.44,4.212,2.23-.231C485.893,266.964,486.7,266.092,486.562,264.775Z" transform="translate(-480.571 -257.2)" fill="#4d4e4e"/>
            <path id="Path_17719" data-name="Path 17719" d="M496.279,268.554l.078.769-5.942.62-.875-8.4,5.762-.6.078.769-4.872.508.313,2.989,4.344-.453.075.758-4.34.453.323,3.12Z" transform="translate(-480.862 -257.162)" fill="#4d4e4e"/>
            <path id="Path_17720" data-name="Path 17720" d="M497.474,264.963a4.24,4.24,0,0,1,3.711-4.711c.082-.01.165-.017.249-.022a4.087,4.087,0,0,1,3.2.9l-.506.619a3.344,3.344,0,0,0-2.588-.732,3.452,3.452,0,0,0-3.205,3.682c0,.057.009.114.016.171A3.451,3.451,0,0,0,502.1,268c.055,0,.111-.011.166-.018a3.317,3.317,0,0,0,2.38-1.268l.622.505a4.1,4.1,0,0,1-2.956,1.56,4.238,4.238,0,0,1-4.81-3.574C497.491,265.123,497.482,265.043,497.474,264.963Z" transform="translate(-481.119 -257.137)" fill="#4d4e4e"/>
            <path id="Path_17721" data-name="Path 17721" d="M513.45,266.764l.078.768-5.941.619-.875-8.4,5.761-.6.078.769-4.872.509.312,2.989,4.345-.454.076.759-4.342.451.324,3.122Z" transform="translate(-481.42 -257.104)" fill="#4d4e4e"/>
            <path id="Path_17722" data-name="Path 17722" d="M515.012,258.9l.888-.093.877,8.4-.887.093Z" transform="translate(-481.69 -257.093)" fill="#4d4e4e"/>
            <path id="Path_17723" data-name="Path 17723" d="M525.638,260.694c.185,1.79-1,3-3.134,3.227l-2.257.236.278,2.653-.889.094-.878-8.4,3.147-.329C524.041,257.95,525.449,258.9,525.638,260.694Zm-.888.1c-.14-1.348-1.111-2.027-2.79-1.849l-2.232.234.438,4.2,2.23-.232C524.079,262.969,524.883,262.109,524.75,260.791Z" transform="translate(-481.811 -257.071)" fill="#4d4e4e"/>
            <path id="Path_17724" data-name="Path 17724" d="M528.925,258.206l-2.953.308-.078-.768,6.793-.71.078.77-2.953.307.8,7.636-.888.092Z" transform="translate(-482.043 -257.035)" fill="#4d4e4e"/>
          </g>
          <g id="Group_5183" data-name="Group 5183" transform="translate(45.121 47.387)">
            <g id="Group_5182" data-name="Group 5182">
              <path id="Path_17725" data-name="Path 17725" d="M498.282,286.886c.022.168,11.213-1.216,24.99-3.1s24.933-3.538,24.91-3.707-11.21,1.215-24.993,3.1S498.258,286.717,498.282,286.886Z" transform="translate(-498.282 -280.07)" fill="#4d4e4e"/>
            </g>
          </g>
          <g id="Group_5185" data-name="Group 5185" transform="translate(46.464 57.388)">
            <g id="Group_5184" data-name="Group 5184">
              <path id="Path_17726" data-name="Path 17726" d="M499.67,297.223c.022.168,11.214-1.216,24.99-3.1s24.933-3.538,24.911-3.707-11.212,1.216-24.994,3.1S499.644,297.055,499.67,297.223Z" transform="translate(-499.67 -290.407)" fill="#4d4e4e"/>
            </g>
          </g>
          <g id="Group_5187" data-name="Group 5187" transform="translate(51.039 67.586)">
            <g id="Group_5186" data-name="Group 5186">
              <path id="Path_17727" data-name="Path 17727" d="M504.4,307.763c.024.17,11.214-1.216,24.992-3.1s24.932-3.537,24.91-3.707-11.212,1.216-24.993,3.1S504.376,307.595,504.4,307.763Z" transform="translate(-504.398 -300.947)" fill="#4d4e4e"/>
            </g>
          </g>
          <g id="Group_5189" data-name="Group 5189" transform="translate(59.37 77.873)">
            <g id="Group_5188" data-name="Group 5188">
              <path id="Path_17728" data-name="Path 17728" d="M513.009,318.4c.022.17,11.213-1.216,24.99-3.1s24.933-3.538,24.91-3.707-11.21,1.216-24.993,3.1S512.985,318.228,513.009,318.4Z" transform="translate(-513.009 -311.58)" fill="#4d4e4e"/>
            </g>
          </g>
          <g id="Group_5191" data-name="Group 5191" transform="translate(72.632 88.14)">
            <g id="Group_5190" data-name="Group 5190">
              <path id="Path_17729" data-name="Path 17729" d="M526.717,329.007c.024.168,11.214-1.216,24.992-3.1s24.932-3.538,24.91-3.707-11.212,1.216-24.993,3.1S526.691,328.841,526.717,329.007Z" transform="translate(-526.717 -322.191)" fill="#4d4e4e"/>
            </g>
          </g>
          <g id="Group_5193" data-name="Group 5193" transform="translate(22.746 55.508)">
            <g id="Group_5192" data-name="Group 5192">
              <path id="Path_17730" data-name="Path 17730" d="M475.156,290.494c.027.168,2.778-.139,6.144-.686s6.071-1.129,6.043-1.3-2.777.139-6.143.688S475.129,290.325,475.156,290.494Z" transform="translate(-475.156 -288.463)" fill="#4d4e4e"/>
            </g>
          </g>
          <g id="Group_5195" data-name="Group 5195" transform="translate(23.182 64.424)">
            <g id="Group_5194" data-name="Group 5194">
              <path id="Path_17731" data-name="Path 17731" d="M475.607,299.709c.027.167,2.778-.14,6.143-.688s6.072-1.128,6.044-1.3-2.777.139-6.143.686S475.58,299.54,475.607,299.709Z" transform="translate(-475.607 -297.678)" fill="#4d4e4e"/>
            </g>
          </g>
          <g id="Group_5197" data-name="Group 5197" transform="translate(26.206 76.744)">
            <g id="Group_5196" data-name="Group 5196">
              <path id="Path_17732" data-name="Path 17732" d="M478.732,312.462c.028.168,2.783-.155,6.152-.714a36.316,36.316,0,0,0,6.034-1.27c.019-.211-2.776.105-6.135.662S478.7,312.293,478.732,312.462Z" transform="translate(-478.732 -310.412)" fill="#4d4e4e"/>
            </g>
          </g>
          <g id="Group_5199" data-name="Group 5199" transform="translate(30.576 87.181)">
            <g id="Group_5198" data-name="Group 5198">
              <path id="Path_17733" data-name="Path 17733" d="M483.249,323.251c.027.168,2.782-.155,6.151-.713a36.429,36.429,0,0,0,6.035-1.272c.017-.211-2.777.105-6.137.662S483.221,323.084,483.249,323.251Z" transform="translate(-483.249 -321.2)" fill="#4d4e4e"/>
            </g>
          </g>
          <g id="Group_5201" data-name="Group 5201" transform="translate(39.973 97.104)">
            <g id="Group_5200" data-name="Group 5200">
              <path id="Path_17734" data-name="Path 17734" d="M492.961,333.507c.028.168,2.783-.155,6.152-.713a36.415,36.415,0,0,0,6.034-1.272c.019-.212-2.776.105-6.135.662S492.933,333.34,492.961,333.507Z" transform="translate(-492.961 -331.456)" fill="#4d4e4e"/>
            </g>
          </g>
          <g id="Group_5203" data-name="Group 5203" transform="translate(83.97 96.887)">
            <g id="Group_5202" data-name="Group 5202">
              <path id="Path_17735" data-name="Path 17735" d="M538.435,341.848c.024.17,16.82-2.068,37.513-5s37.453-5.44,37.429-5.612-16.817,2.068-37.516,5S538.411,341.679,538.435,341.848Z" transform="translate(-538.435 -331.231)" fill="#4d4e4e"/>
            </g>
          </g>
          <g id="Group_5205" data-name="Group 5205" transform="translate(92.643 105.195)">
            <g id="Group_5204" data-name="Group 5204">
              <path id="Path_17736" data-name="Path 17736" d="M547.4,352.619a4.121,4.121,0,0,0,.83-.067l2.364-.312,8.671-1.258,28.571-4.405c11.154-1.759,21.246-3.386,28.542-4.611l8.635-1.489c1.019-.193,1.806-.334,2.343-.449a4.156,4.156,0,0,0,.8-.209,4.416,4.416,0,0,0-.83.087l-2.358.334-8.665,1.295-28.57,4.433L559.2,350.551,550.554,352l-2.344.427A4.39,4.39,0,0,0,547.4,352.619Z" transform="translate(-547.399 -339.819)" fill="#4d4e4e"/>
            </g>
          </g>
          <g id="Group_5207" data-name="Group 5207" transform="translate(108.32 115.35)">
            <g id="Group_5206" data-name="Group 5206">
              <path id="Path_17737" data-name="Path 17737" d="M563.6,362.569a13.95,13.95,0,0,0,3.086-.272c2.014-.256,4.925-.66,8.514-1.181,7.185-1.042,17.1-2.547,28.044-4.257s20.85-3.306,28.013-4.491l8.476-1.437,2.3-.422a4.093,4.093,0,0,0,.8-.194,4.1,4.1,0,0,0-.815.066l-2.322.308-8.507,1.242-28.039,4.312-28.016,4.438C568.61,361.751,565.12,362.322,563.6,362.569Z" transform="translate(-563.603 -350.314)" fill="#4d4e4e"/>
            </g>
          </g>
          <g id="Group_5209" data-name="Group 5209" transform="translate(55.67 111.22)">
            <g id="Group_5208" data-name="Group 5208">
              <path id="Path_17738" data-name="Path 17738" d="M509.185,348.1c.027.168,2.782-.155,6.151-.713a36.429,36.429,0,0,0,6.035-1.272c.017-.212-2.777.105-6.137.662S509.156,347.93,509.185,348.1Z" transform="translate(-509.185 -346.046)" fill="#4d4e4e"/>
            </g>
          </g>
          <g id="Group_5211" data-name="Group 5211" transform="translate(67.772 117.955)">
            <g id="Group_5210" data-name="Group 5210">
              <path id="Path_17739" data-name="Path 17739" d="M521.694,355.056c.028.168,2.783-.156,6.152-.714a36.407,36.407,0,0,0,6.034-1.269c.019-.211-2.776.105-6.135.662S521.666,354.887,521.694,355.056Z" transform="translate(-521.694 -353.007)" fill="#4d4e4e"/>
            </g>
          </g>
          <g id="Group_5213" data-name="Group 5213" transform="translate(84.065 129.303)">
            <g id="Group_5212" data-name="Group 5212">
              <path id="Path_17740" data-name="Path 17740" d="M538.533,366.786c.028.168,2.783-.156,6.152-.714a36.509,36.509,0,0,0,6.034-1.27c.019-.212-2.776.105-6.135.66S538.5,366.618,538.533,366.786Z" transform="translate(-538.533 -364.736)" fill="#4d4e4e"/>
            </g>
          </g>
          <g id="Group_5215" data-name="Group 5215" transform="translate(115.214 135.003)">
            <g id="Group_5214" data-name="Group 5214">
              <path id="Path_17741" data-name="Path 17741" d="M570.728,384.888c.026.168,20.787-2.886,46.365-6.821s46.3-7.263,46.274-7.433-20.781,2.885-46.369,6.822S570.7,384.718,570.728,384.888Z" transform="translate(-570.728 -370.627)" fill="#4d4e4e"/>
            </g>
          </g>
          <g id="Group_5217" data-name="Group 5217" transform="translate(127.649 166.816)">
            <g id="Group_5216" data-name="Group 5216">
              <path id="Path_17742" data-name="Path 17742" d="M583.58,408.429c.027.168,6.833-.792,15.2-2.146s15.128-2.586,15.1-2.755-6.832.791-15.2,2.145S583.553,408.259,583.58,408.429Z" transform="translate(-583.58 -403.508)" fill="#4d4e4e"/>
            </g>
          </g>
        </g>
      </g>
      <g id="Floor" transform="translate(0 517.315)">
        <g id="Group_5220" data-name="Group 5220">
          <g id="Group_5219" data-name="Group 5219">
            <path id="Path_17743" data-name="Path 17743" d="M244.506,766.083c0,.171,114.554.309,255.823.309,141.321,0,255.847-.137,255.847-.309s-114.526-.309-255.847-.309C359.057,765.774,244.506,765.911,244.506,766.083Z" transform="translate(-244.506 -765.774)" fill="#4d4e4e"/>
          </g>
        </g>
      </g>
      <g id="Device" transform="translate(137.616 78.774)">
        <g id="Group_5479" data-name="Group 5479">
          <g id="Group_5385" data-name="Group 5385">
            <g id="Group_5384" data-name="Group 5384">
              <g id="Group_5383" data-name="Group 5383">
                <g id="Group_5382" data-name="Group 5382">
                  <g id="Group_5379" data-name="Group 5379">
                    <g id="Group_5378" data-name="Group 5378">
                      <path id="Path_17812" data-name="Path 17812" d="M421.032,752.957l149.442-.691a32.552,32.552,0,0,0,32.4-32.69l-1.588-374.654A32.553,32.553,0,0,0,568.6,312.511h-.01l-149.442.69a32.553,32.553,0,0,0-32.4,32.691l1.588,374.65a32.551,32.551,0,0,0,32.686,32.416Z" transform="translate(-386.742 -312.511)" fill="#030504"/>
                    </g>
                  </g>
                  <g id="Group_5381" data-name="Group 5381" transform="translate(11.152 10.52)">
                    <g id="Group_5380" data-name="Group 5380">
                      <path id="Path_17813" data-name="Path 17813" d="M420.968,324.072l28.973-.134A7.2,7.2,0,0,1,457,331.261l.022,5.256a7.2,7.2,0,0,0,7.063,7.323l56.477-.261a7.2,7.2,0,0,0,7-7.387l-.022-5.256a7.206,7.206,0,0,1,7-7.388l10.191-.047,25.359-.116a22.8,22.8,0,0,1,22.9,22.693v.01l1.548,365.688a22.8,22.8,0,0,1-22.693,22.9l-149.144.688a22.8,22.8,0,0,1-22.9-22.692v-.01l-1.548-365.69A22.8,22.8,0,0,1,420.968,324.072Z" transform="translate(-398.268 -323.384)" fill="#fff"/>
                    </g>
                  </g>
                </g>
              </g>
            </g>
          </g>
          <g id="Group_5386" data-name="Group 5386" transform="translate(185.968 44.327)">
            <path id="Path_17814" data-name="Path 17814" d="M579.563,364.075a.593.593,0,0,0,.429-.183l2.272-2.373a.592.592,0,0,0,.165-.423.6.6,0,0,0-.183-.417l-2.272-2.172a.594.594,0,0,0-.854.826c.011.011.021.021.033.031L581,361.127l-1.862,1.943a.594.594,0,0,0,.429,1Z" transform="translate(-578.953 -358.326)" fill="#1c262a"/>
          </g>
          <g id="Group_5442" data-name="Group 5442" transform="translate(79.563 145.542)">
            <g id="Group_5395" data-name="Group 5395">
              <g id="Group_5392" data-name="Group 5392">
                <circle id="Ellipse_398" data-name="Ellipse 398" cx="31.093" cy="31.093" r="31.093" fill="#ec4115"/>
              </g>
              <g id="Group_5077" data-name="Group 5077" transform="translate(16.528 16.595)">
                <path id="Path_3617" data-name="Path 3617" d="M486.058,509.357l29.3-29.267" transform="translate(-486.058 -480.09)" fill="none" stroke="#fff" stroke-width="3"/>
                <path id="Path_17097" data-name="Path 17097" d="M515.355,509.357l-29.3-29.267" transform="translate(-486.058 -480.09)" fill="none" stroke="#fff" stroke-width="3"/>
              </g>
            </g>
          </g>
          <g id="Group_5449" data-name="Group 5449" transform="translate(27.227 43.407)">
            <g id="Group_5444" data-name="Group 5444">
              <g id="Group_5443" data-name="Group 5443">
                <path id="Path_17874" data-name="Path 17874" d="M414.883,357.685c0,.171,3.757.309,8.388.309s8.387-.137,8.387-.309-3.754-.31-8.387-.31S414.883,357.514,414.883,357.685Z" transform="translate(-414.883 -357.375)" fill="#030504"/>
              </g>
            </g>
            <g id="Group_5446" data-name="Group 5446" transform="translate(0 3.496)">
              <g id="Group_5445" data-name="Group 5445">
                <path id="Path_17875" data-name="Path 17875" d="M414.883,361.3c0,.171,3.757.31,8.388.31s8.387-.139,8.387-.31-3.754-.309-8.387-.309S414.883,361.127,414.883,361.3Z" transform="translate(-414.883 -360.988)" fill="#030504"/>
              </g>
            </g>
            <g id="Group_5448" data-name="Group 5448" transform="translate(0 6.99)">
              <g id="Group_5447" data-name="Group 5447">
                <path id="Path_17876" data-name="Path 17876" d="M414.883,364.909c0,.171,3.757.31,8.388.31s8.387-.139,8.387-.31-3.754-.309-8.387-.309S414.883,364.737,414.883,364.909Z" transform="translate(-414.883 -364.6)" fill="#030504"/>
              </g>
            </g>
          </g>
        </g>
      </g>
      <g id="Plant" transform="translate(22.21 439.243)">
        <g id="Group_5495" data-name="Group 5495">
          <g id="Group_5481" data-name="Group 5481" transform="translate(19.908)">
            <g id="Group_5480" data-name="Group 5480">
              <path id="Path_17891" data-name="Path 17891" d="M296.946,685.148a14.733,14.733,0,0,0-7.635,8.647,26,26,0,0,0-1.013,11.714c.861,7.6,5.18,15.274,9.831,21.349,6.4-5.586,7.873-15.332,8.31-20.323.69-7.887-2.852-22.562-9.494-21.387" transform="translate(-288.037 -685.081)" fill="#ffb700"/>
            </g>
          </g>
          <g id="Group_5483" data-name="Group 5483" transform="translate(0 38.456)">
            <g id="Group_5482" data-name="Group 5482">
              <path id="Path_17892" data-name="Path 17892" d="M290.02,740.693a12.574,12.574,0,0,0-4.064-11.948,16.7,16.7,0,0,0-12.309-3.844c-2.037.156-4.237.75-5.4,2.427a5.373,5.373,0,0,0-.083,5.446,10.885,10.885,0,0,0,4.032,3.967c5.546,3.483,11.552,5.83,17.824,3.947" transform="translate(-267.461 -724.828)" fill="#ffb700"/>
            </g>
          </g>
          <g id="Group_5486" data-name="Group 5486" transform="translate(10.245 45.99)">
            <g id="Group_5485" data-name="Group 5485">
              <g id="Group_5484" data-name="Group 5484">
                <path id="Path_17893" data-name="Path 17893" d="M298.572,764.255a9.036,9.036,0,0,0-.229-1.56c-.2-1.1-.461-2.516-.774-4.222-.708-3.528-1.617-8.581-4.354-13.485A27.012,27.012,0,0,0,283.54,734.7a18.4,18.4,0,0,0-3.947-1.742,11.581,11.581,0,0,0-1.137-.29,1.159,1.159,0,0,0-.406-.056,28.723,28.723,0,0,1,5.287,2.427,27.889,27.889,0,0,1,9.4,10.217c2.688,4.8,3.652,9.786,4.456,13.3.387,1.769.7,3.2.948,4.186A8.124,8.124,0,0,0,298.572,764.255Z" transform="translate(-278.05 -732.615)" fill="#1c262a"/>
              </g>
            </g>
          </g>
          <g id="Group_5489" data-name="Group 5489" transform="translate(29.724 11.48)">
            <g id="Group_5488" data-name="Group 5488">
              <g id="Group_5487" data-name="Group 5487">
                <path id="Path_17894" data-name="Path 17894" d="M298.986,696.947a3.075,3.075,0,0,0-.078.677c-.031.506-.069,1.155-.116,1.958-.092,1.7-.194,4.166-.29,7.211-.193,6.091-.351,14.513-.312,23.809s.27,17.719.519,23.809c.125,3.044.246,5.507.351,7.208.054.8.1,1.451.133,1.957.037.448-.019,0,0,0-.084-.677.113.444.111,0q-.01-.759-.028-1.962c-.044-1.771-.1-4.218-.176-7.211-.15-6.089-.314-14.5-.356-23.8s.053-17.706.15-23.8c.047-2.995.085-5.44.113-7.214.006-.805.01-1.451.013-1.962A3.316,3.316,0,0,0,298.986,696.947Z" transform="translate(-298.183 -696.947)" fill="#1c262a"/>
              </g>
            </g>
          </g>
          <g id="Group_5491" data-name="Group 5491" transform="translate(33.63 36.361)">
            <g id="Group_5490" data-name="Group 5490">
              <path id="Path_17895" data-name="Path 17895" d="M302.22,745.251a29.4,29.4,0,0,1,16.061-21.535c2.139-1.024,4.934-1.693,6.691-.1s1.366,4.451.505,6.667a25.118,25.118,0,0,1-23.1,15.6" transform="translate(-302.22 -722.663)" fill="#ffb700"/>
            </g>
          </g>
          <g id="Group_5494" data-name="Group 5494" transform="translate(30.439 44.625)">
            <g id="Group_5493" data-name="Group 5493">
              <g id="Group_5492" data-name="Group 5492">
                <path id="Path_17896" data-name="Path 17896" d="M317.133,731.2a7.558,7.558,0,0,0-1.355.591,14.743,14.743,0,0,0-1.534.819c-.575.36-1.269.71-1.953,1.226a25.891,25.891,0,0,0-2.235,1.683,28.781,28.781,0,0,0-2.38,2.161,32.692,32.692,0,0,0-4.52,5.805,32,32,0,0,0-2.979,6.734,27.8,27.8,0,0,0-.752,3.127,23.51,23.51,0,0,0-.387,2.773,21.549,21.549,0,0,0-.106,2.3,13.07,13.07,0,0,0,.052,1.742,7.455,7.455,0,0,0,.164,1.473c.125,0-.1-2.114.281-5.476a25.187,25.187,0,0,1,.445-2.724,29.133,29.133,0,0,1,.789-3.065,33.337,33.337,0,0,1,2.965-6.6,34.048,34.048,0,0,1,4.411-5.736,30.375,30.375,0,0,1,2.31-2.166,27.54,27.54,0,0,1,2.165-1.714C315.26,732.188,317.189,731.31,317.133,731.2Z" transform="translate(-298.922 -731.204)" fill="#1c262a"/>
              </g>
            </g>
          </g>
        </g>
      </g>
      <g id="Payment_Failed" data-name="Payment Failed" transform="translate(192.198 316.04)" style="isolation: isolate">
        <g id="Group_5505" data-name="Group 5505" style="isolation: isolate">
          <path id="Path_17950" data-name="Path 17950" d="M443.156,576.976V557.742h8.073a5.34,5.34,0,0,1,2.4.542,6.168,6.168,0,0,1,1.884,1.422,6.712,6.712,0,0,1,1.233,2,6.147,6.147,0,0,1,.447,2.289,6.652,6.652,0,0,1-.42,2.343,6.573,6.573,0,0,1-1.178,2,5.75,5.75,0,0,1-1.829,1.409,5.285,5.285,0,0,1-2.37.528h-5.2v6.691Zm3.034-9.373H451.2a2.533,2.533,0,0,0,1.177-.271,2.7,2.7,0,0,0,.909-.759,3.8,3.8,0,0,0,.6-1.138A4.524,4.524,0,0,0,454.1,564a4.142,4.142,0,0,0-.244-1.463,3.444,3.444,0,0,0-.677-1.124,3.126,3.126,0,0,0-.989-.731,2.717,2.717,0,0,0-1.151-.257H446.19Z" transform="translate(-443.156 -557.742)" fill="#1b1b1b"/>
          <path id="Path_17951" data-name="Path 17951" d="M463.8,577.409a5.288,5.288,0,0,1-1.911-.339,4.592,4.592,0,0,1-1.516-.935,4.332,4.332,0,0,1-1-1.409,4.238,4.238,0,0,1-.366-1.76,3.794,3.794,0,0,1,.432-1.816,4.236,4.236,0,0,1,1.234-1.408,5.945,5.945,0,0,1,1.9-.922,8.511,8.511,0,0,1,2.425-.325,11.13,11.13,0,0,1,1.978.176,10.068,10.068,0,0,1,1.762.474v-.975a3.289,3.289,0,0,0-.894-2.452,3.519,3.519,0,0,0-2.574-.88,6.218,6.218,0,0,0-2.236.42,11.365,11.365,0,0,0-2.262,1.206l-.921-1.9a10.053,10.053,0,0,1,5.69-1.842,6.482,6.482,0,0,1,4.55,1.49,5.517,5.517,0,0,1,1.626,4.28v5.12q0,.949.785.975v2.547q-.434.081-.744.108t-.61.027a1.917,1.917,0,0,1-1.342-.433,1.849,1.849,0,0,1-.582-1.111l-.081-.894a6.319,6.319,0,0,1-2.343,1.91A6.89,6.89,0,0,1,463.8,577.409Zm.813-2.194a5.363,5.363,0,0,0,2.044-.392,3.531,3.531,0,0,0,1.5-1.1,1.377,1.377,0,0,0,.569-1.029v-1.869a9.085,9.085,0,0,0-1.612-.461,8.9,8.9,0,0,0-1.666-.163,4.551,4.551,0,0,0-2.614.691,2.119,2.119,0,0,0-1.017,1.829,2.306,2.306,0,0,0,.786,1.774A2.857,2.857,0,0,0,464.612,575.215Z" transform="translate(-443.671 -557.904)" fill="#1b1b1b"/>
          <path id="Path_17952" data-name="Path 17952" d="M475.932,580.478c.271.054.538.1.8.135a4.939,4.939,0,0,0,.637.054,1.2,1.2,0,0,0,.61-.149,1.827,1.827,0,0,0,.528-.527,5.481,5.481,0,0,0,.555-1.071c.191-.461.41-1.053.664-1.774L473.9,562.979h3.061l4.39,11.54,3.9-11.54h2.817l-6.42,17.445a4.27,4.27,0,0,1-4.253,2.873,6.159,6.159,0,0,1-.677-.041,4.367,4.367,0,0,1-.786-.177Z" transform="translate(-444.155 -557.912)" fill="#1b1b1b"/>
          <path id="Path_17953" data-name="Path 17953" d="M512.484,577.138H509.5V569.2a5.106,5.106,0,0,0-.65-2.9,2.177,2.177,0,0,0-1.9-.921,3.388,3.388,0,0,0-2.317.936,5.257,5.257,0,0,0-1.5,2.424v8.4h-2.98V569.2a5.089,5.089,0,0,0-.65-2.912,2.16,2.16,0,0,0-1.87-.908,3.466,3.466,0,0,0-2.329.921,5.117,5.117,0,0,0-1.517,2.411v8.425h-2.981V562.971h2.709v2.844a6,6,0,0,1,2.208-2.289,6.1,6.1,0,0,1,3.13-.8,3.789,3.789,0,0,1,4.036,3.224,6.484,6.484,0,0,1,2.249-2.4,5.811,5.811,0,0,1,3.087-.826,4.127,4.127,0,0,1,2.073.474,3.672,3.672,0,0,1,1.313,1.261,5.192,5.192,0,0,1,.678,1.828,12.4,12.4,0,0,1,.19,2.208Z" transform="translate(-444.704 -557.904)" fill="#1b1b1b"/>
          <path id="Path_17954" data-name="Path 17954" d="M523.157,577.409a7.535,7.535,0,0,1-3.006-.582,7,7,0,0,1-2.317-1.585,7.16,7.16,0,0,1-1.49-2.33,7.565,7.565,0,0,1-.528-2.817,7.672,7.672,0,0,1,.528-2.831,7.292,7.292,0,0,1,1.49-2.357,6.9,6.9,0,0,1,2.317-1.6,7.606,7.606,0,0,1,3.034-.582,7.3,7.3,0,0,1,2.993.6,7.181,7.181,0,0,1,2.29,1.585,6.806,6.806,0,0,1,1.449,2.3,7.659,7.659,0,0,1,.5,2.75q0,.325-.026.609c-.018.19-.037.347-.055.474h-11.35a4.828,4.828,0,0,0,.447,1.707,4.5,4.5,0,0,0,.947,1.314,4.163,4.163,0,0,0,2.886,1.151,4.715,4.715,0,0,0,1.177-.149,4.094,4.094,0,0,0,1.071-.433,3.78,3.78,0,0,0,.866-.691,3.235,3.235,0,0,0,.6-.893l2.546.73a5.906,5.906,0,0,1-2.425,2.615A7.521,7.521,0,0,1,523.157,577.409Zm4.307-8.425a4.745,4.745,0,0,0-.447-1.653,4.272,4.272,0,0,0-.934-1.287,4.188,4.188,0,0,0-1.327-.826,4.343,4.343,0,0,0-1.6-.3,4.244,4.244,0,0,0-2.9,1.124,4.1,4.1,0,0,0-.92,1.287,4.93,4.93,0,0,0-.433,1.653Z" transform="translate(-445.516 -557.904)" fill="#1b1b1b"/>
          <path id="Path_17955" data-name="Path 17955" d="M546.132,577.138h-2.981V569.2a5.182,5.182,0,0,0-.636-2.912,2.153,2.153,0,0,0-1.883-.908,3.678,3.678,0,0,0-1.3.244,4.55,4.55,0,0,0-1.22.692,5.37,5.37,0,0,0-1.015,1.056,4.84,4.84,0,0,0-.691,1.341v8.425h-2.98V562.971h2.709v2.844a5.756,5.756,0,0,1,2.357-2.262,7.122,7.122,0,0,1,3.412-.826,4.2,4.2,0,0,1,2.087.461,3.458,3.458,0,0,1,1.287,1.26,5.534,5.534,0,0,1,.664,1.842,12.4,12.4,0,0,1,.19,2.208Z" transform="translate(-446.088 -557.904)" fill="#1b1b1b"/>
          <path id="Path_17956" data-name="Path 17956" d="M557.848,576.259a14.778,14.778,0,0,1-1.571.609,6.652,6.652,0,0,1-2.14.339,4.552,4.552,0,0,1-1.327-.19,3.267,3.267,0,0,1-1.1-.568,2.591,2.591,0,0,1-.745-.99,3.619,3.619,0,0,1-.271-1.476v-8.859h-1.869v-2.3H550.7v-4.661h2.98v4.661h3.088v2.3h-3.088v7.91a1.467,1.467,0,0,0,.474,1.1,1.609,1.609,0,0,0,1.043.34,3.329,3.329,0,0,0,1.192-.218q.569-.216.84-.352Z" transform="translate(-446.588 -557.756)" fill="#1b1b1b"/>
        </g>
        <g id="Group_5506" data-name="Group 5506" transform="translate(18.476 31.386)" style="isolation: isolate">
          <path id="Path_17957" data-name="Path 17957" d="M462.252,609.976V590.742h12.813v2.682h-9.779v5.743h8.181v2.519h-8.181v8.29Z" transform="translate(-462.252 -590.2)" fill="#1b1b1b"/>
          <path id="Path_17958" data-name="Path 17958" d="M479.423,610.409a5.279,5.279,0,0,1-1.91-.339,4.587,4.587,0,0,1-1.517-.935,4.332,4.332,0,0,1-1-1.409,4.237,4.237,0,0,1-.366-1.76,3.794,3.794,0,0,1,.432-1.816,4.237,4.237,0,0,1,1.234-1.408,5.941,5.941,0,0,1,1.9-.922,8.5,8.5,0,0,1,2.424-.325,11.132,11.132,0,0,1,1.979.176,10.056,10.056,0,0,1,1.761.474v-.975a3.285,3.285,0,0,0-.894-2.452,3.519,3.519,0,0,0-2.574-.88,6.209,6.209,0,0,0-2.235.42,11.337,11.337,0,0,0-2.262,1.206l-.922-1.9a10.053,10.053,0,0,1,5.69-1.842,6.482,6.482,0,0,1,4.55,1.49,5.513,5.513,0,0,1,1.626,4.28v5.12q0,.949.785.975v2.547c-.289.054-.536.09-.744.108s-.411.027-.61.027a1.913,1.913,0,0,1-1.341-.433,1.851,1.851,0,0,1-.582-1.111l-.081-.894a6.311,6.311,0,0,1-2.343,1.91A6.887,6.887,0,0,1,479.423,610.409Zm.813-2.194a5.371,5.371,0,0,0,2.045-.392,3.534,3.534,0,0,0,1.5-1.1,1.378,1.378,0,0,0,.569-1.029v-1.869a9.038,9.038,0,0,0-1.612-.461,8.892,8.892,0,0,0-1.666-.163,4.555,4.555,0,0,0-2.614.691,2.118,2.118,0,0,0-1.016,1.829,2.306,2.306,0,0,0,.786,1.774A2.855,2.855,0,0,0,480.236,608.215Z" transform="translate(-462.654 -590.362)" fill="#1b1b1b"/>
          <path id="Path_17959" data-name="Path 17959" d="M491.483,593.46v-3.278h2.98v3.278Zm0,16.5V595.791h2.98v14.167Z" transform="translate(-463.201 -590.182)" fill="#1b1b1b"/>
          <path id="Path_17960" data-name="Path 17960" d="M498.287,590.182h2.98v15.686a1.763,1.763,0,0,0,.406,1.232,1.46,1.46,0,0,0,1.138.447,2.663,2.663,0,0,0,.691-.107q.392-.11.745-.245l.433,2.33a6.891,6.891,0,0,1-1.543.474,8.412,8.412,0,0,1-1.6.176,3.274,3.274,0,0,1-2.4-.839,3.2,3.2,0,0,1-.853-2.385Z" transform="translate(-463.423 -590.182)" fill="#1b1b1b"/>
          <path id="Path_17961" data-name="Path 17961" d="M513.077,610.409a7.535,7.535,0,0,1-3.006-.582,6.992,6.992,0,0,1-2.317-1.585,7.144,7.144,0,0,1-1.49-2.33,7.546,7.546,0,0,1-.528-2.817,7.652,7.652,0,0,1,.528-2.831,7.276,7.276,0,0,1,1.49-2.357,6.888,6.888,0,0,1,2.317-1.6,7.606,7.606,0,0,1,3.034-.582,7.3,7.3,0,0,1,2.993.6,7.175,7.175,0,0,1,2.289,1.585,6.806,6.806,0,0,1,1.45,2.3,7.658,7.658,0,0,1,.5,2.75c0,.217-.01.42-.026.609s-.037.347-.055.474H508.9a4.849,4.849,0,0,0,.448,1.707,4.493,4.493,0,0,0,.947,1.314,4.107,4.107,0,0,0,1.327.853,4.168,4.168,0,0,0,1.558.3,4.718,4.718,0,0,0,1.178-.149,4.087,4.087,0,0,0,1.07-.433,3.806,3.806,0,0,0,.867-.691,3.21,3.21,0,0,0,.6-.893l2.547.73a5.912,5.912,0,0,1-2.425,2.615A7.523,7.523,0,0,1,513.077,610.409Zm4.307-8.425a4.743,4.743,0,0,0-.447-1.652,4.274,4.274,0,0,0-.935-1.287,4.184,4.184,0,0,0-1.326-.826,4.35,4.35,0,0,0-1.6-.3,4.239,4.239,0,0,0-2.9,1.124,4.078,4.078,0,0,0-.92,1.287,4.93,4.93,0,0,0-.434,1.652Z" transform="translate(-463.664 -590.362)" fill="#1b1b1b"/>
          <path id="Path_17962" data-name="Path 17962" d="M529.087,610.229a6.081,6.081,0,0,1-2.655-.582,6.64,6.64,0,0,1-2.113-1.585,7.35,7.35,0,0,1-1.4-2.343,8.549,8.549,0,0,1-.026-5.689,7.417,7.417,0,0,1,1.327-2.316,6.406,6.406,0,0,1,2-1.585,5.848,5.848,0,0,1,5.541.244,6.019,6.019,0,0,1,2.032,2.1v-8.29h2.98v16.254a1.176,1.176,0,0,0,.175.731.849.849,0,0,0,.637.244v2.547c-.307.054-.555.09-.744.108s-.347.027-.474.027a2.249,2.249,0,0,1-1.463-.461,1.627,1.627,0,0,1-.624-1.192l-.053-1.057a5.651,5.651,0,0,1-2.14,2.086A6.049,6.049,0,0,1,529.087,610.229Zm.732-2.545a4.1,4.1,0,0,0,1.3-.218,4.664,4.664,0,0,0,1.192-.6,4.12,4.12,0,0,0,.934-.894,3.192,3.192,0,0,0,.556-1.111v-3.711a4.492,4.492,0,0,0-.69-1.246,4.966,4.966,0,0,0-1.017-.975,4.655,4.655,0,0,0-1.206-.623,3.979,3.979,0,0,0-1.287-.217,3.365,3.365,0,0,0-1.639.406,4.237,4.237,0,0,0-1.287,1.084,5.333,5.333,0,0,0-.854,1.544,5.268,5.268,0,0,0-.311,1.788,5.005,5.005,0,0,0,.339,1.842,4.792,4.792,0,0,0,.935,1.517,4.574,4.574,0,0,0,1.368,1.029A3.72,3.72,0,0,0,529.819,607.683Z" transform="translate(-464.206 -590.182)" fill="#1b1b1b"/>
        </g>
      </g>
    </g>
    <g id="Group_5500" data-name="Group 5500" transform="translate(557.175 354.48)">
      <path id="Path_17897" data-name="Path 17897" d="M589.266,400.638s-.552-8.926-.484-12.792,9.614-14.953,12.856-14.953,2.161,10.219,1.622,13.4,1.081,6.061-.721,8.583-5.346,7.868-5.346,7.868Z" transform="translate(-568.358 -359.086)" fill="#f58c5c"/>
      <path id="Path_17898" data-name="Path 17898" d="M647.143,416.078l-15.324,14.691a47,47,0,0,1-8.748-9.841c-.357-.526-.7-1.052-1.027-1.571a74.443,74.443,0,0,1-4.63-8.735q-.266-.58-.493-1.1c-.847-1.849,8.506-7.769,13.79-11.519a20.33,20.33,0,0,0,3.329-2.75,14.954,14.954,0,0,0-.017,4.167,17.114,17.114,0,0,0,4.62,8.653C643.994,413.951,647.143,416.078,647.143,416.078Z" transform="translate(-569.27 -359.813)" fill="#faa178"/>
      <path id="Path_17899" data-name="Path 17899" d="M635.572,399.933s-3.037,16.146-12.481,21.147c-.357-.526-.7-1.052-1.027-1.571a74.605,74.605,0,0,1-4.63-8.735c1.149-2.389,9.022-7.415,13.7-10.734C633.777,399.986,635.572,399.933,635.572,399.933Z" transform="translate(-569.288 -359.965)" fill="#f58c5c"/>
      <path id="Path_17900" data-name="Path 17900" d="M616.178,417.008s22.936-7.658,17.947-21.866-5.388-24.768-20.242-20.48-15.781,10.7-15.27,15.853S610.087,418.634,616.178,417.008Z" transform="translate(-568.674 -359.113)" fill="#faa178"/>
      <path id="Path_17901" data-name="Path 17901" d="M635.622,398.942s-2.334-1.548,2.8-9.657c2.646-4.181,5-8.112,1.258-14.913s-3.512-12.282-13.844-12.28-11.373-4.785-16.641-3.116-9.941,9.4-14.447,10.855-7.924,25.065,2.388,24.412c0,0,3.877-1.929,5.612-5.048s10.526-10.226,13.321-7.909S630.076,399.051,635.622,398.942Z" transform="translate(-568.409 -358.623)" fill="#030504"/>
      <path id="Path_17902" data-name="Path 17902" d="M629.382,428.029c-7.809-.463-22.01,6.628-34.823,14.958l2.95-40.188c-2.568-4.451-9.772-2.823-9.772-2.823s-4.257,3.733-12.261,26.593a145.075,145.075,0,0,0-7.8,40.2c.29,10.6,8.9,11.181,8.9,11.181,27.495-4.644,72.734-24.894,72.734-24.894C655.038,445.963,645.946,429.013,629.382,428.029Z" transform="translate(-567.672 -359.957)" fill="#ffb600"/>
      <path id="Path_17903" data-name="Path 17903" d="M639.962,760.8c-.206,2.263-.7,4.176-1.718,4.659a3.568,3.568,0,0,1-.871.224H602.93c-.922-.028-1.445-.046-1.445-.046s.087-4.257,5.942-5.08c4.731-.663,12.384-2.919,16.143-7.822a10.657,10.657,0,0,0,1.927-3.945c1.9-7.689,14.3,2.666,14.3,2.666s.141,1.34.227,3.2A45.9,45.9,0,0,1,639.962,760.8Z" transform="translate(-568.77 -371.204)" fill="#1f313d"/>
      <path id="Path_17904" data-name="Path 17904" d="M673.346,765.678H635.07a8.763,8.763,0,0,1,5.982-4.882,10.392,10.392,0,0,1,1.224-.245c4.126-.581,10.472-2.368,14.522-6.067a11.392,11.392,0,0,0,3.549-5.7c1.894-7.689,14.3,2.666,14.3,2.666s.13,1.229.224,2.973C675.071,758.2,675.118,764.389,673.346,765.678Z" transform="translate(-569.861 -371.204)" fill="#1f313d"/>
      <path id="Path_17905" data-name="Path 17905" d="M656.04,550.984s-.029,1.389-.084,3.887c-.347,16.106-1.723,78.381-3.029,113.1-.054,1.265-.1,2.486-.146,3.677-.025.627-.05,1.258-.076,1.883a376.3,376.3,0,0,1-5.361,46.364c-2.932,16.763-5.912,28.179-5.912,28.179C630.249,750.342,623,746.09,623,746.09s-3.016-26.016-4.16-41.761c-.377-5.109-2.218-22.544-4.529-43.749-1.792-16.4-3.86-35.058-5.763-52.026-.1-.9-.193-1.807-.3-2.7-3.068-27.434-5.612-49.779-5.612-49.779l19.772-1.884Z" transform="translate(-568.808 -364.871)" fill="#292332"/>
      <path id="Path_17906" data-name="Path 17906" d="M647.344,720l-33.033-59.32c-1.792-16.4-3.861-35.058-5.763-52.026-.1-.9-.193-1.807-.3-2.7-3.068-27.434-5.612-49.779-5.612-49.779l19.772-1.884,33.543.686Z" transform="translate(-568.808 -364.979)" fill="#1a171f"/>
      <path id="Path_17907" data-name="Path 17907" d="M606.417,556.208s18.48,91.362,33.542,135.453,15.252,56.347,15.252,56.347,13.819,3,19.907-.484c0,0,3.483-83.594-5.634-105.79-6.028-14.684-10.643-45.936-9.072-57.191s3.029-33.831,3.029-33.831Z" transform="translate(-568.93 -364.862)" fill="#292332"/>
      <path id="Path_17908" data-name="Path 17908" d="M665.409,544.14c-1.037,5.589-3.516,10.042-7.346,12.756-4.367,3.1-11.253,4.209-18.835,4.094a103.107,103.107,0,0,1-26.487-4.317,61.741,61.741,0,0,1-10.482-4.032c-11.707-6.1-10.047-14.229-9.765-44.637.284-31.035,19.386-71.153,22.827-77.87,6.122-11.956,32.1-8.024,32.1-8.024,5.7,5.225,10.683,12.809,14.081,24.934,1.376,4.907,2.18,11.772,2.64,19.483,1.406,23.558-.41,54.975.963,62.308A42.089,42.089,0,0,1,665.409,544.14Z" transform="translate(-568.47 -360.665)" fill="#ffd04e"/>
      <path id="Path_17909" data-name="Path 17909" d="M644.778,409.881s4.25,10.062,3.392,11.852c0,0-23.34,2.2-32.84,8.97,0,0,3.125-9.772,6.924-12.2S644.778,409.881,644.778,409.881Z" transform="translate(-569.22 -360.288)" fill="#ffb600"/>
      <path id="Path_17910" data-name="Path 17910" d="M666.91,545.356c-48.341-18.4-20.741-86.431-20.741-86.431,6.764.484,13.391,3.766,19.476,8.817,1.406,23.558-.41,54.975.962,62.308A42.073,42.073,0,0,1,666.91,545.356Z" transform="translate(-569.967 -361.881)" fill="#ffb600"/>
      <path id="Path_17911" data-name="Path 17911" d="M650.179,519.527s-2.649,4.588-5.2,3.507-7.693-2.225-11.513.24-9.588,9.109-5.986,10.731,10.449-2.683,12.071-3.4,4.444.721,7.567-.841a31.458,31.458,0,0,0,6.366-4.684Z" transform="translate(-569.578 -363.849)" fill="#faa178"/>
      <path id="Path_17912" data-name="Path 17912" d="M703.974,475.88c-17.99-21.306-59.426-49.068-59.426-49.068-9.024-1.319-18.99,15.132-11.41,29.9,4.383,8.534,23.124,18.709,39.281,25.124l-26.27,35.922c-2.065,7.637,9.741,5.606,9.741,5.606s9.822-2.907,27.626-17.558a64.581,64.581,0,0,0,17.591-22.075A21.647,21.647,0,0,0,703.974,475.88Z" transform="translate(-569.711 -360.835)" fill="#ffd04e"/>
    </g>
  </g>
</svg>
