<svg xmlns="http://www.w3.org/2000/svg" xmlns:xlink="http://www.w3.org/1999/xlink" width="164.961" height="140.725" viewBox="0 0 164.961 140.725">
  <defs>
    <linearGradient id="linear-gradient" y1="0.5" x2="1" y2="0.5" gradientUnits="objectBoundingBox">
      <stop offset="0" stop-color="#999"/>
      <stop offset="0.667" stop-color="#5c5c5c"/>
      <stop offset="1" stop-color="#3d3d3d"/>
    </linearGradient>
    <linearGradient id="linear-gradient-3" y1="0.5" x2="1" y2="0.5" gradientUnits="objectBoundingBox">
      <stop offset="0" stop-color="#ffe887"/>
      <stop offset="0.174" stop-color="#fdde7b"/>
      <stop offset="0.485" stop-color="#f7c55c"/>
      <stop offset="0.895" stop-color="#ef9e2a"/>
      <stop offset="1" stop-color="#ed931d"/>
    </linearGradient>
  </defs>
  <g id="refer_a_friend" data-name="refer a friend" transform="translate(-941.489 -421.629)">
    <g id="Group_8753" data-name="Group 8753" transform="translate(948.338 450.314)">
      <path id="Path_19519" data-name="Path 19519" d="M1226.28,831.154c.057,2.087.6,6.566,5.328,7.306,2.938.459,6.7-2.18,6.458-4.117s-.78-6.875-3.848-8.005C1231.655,825.393,1226.153,826.5,1226.28,831.154Z" transform="translate(-1202.071 -810.612)"/>
      <path id="Path_19520" data-name="Path 19520" d="M1588.4,1487.663c.669,2.81,1.2,6.865,1.392,7.091.094.109.289.817.383.932,3.056,1.111,5.742-.035,7.87-1.3a31.5,31.5,0,0,1-4.229-.824c-1.161-.82-.884-3.738-1.093-6.357C1591.9,1487.353,1589.891,1486.831,1588.4,1487.663Z" transform="translate(-1524.704 -1399.664)" fill="#f7a4a4"/>
      <path id="Path_19521" data-name="Path 19521" d="M1600.58,1553.513a8.569,8.569,0,0,0,.955,3.476c.264,0,9.448-.8,10.314-2.208.521-.847-.894-1.068-2.951-1.474C1606.768,1554.569,1600.835,1554.208,1600.58,1553.513Z" transform="translate(-1535.555 -1458.583)" fill="#231c59"/>
      <path id="Path_19522" data-name="Path 19522" d="M1131.781,1549.137a41.808,41.808,0,0,1-4.544,3.123c-.13.062-.864.059-1,.12-1.89,2.647-1.5,5.541-.858,7.93.732-1.529,1.594-3.663,1.927-3.853a44.891,44.891,0,0,1,5.88-2.837C1132.021,1552.357,1132.183,1550.8,1131.781,1549.137Z" transform="translate(-1111.701 -1454.868)" fill="#f7a4a4"/>
      <path id="Path_19523" data-name="Path 19523" d="M1124.845,1010.7l-6.564,11.942s-4.389,5.523-6.649,8.359c.487.8.957,1.613,1.378,2.452,2.248-1.912,7.031-5.969,8.739-8.211,2.523-3.312,7.088-11.176,7.088-11.176Z" transform="translate(-1099.927 -975.145)" fill="#f7a4a4"/>
      <path id="Path_19524" data-name="Path 19524" d="M1335.3,1201.29l-7.021,10.357s-.4-.694,2.112.226,18.73,3.948,19.689,5.094c.679.81,5.709,16.717,6.677,18.759,1.459.591,3.58-.065,5.078-.281.1-7.663-3.962-21.612-5.044-23.247-2.42-3.656-13.941-7.6-19.127-9.82-.841-.359-1.494-.682-1.9-.877C1335.464,1201.357,1335.3,1201.29,1335.3,1201.29Z" transform="translate(-1292.927 -1144.953)" fill="#7400d7"/>
      <path id="Path_19525" data-name="Path 19525" d="M1110.243,1576.283c-1.074-.279-3.265-.27-3.322-.057-.067.255-1.761,9.317-.636,10.529.677.728,1.269-.575,2.211-2.449C1107.851,1581.917,1109.5,1576.342,1110.243,1576.283Z" transform="translate(-1094.82 -1478.863)" fill="#231c59"/>
      <path id="Path_19526" data-name="Path 19526" d="M1201.661,1189.43c.061-.778,1.724-5.318,2.313-7.086.019-.056-.417-1.078-.887-2.549l-.674.108-9.982.452s-4.02,6.79-3.552,9.909c.653,4.355,6.949,19.835,5.992,20.565-1.728,1.316-10.194,6.222-14.544,9.138a13.148,13.148,0,0,0,2.124,5.381c3.54-1.231,18.838-7.4,20.411-12.129C1204.254,1209.04,1201.558,1190.752,1201.661,1189.43Z" transform="translate(-1161.131 -1125.802)" fill="#9f3bf5"/>
      <path id="Path_19527" data-name="Path 19527" d="M1338.78,918.082s-2.749,4.319-4.37,4.475l5.733,5.3s3.906-5.856,4.313-6.861C1344.457,921,1340.9,917.835,1338.78,918.082Z" transform="translate(-1298.411 -892.616)" fill="#c4c4c4"/>
      <path id="Path_19528" data-name="Path 19528" d="M1232.426,979.336a15.268,15.268,0,0,0,.476,4.979c-2.305.5-10.478,1.537-12.477-.9-.072-.087,2.83-5.205,2.431-7.3a40.358,40.358,0,0,0-3.361-8.589c-.356-.47-1.665,1.962-1.665,1.962-1.533.008-5.045-3.556-5.045-3.556s3.632-6.326,4.631-6.921,9.255-1.493,9.262-1.494c.607-.044,2.267,1.4,2.723,1.852C1234.62,964.584,1233.214,972.045,1232.426,979.336Z" transform="translate(-1190.049 -927.77)" fill="#dfdbe2"/>
      <path id="Path_19529" data-name="Path 19529" d="M1297.5,917.4a23.421,23.421,0,0,1,.906,4.182c.006,1.209.489,2.854,3.023,2.6s.455-2.8.1-3.948a45.09,45.09,0,0,1-.791-4.773Z" transform="translate(-1265.528 -890.296)" fill="#f7a4a4"/>
      <path id="Path_19530" data-name="Path 19530" d="M1300.976,917.28c-.142-.989-.24-1.816-.24-1.816L1297.5,917.4s.184.608.386,1.386A2.982,2.982,0,0,0,1300.976,917.28Z" transform="translate(-1265.528 -890.296)" fill="#e89a9a"/>
      <path id="Path_19531" data-name="Path 19531" d="M1259.137,845.588a4.573,4.573,0,0,0-1.675,2.686c-.342,1.755.7,6.083,4.464,6.765s4.988-2.958,3.955-5.6S1262.854,843.529,1259.137,845.588Z" transform="translate(-1229.799 -827.462)" fill="#f7a4a4"/>
      <path id="Path_19532" data-name="Path 19532" d="M1325.651,865.252c0,.737-.341,1.337-.771,1.339s-.781-.594-.785-1.331.341-1.337.771-1.339S1325.647,864.515,1325.651,865.252Z" transform="translate(-1289.221 -844.374)" fill="#f7a4a4"/>
      <path id="Path_19533" data-name="Path 19533" d="M1257.6,904.673c.5.594.571,1.346.17,1.681s-1.128.125-1.623-.469-.571-1.346-.17-1.681S1257.1,904.079,1257.6,904.673Z" transform="translate(-1228.298 -880.122)" fill="#f7a4a4"/>
      <path id="Path_19534" data-name="Path 19534" d="M1029.773,701.143c.148-2.022,1.578-9.541-3.021-10.254s-5.582,4.312-8.133-2.452c-2.363-6.266-9.385-3.84-9.679.918a4.212,4.212,0,0,0-2,.315,4.554,4.554,0,0,0-2.26,6.025c.159.378.069.753.3,1.066a8.387,8.387,0,0,0,1.433,6.848c4.37,6.573,8.753-.346,11.708.023s1.029,2.679,3.589,4.482,4.62,1.331,8.787-3.588l1.029-1.356A1.755,1.755,0,0,1,1029.773,701.143Z" transform="translate(-1004.292 -684.669)"/>
    </g>
    <g id="Group_8754" data-name="Group 8754" transform="translate(1042.93 462.606)">
      <path id="Path_19535" data-name="Path 19535" d="M2325.746,1335.95a37.69,37.69,0,0,0,4.613-2.3c.188-.1.97-.675,1.081-.756a19.3,19.3,0,0,1,4.377,3.854c-1.185.065-1.687-.908-2.141-.807-.548.122-2.273,1.279-4.971,3.366C2328.239,1337.8,2326.88,1337.036,2325.746,1335.95Z" transform="translate(-2276.235 -1274.497)" fill="#f7a4a4"/>
      <path id="Path_19536" data-name="Path 19536" d="M1997.312,1577.587a26.281,26.281,0,0,0,1.6,4.834c.056.12.413.212.474.335-1.53,1.8-2.192,4.8-4.052,6.114.133-1.18.925-3.394.9-3.858-.029-.561-.883-2.454-2.492-5.461C1995.3,1579.342,1996.052,1578.525,1997.312,1577.587Z" transform="translate(-1980.433 -1492.508)" fill="#f7a4a4"/>
      <path id="Path_19537" data-name="Path 19537" d="M2002.481,1620.822a1.021,1.021,0,0,1,1.388-.577c.493.313,1.15.655,1.64.994a1.1,1.1,0,0,1,.576.909c-.04.281-6.556,7.9-7.391,8.011s.709-6.333,1.625-7C2001.134,1622.574,2001.542,1623.182,2002.481,1620.822Z" transform="translate(-1984.635 -1530.412)" fill="#231c59"/>
      <path id="Path_19538" data-name="Path 19538" d="M2371.96,1312.7a1.021,1.021,0,0,1-.319-1.469c.4-.429.85-1.014,1.271-1.436a1.1,1.1,0,0,1,1-.4c.269.09,6.6,7.864,6.559,8.705s-6.1-1.831-6.592-2.85C2373.443,1314.34,2374.114,1314.047,2371.96,1312.7Z" transform="translate(-2316.948 -1253.544)" fill="#231c59"/>
      <path id="Path_19539" data-name="Path 19539" d="M2049.367,1247.556s12.851,17.318,15.088,17.478c2.092.15,18.3-8.888,18.3-8.888l-2.108-4.667-12.979,4.667-9.038-17.1Z" transform="translate(-2029.995 -1190.88)" fill="#c4c4c4"/>
      <path id="Path_19540" data-name="Path 19540" d="M1938.984,1182.924s2.353.56,3.7,4.145-.9,6.564-6.539,11.759c-5.487,5.058-10.9,9.809-10.9,9.809l4.448,18.315-3.7,3.137s-8.569-18.613-8.818-23.045c-.1-1.693,13.075-21.319,13.075-21.319Z" transform="translate(-1912.214 -1140.882)" fill="#dfdbe2"/>
      <path id="Path_19541" data-name="Path 19541" d="M1888.545,938.146l-7.165,4.007-5.676,2.726s-1.386-4.711-.921-7.021a2.947,2.947,0,0,1,.511-.9c.936-1.4-1.064-3.585-1.064-3.585s-1.205-.343-2.025,1.646a2.129,2.129,0,0,0,.693,2.833s-1.725,6.022-1,10.409c.379,2.3,6.127.611,10.706-1.369a48.925,48.925,0,0,0,6.685-3.524Z" transform="translate(-1871.718 -918.528)" fill="#f7a4a4"/>
      <path id="Path_19542" data-name="Path 19542" d="M1956.695,969.73a.728.728,0,0,0-.807-.074c-.887.33-9.488,5.055-9.488,5.055s.771,4.133,2.788,5.4l4.333-1.323,3.314-8.378A.622.622,0,0,0,1956.695,969.73Z" transform="translate(-1938.256 -950.799)" fill="#7400d7"/>
      <path id="Path_19543" data-name="Path 19543" d="M2050.41,798.654a7.65,7.65,0,0,0-9.758,1.073,8.056,8.056,0,0,0-6.131.173c-3.65,1.7-6.881,6.156-4.13,9.388-.585,4.29,1.982,6.785,5.179,7.07,1.739,3.488,7.9,3.846,11.447.973a8.2,8.2,0,0,0,8.574-1.469,17.774,17.774,0,0,1,1.455-1.394c-.209.105,8.162-1,7.78-8.383C2064.437,798.555,2055.427,795.664,2050.41,798.654Z" transform="translate(-2012.17 -797.391)"/>
      <path id="Path_19544" data-name="Path 19544" d="M2016.555,965.3l5.314.293-.882,7.425s-2.565,7.146-1.519,10.581,2.054,5.938,2.054,5.938-3.025,3.473-11.5,2.764c0,0,.112-6.162,0-8.029s-2.278-9.635-1.979-11.39,2.166-6.61,2.652-7.021a7.254,7.254,0,0,1,2.409-.616Z" transform="translate(-1993.149 -946.936)" fill="#9f3bf5"/>
      <path id="Path_19545" data-name="Path 19545" d="M2048.739,916.639s-.091.6-.178,1.371a14.44,14.44,0,0,0-.119,2.847c.164,1.183-.95,4.3-3.464,4.415s-.053-3.445.137-4.618.188-5.45.188-5.45Z" transform="translate(-2025.083 -902.357)" fill="#f7a4a4"/>
      <path id="Path_19546" data-name="Path 19546" d="M2057.167,917.014c0-.987-.021-1.81-.021-1.81l3.435,1.435s-.094.621-.182,1.41A2.946,2.946,0,0,1,2057.167,917.014Z" transform="translate(-2036.925 -902.357)" fill="#e89a9a"/>
      <path id="Path_19547" data-name="Path 19547" d="M2048.382,846.2a4.336,4.336,0,0,1,2.208,2.033c.754,1.518.892,5.737-2.376,7.308s-5.3-1.447-5.025-4.12S2044.465,845.255,2048.382,846.2Z" transform="translate(-2024.468 -840.736)" fill="#f7a4a4"/>
      <path id="Path_19548" data-name="Path 19548" d="M2037.34,875.272c.182.675.649,1.136,1.042,1.03s.564-.739.382-1.414-.649-1.136-1.042-1.03S2037.157,874.6,2037.34,875.272Z" transform="translate(-2019.214 -865.505)" fill="#f7a4a4"/>
      <path id="Path_19549" data-name="Path 19549" d="M2106.287,892.9c-.3.667-.183,1.374.268,1.579s1.063-.17,1.365-.838.183-1.374-.268-1.579S2106.59,892.229,2106.287,892.9Z" transform="translate(-2080.558 -881.686)" fill="#f7a4a4"/>
    </g>
    <g id="Group_8755" data-name="Group 8755" transform="translate(941.489 437.828)">
      <path id="Path_19550" data-name="Path 19550" d="M1008.491,638.632l-21.73-63.3a7.705,7.705,0,0,0-9.724-4.758l-30.341,10.1a7.536,7.536,0,0,0-4.8,9.594l21.73,63.3a7.705,7.705,0,0,0,9.724,4.758l30.341-10.1A7.536,7.536,0,0,0,1008.491,638.632Zm-7.369,1.6-30.652,10.208a4.444,4.444,0,0,1-5.609-2.744l-20.1-58.546a4.347,4.347,0,0,1,2.767-5.533l30.652-10.208a4.444,4.444,0,0,1,5.609,2.744l20.1,58.546A4.347,4.347,0,0,1,1001.122,640.23Z" transform="translate(-941.489 -570.176)" fill="url(#linear-gradient)"/>
      <path id="Path_19551" data-name="Path 19551" d="M1345.8,1270.752a2.555,2.555,0,0,1-1.613,3.27,2.634,2.634,0,0,1-3.294-1.668,2.555,2.555,0,0,1,1.613-3.27A2.634,2.634,0,0,1,1345.8,1270.752Z" transform="translate(-1297.217 -1192.755)" fill="#c4c4c4"/>
      <path id="Path_19552" data-name="Path 19552" d="M1346.892,1270.326a2.44,2.44,0,0,1-1.584,3.1,2.509,2.509,0,0,1-3.164-1.541,2.44,2.44,0,0,1,1.584-3.1A2.509,2.509,0,0,1,1346.892,1270.326Z" transform="translate(-1298.339 -1192.489)" fill="#dfdbe2"/>
    </g>
    <g id="Group_8756" data-name="Group 8756" transform="translate(1033.701 439.101)">
      <path id="Path_19553" data-name="Path 19553" d="M1846.851,589.774l-34.095-7.708a8.188,8.188,0,0,0-9.923,5.957l-15.558,68.82a8.188,8.188,0,0,0,6.4,9.646l34.095,7.708a8.188,8.188,0,0,0,9.923-5.957l15.558-68.82A8.188,8.188,0,0,0,1846.851,589.774Zm-11.235,72.39a4.722,4.722,0,0,1-5.723,3.436l-34.445-7.787a4.722,4.722,0,0,1-3.689-5.564l14.39-63.652a4.723,4.723,0,0,1,5.723-3.436l34.445,7.787a4.722,4.722,0,0,1,3.689,5.564Z" transform="translate(-1787.085 -581.849)" fill="url(#linear-gradient)"/>
      <path id="Path_19554" data-name="Path 19554" d="M1998.345,1331.494a2.8,2.8,0,1,1-2.124-3.3A2.774,2.774,0,0,1,1998.345,1331.494Z" transform="translate(-1970.383 -1246.744)" fill="#c4c4c4"/>
      <path id="Path_19555" data-name="Path 19555" d="M2000.112,1331.533a2.75,2.75,0,1,1-2.108-3.125A2.668,2.668,0,0,1,2000.112,1331.533Z" transform="translate(-1972.057 -1246.932)" fill="#dfdbe2"/>
    </g>
    <path id="Path_19556" data-name="Path 19556" d="M2133.118,894.672s11.2-2.721,13.7-3.179,11.166-3.584,11.5-3.717,1.568-4.591,2.056-4.28-.75,2.248-.138,2.5,5.832-2.086,5.868-1.664c.068.791-3.14,1.552-3.039,1.915s3.275-1.1,3.664-.557-3.134,1.109-3.2,1.415,3.383-.092,3.2.562c-.1.355-3.074.281-2.948.694s2.389.819,2.232,1.217-1.85-.593-3.02-.3-2.168-.086-3.89.925-7.373,5.275-11.392,6.156-12.892,2.851-12.892,2.851Z" transform="translate(-1061.683 -411.487)" fill="#f7a4a4"/>
    <path id="Path_19557" data-name="Path 19557" d="M2108.228,968.435a10.4,10.4,0,0,1,2.927-.2c.509,0,1.227.008,1.771-.008,2.024-.058,3.946.037,3.946.037s1.018,4.917.171,6.174c0,0-7.918,1.131-7.727,1.682Z" transform="translate(-1039.507 -486.975)" fill="#9f3bf5"/>
    <path id="Path_19558" data-name="Path 19558" d="M1854.785,943.7l.682-.863a1.673,1.673,0,0,1,1.062-.722c.638-.064.619-.865-.057-.751a6.437,6.437,0,0,0-1.1.275,12.534,12.534,0,0,0,1.366-.779c.134-.5-.608-.7-1.6.039S1854.785,943.7,1854.785,943.7Z" transform="translate(-813.521 -462.21)" fill="#f7a4a4"/>
    <path id="Path_19559" data-name="Path 19559" d="M1097.927,1193.713a7.006,7.006,0,0,0-.872.553l.021-.043c.143-.15.633-.674.637-.677.645-.492.306-1.018-.3-.692a6.414,6.414,0,0,0-.953.616,7.553,7.553,0,0,0,1.041-1.179c-.015-.52-.8-.464-1.5.554-.614.891.292,2.45.554,2.819a1.882,1.882,0,0,0,.734.784l.16-1.017a1.673,1.673,0,0,1,.772-1.026C1098.807,1194.138,1098.53,1193.387,1097.927,1193.713Z" transform="translate(-137.478 -686.334)" fill="#f7a4a4"/>
    <path id="Path_19560" data-name="Path 19560" d="M1878.727,934.793s1.592-1.279,1.845-.735.143,1.721-.095,1.638-.206-.922-.89-.7C1879.4,935.054,1878.449,935.353,1878.727,934.793Z" transform="translate(-834.987 -456.429)" fill="#f7a4a4"/>
    <g id="Group_8758" data-name="Group 8758" transform="translate(947.411 421.629)">
      <path id="Path_19561" data-name="Path 19561" d="M1014.955,432.731,1004,437.95a2.592,2.592,0,0,1-3.455-1.225l-2.939-6.169a2.592,2.592,0,0,1,1.225-3.455l10.955-5.22a2.592,2.592,0,0,1,3.455,1.225l2.939,6.169A2.592,2.592,0,0,1,1014.955,432.731Z" transform="translate(-997.183 -421.629)" fill="#fbd46f"/>
      <path id="Path_19562" data-name="Path 19562" d="M998.137,529.2l-2.346,6.991,5.211-3.853Z" transform="translate(-995.791 -517.47)" fill="#fbd46f"/>
      <g id="Group_8757" data-name="Group 8757" transform="translate(6.038 3.672)">
        <path id="Path_19563" data-name="Path 19563" d="M1051.335,460.661l1.386-.7s1.123-2.171.951-2.662-.939-1.335-.725-1.591a1.018,1.018,0,0,1,1.409-.2c.483.318,1.054,2.057,1.271,2.086a8.213,8.213,0,0,0,1.529-.653,1.153,1.153,0,0,1,1.19.1h0a.614.614,0,0,1,.2.748l-.185.412.4.207a.614.614,0,0,1,.268.823l-.155.307.262.11a.614.614,0,0,1,.3.865l-.144.26.062.045a.615.615,0,0,1,.171.812l-.149.252-3.691,1.875a2.848,2.848,0,0,1-1.111.3l-1.407.445a.32.32,0,0,1-.384-.165l-1.592-3.255A.32.32,0,0,1,1051.335,460.661Z" transform="translate(-1051.16 -455.306)" fill="#fff"/>
      </g>
    </g>
    <g id="Group_8760" data-name="Group 8760" transform="translate(1020.532 447.18)">
      <path id="Path_19564" data-name="Path 19564" d="M1679.377,656.545c8.28-1.88,15.929.719,17.085,5.805.578,2.543-.578,5.227-2.912,7.51l5.064,6.736-8.4-4.224a23.419,23.419,0,0,1-6.657,2.593c-8.28,1.88-15.929-.719-17.084-5.805S1671.1,658.426,1679.377,656.545Z" transform="translate(-1666.328 -655.933)" fill="#fbd46f"/>
      <g id="Group_8759" data-name="Group 8759" transform="translate(10.312 3.868)">
        <path id="Path_19565" data-name="Path 19565" d="M1771.6,696.979a5.358,5.358,0,1,1-5.138-5.571A5.357,5.357,0,0,1,1771.6,696.979Z" transform="translate(-1760.888 -691.404)" fill="#fff"/>
        <path id="Path_19566" data-name="Path 19566" d="M1783.44,747.26a2.865,2.865,0,1,0,5.724.232Z" transform="translate(-1780.979 -741.169)" fill="#fbd46f"/>
      </g>
    </g>
    <g id="Group_8764" data-name="Group 8764" transform="translate(984.245 426.855)">
      <path id="Path_19567" data-name="Path 19567" d="M1388.524,697.548a5.6,5.6,0,0,0-2.4-.856c-.619-.056-3.324-.054-3.675.6s2.49,2.493,2.641,3.259-1.645,12.658-2.163,15.02a32,32,0,0,1-2.167,5.283,10.611,10.611,0,0,1,4,2.087c1.315-2.877,2.66-6.111,2.828-7.631C1387.925,712.239,1389.057,697.987,1388.524,697.548Z" transform="translate(-1375.616 -671.902)" fill="#f7a4a4"/>
      <g id="Group_8763" data-name="Group 8763" transform="translate(0 0)">
        <g id="Group_8761" data-name="Group 8761" transform="translate(14.794 5.129)">
          <path id="Path_19568" data-name="Path 19568" d="M1475.2,516.585c-.922-.077-5.744,3.6-5.744,3.6l-.215.288s6.509,1.1,6.815.9C1476.877,520.817,1475.953,516.649,1475.2,516.585Zm-5.728,3.712a35.482,35.482,0,0,1,5.505-2.837,7.436,7.436,0,0,1,.59,3.12C1474.8,520.522,1471.372,520.6,1469.468,520.3Z" transform="translate(-1469.237 -516.584)" fill="#ddd"/>
        </g>
        <g id="Group_8762" data-name="Group 8762" transform="translate(8.537)">
          <path id="Path_19569" data-name="Path 19569" d="M1417.027,471.629c-.834-2.232-1.649-2.128-2.227-2.053s-3.175,1.914-2.932,3.328,5.439,5.543,5.439,5.543l.344-.4S1417.861,473.861,1417.027,471.629Zm-4.368,1.137c-.121-.705,1.68-2.208,2.273-2.4a.931.931,0,0,1,.347,0c.11.031.506.236,1,1.546a24.67,24.67,0,0,1,1.088,6.069C1415.291,476.247,1412.795,473.373,1412.659,472.766Z" transform="translate(-1411.853 -469.546)" fill="#ddd"/>
        </g>
        <rect id="Rectangle_3669" data-name="Rectangle 3669" width="1.922" height="1.351" rx="0.675" transform="translate(13.527 9.629) rotate(-74.061)" fill="#ddd"/>
        <path id="Path_19570" data-name="Path 19570" d="M1352.888,546.223l-17.93-5.12a1.912,1.912,0,0,1-1.344-2.243l3.172-14.67,23.349,6.667-5.263,14.72A1.579,1.579,0,0,1,1352.888,546.223Z" transform="translate(-1333.571 -518.231)" fill="url(#linear-gradient-3)"/>
        <path id="Path_19571" data-name="Path 19571" d="M1370.582,531.924l-25.361-7.19.2-1.707a1.666,1.666,0,0,1,2.117-1.411l22.919,6.613c.815.235,1.309.92,1.071,1.482Z" transform="translate(-1343.951 -515.88)" fill="url(#linear-gradient-3)"/>
        <rect id="Rectangle_3670" data-name="Rectangle 3670" width="3.593" height="0.502" transform="matrix(0.275, -0.962, 0.962, 0.275, 13.435, 12.31)" fill="#ddd"/>
        <rect id="Rectangle_3671" data-name="Rectangle 3671" width="13.505" height="0.627" transform="translate(9.646 25.42) rotate(-74.065)" fill="#ddd"/>
      </g>
      <path id="Path_19572" data-name="Path 19572" d="M1389.046,685.391l.065-.763a16.824,16.824,0,0,1-1.691-.584l-.1-.582c-.322-.8-.68-.229-.784-.047a4.151,4.151,0,0,0,.089,1.144s1.209,1.277,1.724,1.759c.256.239,1.071.9,1.071.9l.648-.9Z" transform="translate(-1380.759 -659.765)" fill="#f7a4a4"/>
    </g>
  </g>
</svg>
