<svg xmlns="http://www.w3.org/2000/svg" xmlns:xlink="http://www.w3.org/1999/xlink" width="514" height="520" viewBox="0 0 514 520">
  <defs>
    <clipPath id="clip-path">
      <rect id="Rectangle_3461" data-name="Rectangle 3461" width="514" height="520" transform="translate(1289.291 697.965)" fill="none"/>
    </clipPath>
  </defs>
  <g id="Group_5509" data-name="Group 5509" transform="translate(-1289.292 -697.965)">
    <g id="Group_5512" data-name="Group 5512" clip-path="url(#clip-path)">
      <g id="trial_520" data-name="trial 520">
        <g id="Group_5509-2" data-name="Group 5509">
          <g id="Background_Complete" data-name="Background Complete">
            <g id="Group_5164" data-name="Group 5164">
              <g id="Group_5142" data-name="Group 5142">
                <g id="Group_5141" data-name="Group 5141">
                  <path id="Path_17691" data-name="Path 17691" d="M1718.351,991.59s10.787,2.854,1.715,26.137-15.8,35.035-15.8,35.035-1.487,5.342,2.921,5.706,13.786-2.115,16.246,2.987c2.552,5.291-.916,10.874-8.548,16.233s-23.922,17.714-25.391,18.835c-1.442,1.1-2.742,3.65.221,4.379s24.623.81,23.969,11.086-24.369,21.711-26.937,23.01-3.094,2.5-2.728,3.942,7.648.786,13.807,1.062,13.254,1.675,12.38,7.571-14.24,19.446-49.3,26.477l-16.449,2.194-10.389-13.046c-20.53-29.273-20.86-48.3-17.425-53.174s9.536-.992,14.186,3.057,9.467,9.551,10.729,8.757,1.707-2.023.743-4.736-10.243-27.351-3.629-35.241,22.353,6.992,25,8.509,3.463-1.226,3.181-3.018c-.29-1.826-3.561-22.008-5.389-31.152s-.489-15.58,5.009-17.649c5.3-2,10.381,6.267,13.823,9.043s6.05-2.117,6.05-2.117,3.238-13.147,12.731-36.26,19.491-17.555,19.491-17.555" fill="#e5e4e0"/>
                </g>
              </g>
              <g id="Group_5145" data-name="Group 5145">
                <g id="Group_5144" data-name="Group 5144">
                  <g id="Group_5143" data-name="Group 5143">
                    <path id="Path_17692" data-name="Path 17692" d="M1643.988,1180.214c6.9-17,18.67-47.429,28.907-73.5s19.52-49.646,26.339-66.683l8.1-20.167c.948-2.366,1.688-4.211,2.2-5.485q.36-.921.561-1.431c.122-.324.173-.5.173-.5s-.083.158-.223.475q-.216.5-.606,1.411c-.532,1.266-1.3,3.1-2.288,5.449-1.981,4.734-4.8,11.6-8.249,20.107-6.906,17-16.247,40.569-26.481,66.63s-21.948,56.515-28.766,73.551" fill="#606060"/>
                  </g>
                </g>
              </g>
              <g id="Group_5148" data-name="Group 5148">
                <g id="Group_5147" data-name="Group 5147">
                  <g id="Group_5146" data-name="Group 5146">
                    <path id="Path_17693" data-name="Path 17693" d="M1710.457,1065.449a5.508,5.508,0,0,0-1.12.437c-.708.309-1.717.785-2.96,1.385-2.481,1.2-5.867,2.955-9.568,4.955l-9.457,5.155-2.873,1.543a5.454,5.454,0,0,0-1.034.608,5.366,5.366,0,0,0,1.122-.428c.707-.311,1.717-.787,2.954-1.4,2.47-1.229,5.833-3.024,9.533-5.024l9.489-5.083,2.884-1.53A5.3,5.3,0,0,0,1710.457,1065.449Z" fill="#606060"/>
                  </g>
                </g>
              </g>
              <g id="Group_5151" data-name="Group 5151">
                <g id="Group_5150" data-name="Group 5150">
                  <g id="Group_5149" data-name="Group 5149">
                    <path id="Path_17694" data-name="Path 17694" d="M1682.21,1078.59c.128-.062-3.175-7.2-7.376-15.943s-7.713-15.784-7.841-15.722,3.174,7.2,7.377,15.945S1682.082,1078.652,1682.21,1078.59Z" fill="#606060"/>
                  </g>
                </g>
              </g>
              <g id="Group_5154" data-name="Group 5154">
                <g id="Group_5153" data-name="Group 5153">
                  <g id="Group_5152" data-name="Group 5152">
                    <path id="Path_17695" data-name="Path 17695" d="M1668.3,1119.326a5.786,5.786,0,0,0-.773-.951l-2.226-2.48c-1.875-2.1-4.453-5-7.18-8.312s-5.106-6.382-6.8-8.623c-.8-1.053-1.475-1.942-2.016-2.653a5.616,5.616,0,0,0-.787-.94,5.548,5.548,0,0,0,.624,1.056c.43.66,1.069,1.6,1.885,2.753,1.626,2.3,3.959,5.421,6.7,8.736s5.364,6.2,7.311,8.231c.978,1.014,1.778,1.826,2.348,2.371A5.514,5.514,0,0,0,1668.3,1119.326Z" fill="#606060"/>
                  </g>
                </g>
              </g>
              <g id="Group_5157" data-name="Group 5157">
                <g id="Group_5156" data-name="Group 5156">
                  <g id="Group_5155" data-name="Group 5155">
                    <path id="Path_17696" data-name="Path 17696" d="M1696.462,1113.063a4.853,4.853,0,0,0-1.126.133l-3.031.55c-2.555.486-6.078,1.192-9.962,2s-7.4,1.575-9.932,2.152l-3,.71a4.9,4.9,0,0,0-1.084.329,4.79,4.79,0,0,0,1.126-.133l3.031-.549c2.555-.487,6.078-1.194,9.963-2s7.4-1.575,9.931-2.152l3-.71A4.829,4.829,0,0,0,1696.462,1113.063Z" fill="#606060"/>
                  </g>
                </g>
              </g>
              <g id="Group_5160" data-name="Group 5160">
                <g id="Group_5159" data-name="Group 5159">
                  <g id="Group_5158" data-name="Group 5158">
                    <path id="Path_17697" data-name="Path 17697" d="M1688.75,1150.587a7.766,7.766,0,0,0-1.44.184l-3.887.69c-3.277.6-7.8,1.475-12.787,2.467s-9.5,1.921-12.76,2.617l-3.854.85a7.9,7.9,0,0,0-1.4.381,7.757,7.757,0,0,0,1.44-.184l3.886-.69c3.278-.6,7.8-1.475,12.79-2.468s9.5-1.919,12.757-2.615l3.855-.85A7.883,7.883,0,0,0,1688.75,1150.587Z" fill="#606060"/>
                  </g>
                </g>
              </g>
              <g id="Group_5163" data-name="Group 5163">
                <g id="Group_5162" data-name="Group 5162">
                  <g id="Group_5161" data-name="Group 5161">
                    <path id="Path_17698" data-name="Path 17698" d="M1653.437,1157.361a9.046,9.046,0,0,0-.949-1.231c-.7-.837-1.611-1.929-2.708-3.246-2.284-2.742-5.423-6.542-8.769-10.836s-6.288-8.251-8.391-11.134l-2.494-3.412a.779.779,0,1,0-.163.114c.542.84,1.345,2.042,2.362,3.51,2.03,2.94,4.922,6.943,8.282,11.24s6.541,8.072,8.9,10.756c1.182,1.34,2.149,2.414,2.834,3.142A8.946,8.946,0,0,0,1653.437,1157.361Z" fill="#606060"/>
                  </g>
                </g>
              </g>
            </g>
            <g id="Group_5178" data-name="Group 5178">
              <g id="Group_5177" data-name="Group 5177">
                <g id="Group_5176" data-name="Group 5176">
                  <g id="Group_5175" data-name="Group 5175">
                    <g id="Group_5165" data-name="Group 5165">
                      <path id="Rectangle_3452" data-name="Rectangle 3452" d="M1386.564,1216.981l-87.812-48.395a7.543,7.543,0,0,1-2.965-10.246h0l78.338-142.142a7.541,7.541,0,0,1,10.245-2.965l87.813,48.4a7.542,7.542,0,0,1,2.966,10.244l-78.339,142.144a7.543,7.543,0,0,1-10.246,2.965Z" fill="#e5e4e0"/>
                    </g>
                    <g id="Group_5166" data-name="Group 5166">
                      <path id="Path_17699" data-name="Path 17699" d="M1388.653,1045.43a12.243,12.243,0,1,1-16.633,4.814A12.243,12.243,0,0,1,1388.653,1045.43Z" fill="#fff"/>
                    </g>
                    <g id="Group_5167" data-name="Group 5167">
                      <path id="Path_17700" data-name="Path 17700" d="M1400.975,1036.791a13,13,0,0,1,1.223,2.873,12.776,12.776,0,1,1-1.223-2.873Zm-21.195,12.288a11.651,11.651,0,1,0,15.7-16.047h0a11.65,11.65,0,0,0-16.811,13.438,11.808,11.808,0,0,0,1.109,2.607Z" fill="#fff"/>
                    </g>
                    <g id="Group_5168" data-name="Group 5168">
                      <path id="Path_17701" data-name="Path 17701" d="M1364.41,1186.716l8.623,4.753-.49.886-7.832-4.317-1.121,2.034-.789-.435Z" fill="#fff"/>
                      <path id="Path_17702" data-name="Path 17702" d="M1377.128,1182.168l.789.435-3.329,6.046-.629-.348-1.534-5.518c-.426-1.5-.9-2.006-1.494-2.332-1-.546-2-.186-2.727,1.132a3.34,3.34,0,0,0-.336,2.882l-.887.328a4.423,4.423,0,0,1,.451-3.732c.965-1.749,2.462-2.369,3.9-1.575.825.455,1.422,1.12,1.917,2.9l1.265,4.52Z" fill="#fff"/>
                      <path id="Path_17703" data-name="Path 17703" d="M1380.658,1172.274l-.952,1.721,2.265,1.254-.487.886-2.266-1.249-2.681,4.865-.641-.354-3.2-7.718.542-.985,3.138,7.477,2.064-3.743-1.995-1.1.474-.863,1.995,1.1.952-1.725Z" fill="#fff"/>
                      <path id="Path_17704" data-name="Path 17704" d="M1387.942,1159.058l-.952,1.721,2.265,1.253-.487.887-2.267-1.25-2.68,4.865-.641-.353-3.2-7.718.542-.985,3.139,7.476,2.064-3.745-2-1.1.475-.863,1.994,1.1.951-1.726Z" fill="#fff"/>
                      <path id="Path_17705" data-name="Path 17705" d="M1391.824,1151.369c1.466.809,2.049,2.462.887,4.569a5.089,5.089,0,0,1-2.81,2.48l-.47-.815a4.265,4.265,0,0,0,2.457-2.1c.807-1.466.522-2.634-.525-3.212-1.109-.61-2.178-.3-3.387,1.891l-1.008,1.834-4.08-2.827,2.6-4.717.789.434-2.171,3.941,2.583,1.81.611-1.11C1388.732,1150.951,1390.3,1150.528,1391.824,1151.369Z" fill="#fff"/>
                      <path id="Path_17706" data-name="Path 17706" d="M1396.484,1142.826a3.068,3.068,0,0,1,1.165,4.18c-.043.076-.089.151-.139.223-1.261,2.291-3.537,2.661-6.259,1.16-2.93-1.615-3.576-4.059-2.284-6.4a4.524,4.524,0,0,1,1.594-1.784l.519.751a3.444,3.444,0,0,0-1.331,1.45c-1.024,1.861-.489,3.712,1.851,5,.2.109.449.233.722.35a3.144,3.144,0,0,1-.028-3.448C1393.243,1142.595,1394.908,1141.957,1396.484,1142.826Zm-.456.887c-1.134-.623-2.323-.186-3.056,1.144a2.279,2.279,0,0,0,.543,3.177c.039.028.078.054.119.079.95.522,2.284.231,3.1-1.261a2.155,2.155,0,0,0-.5-3.006,2.332,2.332,0,0,0-.21-.132Z" fill="#fff"/>
                      <path id="Path_17707" data-name="Path 17707" d="M1403.086,1131.081c1.442.794,1.973,2.452.826,4.533a5.12,5.12,0,0,1-2.819,2.493l-.466-.819a4.309,4.309,0,0,0,2.472-2.12c.79-1.43.556-2.583-.516-3.173-1.034-.571-2.113-.218-2.994,1.382l-.337.616-.653-.36-1.676-4.039-2.431,4.409-.79-.435,3.054-5.543.629.344,1.723,4.132C1400.226,1130.708,1401.707,1130.32,1403.086,1131.081Z" fill="#fff"/>
                      <path id="Path_17708" data-name="Path 17708" d="M1407.754,1122.379a3.069,3.069,0,0,1,1.164,4.181q-.064.114-.138.222c-1.262,2.291-3.538,2.661-6.26,1.16-2.931-1.616-3.576-4.059-2.284-6.4a4.522,4.522,0,0,1,1.594-1.783l.52.751a3.433,3.433,0,0,0-1.331,1.45c-1.025,1.861-.49,3.71,1.85,5,.2.11.449.233.722.351a3.144,3.144,0,0,1-.028-3.448C1404.511,1122.147,1406.176,1121.509,1407.754,1122.379Zm-.459.888c-1.132-.623-2.32-.188-3.053,1.142a2.282,2.282,0,0,0,.547,3.181c.038.026.076.052.115.076.95.523,2.284.229,3.1-1.261a2.153,2.153,0,0,0-.5-3A2.292,2.292,0,0,0,1407.3,1123.267Z" fill="#fff"/>
                      <path id="Path_17709" data-name="Path 17709" d="M1406.078,1111.113l.629.347,6,8.014-.529.962-5.88-7.865-2.442,4.434,1.614.888-.483.874-2.4-1.323Z" fill="#fff"/>
                      <path id="Path_17710" data-name="Path 17710" d="M1412.872,1098.785l.629.346,6,8.014-.529.961-5.878-7.865-2.444,4.436,1.614.887-.482.876-2.4-1.323Z" fill="#fff"/>
                      <path id="Path_17711" data-name="Path 17711" d="M1423.772,1093.728c1.526.843,1.765,2.656.63,4.717s-2.781,2.8-4.309,1.961a2.455,2.455,0,0,1-1.2-2.834,2.224,2.224,0,0,1-2.644.309c-1.4-.774-1.621-2.452-.617-4.274s2.553-2.562,3.956-1.787a2.229,2.229,0,0,1,1.138,2.425A2.478,2.478,0,0,1,1423.772,1093.728Zm-.517.905c-1.059-.585-2.225-.039-3.067,1.487s-.672,2.792.391,3.377,2.227.058,3.07-1.471.679-2.805-.394-3.4Zm-3.77,1.1c.74-1.345.579-2.477-.357-2.995-.973-.536-2.031-.008-2.749,1.283s-.579,2.454.38,2.984,1.987.067,2.726-1.274Z" fill="#fff"/>
                      <path id="Path_17712" data-name="Path 17712" d="M1426.4,1084.258c2.933,1.615,3.577,4.059,2.287,6.4a4.5,4.5,0,0,1-1.594,1.788l-.517-.751a3.472,3.472,0,0,0,1.33-1.45c1.023-1.861.488-3.713-1.85-5-.195-.109-.448-.232-.72-.351a3.146,3.146,0,0,1,.027,3.448c-.942,1.713-2.612,2.35-4.187,1.483a3.069,3.069,0,0,1-1.171-4.178c.043-.077.089-.151.138-.224C1421.407,1083.125,1423.681,1082.758,1426.4,1084.258Zm-2.381.274c-.948-.522-2.282-.231-3.106,1.262a2.155,2.155,0,0,0,.5,3.005,2.373,2.373,0,0,0,.209.131c1.134.625,2.319.192,3.052-1.139a2.28,2.28,0,0,0-.54-3.179c-.039-.027-.079-.054-.119-.079Z" fill="#fff"/>
                      <path id="Path_17713" data-name="Path 17713" d="M1426.986,1073.177l8.622,4.751-.49.887-7.834-4.317-1.118,2.033-.789-.435Z" fill="#fff"/>
                      <path id="Path_17714" data-name="Path 17714" d="M1439.707,1068.625l.788.435-3.332,6.046-.628-.346-1.536-5.518c-.424-1.5-.9-2.007-1.492-2.333-1-.546-2-.186-2.728,1.132a3.343,3.343,0,0,0-.334,2.882l-.889.329a4.425,4.425,0,0,1,.451-3.735c.965-1.748,2.462-2.368,3.9-1.573.825.453,1.422,1.12,1.917,2.9l1.265,4.522Z" fill="#fff"/>
                      <path id="Path_17715" data-name="Path 17715" d="M1442.282,1059.96c1.442.794,1.973,2.453.825,4.533a5.117,5.117,0,0,1-2.818,2.493l-.465-.818a4.31,4.31,0,0,0,2.471-2.119c.787-1.433.557-2.584-.515-3.177-1.036-.571-2.112-.218-2.995,1.383l-.338.614-.66-.354-1.674-4.039-2.426,4.405-.788-.433,3.053-5.544.629.346,1.723,4.131C1439.42,1059.587,1440.9,1059.2,1442.282,1059.96Z" fill="#fff"/>
                    </g>
                    <g id="Group_5169" data-name="Group 5169">
                      <rect id="Rectangle_3453" data-name="Rectangle 3453" width="78.873" height="4.276" transform="matrix(0.483, -0.876, 0.876, 0.483, 1414.598, 1131.161)" fill="#fff"/>
                    </g>
                    <g id="Group_5170" data-name="Group 5170">
                      <rect id="Rectangle_3454" data-name="Rectangle 3454" width="40.454" height="4.277" transform="translate(1440.62 1101.631) rotate(-61.131)" fill="#fff"/>
                    </g>
                    <g id="Group_5171" data-name="Group 5171">
                      <path id="Rectangle_3455" data-name="Rectangle 3455" d="M1334.777,1171.689l11.185-20.289a4.963,4.963,0,0,1,6.741-1.957l0,0,12.961,7.146a4.965,4.965,0,0,1,1.951,6.744h0l-11.189,20.293a4.961,4.961,0,0,1-6.742,1.95l-.005,0-12.956-7.143A4.964,4.964,0,0,1,1334.777,1171.689Z" fill="#e0e0e0"/>
                    </g>
                    <g id="Group_5172" data-name="Group 5172">
                      <path id="Path_17716" data-name="Path 17716" d="M1348.037,1184.667l-1.389-.766,8.224-14.923a3.567,3.567,0,0,0-6.25-3.441l-8.221,14.921-1.388-.766,8.224-14.922a5.152,5.152,0,1,1,9.025,4.973h0Z" fill="#ebebeb"/>
                    </g>
                    <g id="Group_5173" data-name="Group 5173">
                      <rect id="Rectangle_3456" data-name="Rectangle 3456" width="11.69" height="1.585" transform="translate(1353.156 1163.052) rotate(-61.082)" fill="#ebebeb"/>
                    </g>
                    <g id="Group_5174" data-name="Group 5174">
                      <rect id="Rectangle_3457" data-name="Rectangle 3457" width="85.112" height="7.305" transform="matrix(0.483, -0.876, 0.876, 0.483, 1316.45, 1162.794)" fill="#fff"/>
                    </g>
                  </g>
                </g>
              </g>
            </g>
            <g id="Group_5218" data-name="Group 5218">
              <g id="Group_5180" data-name="Group 5180">
                <g id="Group_5179" data-name="Group 5179">
                  <path id="Path_17717" data-name="Path 17717" d="M1595.806,697.965c.9,12.829-.007,36.716,4.668,48.7s10.9,24.324,22.594,29.681c14.4,6.6,31.312,3.8,46.668,7.668,24.071,6.057,41.472,28.139,48.9,51.821s6.606,49.056,5.711,73.859L1601.5,926.737s-.646-49.917-11.359-63.539-61.608-25.887-78.419-63.2c-15.129-33.575-19.691-86.825-19.691-86.825Z" fill="#e5e4e0"/>
                </g>
              </g>
              <g id="Group_5181" data-name="Group 5181">
                <path id="Path_17718" data-name="Path 17718" d="M1526.637,736.157l-2.2-2.5a5.6,5.6,0,0,1-.668.1l-2.259.236.278,2.665-.888.093-.876-8.4,3.147-.328c2.135-.223,3.544.721,3.732,2.525a2.617,2.617,0,0,1-1.643,2.842l2.354,2.664Zm-.624-5.517c-.14-1.345-1.109-2.022-2.787-1.846l-2.236.234.439,4.21,2.234-.233C1525.344,732.832,1526.154,731.96,1526.013,730.64Z" fill="#606060"/>
                <path id="Path_17719" data-name="Path 17719" d="M1535.439,734.461l.081.769-5.944.62-.875-8.4,5.763-.6.075.77-4.869.509.312,2.988,4.348-.454.073.758-4.343.453.325,3.121Z" fill="#606060"/>
                <path id="Path_17720" data-name="Path 17720" d="M1536.379,730.894a4.242,4.242,0,0,1,3.712-4.712c.082-.009.165-.017.248-.022a4.1,4.1,0,0,1,3.2.9l-.506.623a3.343,3.343,0,0,0-2.588-.736,3.452,3.452,0,0,0-3.208,3.68c0,.058.01.115.017.172a3.451,3.451,0,0,0,3.747,3.129c.057-.005.113-.011.17-.019a3.315,3.315,0,0,0,2.375-1.267l.623.505a4.1,4.1,0,0,1-2.956,1.559,4.238,4.238,0,0,1-4.807-3.58C1536.4,731.051,1536.386,730.972,1536.379,730.894Z" fill="#606060"/>
                <path id="Path_17721" data-name="Path 17721" d="M1552.054,732.73l.08.767-5.943.62-.875-8.4,5.762-.6.075.77-4.869.508.311,2.989,4.345-.454.078.757-4.344.452.325,3.122Z" fill="#606060"/>
                <path id="Path_17722" data-name="Path 17722" d="M1553.347,724.875l.888-.093.876,8.4-.887.093Z" fill="#606060"/>
                <path id="Path_17723" data-name="Path 17723" d="M1563.851,726.691c.186,1.789-1,3-3.133,3.227l-2.258.236.277,2.653-.889.093-.876-8.4,3.146-.328C1562.254,723.947,1563.663,724.892,1563.851,726.691Zm-.888.094c-.14-1.345-1.109-2.021-2.787-1.846l-2.235.235.438,4.2,2.232-.232C1562.292,728.966,1563.1,728.1,1562.963,726.785Z" fill="#606060"/>
                <path id="Path_17724" data-name="Path 17724" d="M1566.908,724.238l-2.953.308-.075-.769,6.79-.709.079.765-2.953.312.8,7.636-.888.092Z" fill="#606060"/>
              </g>
              <g id="Group_5183" data-name="Group 5183">
                <g id="Group_5182" data-name="Group 5182">
                  <path id="Path_17725" data-name="Path 17725" d="M1537.157,752.173c.023.169,11.213-1.216,24.992-3.094s24.935-3.538,24.912-3.707-11.211,1.215-24.995,3.094S1537.133,752,1537.157,752.173Z" fill="#606060"/>
                </g>
              </g>
              <g id="Group_5185" data-name="Group 5185">
                <g id="Group_5184" data-name="Group 5184">
                  <path id="Path_17726" data-name="Path 17726" d="M1538.5,762.175c.023.169,11.215-1.216,24.992-3.094s24.935-3.538,24.913-3.707-11.212,1.216-25,3.094S1538.474,762.007,1538.5,762.175Z" fill="#606060"/>
                </g>
              </g>
              <g id="Group_5187" data-name="Group 5187">
                <g id="Group_5186" data-name="Group 5186">
                  <path id="Path_17727" data-name="Path 17727" d="M1543.076,772.373c.024.17,11.215-1.216,24.994-3.094s24.934-3.537,24.912-3.707-11.212,1.216-24.995,3.094S1543.053,772.205,1543.076,772.373Z" fill="#606060"/>
                </g>
              </g>
              <g id="Group_5189" data-name="Group 5189">
                <g id="Group_5188" data-name="Group 5188">
                  <path id="Path_17728" data-name="Path 17728" d="M1551.408,782.662c.023.17,11.213-1.216,24.992-3.094s24.935-3.538,24.912-3.707-11.211,1.216-24.995,3.094S1551.384,782.494,1551.408,782.662Z" fill="#606060"/>
                </g>
              </g>
              <g id="Group_5191" data-name="Group 5191">
                <g id="Group_5190" data-name="Group 5190">
                  <path id="Path_17729" data-name="Path 17729" d="M1564.672,792.929c.024.169,11.215-1.216,24.994-3.094s24.934-3.538,24.912-3.707-11.212,1.216-24.995,3.094S1564.645,792.761,1564.672,792.929Z" fill="#606060"/>
                </g>
              </g>
              <g id="Group_5193" data-name="Group 5193">
                <g id="Group_5192" data-name="Group 5192">
                  <path id="Path_17730" data-name="Path 17730" d="M1514.781,755.508c.027.169,2.778-.139,6.144-.687s6.072-1.13,6.043-1.3-2.777.139-6.143.688S1514.754,755.339,1514.781,755.508Z" fill="#606060"/>
                </g>
              </g>
              <g id="Group_5195" data-name="Group 5195">
                <g id="Group_5194" data-name="Group 5194">
                  <path id="Path_17731" data-name="Path 17731" d="M1515.217,764.425c.027.167,2.778-.14,6.143-.688s6.073-1.128,6.044-1.3-2.777.139-6.143.687S1515.19,764.256,1515.217,764.425Z" fill="#606060"/>
                </g>
              </g>
              <g id="Group_5197" data-name="Group 5197">
                <g id="Group_5196" data-name="Group 5196">
                  <path id="Path_17732" data-name="Path 17732" d="M1518.241,776.764c.029.169,2.783-.154,6.152-.714a36.342,36.342,0,0,0,6.035-1.271c.019-.211-2.776.106-6.136.662S1518.214,776.595,1518.241,776.764Z" fill="#606060"/>
                </g>
              </g>
              <g id="Group_5199" data-name="Group 5199">
                <g id="Group_5198" data-name="Group 5198">
                  <path id="Path_17733" data-name="Path 17733" d="M1522.612,787.205c.027.169,2.782-.154,6.151-.713a36.428,36.428,0,0,0,6.036-1.272c.018-.211-2.777.106-6.137.662S1522.584,787.034,1522.612,787.205Z" fill="#606060"/>
                </g>
              </g>
              <g id="Group_5201" data-name="Group 5201">
                <g id="Group_5200" data-name="Group 5200">
                  <path id="Path_17734" data-name="Path 17734" d="M1532.01,797.128c.029.169,2.783-.154,6.152-.713a36.447,36.447,0,0,0,6.035-1.272c.019-.211-2.776.106-6.136.662S1531.982,796.961,1532.01,797.128Z" fill="#606060"/>
                </g>
              </g>
              <g id="Group_5203" data-name="Group 5203">
                <g id="Group_5202" data-name="Group 5202">
                  <path id="Path_17735" data-name="Path 17735" d="M1576.009,805.477c.024.17,16.822-2.068,37.516-5s37.455-5.441,37.431-5.61-16.818,2.068-37.518,5S1575.985,805.308,1576.009,805.477Z" fill="#606060"/>
                </g>
              </g>
              <g id="Group_5205" data-name="Group 5205">
                <g id="Group_5204" data-name="Group 5204">
                  <path id="Path_17736" data-name="Path 17736" d="M1584.683,815.97a4.113,4.113,0,0,0,.83-.067l2.364-.312,8.672-1.261,28.573-4.405c11.155-1.759,21.247-3.391,28.545-4.612l8.636-1.489c1.019-.189,1.807-.334,2.343-.449a4.2,4.2,0,0,0,.805-.209,4.463,4.463,0,0,0-.83.087l-2.358.334-8.666,1.3-28.573,4.432-28.545,4.583-8.642,1.456-2.345.426A4.411,4.411,0,0,0,1584.683,815.97Z" fill="#606060"/>
                </g>
              </g>
              <g id="Group_5207" data-name="Group 5207">
                <g id="Group_5206" data-name="Group 5206">
                  <path id="Path_17737" data-name="Path 17737" d="M1600.362,825.58a13.963,13.963,0,0,0,3.087-.272c2.014-.257,4.926-.66,8.518-1.182,7.186-1.042,17.1-2.548,28.046-4.259s20.852-3.307,28.015-4.492l8.477-1.437,2.3-.422a.411.411,0,1,0-.015-.124l-2.318.308-8.508,1.242-28.046,4.313-28.017,4.439Z" fill="#606060"/>
                </g>
              </g>
              <g id="Group_5209" data-name="Group 5209">
                <g id="Group_5208" data-name="Group 5208">
                  <path id="Path_17738" data-name="Path 17738" d="M1547.708,811.246c.027.169,2.782-.154,6.151-.713a36.437,36.437,0,0,0,6.036-1.272c.018-.211-2.777.106-6.137.662S1547.678,811.079,1547.708,811.246Z" fill="#606060"/>
                </g>
              </g>
              <g id="Group_5211" data-name="Group 5211">
                <g id="Group_5210" data-name="Group 5210">
                  <path id="Path_17739" data-name="Path 17739" d="M1559.811,817.979c.028.169,2.783-.156,6.152-.714A36.326,36.326,0,0,0,1572,816c.019-.211-2.776.106-6.136.662S1559.783,817.81,1559.811,817.979Z" fill="#606060"/>
                </g>
              </g>
              <g id="Group_5213" data-name="Group 5213">
                <g id="Group_5212" data-name="Group 5212">
                  <path id="Path_17740" data-name="Path 17740" d="M1576.1,829.329c.028.169,2.783-.156,6.152-.714a36.544,36.544,0,0,0,6.035-1.271c.019-.211-2.776.106-6.136.66S1576.076,829.16,1576.1,829.329Z" fill="#606060"/>
                </g>
              </g>
              <g id="Group_5215" data-name="Group 5215">
                <g id="Group_5214" data-name="Group 5214">
                  <path id="Path_17741" data-name="Path 17741" d="M1607.256,847.241c.026.169,20.789-2.886,46.369-6.821s46.3-7.264,46.278-7.434-20.783,2.885-46.373,6.822S1607.231,847.071,1607.256,847.241Z" fill="#606060"/>
                </g>
              </g>
              <g id="Group_5217" data-name="Group 5217">
                <g id="Group_5216" data-name="Group 5216">
                  <path id="Path_17742" data-name="Path 17742" d="M1619.692,869.715c.027.169,6.833-.792,15.2-2.146s15.129-2.587,15.1-2.756-6.832.791-15.2,2.145S1619.665,869.546,1619.692,869.715Z" fill="#606060"/>
                </g>
              </g>
            </g>
          </g>
          <g id="Group_5508" data-name="Group 5508">
            <g id="man">
              <path id="Path_17963" data-name="Path 17963" d="M1601.248,980.95s-12.373,1.559-13.542,2.435-4,6.768-3.7,8.581,4.287,4.669,5.651,4.669,1.863-3.02,3.129-3.7a13.97,13.97,0,0,1,3.43-1.1,48.767,48.767,0,0,0,5.372-2.112Z" fill="#ffb27d"/>
              <path id="Path_17964" data-name="Path 17964" d="M1657.411,921.795s-16.288,44.06-23.3,47.462-32.865,11.694-32.865,11.694v10.132s26.3.417,39.36-3.4,30.051-18.045,30.051-18.045Z" fill="#ffc40c"/>
              <path id="Path_17965" data-name="Path 17965" d="M1691.417,880.078,1675.486,910.3l-3.8.272-1.717,4.822L1654,963.512S1645.16,902.381,1691.417,880.078Z" fill="#ffc40c"/>
              <path id="Path_17966" data-name="Path 17966" d="M1664.84,906.8s-17.617,64.947-19.314,126.923c0,0,14.613,5.094,37.568,1.061C1706.165,1030.734,1664.84,906.8,1664.84,906.8Z" fill="#ffc40c"/>
              <g id="Group_5508-2" data-name="Group 5508-2">
                <path id="Path_17967" data-name="Path 17967" d="M1745.154,1215.455h15.839c1.994-1.083,3.771-3.562,4.332-7.258.774-5.1,6.492-7.885,7.73-12.059s-5.1-10.045-5.1-10.045l-1.061-1.367-1.1-1.418-10.512,2.475s-.261,2.5-.419,5.693q-.206,3.644-.046,7.292c.31,5.564-1.555,11.558-6.5,12.641C1744.659,1212.208,1744.823,1214.377,1745.154,1215.455Z" fill="#233862"/>
                <path id="Path_17968" data-name="Path 17968" d="M1653.237,1215.454h36.222c1.742-2.126,1.1-9.971.836-12.532-.054-.516-.091-.817-.091-.817s-12.369-9.893-14.068-2.318c-.052.238-.115.47-.183.7-2.141,7.086-11.742,10.306-17.286,11.2C1655.062,1212.274,1653.73,1214.148,1653.237,1215.454Z" fill="#233862"/>
                <path id="Path_17969" data-name="Path 17969" d="M1660.139,1013.267s1.878,23.433,4.085,51.6c3,38.264,6.609,85.264,6.966,94.168.616,15.462,3.093,40.193,3.093,40.193s5.872,5.876,17.623,3.4c0,0,10.471-35.3,13.462-72.66.048-.612.093-1.229.139-1.846,2.782-38.027,7.109-118.1,7.109-118.1Z" fill="#392f41"/>
                <path id="Path_17970" data-name="Path 17970" d="M1660.139,1013.267s1.878,23.433,4.085,51.6l41.144,65.1c.048-.612.093-1.229.139-1.846,2.782-38.027,7.109-118.1,7.109-118.1Z" fill="#251f2a"/>
                <path id="Path_17971" data-name="Path 17971" d="M1668.715,1016.055s33.854,84.865,56.114,124.747,29.216,51.012,29.216,51.012,12.753-5.1,13.913-8.579c0,0-8.512-76.994-23.419-95.763-8.423-10.606-18.318-42.433-18.781-53.563s-3.014-33.157-3.014-33.157Z" fill="#392f41"/>
              </g>
              <path id="Path_17972" data-name="Path 17972" d="M1677.143,892.334c13.229,4.175,36.119-7.091,36.119-7.091s-12.2-9.154-11.559-28.188l-10.229,8.243-6.948,5.6a83.207,83.207,0,0,0,.788,9.085c.139,1.055.3,2.194.493,3.411a2.448,2.448,0,0,1-1.111,2.468A31.285,31.285,0,0,0,1677.143,892.334Z" fill="#ffb27d"/>
              <path id="Path_17973" data-name="Path 17973" d="M1658.679,1015.22a2.139,2.139,0,0,0,1.39.53c4.968-.067,19.455,2.692,31.712,1.433,10.334-.992,19.48-4.053,29.3-8.456,1.3-.585,4.307-2.187,4.24-3.645-.044-1.6-.2-3.911-.4-6.827a365.3,365.3,0,0,1-.726-47.693c.213-3.746.324-7.462.338-11.12.1-27.265-5.3-51.247-16.169-59.363,0,0-7.575,4.25-12.817,5.926-5.136,1.642-7.784,1.312-10.448-.456,0,0-5.188,2.578-7.406,5-5.133,5.6-9.141,13.025-11.791,23.689-2.254,9.075-4.365,22.307-5.094,39.266C1660.478,961.182,1658.345,1014.953,1658.679,1015.22Z" fill="#fff"/>
              <path id="Path_17974" data-name="Path 17974" d="M1733.961,1027.855c-33.392,20.941-60.632,10.326-60.632,10.326-4.883-38.2-2.181-84.306-1.545-95.553,1.617-49.365,36.578-62.553,36.578-62.553l14.564,45.051,2.153,20.044,3.891,36.209Z" fill="#ffda66"/>
              <path id="Path_17975" data-name="Path 17975" d="M1684.527,870.9a83,83,0,0,0,.788,9.085c7.7-1.321,16.432-13.764,16.432-13.764a24.545,24.545,0,0,0-10.272-.92Z" fill="#ed975d"/>
              <path id="Path_17976" data-name="Path 17976" d="M1678.8,870.544s23.827,3.959,26.064-10.918,6.819-24.384-8.3-27.541-18.935,2.075-20.889,6.859S1672.656,869.131,1678.8,870.544Z" fill="#ffb27d"/>
              <path id="Path_17977" data-name="Path 17977" d="M1746.356,1000.217s2.556,3.4,2.656,4.764c.687,9.216-3.525,10.492,7.379,15.611,0,0,4.656,1.775,4.735-1.838s-3.23-3.673-2.625-8.733c.7-5.836.628-5.89-3.2-8.937l-2.537-4.192Z" fill="#ffb27d"/>
              <path id="Path_17978" data-name="Path 17978" d="M1704.88,858.194s-2.445-.409-2.051-3.776.39-7.77-2.349-6.95-2.875,3.013-4,1.733-1.146-6.674-9.293-7.05-11.459,2.46-15.248.794-3.989-7.4-3.989-7.4a6.519,6.519,0,0,0,2.705,2.7s-6.321-8.646,1-14.574,14.78-2.047,19.016-1.791c9.331.565,15.359,1.125,18.407,7.256S1710.868,852.293,1704.88,858.194Z"/>
              <path id="Path_17979" data-name="Path 17979" d="M1750.386,1004.27s-2.46,2.564-2.616,3.631c-.5,3.425-1.642,4.9-1.069,5.277,1.191.774,2.768-1.762,3.522-4.037A10.383,10.383,0,0,0,1750.386,1004.27Z" fill="#ffb27d"/>
              <path id="Path_17980" data-name="Path 17980" d="M1728.971,981.38c-7.32-18.723-27.769-50.3-27.769-50.3l23.878,14.1Z" fill="#ffc40c"/>
              <path id="Path_17981" data-name="Path 17981" d="M1752.854,1002.826a37.35,37.35,0,0,1-8.56.477s-12.2-37.672-13.765-41.113c-1.013-2.223-16.565-18.05-27.447-28.973a23.261,23.261,0,0,1-5.331-24.5l10.612-28.641s8.244,4.825,16.96,19.863c10.767,18.576,22.6,48.492,24.706,53.354,6.289,14.537,8.471,47.13,8.471,47.13A15.669,15.669,0,0,1,1752.854,1002.826Z" fill="#ffda66"/>
              <path id="Path_17982" data-name="Path 17982" d="M1708.363,880.078l-15.929,30.228-8.173-2.971,2.653,8.065-15.972,48.117S1662.106,902.381,1708.363,880.078Z" fill="#ffc40c"/>
            </g>
            <path id="Path_17983" data-name="Path 17983" d="M1677.143,862.1s.929,2.453,3.249,2.519,4.109-2.187,4.109-2.187S1679.465,861.267,1677.143,862.1Z" fill="#fff"/>
          </g>
          <g id="Floor">
            <g id="Group_5220" data-name="Group 5220">
              <g id="Group_5219" data-name="Group 5219">
                <path id="Path_17743" data-name="Path 17743" d="M1291.6,1215.629c0,.171,114.561.309,255.844.309,141.332,0,255.868-.138,255.868-.309s-114.536-.309-255.868-.309C1406.166,1215.322,1291.6,1215.46,1291.6,1215.629Z" fill="#606060"/>
              </g>
            </g>
          </g>
          <g id="Device">
            <g id="Group_5479" data-name="Group 5479">
              <g id="Group_5385" data-name="Group 5385">
                <g id="Group_5384" data-name="Group 5384">
                  <g id="Group_5383" data-name="Group 5383">
                    <g id="Group_5382" data-name="Group 5382">
                      <g id="Group_5379" data-name="Group 5379">
                        <g id="Group_5378" data-name="Group 5378">
                          <path id="Path_17812" data-name="Path 17812" d="M1463.521,1217.228l149.452-.692a32.554,32.554,0,0,0,32.405-32.692l-1.584-374.684a32.555,32.555,0,0,0-32.691-32.418h-.015l-149.454.69a32.557,32.557,0,0,0-32.4,32.694l1.581,374.68a32.554,32.554,0,0,0,32.686,32.422Z"/>
                        </g>
                      </g>
                      <g id="Group_5381" data-name="Group 5381">
                        <g id="Group_5380" data-name="Group 5380">
                          <path id="Path_17813" data-name="Path 17813" d="M1463.086,787.954l28.976-.134a7.2,7.2,0,0,1,7.067,7.324l.023,5.256a7.2,7.2,0,0,0,7.067,7.324l56.482-.261a7.2,7.2,0,0,0,7.005-7.388l-.023-5.256a7.207,7.207,0,0,1,7.005-7.389l10.192-.048,25.361-.116a22.8,22.8,0,0,1,22.905,22.7v.005l1.546,365.718a22.8,22.8,0,0,1-22.7,22.9h0l-149.156.688a22.8,22.8,0,0,1-22.9-22.7h0l-1.546-365.72A22.8,22.8,0,0,1,1463.086,787.954Z" fill="#fff"/>
                        </g>
                      </g>
                    </g>
                  </g>
                </g>
              </g>
              <g id="Group_5386" data-name="Group 5386">
                <path id="Path_17814" data-name="Path 17814" d="M1615.826,826.828a.594.594,0,0,0,.429-.183l2.272-2.373a.584.584,0,0,0,.165-.423.6.6,0,0,0-.183-.417l-2.272-2.172a.594.594,0,1,0-.822.858l1.843,1.763-1.861,1.943a.594.594,0,0,0,.429,1Z" fill="#263238"/>
              </g>
              <g id="Group_5442" data-name="Group 5442">
                <g id="Group_5396" data-name="Group 5396">
                  <path id="Path_17850" data-name="Path 17850" d="M1584.069,953.447c-.923-3.267-5.168-2.95-5.168-2.95l.116,2.272c2.454-.424,3.98,2.453,3.98,2.453Z" fill="#fec200"/>
                </g>
                <g id="Group_5399" data-name="Group 5399">
                  <path id="Path_17853" data-name="Path 17853" d="M1516.28,921.224c-2.291.243-2.566,3.121-2.566,3.121l1.535.182c0-1.691,2.1-2.383,2.1-2.383Z" fill="#fec200"/>
                </g>
                <g id="Group_5401" data-name="Group 5401">
                  <path id="Path_17855" data-name="Path 17855" d="M1529.652,891.205c.333-2.28-2.387-3.26-2.387-3.26l-.556,1.441c1.638.418,1.788,2.623,1.788,2.623Z" fill="#fec200"/>
                </g>
                <g id="Group_5402" data-name="Group 5402">
                  <path id="Path_17856" data-name="Path 17856" d="M1473.023,927.991c-.412,3.575,4.325,4.442,4.325,4.442l.855-2.34c-2.842-.258-3.252-3.6-3.252-3.6Z" fill="#fec200"/>
                </g>
                <g id="Group_5403" data-name="Group 5403">
                  <path id="Path_17857" data-name="Path 17857" d="M1578.446,915.034c2.3.132,3.037-2.663,3.037-2.663l-1.483-.429c-.272,1.669-2.455,2.012-2.455,2.012Z" fill="#fec200"/>
                </g>
                <g id="Group_5498" data-name="Group 5498">
                  <g id="Group_5397" data-name="Group 5397">
                    <path id="Path_17851" data-name="Path 17851" d="M1494,960.3c-.922-3.267-5.167-2.95-5.167-2.95l.116,2.272c2.454-.423,3.979,2.453,3.979,2.453Z" fill="#7400d7"/>
                  </g>
                  <g id="Group_5398" data-name="Group 5398">
                    <path id="Path_17852" data-name="Path 17852" d="M1543.609,915.111c4.924,1.492,7.989-4.188,7.989-4.188l-3-1.707c-1.466,3.479-6.383,3.076-6.383,3.076Z" fill="#7400d7"/>
                  </g>
                  <g id="Group_5400" data-name="Group 5400">
                    <path id="Path_17854" data-name="Path 17854" d="M1610.748,942.264c.333-2.28-2.386-3.259-2.386-3.259l-.557,1.441c1.639.417,1.788,2.623,1.788,2.623Z" fill="#7400d7"/>
                  </g>
                  <g id="Group_5422" data-name="Group 5422">
                    <g id="Group_5408" data-name="Group 5408">
                      <g id="Group_5405" data-name="Group 5405">
                        <g id="Group_5404" data-name="Group 5404">
                          <path id="Path_17858" data-name="Path 17858" d="M1591.018,924.419a9.757,9.757,0,0,1-3.8,0A9.835,9.835,0,0,1,1591.018,924.419Z" fill="#7400d7"/>
                        </g>
                      </g>
                      <g id="Group_5407" data-name="Group 5407">
                        <g id="Group_5406" data-name="Group 5406">
                          <path id="Path_17859" data-name="Path 17859" d="M1593.035,919.248a10.123,10.123,0,0,1,0,3.855A10.118,10.118,0,0,1,1593.035,919.248Z" fill="#7400d7"/>
                        </g>
                      </g>
                    </g>
                    <g id="Group_5413" data-name="Group 5413">
                      <g id="Group_5410" data-name="Group 5410">
                        <g id="Group_5409" data-name="Group 5409">
                          <path id="Path_17860" data-name="Path 17860" d="M1595.184,924.292a9.836,9.836,0,0,1,3.8,0A9.836,9.836,0,0,1,1595.184,924.292Z" fill="#7400d7"/>
                        </g>
                      </g>
                      <g id="Group_5412" data-name="Group 5412">
                        <g id="Group_5411" data-name="Group 5411">
                          <path id="Path_17861" data-name="Path 17861" d="M1593.171,929.46a10.118,10.118,0,0,1,0-3.855A10.123,10.123,0,0,1,1593.171,929.46Z" fill="#7400d7"/>
                        </g>
                      </g>
                    </g>
                    <g id="Group_5415" data-name="Group 5415">
                      <g id="Group_5414" data-name="Group 5414">
                        <path id="Path_17862" data-name="Path 17862" d="M1596.238,927.243c-.08.065-.445-.243-.818-.69s-.612-.862-.533-.928.445.243.818.69S1596.316,927.178,1596.238,927.243Z" fill="#7400d7"/>
                      </g>
                    </g>
                    <g id="Group_5417" data-name="Group 5417">
                      <g id="Group_5416" data-name="Group 5416">
                        <path id="Path_17863" data-name="Path 17863" d="M1596.06,921.383c.072.071-.182.447-.569.837s-.76.649-.834.577.183-.448.57-.839S1595.987,921.31,1596.06,921.383Z" fill="#7400d7"/>
                      </g>
                    </g>
                    <g id="Group_5419" data-name="Group 5419">
                      <g id="Group_5418" data-name="Group 5418">
                        <path id="Path_17864" data-name="Path 17864" d="M1591.706,922.877c-.066.078-.418-.107-.786-.413s-.615-.62-.55-.7.418.106.786.413S1591.771,922.8,1591.706,922.877Z" fill="#7400d7"/>
                      </g>
                    </g>
                    <g id="Group_5421" data-name="Group 5421">
                      <g id="Group_5420" data-name="Group 5420">
                        <path id="Path_17865" data-name="Path 17865" d="M1591.538,925.459c.076.07-.148.438-.5.824s-.7.643-.773.574.147-.438.5-.824S1591.458,925.39,1591.538,925.459Z" fill="#7400d7"/>
                      </g>
                    </g>
                  </g>
                </g>
                <g id="Group_5441" data-name="Group 5441">
                  <g id="Group_5427" data-name="Group 5427">
                    <g id="Group_5424" data-name="Group 5424">
                      <g id="Group_5423" data-name="Group 5423">
                        <path id="Path_17866" data-name="Path 17866" d="M1487.549,913.828a9.757,9.757,0,0,1-3.8,0A9.835,9.835,0,0,1,1487.549,913.828Z" fill="#fec200"/>
                      </g>
                    </g>
                    <g id="Group_5426" data-name="Group 5426">
                      <g id="Group_5425" data-name="Group 5425">
                        <path id="Path_17867" data-name="Path 17867" d="M1489.565,908.657a10.04,10.04,0,0,1,0,3.855A10.123,10.123,0,0,1,1489.565,908.657Z" fill="#fec200"/>
                      </g>
                    </g>
                  </g>
                  <g id="Group_5432" data-name="Group 5432">
                    <g id="Group_5429" data-name="Group 5429">
                      <g id="Group_5428" data-name="Group 5428">
                        <path id="Path_17868" data-name="Path 17868" d="M1491.715,913.7a9.836,9.836,0,0,1,3.8,0A9.836,9.836,0,0,1,1491.715,913.7Z" fill="#fec200"/>
                      </g>
                    </g>
                    <g id="Group_5431" data-name="Group 5431">
                      <g id="Group_5430" data-name="Group 5430">
                        <path id="Path_17869" data-name="Path 17869" d="M1489.7,918.872a10.117,10.117,0,0,1,0-3.855A10.122,10.122,0,0,1,1489.7,918.872Z" fill="#fec200"/>
                      </g>
                    </g>
                  </g>
                  <g id="Group_5434" data-name="Group 5434">
                    <g id="Group_5433" data-name="Group 5433">
                      <path id="Path_17870" data-name="Path 17870" d="M1492.768,916.655c-.078.065-.444-.243-.817-.69s-.612-.862-.533-.928.444.243.818.69S1492.846,916.59,1492.768,916.655Z" fill="#fec200"/>
                    </g>
                  </g>
                  <g id="Group_5436" data-name="Group 5436">
                    <g id="Group_5435" data-name="Group 5435">
                      <path id="Path_17871" data-name="Path 17871" d="M1492.59,910.792c.072.071-.183.447-.57.837s-.76.649-.833.577.182-.448.569-.839S1492.516,910.722,1492.59,910.792Z" fill="#fec200"/>
                    </g>
                  </g>
                  <g id="Group_5438" data-name="Group 5438">
                    <g id="Group_5437" data-name="Group 5437">
                      <path id="Path_17872" data-name="Path 17872" d="M1488.236,912.289c-.065.078-.417-.107-.786-.413s-.614-.619-.549-.7.418.107.786.413S1488.3,912.209,1488.236,912.289Z" fill="#fec200"/>
                    </g>
                  </g>
                  <g id="Group_5440" data-name="Group 5440">
                    <g id="Group_5439" data-name="Group 5439">
                      <path id="Path_17873" data-name="Path 17873" d="M1488.064,914.871c.076.07-.147.438-.5.824s-.7.643-.774.574.148-.438.5-.824S1487.984,914.8,1488.064,914.871Z" fill="#fec200"/>
                    </g>
                  </g>
                </g>
                <g id="noun_timer_2948757" data-name="noun timer 2948757">
                  <g id="Alert_Solid" data-name="Alert Solid">
                    <path id="Path_17984" data-name="Path 17984" d="M1508.61,966.224a31.288,31.288,0,1,0,31.288-31.288h0A31.288,31.288,0,0,0,1508.61,966.224Zm29.448-16.564h3.681v15.791l14.171,14.209-2.576,2.576-14.724-14.723a1.731,1.731,0,0,1-.552-1.288Z" fill="#1ec812"/>
                    <rect id="Rectangle_3458" data-name="Rectangle 3458" width="3.681" height="15.607" transform="translate(1558.837 936.243) rotate(-45)" fill="#1ec812"/>
                    <rect id="Rectangle_3459" data-name="Rectangle 3459" width="15.607" height="3.681" transform="translate(1507.305 944.674) rotate(-45)" fill="#1ec812"/>
                  </g>
                </g>
              </g>
              <g id="Group_5449" data-name="Group 5449">
                <g id="Group_5444" data-name="Group 5444">
                  <g id="Group_5443" data-name="Group 5443">
                    <path id="Path_17874" data-name="Path 17874" d="M1456.461,820.468c0,.171,3.757.309,8.389.309s8.388-.138,8.388-.309-3.754-.31-8.388-.31S1456.461,820.295,1456.461,820.468Z"/>
                  </g>
                </g>
                <g id="Group_5446" data-name="Group 5446">
                  <g id="Group_5445" data-name="Group 5445">
                    <path id="Path_17875" data-name="Path 17875" d="M1456.461,823.961c0,.171,3.757.31,8.389.31s8.388-.139,8.388-.31-3.754-.309-8.388-.309S1456.461,823.791,1456.461,823.961Z"/>
                  </g>
                </g>
                <g id="Group_5448" data-name="Group 5448">
                  <g id="Group_5447" data-name="Group 5447">
                    <path id="Path_17876" data-name="Path 17876" d="M1456.461,827.456c0,.171,3.757.31,8.389.31s8.388-.139,8.388-.31-3.754-.309-8.388-.309S1456.461,827.285,1456.461,827.456Z"/>
                  </g>
                </g>
              </g>
            </g>
          </g>
          <g id="Plant">
            <g id="Group_5495" data-name="Group 5495">
              <g id="Group_5481" data-name="Group 5481">
                <g id="Group_5480" data-name="Group 5480">
                  <path id="Path_17891" data-name="Path 17891" d="M1342.634,1137.31a14.744,14.744,0,0,0-7.635,8.648,26.019,26.019,0,0,0-1.013,11.715c.861,7.6,5.181,15.275,9.832,21.351,6.4-5.587,7.874-15.334,8.311-20.325.69-7.888-2.853-22.565-9.495-21.389" fill="#ffc516"/>
                </g>
              </g>
              <g id="Group_5483" data-name="Group 5483">
                <g id="Group_5482" data-name="Group 5482">
                  <path id="Path_17892" data-name="Path 17892" d="M1336.377,1191.569a12.57,12.57,0,0,0-4.062-11.949,16.7,16.7,0,0,0-12.31-3.845c-2.037.156-4.237.749-5.4,2.427a5.376,5.376,0,0,0-.083,5.447,10.9,10.9,0,0,0,4.032,3.972c5.547,3.481,11.553,5.831,17.826,3.948" fill="#ffc516"/>
                </g>
              </g>
              <g id="Group_5486" data-name="Group 5486">
                <g id="Group_5485" data-name="Group 5485">
                  <g id="Group_5484" data-name="Group 5484">
                    <path id="Path_17893" data-name="Path 17893" d="M1344.586,1214.879a8.932,8.932,0,0,0-.229-1.56c-.2-1.1-.461-2.518-.773-4.222-.708-3.528-1.616-8.581-4.358-13.487a26.994,26.994,0,0,0-9.678-10.285,18.364,18.364,0,0,0-3.947-1.746,11.05,11.05,0,0,0-1.137-.289,1.139,1.139,0,0,0-.406-.056,28.663,28.663,0,0,1,5.287,2.427,27.875,27.875,0,0,1,9.4,10.218c2.688,4.8,3.652,9.787,4.456,13.3.388,1.769.7,3.2.948,4.187A8.27,8.27,0,0,0,1344.586,1214.879Z" fill="#263238"/>
                  </g>
                </g>
              </g>
              <g id="Group_5489" data-name="Group 5489">
                <g id="Group_5488" data-name="Group 5488">
                  <g id="Group_5487" data-name="Group 5487">
                    <path id="Path_17894" data-name="Path 17894" d="M1344.346,1148.725a3.148,3.148,0,0,0-.078.682c-.031.506-.069,1.156-.116,1.959-.091,1.7-.191,4.167-.29,7.212-.2,6.091-.352,14.511-.312,23.811s.27,17.721.519,23.81c.125,3.044.246,5.508.352,7.208q.082,1.2.133,1.957c.037.448-.019,0,0,0-.084-.68.113.444.112,0-.007-.506-.017-1.157-.029-1.962-.044-1.772-.1-4.219-.176-7.212-.15-6.09-.315-14.5-.356-23.8s.053-17.708.15-23.8c.047-2.994.085-5.441.113-7.214.006-.8.01-1.456.013-1.962A3.169,3.169,0,0,0,1344.346,1148.725Z" fill="#263238"/>
                  </g>
                </g>
              </g>
              <g id="Group_5491" data-name="Group 5491">
                <g id="Group_5490" data-name="Group 5490">
                  <path id="Path_17895" data-name="Path 17895" d="M1347.449,1196.2a29.4,29.4,0,0,1,16.053-21.537c2.139-1.024,4.933-1.694,6.692-.1s1.366,4.454.5,6.668a25.118,25.118,0,0,1-23.1,15.6" fill="#ffc516"/>
                </g>
              </g>
              <g id="Group_5494" data-name="Group 5494">
                <g id="Group_5493" data-name="Group 5493">
                  <g id="Group_5492" data-name="Group 5492">
                    <path id="Path_17896" data-name="Path 17896" d="M1362.469,1181.871a7.576,7.576,0,0,0-1.359.591,14.649,14.649,0,0,0-1.535.818c-.575.36-1.27.71-1.954,1.226a25.759,25.759,0,0,0-2.235,1.683,29.026,29.026,0,0,0-2.38,2.162,32.765,32.765,0,0,0-4.521,5.808,32.074,32.074,0,0,0-2.982,6.734,28.174,28.174,0,0,0-.752,3.127,24,24,0,0,0-.384,2.773,22.09,22.09,0,0,0-.107,2.3,13.277,13.277,0,0,0,.052,1.739,7.525,7.525,0,0,0,.164,1.473c.125,0-.093-2.114.28-5.477a25.587,25.587,0,0,1,.445-2.724,29.462,29.462,0,0,1,.789-3.066,33.4,33.4,0,0,1,2.966-6.6,34.1,34.1,0,0,1,4.411-5.737,30.7,30.7,0,0,1,2.31-2.166c.734-.671,1.489-1.206,2.165-1.714C1360.6,1182.855,1362.525,1181.977,1362.469,1181.871Z" fill="#263238"/>
                  </g>
                </g>
              </g>
            </g>
          </g>
          <g id="Trial_Started" data-name="Trial Started" style="isolation: isolate">
            <g id="Group_5510" data-name="Group 5510" style="isolation: isolate">
              <path id="Path_17986" data-name="Path 17986" d="M1525.888,1028.8h-6.136v15.885h-2.938V1028.8h-6.162v-2.574h15.236Z" fill="#252525"/>
              <path id="Path_17987" data-name="Path 17987" d="M1532.778,1033.561a6.4,6.4,0,0,0-2.95.766,4.038,4.038,0,0,0-1.833,2.041v8.32h-2.861v-13.6h2.653v3.042a6.188,6.188,0,0,1,1.833-2.249,4.438,4.438,0,0,1,2.43-.923h.429a1.654,1.654,0,0,1,.3.025Z" fill="#252525"/>
              <path id="Path_17988" data-name="Path 17988" d="M1534.858,1028.854v-3.146h2.86v3.146Zm0,15.834v-13.6h2.86v13.6Z" fill="#252525"/>
              <path id="Path_17989" data-name="Path 17989" d="M1544.764,1044.948a5.055,5.055,0,0,1-1.833-.325,4.424,4.424,0,0,1-1.456-.9,4.165,4.165,0,0,1-.962-1.353,4.07,4.07,0,0,1-.351-1.689,3.652,3.652,0,0,1,.416-1.743,4.075,4.075,0,0,1,1.183-1.351,5.724,5.724,0,0,1,1.82-.885,8.172,8.172,0,0,1,2.327-.311,10.732,10.732,0,0,1,1.9.168,9.646,9.646,0,0,1,1.69.456v-.937a3.154,3.154,0,0,0-.858-2.353,3.374,3.374,0,0,0-2.47-.844,5.97,5.97,0,0,0-2.145.4,10.951,10.951,0,0,0-2.171,1.157l-.884-1.82a9.648,9.648,0,0,1,5.46-1.768,6.228,6.228,0,0,1,4.368,1.43,5.3,5.3,0,0,1,1.56,4.109v4.914c0,.606.251.919.754.935v2.444c-.277.052-.516.087-.715.1s-.4.026-.585.026a1.835,1.835,0,0,1-1.287-.416,1.776,1.776,0,0,1-.559-1.065l-.078-.858a6.07,6.07,0,0,1-2.249,1.833A6.611,6.611,0,0,1,1544.764,1044.948Zm.78-2.1a5.145,5.145,0,0,0,1.963-.377,3.384,3.384,0,0,0,1.443-1.054,1.316,1.316,0,0,0,.546-.987v-1.794a8.864,8.864,0,0,0-3.146-.6,4.381,4.381,0,0,0-2.509.663,2.034,2.034,0,0,0-.975,1.755,2.212,2.212,0,0,0,.754,1.7A2.74,2.74,0,0,0,1545.544,1042.843Z" fill="#252525"/>
              <path id="Path_17990" data-name="Path 17990" d="M1555.84,1025.708h2.86v15.055a1.69,1.69,0,0,0,.39,1.182,1.4,1.4,0,0,0,1.092.429,2.541,2.541,0,0,0,.663-.1q.376-.1.715-.235l.416,2.236a6.6,6.6,0,0,1-1.482.456,8.077,8.077,0,0,1-1.534.168,3.141,3.141,0,0,1-2.3-.805,3.067,3.067,0,0,1-.819-2.288Z" fill="#252525"/>
            </g>
            <g id="Group_5511" data-name="Group 5511" style="isolation: isolate">
              <path id="Path_17991" data-name="Path 17991" d="M1503.646,1060.57a4.07,4.07,0,0,0-.754-.61,7.5,7.5,0,0,0-1.158-.611,8.363,8.363,0,0,0-1.456-.468,7.255,7.255,0,0,0-1.625-.183,4.425,4.425,0,0,0-2.716.676,2.235,2.235,0,0,0-.872,1.872,2.041,2.041,0,0,0,.273,1.106,2.341,2.341,0,0,0,.846.753,6.6,6.6,0,0,0,1.429.573q.859.248,2,.533a22.936,22.936,0,0,1,2.534.754,7.2,7.2,0,0,1,1.912,1.014,4.133,4.133,0,0,1,1.209,1.468,4.761,4.761,0,0,1,.429,2.119,5.143,5.143,0,0,1-.533,2.418,4.545,4.545,0,0,1-1.457,1.652,6.406,6.406,0,0,1-2.145.935,11,11,0,0,1-2.626.3,13.088,13.088,0,0,1-4.068-.637,11.643,11.643,0,0,1-3.55-1.859l1.326-2.495a6.3,6.3,0,0,0,.976.754,9.081,9.081,0,0,0,1.481.766,12.758,12.758,0,0,0,1.834.6,8.413,8.413,0,0,0,2.054.247,4.914,4.914,0,0,0,2.652-.6,1.963,1.963,0,0,0,.936-1.767,1.9,1.9,0,0,0-.351-1.171,3,3,0,0,0-1-.818,8.628,8.628,0,0,0-1.586-.637q-.936-.287-2.133-.6a22.087,22.087,0,0,1-2.405-.766,6.011,6.011,0,0,1-1.7-.976,3.813,3.813,0,0,1-1.026-1.339,4.441,4.441,0,0,1-.352-1.858,5.369,5.369,0,0,1,.52-2.4,5.153,5.153,0,0,1,1.417-1.769,6.2,6.2,0,0,1,2.12-1.078,9.232,9.232,0,0,1,2.651-.364,9.737,9.737,0,0,1,3.458.6,11.508,11.508,0,0,1,2.783,1.483Z" fill="#252525"/>
              <path id="Path_17992" data-name="Path 17992" d="M1515.658,1073.986a14.311,14.311,0,0,1-1.509.585,6.361,6.361,0,0,1-2.053.325,4.367,4.367,0,0,1-1.275-.181,3.114,3.114,0,0,1-1.052-.546,2.479,2.479,0,0,1-.715-.949,3.472,3.472,0,0,1-.261-1.417v-8.5H1507v-2.21h1.793v-4.473h2.86v4.473h2.965v2.21h-2.965v7.592a1.409,1.409,0,0,0,.455,1.052,1.542,1.542,0,0,0,1,.326,3.194,3.194,0,0,0,1.144-.208c.365-.139.633-.251.807-.338Z" fill="#252525"/>
              <path id="Path_17993" data-name="Path 17993" d="M1521.247,1074.948a5.056,5.056,0,0,1-1.833-.325,4.424,4.424,0,0,1-1.456-.9,4.165,4.165,0,0,1-.962-1.353,4.068,4.068,0,0,1-.351-1.689,3.652,3.652,0,0,1,.416-1.743,4.064,4.064,0,0,1,1.183-1.351,5.725,5.725,0,0,1,1.82-.885,8.173,8.173,0,0,1,2.327-.311,10.729,10.729,0,0,1,1.9.168,9.65,9.65,0,0,1,1.69.456v-.937a3.154,3.154,0,0,0-.858-2.353,3.375,3.375,0,0,0-2.47-.844,5.97,5.97,0,0,0-2.145.4,10.948,10.948,0,0,0-2.171,1.157l-.884-1.82a9.646,9.646,0,0,1,5.46-1.768,6.228,6.228,0,0,1,4.368,1.43,5.3,5.3,0,0,1,1.56,4.109v4.914c0,.606.251.919.754.935v2.444q-.417.078-.715.1c-.2.018-.4.026-.585.026a1.835,1.835,0,0,1-1.287-.416,1.776,1.776,0,0,1-.559-1.065l-.078-.858a6.072,6.072,0,0,1-2.249,1.833A6.612,6.612,0,0,1,1521.247,1074.948Zm.78-2.1a5.145,5.145,0,0,0,1.963-.377,3.384,3.384,0,0,0,1.443-1.054,1.316,1.316,0,0,0,.546-.987v-1.794a8.864,8.864,0,0,0-3.146-.6,4.381,4.381,0,0,0-2.509.663,2.034,2.034,0,0,0-.975,1.755,2.212,2.212,0,0,0,.754,1.7A2.738,2.738,0,0,0,1522.027,1072.843Z" fill="#252525"/>
              <path id="Path_17994" data-name="Path 17994" d="M1539.941,1063.561a6.408,6.408,0,0,0-2.951.766,4.046,4.046,0,0,0-1.833,2.041v8.32h-2.86v-13.6h2.652v3.042a6.208,6.208,0,0,1,1.833-2.249,4.438,4.438,0,0,1,2.431-.923h.429a1.664,1.664,0,0,1,.3.025Z" fill="#252525"/>
              <path id="Path_17995" data-name="Path 17995" d="M1549.587,1073.986a14.284,14.284,0,0,1-1.508.585,6.371,6.371,0,0,1-2.054.325,4.368,4.368,0,0,1-1.275-.181,3.124,3.124,0,0,1-1.052-.546,2.479,2.479,0,0,1-.715-.949,3.47,3.47,0,0,1-.26-1.417v-8.5h-1.794v-2.21h1.794v-4.473h2.86v4.473h2.964v2.21h-2.964v7.592a1.406,1.406,0,0,0,.455,1.052,1.54,1.54,0,0,0,1,.326,3.2,3.2,0,0,0,1.144-.208c.364-.139.632-.251.806-.338Z" fill="#252525"/>
              <path id="Path_17996" data-name="Path 17996" d="M1557.387,1074.948a7.24,7.24,0,0,1-2.886-.558,6.709,6.709,0,0,1-2.223-1.522,6.832,6.832,0,0,1-1.43-2.235,7.25,7.25,0,0,1-.507-2.7,7.342,7.342,0,0,1,.507-2.717,6.977,6.977,0,0,1,1.43-2.263,6.635,6.635,0,0,1,2.223-1.534,7.308,7.308,0,0,1,2.912-.559,7.006,7.006,0,0,1,2.873.573,6.879,6.879,0,0,1,2.2,1.52,6.534,6.534,0,0,1,1.391,2.21,7.362,7.362,0,0,1,.481,2.64c0,.208-.009.4-.026.585s-.035.334-.052.455h-10.894a4.664,4.664,0,0,0,.429,1.638,4.286,4.286,0,0,0,.91,1.26,3.95,3.95,0,0,0,1.274.82,4,4,0,0,0,1.495.286,4.517,4.517,0,0,0,1.131-.144,3.95,3.95,0,0,0,1.027-.416,3.589,3.589,0,0,0,.832-.663,3.125,3.125,0,0,0,.572-.857l2.444.7a5.676,5.676,0,0,1-2.327,2.509A7.223,7.223,0,0,1,1557.387,1074.948Zm4.134-8.086a4.577,4.577,0,0,0-.429-1.586,4.1,4.1,0,0,0-.9-1.235,4.009,4.009,0,0,0-1.274-.793,4.169,4.169,0,0,0-1.534-.285,4.061,4.061,0,0,0-2.782,1.078,3.92,3.92,0,0,0-.884,1.235,4.749,4.749,0,0,0-.416,1.586Z" fill="#252525"/>
              <path id="Path_17997" data-name="Path 17997" d="M1572.232,1074.948a5.834,5.834,0,0,1-2.547-.558,6.357,6.357,0,0,1-2.028-1.522,7.011,7.011,0,0,1-1.34-2.249,8.191,8.191,0,0,1-.025-5.46,7.133,7.133,0,0,1,1.273-2.222,6.156,6.156,0,0,1,1.925-1.522,5.61,5.61,0,0,1,5.317.234,5.782,5.782,0,0,1,1.949,2.015v-7.956h2.861v15.6a1.12,1.12,0,0,0,.169.7.812.812,0,0,0,.61.233v2.444c-.294.052-.533.087-.714.1s-.334.026-.455.026a2.156,2.156,0,0,1-1.4-.441,1.559,1.559,0,0,1-.6-1.145l-.053-1.013a5.436,5.436,0,0,1-2.053,2A5.824,5.824,0,0,1,1572.232,1074.948Zm.7-2.443a3.916,3.916,0,0,0,1.248-.208,4.441,4.441,0,0,0,1.144-.572,4.042,4.042,0,0,0,.9-.859,3.082,3.082,0,0,0,.532-1.065v-3.563a4.275,4.275,0,0,0-.662-1.2,4.793,4.793,0,0,0-.975-.936,4.47,4.47,0,0,0-1.158-.6,3.793,3.793,0,0,0-1.234-.208,3.245,3.245,0,0,0-1.574.389,4.089,4.089,0,0,0-1.235,1.04,5.119,5.119,0,0,0-.818,1.483,5.025,5.025,0,0,0-.3,1.716,4.823,4.823,0,0,0,.325,1.767,4.627,4.627,0,0,0,.9,1.456,4.438,4.438,0,0,0,1.313.989A3.577,3.577,0,0,0,1572.935,1072.505Z" fill="#252525"/>
            </g>
          </g>
        </g>
      </g>
    </g>
  </g>
</svg>
