<svg xmlns="http://www.w3.org/2000/svg" width="457" height="338.384" viewBox="0 0 457 338.384">
  <g id="Future_of_self-learning" data-name="Future of self-learning" transform="translate(-621 -2053.616)">
    <rect id="Rectangle_3452" data-name="Rectangle 3452" width="457" height="338" transform="translate(621 2053.616)" fill="#fff" opacity="0"/>
    <g id="Group_5069" data-name="Group 5069" transform="translate(-407.66 1969.105)">
      <g id="Group_5065" data-name="Group 5065" transform="translate(1059.66 338.678)">
        <path id="Path_17081" data-name="Path 17081" d="M1086.9,634.652c.568-1.985.851-3.428.568-4.331-.568-3.067-2.271-4.872-4.824-5.052a4.546,4.546,0,0,0-3.123.541V628.7c0,.542-.283,10.285-1.134,29.413q.852,4.33,6.81,3.789h.568c.284,0,.284,0,.284.181l-9.649,7.939c-5.391-1.624-8.513-3.97-9.647-7.218a32.379,32.379,0,0,1-.568-6.857l.283-27.969c0-3.609-1.134-5.414-5.959-5.233a1.461,1.461,0,0,1-.851-.181l14.472-6.677a6.865,6.865,0,0,1,4.54,4.331c1.419-2.346,2.554-3.97,3.406-4.511a36.485,36.485,0,0,1,12.487,4.511c4.824,2.707,6.81,5.233,6.243,7.94Z" transform="translate(-1059.66 -586.653)" fill="#222"/>
        <path id="Path_17082" data-name="Path 17082" d="M1159.071,630.3a24.036,24.036,0,0,1-3.121,1.624c-7.379,3.97-12.77,8.842-16.459,14.436v6.5q0,8.662,6.81,7.579c2.554-.361,4.824-1.625,7.378-3.97l1.7-2.526c1.7-3.068,1.134-7.037-1.419-12.09l5.108,5.413v.181a9.96,9.96,0,0,1,.567,7.579c-1.418,5.053-5.959,9.925-13.337,14.616l-1.419.9-3.689-1.083c-7.378-1.8-11.634-4.691-13.053-8.481a31.837,31.837,0,0,1-.568-7.038V627.414q-.426-.271,0-.541l25.54-11.73a4.439,4.439,0,0,1,2.838,1.986q1.277,1.895,1.7,9.2a4.867,4.867,0,0,0,2.27,3.609Zm-14.189-4.692a4.111,4.111,0,0,0-2.838-1.082,3.671,3.671,0,0,0-1.986,0c-.284,0-.567,0-.567.18v16.962a28.642,28.642,0,0,0,6.81-7.579C1146.3,629.76,1145.733,626.873,1144.882,625.609Z" transform="translate(-1083.872 -586.452)" fill="#222"/>
        <path id="Path_17083" data-name="Path 17083" d="M1213.021,669.994c-5.391-1.624-8.513-4.15-9.648-7.4l-9.081,7.4c-6.527-2.165-9.932-5.594-10.216-10.465a16.346,16.346,0,0,0-.285-2.527V639.86l2.838-1.443c-2.553-3.971-3.405-7.579-1.986-11.008s4.824-5.955,10.216-7.579a115.9,115.9,0,0,0,12.77-3.248c1.7-.722,2.837-1.083,3.121-.9,3.689.722,5.675,5.053,5.392,12.992,0,1.082-.284,10.827-.851,29.413.283,2.887,2.554,4.15,6.527,3.789h.852c.283,0,.283,0,.283.181Zm-9.932-44.39-7.946,1.082c-5.392,1.263-7.945,3.789-7.945,7.578a16.1,16.1,0,0,0,.567,3.429c4.825-2.887,9.933-6.5,15.324-7.759Zm-.284,30.315.284-23.639c-4.54,2.165-6.81,6.316-6.81,12.27V657.9h.283v.18c.284,2.887,2.554,4.15,6.527,3.789A30.508,30.508,0,0,1,1202.8,655.919Z" transform="translate(-1104.054 -586.627)" fill="#222"/>
        <path id="Path_17084" data-name="Path 17084" d="M1265.6,579.5a18.748,18.748,0,0,0-.851,6.5v15.338c0-.18,0,3.068.283,9.745v5.594c0,9.383,0,15.88-.283,19.669l-.284,5.594c.568,2.887,2.838,4.15,6.527,3.789h.852l.283.181-9.648,7.939c-5.391-1.624-8.513-3.97-9.648-7.217a31.143,31.143,0,0,1-.568-6.857V586.538c1.419-.541,4.257-3.789,8.8-9.383,3.69-4.511,8.513-6.677,14.756-6.677a32.6,32.6,0,0,1,5.676.541C1272.41,572.463,1267.018,575.35,1265.6,579.5Z" transform="translate(-1128.541 -570.478)" fill="#222"/>
      </g>
      <g id="Group_5066" data-name="Group 5066" transform="translate(1059.66 254.35)">
        <path id="Path_17085" data-name="Path 17085" d="M1088.889,508.716c-5.392-1.624-8.513-4.15-9.649-7.4l-9.081,7.4c-6.527-2.165-9.932-5.594-10.216-10.465a16.372,16.372,0,0,0-.284-2.527V478.582l2.838-1.443c-2.554-3.97-3.406-7.579-1.987-11.008s4.825-5.955,10.216-7.579a115.881,115.881,0,0,0,12.77-3.248c1.7-.722,2.837-1.083,3.121-.9,3.69.722,5.675,5.053,5.392,12.992,0,1.082-.283,10.827-.851,29.413.283,2.887,2.553,4.15,6.526,3.789h.852c.283,0,.283,0,.283.18Zm-9.932-44.39-7.946,1.082c-5.392,1.264-7.946,3.789-7.946,7.579a16.09,16.09,0,0,0,.567,3.429c4.825-2.888,9.933-6.5,15.325-7.759Zm-.284,30.315.284-23.639c-4.541,2.165-6.811,6.316-6.811,12.27v13.353h.284v.181c.283,2.887,2.553,4.15,6.527,3.789A30.455,30.455,0,0,1,1078.673,494.641Z" transform="translate(-1059.66 -424.62)" fill="#222"/>
        <path id="Path_17086" data-name="Path 17086" d="M1145.238,433c-1.987-1.082-3.121-3.609-3.689-7.579q-.852-4.873-4.257-4.872c-1.986,2.165-2.837,5.233-2.837,9.2v12.27c9.647.181,16.175-.9,19.864-3.068q1.277,3.789-5.96,7.579-9.364,5.142-10.215,5.955l-.568-.361v-.18c-.284-.721-1.135-1.263-3.121-1.624v31.037c0,2.887,2.27,4.15,6.526,3.789h.851c.284,0,.284,0,0,.181l-9.648,7.939c-5.109-1.624-8.23-3.97-9.649-7.217a28.686,28.686,0,0,1-.568-6.857V449.963l-11.067,2.346,4.824-5.233a21.482,21.482,0,0,1,6.243-3.428v-20.21l7.095-3.248,19.581-9.023c2.554.722,4.257,4.512,4.54,11.188a3.669,3.669,0,0,0,2.27,3.429Z" transform="translate(-1077.986 -409.174)" fill="#222"/>
        <path id="Path_17087" data-name="Path 17087" d="M1201.781,433c-1.987-1.082-3.121-3.609-3.689-7.579q-.852-4.873-4.257-4.872c-1.986,2.165-2.837,5.233-2.837,9.2v12.27c9.648.181,16.175-.9,19.864-3.068q1.277,3.789-5.96,7.579-9.364,5.142-10.215,5.955l-.568-.361v-.18c-.284-.721-1.135-1.263-3.121-1.624v31.037c0,2.887,2.27,4.15,6.526,3.789h.851c.284,0,.284,0,0,.181l-9.648,7.939c-5.109-1.624-8.23-3.97-9.649-7.217a28.667,28.667,0,0,1-.568-6.857V449.963l-11.067,2.346,4.824-5.233a21.484,21.484,0,0,1,6.242-3.428v-20.21l7.095-3.248,19.58-9.023c2.554.722,4.257,4.512,4.54,11.188a3.669,3.669,0,0,0,2.27,3.429Z" transform="translate(-1098.208 -409.174)" fill="#222"/>
        <path id="Path_17088" data-name="Path 17088" d="M1247.739,508.541c-6.526-2.165-9.932-5.594-10.215-10.465V486.888c-.284-6.677-.284-12.631-.284-18.226v-4.511a62.854,62.854,0,0,0,22.135-10.106,9.642,9.642,0,0,1,2.27-.18c5.107,0,7.945,1.8,8.8,5.414a68.007,68.007,0,0,1,.568,7.759c-.283,3.068-.568,9.2-.851,18.587a4.6,4.6,0,0,0,1.986,3.067Zm9.932-25.623v-1.805c.285-3.248.285-4.692.285-4.331v-7.218c0-5.594-1.419-8.481-3.974-8.481a4.2,4.2,0,0,0-4.256,3.609v27.789h.284c-.284,3.067,1.419,4.511,5.108,4.511a9.29,9.29,0,0,0,5.959-2.346C1258.807,492.662,1257.672,488.872,1257.672,482.918Z" transform="translate(-1123.169 -424.445)" fill="#222"/>
        <path id="Path_17089" data-name="Path 17089" d="M1317.493,473.374c.567-1.985.851-3.428.567-4.33-.567-3.068-2.27-4.873-4.823-5.053a4.546,4.546,0,0,0-3.123.541v2.887c0,.541-.283,10.285-1.134,29.413q.851,4.33,6.81,3.789h.568c.283,0,.283,0,.283.181l-9.648,7.939c-5.392-1.624-8.513-3.97-9.648-7.217a32.45,32.45,0,0,1-.567-6.857l.283-27.969c0-3.609-1.135-5.414-5.959-5.233a1.463,1.463,0,0,1-.852-.181l14.473-6.677a6.864,6.864,0,0,1,4.54,4.331c1.419-2.346,2.555-3.97,3.406-4.511a36.477,36.477,0,0,1,12.486,4.511c4.824,2.707,6.81,5.233,6.243,7.94Z" transform="translate(-1142.128 -424.646)" fill="#222"/>
        <path id="Path_17090" data-name="Path 17090" d="M1390.884,423.509V480.35c.284,2.887,2.554,4.15,6.527,3.789h.851c.284,0,.284,0,0,.181l-9.648,7.94c-5.96-1.985-9.364-4.691-9.932-8.48l-10.783,8.48c-6.528-2.165-9.932-5.594-10.217-10.465v-6.5l-.283-25.623q4.682-3.248,14.473-9.2a24.833,24.833,0,0,1,6.811-1.985v-4.331c-.284-4.511-.284-6.5-.284-5.594v-9.745a146,146,0,0,1,13.054-7.759,28.069,28.069,0,0,1,16.459-2.346C1394.289,410.877,1390.884,414.306,1390.884,423.509ZM1378.4,440.29q-8.514,2.977-8.514,12.992V476.2h.285v.18a4.45,4.45,0,0,0,.568,1.985,5.929,5.929,0,0,0,4.823,2.346,7.908,7.908,0,0,0,2.838-.541Z" transform="translate(-1166.142 -408.163)" fill="#222"/>
        <path id="Path_17091" data-name="Path 17091" d="M1453.331,508.716c-5.392-1.624-8.513-4.15-9.649-7.4l-9.081,7.4c-6.527-2.165-9.932-5.594-10.216-10.465a16.393,16.393,0,0,0-.284-2.527V478.582l2.838-1.443c-2.554-3.97-3.405-7.579-1.987-11.008s4.825-5.955,10.216-7.579a115.828,115.828,0,0,0,12.77-3.248c1.7-.722,2.838-1.083,3.122-.9,3.689.722,5.675,5.053,5.391,12.992,0,1.082-.283,10.827-.851,29.413.284,2.887,2.554,4.15,6.527,3.789h.851c.284,0,.284,0,.284.18Zm-9.932-44.39-7.946,1.082c-5.392,1.264-7.945,3.789-7.945,7.579a16.052,16.052,0,0,0,.567,3.429c4.824-2.888,9.932-6.5,15.324-7.759Zm-.284,30.315L1443.4,471c-4.54,2.165-6.811,6.316-6.811,12.27v13.353h.284v.181c.284,2.887,2.554,4.15,6.527,3.789A30.506,30.506,0,0,1,1443.115,494.641Z" transform="translate(-1189.998 -424.62)" fill="#222"/>
        <path id="Path_17092" data-name="Path 17092" d="M1522.4,473.394h-.283l-.852.722-4.824,3.97-1.135.9-15.323,12.27c-6.811-1.985-10.217-5.594-10.217-10.466V450.117c-.283-11.549-.283-20.752-.283-27.789v-3.609a150.731,150.731,0,0,1,13.053-7.759,26.86,26.86,0,0,1,16.459-2.527c-8.8,1.444-13.905,4.331-15.891,8.481a14.185,14.185,0,0,0-1.136,6.5v20.932l15.892-7.217c3.972,1.263,5.676,5.594,5.392,12.992l-.851,18.225a5.45,5.45,0,0,0,1.987,3.248Zm-9.081,4.15c-2.27-2.165-3.4-5.052-3.4-8.842,0-3.428,0-7.037.283-10.647a29.162,29.162,0,0,0,0-7.037c0-1.624-.283-4.331-3.405-4.511H1504.8l-2.838.722.285,27.067h-.285v.9h.285v.181c0,2.887,1.7,4.331,5.391,4.331a11.135,11.135,0,0,0,5.392-1.985Z" transform="translate(-1213.38 -408.065)" fill="#222"/>
        <path id="Path_17093" data-name="Path 17093" d="M1564.219,418.223a18.749,18.749,0,0,0-.851,6.5v15.338c0-.18,0,3.068.283,9.745v5.594c0,9.384,0,15.88-.283,19.669l-.284,5.594c.567,2.887,2.837,4.15,6.527,3.789h.851l.284.18-9.648,7.94c-5.392-1.624-8.513-3.97-9.649-7.218a31.154,31.154,0,0,1-.568-6.857V425.26c1.419-.541,4.257-3.789,8.8-9.383,3.689-4.511,8.513-6.677,14.755-6.677a32.6,32.6,0,0,1,5.676.542C1571.03,411.185,1565.638,414.072,1564.219,418.223Z" transform="translate(-1235.339 -408.471)" fill="#222"/>
        <path id="Path_17094" data-name="Path 17094" d="M1617.6,469.023a23.909,23.909,0,0,1-3.121,1.624c-7.378,3.97-12.77,8.842-16.459,14.436v6.5q0,8.662,6.81,7.579c2.555-.361,4.825-1.625,7.379-3.97l1.7-2.526c1.7-3.068,1.135-7.037-1.419-12.09l5.108,5.413v.181a9.959,9.959,0,0,1,.568,7.579c-1.419,5.053-5.959,9.925-13.338,14.616l-1.418.9-3.689-1.083c-7.378-1.8-11.635-4.691-13.054-8.48a31.943,31.943,0,0,1-.567-7.038V466.136q-.426-.271,0-.542l25.54-11.729a4.438,4.438,0,0,1,2.837,1.986q1.277,1.894,1.7,9.2a4.868,4.868,0,0,0,2.269,3.609Zm-14.188-4.692a4.112,4.112,0,0,0-2.838-1.082,3.671,3.671,0,0,0-1.986,0c-.284,0-.567,0-.567.181v16.962a28.643,28.643,0,0,0,6.81-7.579C1604.83,468.482,1604.264,465.595,1603.412,464.331Z" transform="translate(-1247.859 -424.445)" fill="#222"/>
      </g>
      <g id="Group_5067" data-name="Group 5067" transform="translate(1059.66 169.386)">
        <path id="Path_17095" data-name="Path 17095" d="M1088.889,346.87c-5.392-1.624-8.513-4.15-9.649-7.4l-9.081,7.4c-6.526-2.165-9.932-5.594-10.216-10.465a16.414,16.414,0,0,0-.283-2.527V316.736l2.837-1.443c-2.554-3.97-3.405-7.579-1.986-11.008s4.824-5.955,10.215-7.579a115.84,115.84,0,0,0,12.77-3.248c1.7-.722,2.838-1.083,3.121-.9,3.69.722,5.676,5.053,5.392,12.992,0,1.082-.283,10.827-.851,29.413.284,2.887,2.554,4.15,6.527,3.789h.851c.283,0,.283,0,.283.181Zm-9.932-44.39-7.945,1.082c-5.393,1.263-7.947,3.789-7.947,7.579a16.054,16.054,0,0,0,.568,3.429c4.824-2.887,9.932-6.5,15.324-7.76Zm-.284,30.315.284-23.639c-4.541,2.165-6.811,6.316-6.811,12.27V334.78h.284v.181c.284,2.887,2.554,4.15,6.527,3.789A30.518,30.518,0,0,1,1078.673,332.8Z" transform="translate(-1059.66 -262.774)" fill="#222"/>
        <path id="Path_17096" data-name="Path 17096" d="M1147.706,313.854c-2.554-1.264-3.689-3.789-3.973-7.579-.284-3.067-1.419-4.691-3.972-4.872a2.745,2.745,0,0,0-1.7,0,10.6,10.6,0,0,0-1.987.361v27.969q0,8.933,6.811,7.579a15.213,15.213,0,0,0,7.378-3.97l1.7-2.526c1.987-3.068,1.419-7.218-1.136-12.09a34.991,34.991,0,0,1,4.825,5.413v.18a9.965,9.965,0,0,1,.568,7.579c-.852,3.429-5.393,8.3-13.338,14.617l-1.135.9a18.886,18.886,0,0,0-3.973-1.083c-7.094-1.985-11.635-4.691-13.053-8.48a29.393,29.393,0,0,1-.568-7.038V304.29l.851-.361c4.257-1.8,13.054-5.774,26.108-11.91A4.44,4.44,0,0,1,1153.95,294q1.277,2.165,1.7,9.2a3.43,3.43,0,0,0,1.986,3.428Z" transform="translate(-1082.725 -262.599)" fill="#222"/>
        <path id="Path_17097" data-name="Path 17097" d="M1204.695,313.854c-2.555-1.264-3.689-3.789-3.973-7.579-.284-3.067-1.418-4.691-3.973-4.872a2.743,2.743,0,0,0-1.7,0,10.6,10.6,0,0,0-1.987.361v27.969q0,8.933,6.81,7.579a15.214,15.214,0,0,0,7.379-3.97l1.7-2.526c1.987-3.068,1.419-7.218-1.135-12.09a34.924,34.924,0,0,1,4.824,5.413v.18a9.961,9.961,0,0,1,.568,7.579c-.851,3.429-5.392,8.3-13.338,14.617l-1.134.9a18.9,18.9,0,0,0-3.973-1.083c-7.095-1.985-11.635-4.691-13.054-8.48a29.426,29.426,0,0,1-.567-7.038V304.29l.851-.361c4.256-1.8,13.054-5.774,26.108-11.91a4.439,4.439,0,0,1,2.838,1.986q1.277,2.165,1.7,9.2a3.43,3.43,0,0,0,1.987,3.428Z" transform="translate(-1103.106 -262.599)" fill="#222"/>
        <path id="Path_17098" data-name="Path 17098" d="M1270.393,307.177a23.894,23.894,0,0,1-3.121,1.624c-7.378,3.97-12.77,8.842-16.459,14.436v6.5q0,8.662,6.81,7.579c2.555-.361,4.825-1.624,7.379-3.97l1.7-2.526c1.7-3.068,1.135-7.038-1.419-12.09l5.108,5.413v.18a9.959,9.959,0,0,1,.568,7.579c-1.419,5.053-5.959,9.925-13.338,14.617l-1.419.9-3.689-1.083c-7.377-1.8-11.634-4.691-13.053-8.48a31.923,31.923,0,0,1-.568-7.038V304.29q-.425-.271,0-.542l25.541-11.73a4.439,4.439,0,0,1,2.838,1.986q1.277,1.894,1.7,9.2a4.866,4.866,0,0,0,2.27,3.609Zm-14.189-4.691a4.108,4.108,0,0,0-2.837-1.083,3.669,3.669,0,0,0-1.986,0c-.284,0-.568,0-.568.18v16.962a28.648,28.648,0,0,0,6.81-7.579C1257.623,306.635,1257.056,303.749,1256.2,302.486Z" transform="translate(-1123.685 -262.599)" fill="#222"/>
        <path id="Path_17099" data-name="Path 17099" d="M1318.577,310.585c4.257,1.624,7.095,3.609,8.23,6.316.568,1.082.851,3.428.851,6.857l.284,10.827c0,.181,0,.181-.284.181-2.554,1.985-8.513,6.135-17.309,12.09a25.938,25.938,0,0,1-5.676-1.8c-1.419-.542-3.689-2.165-6.526-4.692-1.987-1.985-4.257-3.789-6.244-5.594-.283-.181-.283-.181,0-.361,1.419-1.624,4.257-4.331,7.946-7.759a8.153,8.153,0,0,1-5.108-5.052q-.852-1.624-.851-7.038l-.284-10.827.284-.181c3.121-2.165,9.08-6.135,17.311-12.09l5.675,1.8a19.728,19.728,0,0,1,4.257,2.887,72.5,72.5,0,0,0,8.513,7.4c.284.181.284.361,0,.361A57.559,57.559,0,0,0,1318.577,310.585Zm-3.688,12.812c0-1.443-1.7-2.887-4.825-4.511a63.361,63.361,0,0,0-5.958,7.939.533.533,0,0,1-.284.542c0,1.8,1.135,4.15,3.689,7.218a13.845,13.845,0,0,0,4.824,3.97,2.662,2.662,0,0,0,2.838-.9Zm.568-16.24c-.851-3.789-2.838-6.135-5.959-7.218a2.886,2.886,0,0,0-3.122.721l.567,12.451a5.389,5.389,0,0,0,1.419,4.15c4.825-3.789,7.094-6.5,7.094-8.12Z" transform="translate(-1142.643 -262.398)" fill="#222"/>
        <path id="Path_17100" data-name="Path 17100" d="M1378.215,310.585c4.257,1.624,7.094,3.609,8.23,6.316.567,1.082.851,3.428.851,6.857l.283,10.827c0,.181,0,.181-.283.181-2.554,1.985-8.513,6.135-17.311,12.09a25.932,25.932,0,0,1-5.675-1.8c-1.419-.542-3.689-2.165-6.528-4.692-1.986-1.985-4.257-3.789-6.243-5.594-.284-.181-.284-.181,0-.361,1.419-1.624,4.256-4.331,7.945-7.759a8.152,8.152,0,0,1-5.107-5.052q-.852-1.624-.853-7.038l-.283-10.827.283-.181c3.122-2.165,9.081-6.135,17.311-12.09l5.676,1.8a19.722,19.722,0,0,1,4.257,2.887,72.466,72.466,0,0,0,8.514,7.4c.283.181.283.361,0,.361A57.555,57.555,0,0,0,1378.215,310.585Zm-3.689,12.812c0-1.443-1.7-2.887-4.824-4.511a63.214,63.214,0,0,0-5.959,7.939.533.533,0,0,1-.284.542c0,1.8,1.135,4.15,3.689,7.218a13.847,13.847,0,0,0,4.824,3.97,2.661,2.661,0,0,0,2.837-.9Zm.568-16.24c-.852-3.789-2.838-6.135-5.96-7.218a2.886,2.886,0,0,0-3.121.721l.568,12.451a5.387,5.387,0,0,0,1.419,4.15c4.823-3.789,7.094-6.5,7.094-8.12Z" transform="translate(-1163.971 -262.398)" fill="#222"/>
        <path id="Path_17101" data-name="Path 17101" d="M1424.065,337.352c-5.108-1.624-8.229-3.97-9.648-7.218a28.64,28.64,0,0,1-.568-6.857V297.112c0-1.624,0-2.706-.283-2.887-.285-.9-1.419-1.443-2.838-1.624.851,0-1.987.361-8.23.9a1.566,1.566,0,0,1-1.419-.18c-.283-.181,0-.542,1.419-1.083l1.7-.9,17.594-8.12c2.555.722,3.974,2.526,4.825,5.233a38.5,38.5,0,0,1,.568,7.579c0,.542,0,3.428-.285,8.662l-.567,20.751q.426,4.6,6.811,3.789c.851,0,1.135,0,.851.181Zm-2.271-59.367c-1.986-.722-5.675-4.872-9.932-5.414a3.158,3.158,0,0,0-1.418.18h-.852l13.338-6.857c2.553.721,6.527,4.872,10.216,5.413a9.543,9.543,0,0,0,2.269,0Z" transform="translate(-1181.729 -253.256)" fill="#222"/>
        <path id="Path_17102" data-name="Path 17102" d="M1488.389,311.548h-.283l-.851.722-4.825,3.97-1.135.9-15.323,12.27c-6.811-1.985-10.216-5.594-10.216-10.466V288.27c-.284-11.548-.284-20.751-.284-27.789v-3.609a150.666,150.666,0,0,1,13.053-7.759,26.86,26.86,0,0,1,16.459-2.526c-8.8,1.444-13.905,4.331-15.891,8.481a14.189,14.189,0,0,0-1.135,6.5V282.5l15.891-7.218c3.973,1.263,5.676,5.594,5.392,12.992l-.851,18.226a5.454,5.454,0,0,0,1.987,3.248Zm-9.08,4.15c-2.271-2.165-3.405-5.053-3.405-8.842,0-3.428,0-7.037.283-10.647a29.112,29.112,0,0,0,0-7.037c0-1.624-.283-4.331-3.405-4.511H1470.8l-2.838.722.284,27.067h-.284v.9h.284v.18c0,2.887,1.7,4.331,5.392,4.331a11.131,11.131,0,0,0,5.391-1.985Z" transform="translate(-1201.217 -246.219)" fill="#222"/>
        <path id="Path_17103" data-name="Path 17103" d="M1530.21,256.377a18.748,18.748,0,0,0-.851,6.5V278.21c0-.18,0,3.068.283,9.745v5.594c0,9.384,0,15.879-.283,19.669l-.283,5.594c.566,2.887,2.837,4.15,6.526,3.789h.851l.284.181-9.648,7.939c-5.392-1.624-8.513-3.97-9.649-7.218a31.153,31.153,0,0,1-.567-6.857V263.414c1.419-.542,4.257-3.79,8.8-9.384,3.689-4.511,8.513-6.677,14.756-6.677a32.594,32.594,0,0,1,5.675.542C1537.021,249.339,1531.629,252.226,1530.21,256.377Z" transform="translate(-1223.176 -246.625)" fill="#222"/>
        <path id="Path_17104" data-name="Path 17104" d="M1583.591,307.177a23.959,23.959,0,0,1-3.122,1.624c-7.378,3.97-12.77,8.842-16.459,14.436v6.5q0,8.662,6.812,7.579c2.553-.361,4.823-1.624,7.377-3.97l1.7-2.526c1.7-3.068,1.135-7.038-1.419-12.09l5.108,5.413v.18a9.96,9.96,0,0,1,.567,7.579c-1.419,5.053-5.959,9.925-13.337,14.617l-1.419.9-3.69-1.083c-7.378-1.8-11.635-4.691-13.053-8.48a31.881,31.881,0,0,1-.568-7.038V304.29q-.426-.271,0-.542l25.54-11.73a4.438,4.438,0,0,1,2.838,1.986q1.277,1.894,1.7,9.2a4.868,4.868,0,0,0,2.271,3.609Zm-14.188-4.691a4.114,4.114,0,0,0-2.838-1.083,3.672,3.672,0,0,0-1.987,0c-.284,0-.568,0-.568.18v16.962a28.669,28.669,0,0,0,6.812-7.579C1570.822,306.635,1570.254,303.749,1569.4,302.486Z" transform="translate(-1235.696 -262.599)" fill="#222"/>
      </g>
      <g id="Group_5068" data-name="Group 5068" transform="translate(1059.66 84.511)">
        <path id="Path_17105" data-name="Path 17105" d="M1086.9,149.545c.568-1.985.851-3.429.568-4.331-.568-3.067-2.271-4.872-4.824-5.053a4.546,4.546,0,0,0-3.123.542v2.887c0,.541-.283,10.286-1.134,29.412q.852,4.331,6.81,3.79h.568c.284,0,.284,0,.284.18l-9.649,7.94c-5.391-1.624-8.513-3.97-9.647-7.218a32.372,32.372,0,0,1-.568-6.857l.283-27.97c0-3.609-1.134-5.413-5.959-5.233a1.461,1.461,0,0,1-.851-.181l14.472-6.677a6.863,6.863,0,0,1,4.54,4.331c1.419-2.346,2.554-3.97,3.406-4.511a36.485,36.485,0,0,1,12.487,4.511c4.824,2.707,6.81,5.233,6.243,7.94Z" transform="translate(-1059.66 -100.993)" fill="#222"/>
        <path id="Path_17106" data-name="Path 17106" d="M1156.477,184.887c-5.391-1.624-8.513-4.15-9.648-7.4l-9.081,7.4c-6.527-2.165-9.933-5.594-10.216-10.466a16.4,16.4,0,0,0-.284-2.526V154.753l2.837-1.444c-2.554-3.97-3.4-7.579-1.986-11.008s4.824-5.955,10.215-7.579a115.915,115.915,0,0,0,12.77-3.248c1.7-.721,2.838-1.082,3.121-.9,3.689.722,5.676,5.053,5.392,12.992,0,1.082-.284,10.827-.851,29.412.284,2.887,2.554,4.151,6.527,3.79h.851c.283,0,.283,0,.283.181Zm-9.932-44.39-7.946,1.083c-5.391,1.263-7.946,3.789-7.946,7.579a16.109,16.109,0,0,0,.568,3.428c4.824-2.887,9.932-6.5,15.324-7.759Zm-.284,30.316.284-23.639c-4.541,2.165-6.811,6.316-6.811,12.27V172.8h.284v.18c.284,2.887,2.554,4.151,6.527,3.79A30.525,30.525,0,0,1,1146.261,170.813Z" transform="translate(-1083.832 -100.968)" fill="#222"/>
        <path id="Path_17107" data-name="Path 17107" d="M1225.229,99.68V156.52c.284,2.887,2.554,4.151,6.527,3.79h.851c.283,0,.283,0,0,.181l-9.649,7.94c-5.959-1.985-9.364-4.692-9.932-8.481l-10.783,8.481c-6.527-2.165-9.932-5.594-10.216-10.466v-6.5l-.283-25.624q4.682-3.248,14.472-9.2a24.785,24.785,0,0,1,6.81-1.985v-4.331c-.283-4.511-.283-6.5-.283-5.594V94.988a146.026,146.026,0,0,1,13.053-7.759,28.069,28.069,0,0,1,16.459-2.346C1228.634,87.048,1225.229,90.477,1225.229,99.68Zm-12.486,16.782q-8.514,2.977-8.514,12.992v22.918h.285v.18a4.464,4.464,0,0,0,.567,1.985,5.929,5.929,0,0,0,4.825,2.346,7.912,7.912,0,0,0,2.838-.541Z" transform="translate(-1106.898 -84.511)" fill="#222"/>
        <path id="Path_17108" data-name="Path 17108" d="M1268.125,175.369c-5.108-1.624-8.23-3.97-9.649-7.218a28.682,28.682,0,0,1-.567-6.857V135.129c0-1.624,0-2.706-.284-2.887-.283-.9-1.419-1.444-2.838-1.625.852,0-1.986.361-8.229.9a1.563,1.563,0,0,1-1.419-.18c-.284-.18,0-.542,1.419-1.082l1.7-.9,17.594-8.12c2.553.721,3.973,2.526,4.824,5.233a38.446,38.446,0,0,1,.567,7.579c0,.541,0,3.428-.283,8.661l-.568,20.752q.426,4.6,6.811,3.79c.851,0,1.134,0,.851.18ZM1265.855,116c-1.987-.721-5.676-4.872-9.932-5.413a3.156,3.156,0,0,0-1.419.181h-.851l13.337-6.857c2.555.722,6.528,4.872,10.217,5.414a9.55,9.55,0,0,0,2.27,0Z" transform="translate(-1125.959 -91.449)" fill="#222"/>
        <path id="Path_17109" data-name="Path 17109" d="M1322.2,151.871c-2.554-1.264-3.689-3.79-3.973-7.579-.284-3.067-1.419-4.691-3.973-4.872a2.745,2.745,0,0,0-1.7,0,10.586,10.586,0,0,0-1.985.361V167.75q0,8.932,6.81,7.579a15.226,15.226,0,0,0,7.378-3.97l1.7-2.527c1.986-3.067,1.419-7.218-1.136-12.09a35.015,35.015,0,0,1,4.825,5.413v.181a9.964,9.964,0,0,1,.567,7.579c-.851,3.429-5.392,8.3-13.338,14.616l-1.135.9a18.794,18.794,0,0,0-3.973-1.083c-7.095-1.985-11.635-4.692-13.053-8.481a29.361,29.361,0,0,1-.568-7.038V142.306l.851-.36c4.257-1.805,13.053-5.775,26.108-11.91a4.439,4.439,0,0,1,2.837,1.985q1.277,2.166,1.7,9.2a3.43,3.43,0,0,0,1.986,3.428Z" transform="translate(-1145.131 -100.792)" fill="#222"/>
        <path id="Path_17110" data-name="Path 17110" d="M1385.306,184.887c-5.392-1.624-8.513-4.15-9.649-7.4l-9.081,7.4c-6.526-2.165-9.932-5.594-10.215-10.466a16.383,16.383,0,0,0-.284-2.526V154.753l2.838-1.444c-2.554-3.97-3.405-7.579-1.987-11.008s4.825-5.955,10.216-7.579a115.941,115.941,0,0,0,12.77-3.248c1.7-.721,2.838-1.082,3.121-.9,3.69.722,5.675,5.053,5.392,12.992,0,1.082-.283,10.827-.851,29.412.283,2.887,2.553,4.151,6.527,3.79h.851c.283,0,.283,0,.283.181Zm-9.932-44.39-7.946,1.083c-5.392,1.263-7.946,3.789-7.946,7.579a16.071,16.071,0,0,0,.568,3.428c4.824-2.887,9.932-6.5,15.324-7.759Zm-.285,30.316.285-23.639c-4.541,2.165-6.811,6.316-6.811,12.27V172.8h.283v.18c.285,2.887,2.555,4.151,6.528,3.79A30.448,30.448,0,0,1,1375.09,170.813Z" transform="translate(-1165.67 -100.968)" fill="#222"/>
        <path id="Path_17111" data-name="Path 17111" d="M1437.884,94.394a18.747,18.747,0,0,0-.851,6.5v15.338c0-.18,0,3.068.283,9.745v5.594c0,9.384,0,15.879-.283,19.668l-.285,5.594c.568,2.887,2.838,4.151,6.528,3.79h.851l.284.181-9.648,7.94c-5.392-1.624-8.513-3.97-9.649-7.218a31.161,31.161,0,0,1-.568-6.857V101.431c1.419-.542,4.257-3.789,8.8-9.383,3.689-4.511,8.513-6.677,14.756-6.677a32.6,32.6,0,0,1,5.676.542C1444.695,87.356,1439.3,90.243,1437.884,94.394Z" transform="translate(-1190.157 -84.818)" fill="#222"/>
      </g>
    </g>
    <circle id="Ellipse_393" data-name="Ellipse 393" cx="6" cy="6" r="6" transform="translate(916 2125)" fill="#7400d7"/>
    <circle id="Ellipse_394" data-name="Ellipse 394" cx="6" cy="6" r="6" transform="translate(1008 2211)" fill="#7400d7"/>
    <circle id="Ellipse_395" data-name="Ellipse 395" cx="6" cy="6" r="6" transform="translate(1033 2297)" fill="#7400d7"/>
    <circle id="Ellipse_396" data-name="Ellipse 396" cx="6" cy="6" r="6" transform="translate(807 2380)" fill="#7400d7"/>
  </g>
</svg>
