<svg xmlns="http://www.w3.org/2000/svg" width="457" height="237" viewBox="0 0 457 237">
  <g id="the_3Es" data-name="the 3Es" transform="translate(-621 -1594)">
    <rect id="Rectangle_3451" data-name="Rectangle 3451" width="457" height="237" transform="translate(621 1594)" fill="#fff" opacity="0"/>
    <g id="Group_5063" data-name="Group 5063" transform="translate(477.319 1114.835)">
      <g id="Group_5060" data-name="Group 5060" transform="translate(174.68 629.718)">
        <path id="Path_17058" data-name="Path 17058" d="M237.13,779.716a24.576,24.576,0,0,1-3.194,1.65c-7.55,4.032-13.066,8.981-16.842,14.662v6.6q0,8.8,6.969,7.7c2.613-.367,4.936-1.65,7.55-4.033l1.742-2.566c1.742-3.116,1.161-7.147-1.452-12.28l5.227,5.5v.184a10.049,10.049,0,0,1,.58,7.7c-1.452,5.132-6.1,10.08-13.647,14.846l-1.452.916-3.775-1.1c-7.55-1.833-11.906-4.765-13.357-8.614a32.149,32.149,0,0,1-.581-7.148V776.784q-.436-.275,0-.55l26.133-11.913a4.54,4.54,0,0,1,2.9,2.016q1.307,1.925,1.742,9.347c0,1.283.871,2.565,2.323,3.666Zm-14.519-4.765a4.221,4.221,0,0,0-2.9-1.1,3.794,3.794,0,0,0-2.032,0c-.29,0-.581,0-.581.184v17.228a29.176,29.176,0,0,0,6.969-7.7C224.063,779.167,223.483,776.234,222.611,774.951Z" transform="translate(-204.681 -734.44)" fill="#222"/>
        <path id="Path_17059" data-name="Path 17059" d="M319.617,820.141c-5.227-1.65-8.421-4.032-9.873-7.331a27.691,27.691,0,0,1-.581-6.964l-.291-26.575a4.446,4.446,0,0,0,0-2.749c-.29-1.282-1.161-1.833-3.194-1.833a2.826,2.826,0,0,0-1.742,0l-2.033.367c0,.916,0,4.948-.291,11.913l-.58,21.076c.291,2.933,2.613,4.216,6.679,3.849h.871c.29,0,.29,0,.29.183L299,820.141c-5.517-1.65-8.711-4.032-10.163-7.331-.29-.366-.29-2.749-.29-6.964l-.29-26.575a4.4,4.4,0,0,0,0-2.749,3.213,3.213,0,0,0-3.194-1.833,3.781,3.781,0,0,0-2.032,0,9.387,9.387,0,0,1-2.033.55v2.932c0,.55-.29,10.446-1.161,29.873q.871,4.4,6.969,3.849h.58c.291,0,.291,0,.291.183l-9.873,8.064c-5.517-1.65-8.711-4.032-9.873-7.331a32.693,32.693,0,0,1-.581-6.964l.291-28.408c0-3.666-1.161-5.5-6.1-5.316a1.51,1.51,0,0,1-.872-.183l14.809-6.781q4.791,1.374,5.227,7.147l15.68-7.147c3.194.916,4.937,3.3,5.517,6.964l15.39-6.964a6.664,6.664,0,0,1,4.936,5.315c.291.916.291,3.482.291,7.7,0,.55,0,3.482-.291,8.8l-.58,21.076c.58,2.933,2.9,4.216,6.678,3.849h.872c.291,0,.291,0,.291.183Z" transform="translate(-223.869 -734.726)" fill="#222"/>
        <path id="Path_17060" data-name="Path 17060" d="M403.909,785.213h-.29l-.871.734-4.937,4.032-1.161.916-15.68,12.462c-6.969-2.016-10.454-5.681-10.454-10.63V761.571c-.29-11.73-.29-21.077-.29-28.225v-3.665a154.309,154.309,0,0,1,13.357-7.881,27.659,27.659,0,0,1,16.842-2.566c-9,1.466-14.228,4.4-16.261,8.614a14.307,14.307,0,0,0-1.161,6.6v21.26l16.261-7.331c4.065,1.284,5.808,5.682,5.517,13.2l-.872,18.511a5.53,5.53,0,0,0,2.033,3.3Zm-9.292,4.215c-2.323-2.2-3.484-5.131-3.484-8.981,0-3.482,0-7.147.29-10.813a29.415,29.415,0,0,0,0-7.147c0-1.65-.29-4.4-3.484-4.582h-2.032l-2.9.733.29,27.491H383v.916h.29v.183c0,2.932,1.742,4.4,5.518,4.4a11.45,11.45,0,0,0,5.517-2.016Z" transform="translate(-261.414 -718.86)" fill="#222"/>
        <path id="Path_17061" data-name="Path 17061" d="M448.9,784.123c.58-2.016.871-3.482.58-4.4-.58-3.116-2.323-4.948-4.936-5.131a4.673,4.673,0,0,0-3.194.55v2.932c0,.55-.291,10.446-1.161,29.873q.871,4.4,6.969,3.849h.581c.29,0,.29,0,.29.183l-9.873,8.064c-5.517-1.65-8.711-4.032-9.873-7.331a32.707,32.707,0,0,1-.58-6.964l.29-28.408c0-3.666-1.161-5.5-6.1-5.316a1.507,1.507,0,0,1-.871-.183l14.809-6.781a7,7,0,0,1,4.646,4.4c1.452-2.383,2.613-4.032,3.484-4.582a37.5,37.5,0,0,1,12.776,4.582c4.936,2.749,6.969,5.315,6.388,8.064Z" transform="translate(-278.823 -734.631)" fill="#222"/>
        <path id="Path_17062" data-name="Path 17062" d="M518.522,820.021c-5.517-1.65-8.711-4.215-9.873-7.514l-9.292,7.514c-6.679-2.2-10.163-5.682-10.454-10.63a16.5,16.5,0,0,0-.291-2.566V789.414l2.9-1.466c-2.613-4.032-3.484-7.7-2.032-11.18s4.936-6.048,10.454-7.7a119.392,119.392,0,0,0,13.067-3.3c1.742-.733,2.9-1.1,3.194-.916,3.775.733,5.808,5.131,5.517,13.2,0,1.1-.291,11-.872,29.873.29,2.933,2.613,4.216,6.679,3.849h.871c.29,0,.29,0,.29.183Zm-10.163-45.086-8.131,1.1c-5.517,1.284-8.13,3.849-8.13,7.7a16.2,16.2,0,0,0,.58,3.482c4.937-2.932,10.164-6.6,15.68-7.88Zm-.29,30.79.29-24.009c-4.646,2.2-6.969,6.415-6.969,12.462v13.563h.29v.183c.291,2.933,2.614,4.216,6.679,3.849A30.829,30.829,0,0,1,508.069,805.725Z" transform="translate(-301.986 -734.606)" fill="#222"/>
        <path id="Path_17063" data-name="Path 17063" d="M577.208,786.5c-2.613-1.283-3.775-3.849-4.065-7.7-.291-3.116-1.452-4.765-4.065-4.949a2.838,2.838,0,0,0-1.742,0,10.962,10.962,0,0,0-2.032.367v28.408q0,9.073,6.969,7.7a15.609,15.609,0,0,0,7.549-4.033l1.742-2.566c2.032-3.116,1.452-7.331-1.161-12.28a35.657,35.657,0,0,1,4.937,5.5v.184a10.046,10.046,0,0,1,.58,7.7c-.871,3.482-5.517,8.431-13.647,14.846l-1.162.916a19.406,19.406,0,0,0-4.065-1.1c-7.259-2.016-11.9-4.765-13.357-8.614a29.649,29.649,0,0,1-.581-7.148V776.784l.872-.367c4.356-1.833,13.357-5.864,26.714-12.1a4.539,4.539,0,0,1,2.9,2.016q1.306,2.2,1.743,9.347a3.479,3.479,0,0,0,2.032,3.482Z" transform="translate(-324.089 -734.44)" fill="#222"/>
        <path id="Path_17064" data-name="Path 17064" d="M643.1,779.716a24.576,24.576,0,0,1-3.194,1.65c-7.55,4.032-13.067,8.981-16.842,14.662v6.6q0,8.8,6.97,7.7c2.613-.367,4.936-1.65,7.549-4.033l1.742-2.566c1.742-3.116,1.161-7.147-1.452-12.28l5.227,5.5v.184a10.046,10.046,0,0,1,.58,7.7c-1.452,5.132-6.1,10.08-13.647,14.846l-1.452.916-3.775-1.1c-7.55-1.833-11.906-4.765-13.358-8.614a32.149,32.149,0,0,1-.581-7.148V776.784q-.436-.275,0-.55L637,764.321a4.54,4.54,0,0,1,2.9,2.016q1.306,1.925,1.742,9.347c0,1.283.872,2.565,2.324,3.666Zm-14.518-4.765a4.225,4.225,0,0,0-2.9-1.1,3.8,3.8,0,0,0-2.033,0c-.29,0-.581,0-.581.184v17.228a29.19,29.19,0,0,0,6.97-7.7C630.031,779.167,629.45,776.234,628.579,774.951Z" transform="translate(-343.808 -734.44)" fill="#222"/>
      </g>
      <g id="Group_5061" data-name="Group 5061" transform="translate(174.68 493.165)">
        <path id="Path_17065" data-name="Path 17065" d="M280.356,506.628h-.868c-4.069.372-6.389-.934-6.678-3.922l.578-21.474c.289-5.414.289-8.4.289-8.96,0-4.293,0-6.91-.289-7.84a6.68,6.68,0,0,0-5.225-5.418L252.48,466.3q-.434-5.876-5.225-7.281l-14.809,6.91a1.476,1.476,0,0,0,.868.186c4.936-.186,6.1,1.682,6.1,5.413l-.289,28.942a34.038,34.038,0,0,0,.578,7.092c1.163,3.364,4.358,5.79,9.873,7.472l9.873-8.216c0-.186,0-.186-.289-.186h-.578q-6.1.558-6.967-3.922c.868-19.792,1.157-29.871,1.157-30.434v-2.988a9.358,9.358,0,0,0,2.038-.557,3.641,3.641,0,0,1,2.031,0,3.205,3.205,0,0,1,3.194,1.863,4.59,4.59,0,0,1,0,2.8l.289,27.074c0,4.294,0,6.72.289,7.092,1.453,3.364,4.647,5.79,10.162,7.472l9.872-8.216C280.645,506.628,280.645,506.628,280.356,506.628Z" transform="translate(-194.477 -458.456)" fill="#222"/>
        <path id="Path_17066" data-name="Path 17066" d="M400.85,471.795a71.618,71.618,0,0,0-.578-8.029c-.874-3.732-3.773-5.6-9-5.6a9.775,9.775,0,0,0-2.32.186,63.968,63.968,0,0,1-22.65,10.456v4.665c0,5.79,0,11.952.289,18.858v11.576c.289,5.042,3.779,8.588,10.458,10.832l24.971-20.54a4.76,4.76,0,0,1-2.031-3.174C400.271,481.317,400.561,474.969,400.85,471.795Zm-16.261,30.992c-3.773,0-5.515-1.492-5.225-4.665h-.289V469.369a4.305,4.305,0,0,1,4.358-3.736c2.609,0,4.062,2.988,4.062,8.774v7.413s-.026,1.513-.289,4.539v1.864c0,6.161,1.163,10.084,3.484,12.138A9.427,9.427,0,0,1,384.588,502.787Z" transform="translate(-240.349 -458.165)" fill="#222"/>
        <path id="Path_17067" data-name="Path 17067" d="M536.3,463.4a37,37,0,0,0-12.778-4.67c-.868.562-2.031,2.24-3.484,4.67a7.052,7.052,0,0,0-4.647-4.484l-14.809,6.91a1.507,1.507,0,0,0,.874.186c4.936-.186,6.1,1.682,6.1,5.413l-.3,28.942a33.9,33.9,0,0,0,.585,7.092c1.163,3.364,4.351,5.79,9.873,7.472l9.873-8.216c0-.186,0-.186-.289-.186h-.585q-6.093.558-6.967-3.922c.874-19.792,1.163-29.871,1.163-30.434v-2.988a4.591,4.591,0,0,1,3.194-.557c2.609.186,4.351,2.054,4.936,5.228.289.929,0,2.425-.585,4.479l14.23-6.724C543.271,468.815,541.24,466.2,536.3,463.4Z" transform="translate(-286.371 -458.359)" fill="#222"/>
        <path id="Path_17068" data-name="Path 17068" d="M598.089,514.908l10.162-8.216c0-.186,0-.186-.289-.186h-.874c-4.062.372-6.389-.934-6.678-3.922.578-19.23.868-29.314.868-30.434.3-8.215-1.742-12.7-5.515-13.444-.289-.186-1.453.186-3.194.934A116.567,116.567,0,0,1,579.5,463q-8.272,2.523-10.451,7.844c-1.453,3.545-.585,7.281,2.031,11.39l-2.905,1.492v17.738a17.161,17.161,0,0,1,.289,2.612c.3,5.042,3.779,8.588,10.458,10.832l9.288-7.658C589.374,510.614,592.568,513.226,598.089,514.908Zm-10.168-8.4c-4.062.372-6.389-.934-6.678-3.922V502.4h-.289V488.582c0-6.162,2.327-10.456,6.967-12.7l-.289,24.458A32.06,32.06,0,0,0,587.921,506.506Zm0-33.05c-5.515,1.306-10.74,5.042-15.676,8.03a16.891,16.891,0,0,1-.585-3.546c0-3.922,2.616-6.538,8.131-7.844l8.131-1.119Z" transform="translate(-309.534 -458.334)" fill="#222"/>
        <path id="Path_17069" data-name="Path 17069" d="M726.63,491.587V491.4l-5.225-5.6c2.616,5.228,3.194,9.336,1.453,12.51l-1.742,2.617c-2.609,2.425-4.936,3.731-7.546,4.1q-6.971,1.122-6.974-7.84v-6.72c3.779-5.79,9.294-10.832,16.846-14.94a24.5,24.5,0,0,0,3.188-1.678l.874-.376a5.036,5.036,0,0,1-2.32-3.731q-.444-7.563-1.742-9.522a4.55,4.55,0,0,0-2.905-2.054L694.4,470.3c-.289.191-.289.377,0,.562v27.446a33.479,33.479,0,0,0,.578,7.282c1.453,3.922,5.81,6.906,13.356,8.774l3.779,1.12,1.453-.934c7.546-4.852,12.193-9.894,13.645-15.122A10.413,10.413,0,0,0,726.63,491.587ZM706.6,468.059c0-.185.289-.185.585-.185a3.724,3.724,0,0,1,2.031,0,4.18,4.18,0,0,1,2.905,1.119c.868,1.306,1.453,4.294,1.453,8.778a29.567,29.567,0,0,1-6.974,7.84Z" transform="translate(-352.719 -458.165)" fill="#222"/>
        <path id="Path_17070" data-name="Path 17070" d="M655.467,519.591a18.484,18.484,0,0,0,.289-3.36c0,2.24.289-6.534.874-26.512q.434-21-.874-25.768c-.289-3.918-3.194-5.786-8.709-5.786a12.393,12.393,0,0,0-2.616.186,63.936,63.936,0,0,1-22.644,10.456v23.152c.289,6.906.289,10.828.289,11.948,0,5.042,3.484,8.588,10.451,10.832l10.451-8.4v14.75a25.655,25.655,0,0,1-.578,5.971l-3.773,3.174c-7.552,5.6-13.356,8.964-17.425,9.9-5.225,1.306-11.614,1.12-19.456-.562,3.484,2.616,8.42,3.922,15.1,3.922a49.1,49.1,0,0,0,25.845-7.468c11.036-6.534,17.425-10.27,19.167-11.018C657.208,525,655.177,523.141,655.467,519.591Zm-12.193-45.184-.3,27.822a8.017,8.017,0,0,1-2.9.558,5.055,5.055,0,0,1-4.358-2.426,2.981,2.981,0,0,1-.874-2.239l-.289-21.474c0-3.917,0-6.348.289-7.278,0-2.43,1.453-3.736,4.069-3.736C642.11,465.633,643.563,468.621,643.274,474.407Z" transform="translate(-321.039 -458.165)" fill="#222"/>
        <path id="Path_17071" data-name="Path 17071" d="M475.877,506.628h-2.32q-4.792-.285-5.225-3.922c.578-16.8.868-26.888.868-30.434.289-7.654-1.453-12.138-5.515-13.258l-.289.19a1.47,1.47,0,0,0-.874-.19L448,465.924a1.5,1.5,0,0,0,.874.186c0,.185.289.185,1.163,0,3.188.185,4.641,2.054,4.641,5.413l-.289,28.942v3.546c-2.905,1.682-4.936,2.426-5.8,2.24-2.038-.558-3.194-1.678-3.484-3.546.868-17.366,1.157-27.446,1.157-30.434a43.48,43.48,0,0,0-.578-7.84c-.874-2.8-2.32-4.67-4.936-5.418l-14.809,6.91a1.476,1.476,0,0,0,.868.186c4.936-.186,6.1,1.682,6.1,5.413l-.289,28.942a34.038,34.038,0,0,0,.578,7.092c1.163,3.364,4.358,5.79,9.873,7.472,4.936-3.174,8.716-5.79,11.9-8.03,1.163,3.546,4.358,6.348,9.879,8.03l.578-.19a.715.715,0,0,0,.578.19l10.162-8.216C476.166,506.628,476.166,506.628,475.877,506.628Z" transform="translate(-260.788 -458.456)" fill="#222"/>
        <path id="Path_17072" data-name="Path 17072" d="M323.536,467.873a2.788,2.788,0,0,1,1.742,0c2.616.185,3.773,1.868,4.069,5.041.289,3.922,1.446,6.534,4.062,7.84l10.162-7.468a3.549,3.549,0,0,1-2.031-3.545q-.434-7.284-1.742-9.522a4.533,4.533,0,0,0-2.905-2.054c-13.356,6.348-22.355,10.456-26.712,12.324l-.874.371v27.446a30.738,30.738,0,0,0,.585,7.282c1.453,3.922,6.093,6.72,13.356,8.774a19.308,19.308,0,0,1,4.062,1.12l1.163-.934c8.131-6.534,12.778-11.576,13.645-15.122a10.382,10.382,0,0,0-.578-7.84V491.4a36.254,36.254,0,0,0-4.936-5.6c2.616,5.042,3.194,9.336,1.163,12.51l-1.742,2.617a15.513,15.513,0,0,1-7.552,4.1q-6.971,1.4-6.967-7.84V468.245A10.73,10.73,0,0,1,323.536,467.873Z" transform="translate(-220.818 -458.165)" fill="#222"/>
        <path id="Path_17073" data-name="Path 17073" d="M205.986,474.347a23.5,23.5,0,0,1-3.082,1.643,44.078,44.078,0,0,0-16.248,14.6v6.572q0,8.762,6.723,7.667c2.521-.365,4.762-1.643,7.283-4.016l1.681-2.556c1.681-3.1,1.121-7.119-1.4-12.23l5.043,5.476v.183a10.308,10.308,0,0,1,.56,7.667c-1.4,5.111-5.883,10.04-13.166,14.786l-1.4.913-3.642-1.1c-7.283-1.825-11.486-4.746-12.886-8.579a33.054,33.054,0,0,1-.56-7.119V471.427q-.42-.274,0-.548L200.1,459.014a4.383,4.383,0,0,1,2.8,2.008q1.261,1.917,1.681,9.31a4.944,4.944,0,0,0,2.241,3.651ZM191.979,469.6a4.005,4.005,0,0,0-2.8-1.1,3.551,3.551,0,0,0-1.961,0c-.28,0-.56,0-.56.183v17.159a28.738,28.738,0,0,0,6.723-7.667C193.379,473.8,192.819,470.879,191.979,469.6Z" transform="translate(-174.681 -458.456)" fill="#222"/>
      </g>
      <g id="Group_5062" data-name="Group 5062" transform="translate(174.68 573.731)">
        <path id="Path_17074" data-name="Path 17074" d="M236.648,623.1a23.592,23.592,0,0,1-3.073,1.638,43.943,43.943,0,0,0-16.2,14.561v6.553q0,8.736,6.7,7.645c2.513-.364,4.748-1.639,7.262-4l1.676-2.548c1.676-3.095,1.117-7.1-1.4-12.2l5.028,5.461v.182a10.273,10.273,0,0,1,.559,7.644c-1.4,5.1-5.866,10.01-13.128,14.743l-1.4.91-3.632-1.092c-7.262-1.82-11.452-4.732-12.849-8.555a32.938,32.938,0,0,1-.559-7.1V620.186q-.419-.273,0-.546l25.139-11.831a4.373,4.373,0,0,1,2.793,2q1.258,1.911,1.676,9.283a4.929,4.929,0,0,0,2.235,3.64Zm-13.966-4.732a3.991,3.991,0,0,0-2.793-1.092,3.541,3.541,0,0,0-1.955,0c-.279,0-.559,0-.559.182v17.11a28.668,28.668,0,0,0,6.7-7.645C224.078,622.552,223.52,619.64,222.682,618.366Z" transform="translate(-205.433 -607.809)" fill="#222"/>
        <path id="Path_17075" data-name="Path 17075" d="M316,663.244c-5.028-1.638-8.1-4-9.5-7.281a28.369,28.369,0,0,1-.559-6.916l-.279-26.392a4.553,4.553,0,0,0,0-2.73c-.279-1.274-1.117-1.82-3.073-1.82a2.64,2.64,0,0,0-1.676,0l-1.955.364c0,.91,0,4.915-.279,11.831l-.559,20.932c.279,2.912,2.513,4.186,6.424,3.822h.838c.279,0,.279,0,.279.182l-9.5,8.008c-5.307-1.638-8.38-4-9.777-7.281-.279-.364-.279-2.73-.279-6.916l-.279-26.392a4.51,4.51,0,0,0,0-2.73,3.076,3.076,0,0,0-3.073-1.82,3.528,3.528,0,0,0-1.955,0,8.814,8.814,0,0,1-1.955.546v2.912c0,.546-.279,10.375-1.117,29.669q.838,4.368,6.7,3.822h.559c.279,0,.279,0,.279.182l-9.5,8.008c-5.307-1.638-8.38-4-9.5-7.281a33.505,33.505,0,0,1-.559-6.916L266,620.835c0-3.641-1.117-5.461-5.866-5.279a1.41,1.41,0,0,1-.838-.182l14.245-6.734q4.609,1.365,5.028,7.1l15.084-7.1c3.073.91,4.749,3.276,5.307,6.916l14.8-6.916a6.537,6.537,0,0,1,4.748,5.278c.279.91.279,3.459.279,7.644,0,.546,0,3.459-.279,8.737l-.558,20.932c.558,2.912,2.793,4.186,6.424,3.822h.838c.279,0,.279,0,.279.182Z" transform="translate(-223.892 -608.094)" fill="#222"/>
        <path id="Path_17076" data-name="Path 17076" d="M376.329,653.858l-9.218,8.737a20.575,20.575,0,0,1-6.424-3.64v10.193c0,3.459,1.955,5.279,6.145,5.279a63.884,63.884,0,0,0-10.335,5.46l-8.1,5.279a46.789,46.789,0,0,1-24.86,7.28c-6.425,0-11.173-1.274-14.526-3.822,7.542,1.639,13.687,1.82,18.716.546,3.91-.91,9.5-4.186,16.759-9.647a6.036,6.036,0,0,0,1.4-1.092l2.235-1.82a25.911,25.911,0,0,0,.559-6.006V621.278c-.279-3.458-1.955-5.1-5.028-5.278a12.776,12.776,0,0,0-5.586.728.541.541,0,0,1,.279-.546,81.271,81.271,0,0,0,11.732-6.735,14.4,14.4,0,0,1,2.793-.182c3.632,0,6.425,1.456,7.822,4.368a49.42,49.42,0,0,0,8.939-5.642,11.688,11.688,0,0,1,2.513-.182c5.028,0,7.822,1.82,8.659,5.642a34.083,34.083,0,0,1,.279,8.191c0,3.459-.279,12.013-.838,25.3a3.926,3.926,0,0,0,1.676,2.184Zm-7.821-31.306a20.006,20.006,0,0,0-1.4-5.643,3.922,3.922,0,0,0-2.793-1.274,3.793,3.793,0,0,0-3.072,1.092c0,1.456-.559,4.55-.559,5.824l-.279,26.028c0,1.638,3.073,4.186,5.586,4.186a11.758,11.758,0,0,0,2.235-.364V636.2c.279-3.459.279-4.915.279-4.55Z" transform="translate(-240.93 -607.809)" fill="#222"/>
        <path id="Path_17077" data-name="Path 17077" d="M435.783,662.959c-6.425-2.184-9.777-5.642-10.056-10.557V641.117c-.279-6.735-.279-12.741-.279-18.383v-4.55a61.173,61.173,0,0,0,21.787-10.193,9.268,9.268,0,0,1,2.235-.182c5.028,0,7.821,1.82,8.659,5.46a70.436,70.436,0,0,1,.559,7.827c-.279,3.094-.559,9.282-.838,18.747a4.654,4.654,0,0,0,1.955,3.094Zm9.776-25.846v-1.82c.28-3.276.28-4.732.28-4.368v-7.281c0-5.642-1.4-8.555-3.911-8.555a4.155,4.155,0,0,0-4.19,3.641v28.03h.279c-.279,3.094,1.4,4.55,5.028,4.55a9.022,9.022,0,0,0,5.866-2.366C446.677,646.942,445.559,643.119,445.559,637.113Z" transform="translate(-280.834 -607.809)" fill="#222"/>
        <path id="Path_17078" data-name="Path 17078" d="M515.292,663.244c-5.307-1.638-8.38-4.186-9.777-7.462l-10.894,7.462c-5.307-1.638-8.38-4-9.5-7.281a33.519,33.519,0,0,1-.558-6.916l.279-28.212c0-3.641-1.117-5.461-5.866-5.279a1.411,1.411,0,0,1-.838-.182l14.246-6.734c2.514.728,3.911,2.548,4.748,5.278a49.876,49.876,0,0,1,.559,7.644l-1.117,29.669a4.087,4.087,0,0,0,3.352,3.458c.838.182,2.794-.364,5.308-2-.279-11.1-.559-19.111-.279-24.39l.279-7.462c0-3.458-1.117-5.461-5.586-5.279a1.408,1.408,0,0,1-.838-.182L512.5,608.64c2.513.728,3.91,2.548,4.748,5.278.28.91.28,3.459.28,7.644l-.28,25.483c0,3.094,1.677,4.55,5.307,4.55a9.019,9.019,0,0,0,5.866-2.366c-2.235-2-3.352-5.278-3.352-9.465V635.4l.279-14.561c0-3.641-.837-5.461-5.586-5.279a1.407,1.407,0,0,1-.837-.182l13.687-6.734a6.538,6.538,0,0,1,4.748,5.278c.279.91.279,3.459.279,7.644,0,1.275,0,6.007-.279,13.833a23.975,23.975,0,0,0-.279,4.733,4.188,4.188,0,0,0,2.235,3.094Z" transform="translate(-298.892 -608.094)" fill="#222"/>
        <path id="Path_17079" data-name="Path 17079" d="M603.8,623.1a23.5,23.5,0,0,1-3.072,1.638,43.938,43.938,0,0,0-16.2,14.561v6.553q0,8.736,6.7,7.645c2.514-.364,4.749-1.639,7.262-4l1.676-2.548c1.676-3.095,1.117-7.1-1.4-12.2l5.027,5.461v.182a10.273,10.273,0,0,1,.559,7.644c-1.4,5.1-5.866,10.01-13.129,14.743l-1.4.91-3.632-1.092c-7.262-1.82-11.453-4.732-12.849-8.555a32.947,32.947,0,0,1-.558-7.1V620.186q-.42-.273,0-.546l25.139-11.831a4.377,4.377,0,0,1,2.793,2q1.257,1.911,1.676,9.283a4.93,4.93,0,0,0,2.234,3.64Zm-13.965-4.732a3.992,3.992,0,0,0-2.794-1.092,3.541,3.541,0,0,0-1.955,0c-.279,0-.559,0-.559.182v17.11a28.666,28.666,0,0,0,6.7-7.645C591.234,622.552,590.676,619.64,589.838,618.366Z" transform="translate(-331.26 -607.809)" fill="#222"/>
        <path id="Path_17080" data-name="Path 17080" d="M646.891,627.474c.559-2,.838-3.459.559-4.368-.559-3.095-2.235-4.915-4.748-5.1a4.377,4.377,0,0,0-3.073.546v2.912c0,.546-.279,10.375-1.117,29.669q.838,4.368,6.7,3.822h.559c.279,0,.279,0,.279.182l-9.5,8.008c-5.308-1.638-8.38-4-9.5-7.281a33.44,33.44,0,0,1-.559-6.916l.279-28.212c0-3.641-1.117-5.461-5.866-5.279a1.41,1.41,0,0,1-.838-.182l14.245-6.734a6.829,6.829,0,0,1,4.47,4.368c1.4-2.366,2.514-4,3.352-4.55a35.365,35.365,0,0,1,12.291,4.55c4.748,2.73,6.7,5.278,6.145,8.008Z" transform="translate(-347.534 -607.999)" fill="#222"/>
      </g>
    </g>
    <circle id="Ellipse_390" data-name="Ellipse 390" cx="6" cy="6" r="6" transform="translate(1034 1654)" fill="#7400d7"/>
    <circle id="Ellipse_391" data-name="Ellipse 391" cx="6.5" cy="6.5" r="6.5" transform="translate(964 1732)" fill="#7400d7"/>
    <circle id="Ellipse_392" data-name="Ellipse 392" cx="6" cy="6" r="6" transform="translate(964 1819)" fill="#7400d7"/>
  </g>
</svg>
