<?xml version="1.0" encoding="utf-8"?>
<!-- Generator: Adobe Illustrator 24.3.0, SVG Export Plug-In . SVG Version: 6.00 Build 0)  -->
<svg version="1.1" baseProfile="tiny" id="Layer_1" xmlns="http://www.w3.org/2000/svg" xmlns:xlink="http://www.w3.org/1999/xlink"
	 x="0px" y="0px" viewBox="0 0 671.33 671.33" overflow="visible" xml:space="preserve">
<g>
	<g>
		<path fill="#00D60A" d="M282.37,236.28c-36.14,0-65.55-29.4-65.55-65.55s29.4-65.55,65.55-65.55s65.55,29.4,65.55,65.55
			S318.51,236.28,282.37,236.28z M282.37,111.18c-32.84,0-59.56,26.72-59.56,59.56s26.72,59.56,59.56,59.56
			c32.84,0,59.56-26.72,59.56-59.56S315.21,111.18,282.37,111.18z"/>
	</g>
	<polygon fill="#00D60A" points="297.35,328.02 266.08,315.43 266.08,508.14 310.87,508.14 310.87,411.79 297.35,411.79 	"/>
	<polygon fill="none" points="418.6,442.07 456.9,442.07 437.86,390.79 	"/>
	<path fill="#FFC40C" d="M460.03,333.46l-44.34-18.03l-19.51,53.13h29.5v43.22h-45.37l-35.38,96.35h48.82l9.63-25.53h68.75
		l9.63,25.53h48.82L460.03,333.46z M418.6,442.07l19.26-51.28l19.04,51.28H418.6z"/>
	<polygon fill="#EE4023" points="341.92,368.56 341.92,237.1 297.35,219.08 297.35,328.02 310.87,333.46 310.87,411.79 
		380.31,411.79 396.18,368.56 	"/>
	<polygon fill="#BC6022" points="425.68,368.56 396.18,368.56 380.31,411.79 425.68,411.79 	"/>
	<polygon points="297.35,328.02 297.35,411.79 310.87,411.79 310.87,333.46 	"/>
	<path fill="#7400D7" d="M160.75,285.48l44.57,18.03v131.46h83.76v43.22H160.75V285.48z"/>
</g>
</svg>
