<svg xmlns="http://www.w3.org/2000/svg" xmlns:xlink="http://www.w3.org/1999/xlink" viewBox="0 0 16 15.71"><defs><style>.cls-1{fill:none;}.cls-2{clip-path:url(#clip-path);}.cls-3{fill:#7400d7;}.cls-4{fill:#ee4224;}.cls-5{fill:#ffc516;}.cls-6{fill:#9e9e9e;}.cls-7{fill:#010101;}</style><clipPath id="clip-path" transform="translate(0 -0.14)"><rect class="cls-1" width="16" height="16"/></clipPath></defs><g id="Layer_2" data-name="Layer 2"><g id="Layer_1-2" data-name="Layer 1"><g class="cls-2"><g id="lila_logo" data-name="lila logo"><g id="Path_136" data-name="Path 136"><path class="cls-3" d="M0,6.3l2,.81v5.58H5.56v1.83H0Z" transform="translate(0 -0.14)"/></g><g id="Path_140" data-name="Path 140"><path class="cls-4" d="M5.9,3.35l2,.81V9.74h3.58v1.83H5.9Z" transform="translate(0 -0.14)"/></g><g id="Path_137" data-name="Path 137"><path class="cls-5" d="M4.58,7.53v8.33h2V8.28Z" transform="translate(0 -0.14)"/></g><g id="Exclusion_1" data-name="Exclusion 1"><path class="cls-6" d="M16,15.82H13.91l-.49-1.15h-3L10,15.82H8l3-8.29,1.94.88Zm-4.09-5.33-.85,2.6h1.83Z" transform="translate(0 -0.14)"/></g><g id="Ellipse_185" data-name="Ellipse 185"><circle class="cls-1" cx="5.34" cy="2.63" r="2.63"/><path class="cls-5" d="M5.34,5.4A2.63,2.63,0,1,1,8,2.77,2.63,2.63,0,0,1,5.34,5.4Zm0-4.88A2.25,2.25,0,1,0,7.59,2.77,2.26,2.26,0,0,0,5.34.52Z" transform="translate(0 -0.14)"/></g><g id="Intersection_1" data-name="Intersection 1"><path class="cls-7" d="M5.9,11.57V8l.66.25v3.29Z" transform="translate(0 -0.14)"/></g></g></g></g></g></svg>