<svg xmlns="http://www.w3.org/2000/svg" viewBox="0 0 369.83 402.95"><defs><style>.cls-1{isolation:isolate;}.cls-2{mix-blend-mode:multiply;}.cls-3{fill:#00d60a;}.cls-4{fill:none;}.cls-5{fill:#ffc40c;}.cls-6{fill:#ee4023;}.cls-7{fill:#bc6022;}.cls-8{fill:#7400d7;}</style></defs><g class="cls-1"><g id="Layer_2" data-name="Layer 2"><g id="Layer_1-2" data-name="Layer 1"><g class="cls-2"><path class="cls-3" d="M121.62,131.09a65.55,65.55,0,1,1,65.55-65.54A65.61,65.61,0,0,1,121.62,131.09Zm0-125.1a59.56,59.56,0,1,0,59.56,59.56A59.63,59.63,0,0,0,121.62,6Z"/></g><polygon class="cls-3" points="136.6 222.83 105.33 210.24 105.33 402.95 150.12 402.95 150.12 306.6 136.6 306.6 136.6 222.83"/><polygon class="cls-4" points="257.85 336.88 296.15 336.88 277.11 285.6 257.85 336.88"/><path class="cls-5" d="M299.28,228.27l-44.34-18-19.51,53.13h29.49V306.6H219.56L184.17,403H233l9.63-25.53h68.75L321,403h48.83ZM257.85,336.88l19.26-51.28,19,51.28Z"/><polygon class="cls-6" points="181.17 263.37 181.17 131.91 136.6 113.89 136.6 222.83 150.12 228.27 150.12 306.6 219.56 306.6 235.43 263.37 181.17 263.37"/><polygon class="cls-7" points="264.92 263.37 235.43 263.37 219.56 306.6 264.92 306.6 264.92 263.37"/><polygon points="136.6 222.83 136.6 306.6 150.12 306.6 150.12 228.27 136.6 222.83"/><path class="cls-8" d="M0,180.29l44.57,18V329.78h83.75V373H0Z"/></g></g></g></svg>