<svg xmlns="http://www.w3.org/2000/svg" width="457.097" height="368" viewBox="0 0 457.097 368">
  <g id="Way_of_teaching" data-name="Way of teaching" transform="translate(-620.903 -2641.958)">
    <rect id="Rectangle_3453" data-name="Rectangle 3453" width="457" height="368" transform="translate(621 2641.958)" fill="#fff" opacity="0"/>
    <g id="Group_5074" data-name="Group 5074" transform="translate(1319.494 2008.265)">
      <g id="Group_5070" data-name="Group 5070" transform="translate(-667.738 888.468)">
        <path id="Path_17112" data-name="Path 17112" d="M-623.385,1097.68c.569-1.991.854-3.44.569-4.345-.569-3.078-2.277-4.888-4.84-5.069a4.557,4.557,0,0,0-3.132.543v2.9c0,.543-.285,10.319-1.139,29.508q.855,4.345,6.833,3.8h.57c.284,0,.284,0,.284.181l-9.68,7.965c-5.41-1.629-8.541-3.982-9.68-7.242a32.525,32.525,0,0,1-.57-6.879l.285-28.061c0-3.62-1.139-5.431-5.979-5.25a1.463,1.463,0,0,1-.854-.181l14.519-6.7a6.884,6.884,0,0,1,4.555,4.345c1.424-2.354,2.562-3.983,3.416-4.526A36.6,36.6,0,0,1-615.7,1083.2c4.84,2.716,6.833,5.25,6.264,7.965Z" transform="translate(650.716 -1049.525)" fill="#222"/>
        <path id="Path_17113" data-name="Path 17113" d="M-551.2,1093.316a24.1,24.1,0,0,1-3.131,1.629c-7.4,3.983-12.812,8.871-16.513,14.483v6.517q0,8.69,6.833,7.6c2.562-.362,4.84-1.63,7.4-3.983l1.708-2.535c1.708-3.077,1.139-7.06-1.424-12.129l5.125,5.431v.182a9.992,9.992,0,0,1,.57,7.6c-1.424,5.069-5.979,9.957-13.381,14.664l-1.424.905-3.7-1.087c-7.4-1.81-11.672-4.707-13.1-8.509a31.983,31.983,0,0,1-.57-7.061V1090.42q-.426-.272,0-.544l25.623-11.767a4.455,4.455,0,0,1,2.847,1.991q1.281,1.9,1.708,9.233a4.885,4.885,0,0,0,2.278,3.621Zm-14.235-4.707a4.125,4.125,0,0,0-2.847-1.086,3.685,3.685,0,0,0-1.993,0c-.285,0-.57,0-.57.181v17.017a28.766,28.766,0,0,0,6.833-7.6C-564.014,1092.773-564.583,1089.876-565.437,1088.609Z" transform="translate(626.646 -1049.325)" fill="#222"/>
        <path id="Path_17114" data-name="Path 17114" d="M-515.4,1123.911l-9.4,8.69a21.109,21.109,0,0,1-6.548-3.62v10.138c0,3.439,1.992,5.25,6.263,5.25a65.687,65.687,0,0,0-10.534,5.431l-8.256,5.25a48.556,48.556,0,0,1-25.339,7.242c-6.548,0-11.388-1.268-14.8-3.8,7.687,1.629,13.95,1.81,19.075.543,3.985-.905,9.68-4.163,17.082-9.595a6.176,6.176,0,0,0,1.424-1.086l2.278-1.81a25.145,25.145,0,0,0,.57-5.974v-49.06c-.285-3.44-1.993-5.069-5.125-5.25a13.319,13.319,0,0,0-5.694.724.534.534,0,0,1,.285-.543,83.421,83.421,0,0,0,11.958-6.7,15.055,15.055,0,0,1,2.847-.181c3.7,0,6.548,1.449,7.972,4.345a50.543,50.543,0,0,0,9.11-5.612,12.21,12.21,0,0,1,2.563-.181c5.124,0,7.971,1.81,8.825,5.612a33.113,33.113,0,0,1,.285,8.147c0,3.44-.285,11.949-.854,25.164a3.915,3.915,0,0,0,1.708,2.173Zm-7.972-31.138a19.481,19.481,0,0,0-1.424-5.612,4.039,4.039,0,0,0-2.846-1.267,3.92,3.92,0,0,0-3.131,1.086c0,1.448-.57,4.526-.57,5.793l-.285,25.888c0,1.629,3.132,4.164,5.694,4.164a12.239,12.239,0,0,0,2.278-.362v-16.112c.285-3.44.285-4.888.285-4.526Z" transform="translate(627.001 -1049.325)" fill="#222"/>
        <path id="Path_17115" data-name="Path 17115" d="M-430.607,1093.316a24.154,24.154,0,0,1-3.131,1.629c-7.4,3.983-12.812,8.871-16.513,14.483v6.517q0,8.69,6.832,7.6c2.562-.362,4.84-1.63,7.4-3.983l1.708-2.535c1.708-3.077,1.139-7.06-1.424-12.129l5.125,5.431v.182a9.992,9.992,0,0,1,.569,7.6c-1.423,5.069-5.978,9.957-13.381,14.664l-1.424.905-3.7-1.087c-7.4-1.81-11.672-4.707-13.1-8.509a31.983,31.983,0,0,1-.57-7.061V1090.42q-.426-.272,0-.544l25.623-11.767a4.455,4.455,0,0,1,2.847,1.991q1.281,1.9,1.708,9.233a4.884,4.884,0,0,0,2.277,3.621Zm-14.235-4.707a4.122,4.122,0,0,0-2.847-1.086,3.685,3.685,0,0,0-1.993,0c-.285,0-.57,0-.57.181v17.017a28.757,28.757,0,0,0,6.832-7.6C-443.418,1092.773-443.988,1089.876-444.842,1088.609Z" transform="translate(583.768 -1049.325)" fill="#222"/>
        <path id="Path_17116" data-name="Path 17116" d="M-376.665,1133.137c-5.41-1.629-8.541-4.163-9.68-7.423l-9.111,7.423c-6.548-2.172-9.965-5.612-10.249-10.5a16.432,16.432,0,0,0-.285-2.535v-17.2l2.847-1.449c-2.562-3.983-3.417-7.6-1.993-11.043s4.84-5.974,10.249-7.6a116.357,116.357,0,0,0,12.812-3.259c1.708-.724,2.847-1.086,3.131-.9,3.7.724,5.694,5.069,5.41,13.035,0,1.086-.284,10.862-.854,29.508.284,2.9,2.562,4.164,6.548,3.8h.854c.284,0,.284,0,.284.181Zm-9.965-44.535-7.972,1.086c-5.41,1.267-7.972,3.8-7.972,7.6a16.119,16.119,0,0,0,.57,3.439c4.84-2.9,9.964-6.517,15.374-7.784Zm-.285,30.414.285-23.716c-4.556,2.172-6.833,6.336-6.833,12.31v13.4h.284v.181c.285,2.9,2.563,4.164,6.549,3.8A30.613,30.613,0,0,1-386.914,1119.017Z" transform="translate(563.703 -1049.499)" fill="#222"/>
        <path id="Path_17117" data-name="Path 17117" d="M-311.013,1062.047c0,1.81-1.708,3.8-5.409,6.155-4.271,2.9-6.833,4.707-7.687,5.612-.285.181-.285.181-.285-.361-.285-.181-.285-.181-.285-.362-.285-.543-1.424-1.267-3.985-1.81l.284,8.509c.284,5.612,0,12.31-.284,19.733l-.285,5.612c.285,2.9,2.563,4.164,6.548,3.8h.855c.284,0,.284,0,.284.181l-9.68,7.965c-5.409-1.629-8.541-3.983-9.68-7.242a31.244,31.244,0,0,1-.57-6.879v-31.5h-1.424l-6.832.724a87.766,87.766,0,0,0,6.832-8.328q2.135-2.987,3.417-9.776t3.416-9.776q7.26-10.863,18.79-10.862a24.638,24.638,0,0,1,5.125.543c-8.826,1.448-14.235,4.344-15.943,8.509a18.808,18.808,0,0,0-.854,6.517v14.3c8.541.18,14.234-.905,17.366-3.078A4.03,4.03,0,0,1-311.013,1062.047Z" transform="translate(543.6 -1033.444)" fill="#222"/>
      </g>
      <g id="Group_5071" data-name="Group 5071" transform="translate(-698.591 805.231)">
        <path id="Path_17118" data-name="Path 17118" d="M-629.978,980.786l-9.4,8.69a21.117,21.117,0,0,1-6.548-3.62v10.138c0,3.439,1.993,5.25,6.263,5.25a65.674,65.674,0,0,0-10.534,5.431l-8.256,5.25a48.553,48.553,0,0,1-25.339,7.242c-6.548,0-11.388-1.268-14.805-3.8,7.688,1.629,13.951,1.81,19.076.543,3.986-.9,9.68-4.163,17.082-9.595a6.162,6.162,0,0,0,1.424-1.086l2.277-1.811a25.146,25.146,0,0,0,.57-5.974v-49.06c-.285-3.44-1.993-5.069-5.125-5.25a13.319,13.319,0,0,0-5.694.724.534.534,0,0,1,.285-.543,83.388,83.388,0,0,0,11.958-6.7,15.034,15.034,0,0,1,2.847-.181c3.7,0,6.548,1.448,7.972,4.345a50.572,50.572,0,0,0,9.111-5.612,12.2,12.2,0,0,1,2.562-.181c5.125,0,7.972,1.81,8.826,5.612a33.15,33.15,0,0,1,.284,8.147c0,3.439-.284,11.948-.854,25.163a3.916,3.916,0,0,0,1.708,2.173Zm-7.972-31.138a19.487,19.487,0,0,0-1.424-5.612,4.039,4.039,0,0,0-2.846-1.267,3.92,3.92,0,0,0-3.131,1.086c0,1.448-.57,4.526-.57,5.793l-.285,25.888c0,1.629,3.132,4.164,5.694,4.164a12.264,12.264,0,0,0,2.278-.362V963.226c.284-3.44.284-4.888.284-4.526Z" transform="translate(698.591 -906.2)" fill="#222"/>
        <path id="Path_17119" data-name="Path 17119" d="M-556.844,954.555c.569-1.992.854-3.44.569-4.345-.569-3.078-2.277-4.888-4.839-5.069a4.561,4.561,0,0,0-3.133.543v2.9c0,.543-.284,10.319-1.138,29.508q.855,4.345,6.832,3.8h.57c.284,0,.284,0,.284.181l-9.68,7.965c-5.41-1.629-8.541-3.983-9.68-7.242a32.542,32.542,0,0,1-.569-6.879l.284-28.061c0-3.621-1.139-5.432-5.978-5.25a1.461,1.461,0,0,1-.854-.182l14.519-6.7a6.885,6.885,0,0,1,4.555,4.345c1.424-2.354,2.563-3.983,3.417-4.526a36.593,36.593,0,0,1,12.526,4.526c4.84,2.715,6.833,5.25,6.264,7.965Z" transform="translate(657.91 -906.399)" fill="#222"/>
        <path id="Path_17120" data-name="Path 17120" d="M-487.263,990.012c-5.409-1.629-8.541-4.164-9.679-7.422l-9.111,7.422c-6.548-2.172-9.965-5.612-10.249-10.5a16.433,16.433,0,0,0-.285-2.535v-17.2l2.847-1.449c-2.562-3.983-3.416-7.6-1.992-11.043s4.839-5.975,10.249-7.6a116.471,116.471,0,0,0,12.812-3.259c1.708-.724,2.847-1.086,3.131-.9,3.7.724,5.694,5.069,5.41,13.035,0,1.086-.285,10.862-.854,29.508.285,2.9,2.562,4.164,6.548,3.8h.854c.284,0,.284,0,.284.181Zm-9.964-44.535-7.971,1.087c-5.409,1.267-7.972,3.8-7.972,7.6a16.161,16.161,0,0,0,.57,3.44c4.84-2.9,9.964-6.517,15.373-7.784Zm-.284,30.414.284-23.716c-4.555,2.172-6.832,6.336-6.832,12.31v13.4h.285v.18c.285,2.9,2.562,4.164,6.548,3.8A30.677,30.677,0,0,1-497.512,975.892Z" transform="translate(633.88 -906.374)" fill="#222"/>
        <path id="Path_17121" data-name="Path 17121" d="M-428.463,956.889c-2.562-1.268-3.7-3.8-3.986-7.6-.284-3.077-1.424-4.707-3.986-4.888a2.752,2.752,0,0,0-1.708,0,10.569,10.569,0,0,0-1.993.362v28.06q0,8.961,6.833,7.6a15.276,15.276,0,0,0,7.4-3.983l1.708-2.535c1.993-3.077,1.423-7.241-1.139-12.129a35.126,35.126,0,0,1,4.84,5.431v.181a9.995,9.995,0,0,1,.569,7.6c-.854,3.44-5.409,8.328-13.381,14.664l-1.139.906a18.865,18.865,0,0,0-3.986-1.086c-7.117-1.991-11.673-4.706-13.1-8.509a29.541,29.541,0,0,1-.569-7.061V947.294l.854-.362c4.271-1.81,13.1-5.793,26.192-11.948a4.455,4.455,0,0,1,2.847,1.991q1.281,2.173,1.708,9.233a3.44,3.44,0,0,0,1.993,3.439Z" transform="translate(610.949 -906.2)" fill="#222"/>
        <path id="Path_17122" data-name="Path 17122" d="M-364.623,918.922c0,1.81-1.708,3.8-5.409,6.155-4.271,2.9-6.833,4.707-7.687,5.612-.285.182-.285.182-.285-.362-.285-.181-.285-.181-.285-.362-.284-.543-1.424-1.268-3.985-1.81l.284,8.509c.285,5.612,0,12.31-.284,19.733l-.286,5.612c.286,2.9,2.563,4.164,6.548,3.8h.855c.284,0,.284,0,.284.181l-9.68,7.965c-5.409-1.629-8.541-3.983-9.68-7.242a31.206,31.206,0,0,1-.57-6.879v-31.5h-1.424l-6.833.724a88.063,88.063,0,0,0,6.833-8.328q2.135-2.987,3.417-9.776t3.416-9.776q7.26-10.861,18.79-10.862a24.655,24.655,0,0,1,5.125.543c-8.826,1.448-14.235,4.345-15.943,8.509a18.808,18.808,0,0,0-.854,6.517v14.3c8.541.18,14.235-.905,17.367-3.078A4.036,4.036,0,0,1-364.623,918.922Z" transform="translate(593.514 -890.319)" fill="#222"/>
        <path id="Path_17123" data-name="Path 17123" d="M-342.5,980.549c-5.124-1.629-8.256-3.983-9.68-7.242a28.719,28.719,0,0,1-.57-6.879v-26.25c0-1.629,0-2.715-.284-2.9-.285-.9-1.424-1.448-2.847-1.629.854,0-1.993.362-8.256.905a1.568,1.568,0,0,1-1.424-.181c-.285-.181,0-.543,1.424-1.087l1.708-.9,17.652-8.146c2.562.724,3.985,2.535,4.839,5.25a38.553,38.553,0,0,1,.57,7.6c0,.543,0,3.44-.285,8.689l-.569,20.819q.426,4.617,6.832,3.8c.855,0,1.139,0,.855.181Zm-2.277-59.561c-1.993-.724-5.694-4.888-9.965-5.431a3.169,3.169,0,0,0-1.424.181h-.855l13.381-6.879c2.562.724,6.548,4.888,10.249,5.431a9.625,9.625,0,0,0,2.279,0Z" transform="translate(580.219 -896.911)" fill="#222"/>
        <path id="Path_17124" data-name="Path 17124" d="M-288.426,956.889c-2.562-1.268-3.7-3.8-3.986-7.6-.284-3.077-1.424-4.707-3.985-4.888a2.756,2.756,0,0,0-1.709,0,10.581,10.581,0,0,0-1.993.362v28.06q0,8.961,6.833,7.6a15.271,15.271,0,0,0,7.4-3.983l1.709-2.535c1.992-3.077,1.424-7.241-1.139-12.129a35.109,35.109,0,0,1,4.84,5.431v.181a9.994,9.994,0,0,1,.569,7.6c-.855,3.44-5.41,8.328-13.381,14.664l-1.139.906a18.852,18.852,0,0,0-3.985-1.086c-7.117-1.991-11.673-4.706-13.1-8.509a29.507,29.507,0,0,1-.569-7.061V947.294l.854-.362c4.271-1.81,13.1-5.793,26.192-11.948a4.45,4.45,0,0,1,2.847,1.991q1.282,2.173,1.709,9.233a3.44,3.44,0,0,0,1.993,3.439Z" transform="translate(561.159 -906.2)" fill="#222"/>
        <path id="Path_17125" data-name="Path 17125" d="M-222.7,950.191a24.215,24.215,0,0,1-3.132,1.629c-7.4,3.983-12.811,8.871-16.513,14.483v6.517q0,8.69,6.834,7.6c2.562-.362,4.84-1.63,7.4-3.983l1.709-2.535c1.708-3.077,1.138-7.06-1.424-12.129l5.124,5.431v.181a9.995,9.995,0,0,1,.57,7.6c-1.424,5.069-5.979,9.957-13.381,14.664l-1.424.906-3.7-1.086c-7.4-1.81-11.673-4.706-13.1-8.509a31.939,31.939,0,0,1-.57-7.061V947.294c-.285-.18-.285-.362,0-.543l25.623-11.768a4.45,4.45,0,0,1,2.847,1.991q1.282,1.9,1.708,9.233a4.883,4.883,0,0,0,2.278,3.62Zm-14.235-4.707a4.127,4.127,0,0,0-2.847-1.086,3.684,3.684,0,0,0-1.993,0c-.284,0-.57,0-.57.18V961.6a28.742,28.742,0,0,0,6.834-7.6C-235.512,949.648-236.082,946.752-236.935,945.484Z" transform="translate(540.7 -906.2)" fill="#222"/>
      </g>
      <g id="Group_5072" data-name="Group 5072" transform="translate(-667.738 721.296)">
        <path id="Path_17126" data-name="Path 17126" d="M-637.336,778.438a18.809,18.809,0,0,0-.854,6.517v15.388c0-.18,0,3.078.284,9.776v5.612c0,9.414,0,15.931-.284,19.733l-.284,5.612c.568,2.9,2.846,4.164,6.548,3.8h.854l.285.181-9.68,7.965c-5.409-1.629-8.541-3.983-9.68-7.242a31.261,31.261,0,0,1-.568-6.879V785.5c1.423-.543,4.27-3.8,8.825-9.413,3.7-4.526,8.541-6.7,14.8-6.7a32.7,32.7,0,0,1,5.694.543C-630.5,771.377-635.912,774.274-637.336,778.438Z" transform="translate(650.716 -769.386)" fill="#222"/>
        <path id="Path_17127" data-name="Path 17127" d="M-583.9,829.258a24.057,24.057,0,0,1-3.132,1.629c-7.4,3.983-12.812,8.871-16.513,14.483v6.517q0,8.689,6.833,7.6c2.562-.362,4.84-1.63,7.4-3.983l1.708-2.535c1.708-3.078,1.139-7.061-1.424-12.13l5.125,5.431v.181a9.991,9.991,0,0,1,.569,7.6c-1.424,5.069-5.979,9.957-13.381,14.664l-1.424.905-3.7-1.087c-7.4-1.81-11.673-4.706-13.1-8.509a32.015,32.015,0,0,1-.57-7.06V826.361q-.426-.271,0-.543l25.623-11.768a4.454,4.454,0,0,1,2.847,1.992q1.281,1.9,1.708,9.232a4.883,4.883,0,0,0,2.277,3.621Zm-14.235-4.707a4.125,4.125,0,0,0-2.847-1.086,3.682,3.682,0,0,0-1.993,0c-.284,0-.57,0-.57.181v17.017a28.741,28.741,0,0,0,6.833-7.6C-596.707,828.715-597.276,825.819-598.13,824.551Z" transform="translate(638.27 -785.267)" fill="#222"/>
        <path id="Path_17128" data-name="Path 17128" d="M-529.954,869.079c-5.409-1.629-8.542-4.164-9.68-7.422l-9.11,7.422c-6.548-2.172-9.964-5.612-10.25-10.5a16.467,16.467,0,0,0-.284-2.535v-17.2l2.847-1.449c-2.563-3.983-3.417-7.6-1.993-11.043s4.84-5.975,10.25-7.6a116.261,116.261,0,0,0,12.811-3.258c1.708-.724,2.846-1.087,3.132-.905,3.7.724,5.694,5.069,5.409,13.035,0,1.086-.285,10.862-.854,29.509.285,2.9,2.562,4.164,6.548,3.8h.854c.285,0,.285,0,.285.181Zm-9.965-44.535-7.972,1.087c-5.41,1.267-7.971,3.8-7.971,7.6a16.125,16.125,0,0,0,.569,3.44c4.84-2.9,9.965-6.517,15.374-7.785Zm-.285,30.414.285-23.716c-4.555,2.172-6.832,6.336-6.832,12.31v13.4h.284v.181c.284,2.9,2.562,4.164,6.548,3.8A30.619,30.619,0,0,1-540.2,854.959Z" transform="translate(618.205 -785.441)" fill="#222"/>
        <path id="Path_17129" data-name="Path 17129" d="M-474.08,833.622c.57-1.991.855-3.44.57-4.345-.57-3.077-2.277-4.888-4.84-5.069a4.558,4.558,0,0,0-3.131.543v2.9c0,.543-.284,10.319-1.139,29.509q.855,4.344,6.833,3.8h.57c.284,0,.284,0,.284.181l-9.68,7.965c-5.41-1.629-8.541-3.983-9.68-7.242a32.587,32.587,0,0,1-.569-6.879l.285-28.061c0-3.621-1.139-5.431-5.979-5.25a1.466,1.466,0,0,1-.854-.181l14.519-6.7a6.886,6.886,0,0,1,4.556,4.345c1.424-2.354,2.562-3.983,3.417-4.526a36.593,36.593,0,0,1,12.526,4.526c4.84,2.716,6.833,5.25,6.263,7.965Z" transform="translate(597.631 -785.467)" fill="#222"/>
        <path id="Path_17130" data-name="Path 17130" d="M-396.242,869.2c-5.41-1.629-8.541-3.983-9.965-7.242-.285-.362-.285-2.715-.285-6.879l-.284-26.25a4.389,4.389,0,0,0,0-2.715,3.147,3.147,0,0,0-3.132-1.811,3.7,3.7,0,0,0-1.993,0,9.15,9.15,0,0,1-1.993.543v2.9c0,.543-.284,10.319-1.139,29.509q.854,4.344,6.833,3.8h.57c.284,0,.284,0,.284.181l-9.68,7.966c-5.41-1.629-8.541-3.983-9.68-7.242a32.589,32.589,0,0,1-.569-6.879l.285-28.061c0-3.62-1.139-5.431-5.979-5.25a1.465,1.465,0,0,1-.854-.181l14.519-6.7q4.7,1.358,5.125,7.061l15.373-7.061a6.5,6.5,0,0,1,5.125,5.25c.285.905.285,3.44.285,7.6,0,.543,0,3.44-.285,8.69l-.57,20.819c.285,2.9,2.562,4.164,6.548,3.8h.855c.284,0,.284,0,.284.181Z" transform="translate(573.599 -785.566)" fill="#222"/>
      </g>
      <g id="Group_5073" data-name="Group 5073" transform="translate(-667.738 633.693)">
        <path id="Path_17131" data-name="Path 17131" d="M-640.182,726.348c-6.548-2.172-9.965-5.613-10.249-10.5V704.623c-.284-6.7-.284-12.672-.284-18.284v-4.526a63.071,63.071,0,0,0,22.206-10.138,9.674,9.674,0,0,1,2.277-.181c5.125,0,7.972,1.81,8.826,5.431a68.486,68.486,0,0,1,.569,7.784c-.285,3.077-.569,9.232-.854,18.646a4.618,4.618,0,0,0,1.993,3.077Zm9.965-25.707V698.83c.285-3.258.285-4.706.285-4.344v-7.242c0-5.612-1.424-8.509-3.986-8.509a4.209,4.209,0,0,0-4.271,3.621v27.88h.285c-.285,3.077,1.424,4.526,5.125,4.526a9.32,9.32,0,0,0,5.979-2.354C-629.079,710.416-630.218,706.615-630.218,700.641Z" transform="translate(650.716 -641.978)" fill="#222"/>
        <path id="Path_17132" data-name="Path 17132" d="M-557.171,691.235h-.285l-.854.724-4.84,3.983-1.139.905-15.373,12.31c-6.833-1.991-10.25-5.612-10.25-10.5V667.882c-.284-11.587-.284-20.819-.284-27.88v-3.621a151.219,151.219,0,0,1,13.1-7.784,26.938,26.938,0,0,1,16.513-2.535c-8.826,1.448-13.95,4.344-15.943,8.509a14.235,14.235,0,0,0-1.138,6.517v21l15.943-7.24c3.985,1.267,5.694,5.611,5.409,13.034l-.854,18.284a5.467,5.467,0,0,0,1.993,3.258Zm-9.111,4.164c-2.278-2.173-3.416-5.069-3.416-8.872,0-3.439,0-7.06.284-10.68a29.269,29.269,0,0,0,0-7.061c0-1.629-.284-4.344-3.416-4.525h-1.993l-2.847.724.284,27.155h-.284v.906h.284v.18c0,2.9,1.708,4.345,5.409,4.345a11.174,11.174,0,0,0,5.409-1.991Z" transform="translate(629.198 -625.693)" fill="#222"/>
        <path id="Path_17133" data-name="Path 17133" d="M-508.777,690.122c4.27,1.629,7.117,3.621,8.256,6.336.569,1.086.855,3.44.855,6.879l.284,10.862c0,.182,0,.182-.284.182-2.563,1.991-8.541,6.154-17.367,12.129a26.042,26.042,0,0,1-5.694-1.81c-1.423-.543-3.7-2.172-6.548-4.707-1.993-1.991-4.271-3.8-6.263-5.611-.285-.182-.285-.182,0-.363,1.423-1.629,4.27-4.344,7.972-7.784a8.182,8.182,0,0,1-5.125-5.069q-.853-1.63-.854-7.061l-.284-10.862.284-.181c3.132-2.172,9.111-6.155,17.367-12.129l5.694,1.81a19.8,19.8,0,0,1,4.27,2.9,72.846,72.846,0,0,0,8.541,7.422c.285.181.285.363,0,.363A57.711,57.711,0,0,0-508.777,690.122Zm-3.7,12.854c0-1.449-1.708-2.9-4.84-4.526a63.432,63.432,0,0,0-5.979,7.965.533.533,0,0,1-.285.543c0,1.81,1.139,4.164,3.7,7.241a13.892,13.892,0,0,0,4.84,3.983,2.671,2.671,0,0,0,2.846-.905Zm.569-16.293c-.854-3.8-2.847-6.155-5.979-7.242a2.9,2.9,0,0,0-3.131.724l.569,12.491a5.405,5.405,0,0,0,1.424,4.164c4.84-3.8,7.117-6.517,7.117-8.146Z" transform="translate(609.841 -641.778)" fill="#222"/>
        <path id="Path_17134" data-name="Path 17134" d="M-440.766,686.7a24.135,24.135,0,0,1-3.131,1.629c-7.4,3.983-12.812,8.871-16.513,14.482v6.518q0,8.689,6.833,7.6c2.562-.362,4.839-1.63,7.4-3.983l1.708-2.535c1.708-3.077,1.139-7.06-1.424-12.129l5.125,5.431v.182a9.99,9.99,0,0,1,.569,7.6c-1.423,5.07-5.978,9.957-13.38,14.665l-1.424.905-3.7-1.087c-7.4-1.81-11.672-4.706-13.1-8.508a31.986,31.986,0,0,1-.57-7.061V683.8q-.426-.271,0-.543l25.623-11.767a4.453,4.453,0,0,1,2.847,1.991q1.281,1.9,1.708,9.233a4.885,4.885,0,0,0,2.278,3.621ZM-455,681.994a4.124,4.124,0,0,0-2.847-1.086,3.682,3.682,0,0,0-1.993,0c-.285,0-.57,0-.57.18v17.018a28.762,28.762,0,0,0,6.833-7.6C-453.577,686.158-454.146,683.261-455,681.994Z" transform="translate(587.38 -641.978)" fill="#222"/>
        <path id="Path_17135" data-name="Path 17135" d="M-395.885,691.065c.569-1.991.854-3.44.569-4.345-.569-3.078-2.278-4.888-4.84-5.069a4.556,4.556,0,0,0-3.132.543v2.9c0,.543-.284,10.319-1.139,29.508q.854,4.344,6.832,3.8h.57c.285,0,.285,0,.285.182l-9.68,7.966c-5.41-1.63-8.541-3.983-9.68-7.242a32.584,32.584,0,0,1-.569-6.88l.285-28.06c0-3.621-1.139-5.431-5.979-5.25a1.459,1.459,0,0,1-.854-.182l14.519-6.7a6.885,6.885,0,0,1,4.555,4.344c1.424-2.353,2.562-3.982,3.416-4.525a36.592,36.592,0,0,1,12.527,4.525c4.84,2.716,6.833,5.25,6.263,7.965Z" transform="translate(569.828 -642.177)" fill="#222"/>
        <path id="Path_17136" data-name="Path 17136" d="M-339.273,726.647c-6.832-2.354-10.249-5.793-10.249-10.5V684.466c0-3.8-1.993-5.432-5.694-5.25a1.461,1.461,0,0,1-.854-.182l14.235-6.7c3.416,1.086,5.125,5.431,5.125,12.854l-.285,24.44h-.285v.9h.285c-.285,3.077,1.424,4.526,5.125,4.526a9.321,9.321,0,0,0,5.979-2.354c-2.277-1.991-3.417-5.25-3.417-9.414v-4.345h.286V684.466c0-3.8-1.993-5.432-5.694-5.25a1.46,1.46,0,0,1-.854-.182l13.95-6.7c2.563.724,3.987,2.534,4.84,5.25a38.615,38.615,0,0,1,.569,7.6c-.285,1.267-.285,5.974-.569,13.758v4.707a4.616,4.616,0,0,0,1.993,3.077Z" transform="translate(545.955 -642.277)" fill="#222"/>
        <path id="Path_17137" data-name="Path 17137" d="M-253.462,686.7a24.038,24.038,0,0,1-3.131,1.629c-7.4,3.983-12.812,8.871-16.512,14.482v6.518q0,8.689,6.832,7.6c2.563-.362,4.84-1.63,7.4-3.983l1.708-2.535c1.708-3.077,1.139-7.06-1.423-12.129l5.124,5.431v.182a9.99,9.99,0,0,1,.57,7.6c-1.424,5.07-5.979,9.957-13.381,14.665l-1.423.905-3.7-1.087c-7.4-1.81-11.673-4.706-13.1-8.508a32,32,0,0,1-.569-7.061V683.8q-.427-.271,0-.543l25.623-11.767a4.453,4.453,0,0,1,2.847,1.991q1.281,1.9,1.708,9.233a4.885,4.885,0,0,0,2.277,3.621Zm-14.235-4.707a4.123,4.123,0,0,0-2.847-1.086,3.682,3.682,0,0,0-1.993,0c-.285,0-.569,0-.569.18v17.018a28.75,28.75,0,0,0,6.832-7.6C-266.273,686.158-266.842,683.261-267.7,681.994Z" transform="translate(520.784 -641.978)" fill="#222"/>
      </g>
    </g>
    <circle id="Ellipse_397" data-name="Ellipse 397" cx="6" cy="6" r="6" transform="translate(929 2715)" fill="#7400d7"/>
    <circle id="Ellipse_398" data-name="Ellipse 398" cx="6" cy="6" r="6" transform="translate(846 2800)" fill="#7400d7"/>
    <circle id="Ellipse_399" data-name="Ellipse 399" cx="6" cy="6" r="6" transform="translate(950 2886)" fill="#7400d7"/>
    <circle id="Ellipse_400" data-name="Ellipse 400" cx="6" cy="6" r="6" transform="translate(889 2969)" fill="#7400d7"/>
  </g>
</svg>
