<svg xmlns="http://www.w3.org/2000/svg" width="107.728" height="80.167" viewBox="0 0 107.728 80.167"><defs><style>.a{fill:#ffc516;}</style></defs><g transform="translate(-7 -17.996)"><g transform="translate(7 17.996)"><path class="a" d="M8.018,18A1.253,1.253,0,0,0,7,19.254v65.49A1.253,1.253,0,0,0,8.253,86H75.661a1.253,1.253,0,1,0,0-2.505H9.505V20.506h92.187V43.524a1.253,1.253,0,1,0,2.505,0V19.254A1.253,1.253,0,0,0,102.945,18H8.253a1.253,1.253,0,0,0-.235,0Zm21.021,11.43a1.26,1.26,0,0,0,.274,2.505H81.924a1.253,1.253,0,1,0,0-2.505H29.313a1.253,1.253,0,0,0-.274,0Zm10.647,8.3a1.254,1.254,0,1,0,.117,2.505h31.59a1.253,1.253,0,1,0,0-2.505H39.8Q39.745,37.727,39.686,37.73ZM96.642,49.9A18.006,18.006,0,0,0,78.557,67.794,17.742,17.742,0,0,0,83.8,80.359L80.671,93.512A1.253,1.253,0,0,0,82.159,95l4.619-.9,3.719,3.68a1.253,1.253,0,0,0,2.114-.548l2.936-11.587c.366.022.725.039,1.1.039s.731-.017,1.1-.039l2.936,11.587a1.253,1.253,0,0,0,2.114.548l3.719-3.68,4.619.9a1.253,1.253,0,0,0,1.448-1.488l-3.093-13.153a17.742,17.742,0,0,0,5.245-12.566A18.006,18.006,0,0,0,96.642,49.9Zm0,2.505a15.385,15.385,0,1,1-15.58,15.384A15.463,15.463,0,0,1,96.642,52.41Zm0,5.793a9.571,9.571,0,1,0,9.669,9.59A9.655,9.655,0,0,0,96.642,58.2Zm0,2.505a7.066,7.066,0,1,1-7.163,7.085A7.112,7.112,0,0,1,96.642,60.708ZM46.223,69.281a1.258,1.258,0,1,0,.235,2.505H64.739a1.253,1.253,0,1,0,0-2.505H46.458A1.253,1.253,0,0,0,46.223,69.281ZM85.917,82.2a18.11,18.11,0,0,0,7.124,3.132l-2.309,9.16-2.7-2.623a1.253,1.253,0,0,0-1.1-.352l-3.366.666Zm21.412,0,2.388,9.982-3.366-.666a1.253,1.253,0,0,0-1.135.352l-2.662,2.623-2.31-9.16A18.082,18.082,0,0,0,107.329,82.2Z" transform="translate(-7 -17.996)"/></g></g></svg>