<svg xmlns="http://www.w3.org/2000/svg" width="81.789" height="83.849" viewBox="0 0 81.789 83.849"><defs><style>.a{fill:#ffc516;}.b{fill:none;stroke:#ffc516;stroke-linecap:round;stroke-width:2px;}</style></defs><g transform="translate(-30.929 -24.302)"><g transform="translate(31.929 25.302)"><g transform="translate(0 0)"><g transform="translate(18.213 15.246)"><path class="a" d="M165.438,162.592h-17.79a.889.889,0,0,1-.89-.889v-8.491a22.238,22.238,0,1,1,19.569,0V161.7A.889.889,0,0,1,165.438,162.592Zm-16.9-1.779h16.011v-8.164a.89.89,0,0,1,.518-.808,20.459,20.459,0,1,0-17.048,0,.889.889,0,0,1,.518.808Z" transform="translate(-134.305 -111)"/></g><g transform="translate(32.445 65.059)"><path class="a" d="M229.427,403.453H215.195a.89.89,0,0,1-.89-.89V391.89a.89.89,0,0,1,.89-.89h14.232a.889.889,0,0,1,.89.89v10.674A.89.89,0,0,1,229.427,403.453Zm-13.343-1.779h12.453v-8.9H216.084Z" transform="translate(-214.305 -391)"/></g><g transform="translate(36.003 75.733)"><path class="a" d="M242.311,458.116a.889.889,0,0,1-.889-.89v-4.448h-5.337v4.448a.89.89,0,1,1-1.779,0v-5.337a.889.889,0,0,1,.889-.889h7.116a.889.889,0,0,1,.89.889v5.337A.889.889,0,0,1,242.311,458.116Z" transform="translate(-234.305 -451)"/></g><g transform="translate(27.108 70.396)"><path class="a" d="M210.1,422.779H185.195a.89.89,0,0,1,0-1.779H210.1a.89.89,0,0,1,0,1.779Z" transform="translate(-184.305 -421)"/></g><g transform="translate(27.108 65.059)"><path class="a" d="M210.1,392.779H185.195a.89.89,0,0,1,0-1.779H210.1a.89.89,0,0,1,0,1.779Z" transform="translate(-184.305 -391)"/></g><g transform="translate(30.666 27.699)"><path class="a" d="M214.09,200.569a9.785,9.785,0,1,1,9.785-9.785A9.8,9.8,0,0,1,214.09,200.569Zm0-17.79a8.006,8.006,0,1,0,8.006,8.006A8.015,8.015,0,0,0,214.09,182.779Z" transform="translate(-204.305 -181)"/></g><g transform="translate(39.561 36.594)"><path class="a" d="M255.195,261.243a.89.89,0,0,1-.89-.889V231.89a.89.89,0,1,1,1.779,0v28.464A.889.889,0,0,1,255.195,261.243Z" transform="translate(-254.305 -231)"/></g><path class="b" d="M15211.642,3971v10.928" transform="translate(-15171.131 -3971)"/><path class="b" d="M0,0V10.928" transform="translate(11.207 11.207) rotate(-45)"/><path class="b" d="M0,0V10.928" transform="translate(0 38.376) rotate(-90)"/><path class="b" d="M0,0V10.928" transform="translate(11.207 65.545) rotate(-135)"/><path class="b" d="M0,10.928V0" transform="translate(60.855 18.934) rotate(-135)"/><path class="b" d="M0,10.928V0" transform="translate(68.862 38.376) rotate(-90)"/><path class="b" d="M0,10.928V0" transform="translate(60.855 57.818) rotate(-45)"/></g></g></g></svg>