<svg xmlns="http://www.w3.org/2000/svg" xmlns:xlink="http://www.w3.org/1999/xlink" width="604.41" height="604" viewBox="0 0 604.41 604">
  <defs>
    <radialGradient id="radial-gradient" cx="0.899" cy="0.366" r="1.072" gradientTransform="translate(-0.004 0.009) rotate(-0.636)" gradientUnits="objectBoundingBox">
      <stop offset="0" stop-color="#c287f3"/>
      <stop offset="1" stop-color="#7322b7"/>
    </radialGradient>
    <filter id="Ellipse_418" x="22" y="183" width="148" height="148" filterUnits="userSpaceOnUse">
      <feOffset dy="3" input="SourceAlpha"/>
      <feGaussianBlur stdDeviation="5" result="blur"/>
      <feFlood flood-color="#dedede" flood-opacity="0.161"/>
      <feComposite operator="in" in2="blur"/>
      <feComposite in="SourceGraphic"/>
    </filter>
    <filter id="Ellipse_1" x="25" y="186" width="142" height="142" filterUnits="userSpaceOnUse">
      <feOffset dy="3" input="SourceAlpha"/>
      <feGaussianBlur stdDeviation="5" result="blur-2"/>
      <feFlood flood-color="#dedede" flood-opacity="0.161"/>
      <feComposite operator="in" in2="blur-2"/>
      <feComposite in="SourceGraphic"/>
    </filter>
    <filter id="Ellipse_418-2" x="381" y="183" width="148" height="148" filterUnits="userSpaceOnUse">
      <feOffset dy="3" input="SourceAlpha"/>
      <feGaussianBlur stdDeviation="5" result="blur-3"/>
      <feFlood flood-color="#dedede" flood-opacity="0.161"/>
      <feComposite operator="in" in2="blur-3"/>
      <feComposite in="SourceGraphic"/>
    </filter>
    <filter id="Ellipse_1-2" x="384" y="186" width="142" height="142" filterUnits="userSpaceOnUse">
      <feOffset dy="3" input="SourceAlpha"/>
      <feGaussianBlur stdDeviation="5" result="blur-4"/>
      <feFlood flood-color="#dedede" flood-opacity="0.161"/>
      <feComposite operator="in" in2="blur-4"/>
      <feComposite in="SourceGraphic"/>
    </filter>
    <filter id="Ellipse_418-3" x="228" y="383" width="148" height="148" filterUnits="userSpaceOnUse">
      <feOffset dy="3" input="SourceAlpha"/>
      <feGaussianBlur stdDeviation="5" result="blur-5"/>
      <feFlood flood-color="#dedede" flood-opacity="0.161"/>
      <feComposite operator="in" in2="blur-5"/>
      <feComposite in="SourceGraphic"/>
    </filter>
    <filter id="Ellipse_1-3" x="231" y="386" width="142" height="142" filterUnits="userSpaceOnUse">
      <feOffset dy="3" input="SourceAlpha"/>
      <feGaussianBlur stdDeviation="5" result="blur-6"/>
      <feFlood flood-color="#dedede" flood-opacity="0.161"/>
      <feComposite operator="in" in2="blur-6"/>
      <feComposite in="SourceGraphic"/>
    </filter>
  </defs>
  <g id="creator_signup_2" data-name="creator signup 2" transform="translate(-70 -113)">
    <rect id="Rectangle_3530" data-name="Rectangle 3530" width="604" height="604" transform="translate(70 113)" opacity="0" fill="url(#radial-gradient)"/>
    <g id="creator_signup_2-2" data-name="creator signup 2">
      <g id="Group_5924" data-name="Group 5924">
        <g id="Group_5920" data-name="Group 5920">
          <path id="Path_18770" data-name="Path 18770" d="M1075.6,891.712q-1.968,0-3.968-.047l.07-3q3.009.072,5.944.033l.039,3Q1076.651,891.711,1075.6,891.712Zm8.138-.2-.154-3c1.991-.1,3.984-.244,5.923-.421l.271,2.988C1087.805,891.258,1085.772,891.4,1083.742,891.507Zm-18.153-.1c-1.991-.118-4.021-.273-6.032-.462l.279-2.986c1.978.184,3.974.338,5.931.454Zm30.215-1.006-.393-2.974c1.952-.258,3.925-.561,5.862-.9l.52,2.955C1099.813,889.832,1097.8,890.142,1095.8,890.405Zm-42.258-.119c-1.978-.25-3.991-.538-5.985-.854l.47-2.963c1.963.311,3.946.594,5.892.841Zm-11.94-1.89c-1.956-.371-3.947-.779-5.919-1.211l.642-2.93c1.944.426,3.908.828,5.836,1.193Zm66.131-.09-.648-2.93c1.934-.428,3.872-.9,5.76-1.409l.779,2.9C1111.7,887.383,1109.715,887.868,1107.737,888.306Zm-77.931-2.5c-1.926-.479-3.892-.995-5.841-1.535l.8-2.89c1.924.532,3.864,1.041,5.764,1.512Zm89.642-.655-.912-2.857c1.888-.6,3.773-1.253,5.6-1.934l1.045,2.813C1123.31,883.873,1121.38,884.539,1119.448,885.155Zm-101.281-2.563c-1.922-.585-3.857-1.2-5.753-1.827l.943-2.848c1.872.62,3.784,1.227,5.683,1.8Zm112.652-1.665-1.179-2.758c1.819-.778,3.632-1.606,5.387-2.462l1.315,2.7C1134.542,879.28,1132.685,880.13,1130.819,880.927Zm-124.111-2.12c-1.864-.665-3.769-1.368-5.659-2.089l1.07-2.8q2.817,1.076,5.6,2.065Zm135.023-3.2-1.445-2.629c1.724-.948,3.444-1.952,5.113-2.984l1.579,2.551C1145.265,873.607,1143.5,874.638,1141.731,875.61Zm-146.293-1.1q-2.763-1.123-5.562-2.326l1.184-2.756q2.772,1.191,5.507,2.3Zm-11.077-4.763q-2.717-1.231-5.466-2.541l1.291-2.709q2.723,1.3,5.414,2.518Zm167.7-.523-1.707-2.467c1.625-1.125,3.232-2.3,4.778-3.494l1.834,2.375C1155.378,866.858,1153.728,868.065,1152.06,869.22Zm-178.581-4.657q-2.672-1.332-5.369-2.735l1.383-2.662q2.676,1.391,5.323,2.711Zm188.2-2.768-1.957-2.274c1.5-1.287,2.97-2.625,4.382-3.978l2.076,2.166C1164.728,859.1,1163.213,860.474,1161.677,861.795ZM962.789,859q-2.622-1.42-5.271-2.911l1.47-2.615q2.628,1.478,5.231,2.887Zm207.663-5.616-2.189-2.051c1.347-1.438,2.667-2.929,3.922-4.428l2.3,1.926C1173.194,850.374,1171.838,851.905,1170.452,853.385ZM952.291,853.1q-2.577-1.5-5.179-3.072l1.549-2.568q2.584,1.557,5.142,3.048Zm225.968-9.034-2.406-1.793c1.18-1.585,2.324-3.213,3.4-4.841l2.5,1.652C1180.649,840.755,1179.474,842.431,1178.259,844.062Zm6.694-10.163-2.6-1.5c.987-1.711,1.927-3.461,2.794-5.2l2.686,1.336C1186.94,830.329,1185.972,832.135,1184.953,833.9Zm5.422-10.911-2.768-1.158c.767-1.831,1.471-3.685,2.095-5.514l2.84.969C1191.9,819.177,1191.167,821.1,1190.375,822.988Zm3.932-11.551-2.9-.758c.5-1.921.929-3.854,1.269-5.745l2.953.531C1195.271,807.433,1194.828,809.441,1194.307,811.437Zm2.149-12.041-2.987-.276c.177-1.928.267-3.85.267-5.716v-.137h3v.137C1196.736,795.361,1196.642,797.377,1196.456,799.4Zm-3.035-11.956a49.244,49.244,0,0,0-.963-5.738l2.924-.674a52.345,52.345,0,0,1,1.021,6.088Zm-2.633-11.285a38.936,38.936,0,0,0-2.424-5.236l2.619-1.463a41.988,41.988,0,0,1,2.612,5.641Zm-5.615-10.018a34.745,34.745,0,0,0-3.926-4.19l2.012-2.226a37.8,37.8,0,0,1,4.265,4.552Zm-8.492-7.676a37.744,37.744,0,0,0-5.075-2.727l1.217-2.742a40.979,40.979,0,0,1,5.479,2.944Zm-10.517-4.7c-.247-.072-.495-.141-.744-.209-1.7-.459-3.4-.959-5.05-1.485l.908-2.859c1.614.513,3.272,1,4.929,1.448.269.074.532.148.795.224Zm-11.528-3.674c-1.887-.7-3.78-1.468-5.628-2.271l1.195-2.752c1.8.782,3.645,1.527,5.482,2.212Zm-11.129-4.833c-1.8-.9-3.6-1.857-5.359-2.851l1.479-2.611c1.708.968,3.464,1.9,5.218,2.776Zm-10.559-5.982c-1.695-1.083-3.386-2.227-5.028-3.4l1.744-2.441c1.6,1.142,3.247,2.257,4.9,3.312Zm-9.875-7.049c-1.568-1.244-3.135-2.55-4.66-3.883l1.975-2.258c1.488,1.3,3.018,2.576,4.549,3.79Zm-9.132-7.978c-1.434-1.375-2.871-2.812-4.271-4.273l2.166-2.076c1.371,1.43,2.777,2.837,4.182,4.183Zm-8.366-8.722c-1.31-1.479-2.631-3.026-3.924-4.6l2.317-1.906c1.27,1.544,2.566,3.063,3.853,4.516Zm-7.686-9.328c-1.19-1.545-2.405-3.173-3.614-4.842l2.43-1.76c1.191,1.645,2.39,3.251,3.561,4.772Zm-7.09-9.782c-1.1-1.608-2.231-3.3-3.353-5.015l2.512-1.64c1.11,1.7,2.226,3.369,3.315,4.96Zm-6.6-10.093q-1.6-2.553-3.151-5.128l2.566-1.552q1.545,2.555,3.128,5.089Zm-6.229-10.3q-1.524-2.59-3.017-5.19l2.6-1.5q1.488,2.586,3,5.167Zm-5.992-10.4q-1.488-2.619-2.959-5.227l2.611-1.476q1.471,2.6,2.957,5.221Zm-5.915-10.45q-1.482-2.62-2.966-5.209l2.6-1.492q1.49,2.594,2.977,5.222Zm-257.3-8.39c-2-.014-4.031-.059-6.045-.136l.113-3c1.984.075,3.986.12,5.951.134Zm6.044-.051-.073-3c1.976-.047,3.977-.127,5.947-.237l.166,3C818.846,646.607,816.813,646.688,814.807,646.737Zm-18.124-.406c-1.972-.134-4-.3-6.027-.5l.295-2.986c2,.2,3.993.364,5.935.495Zm30.2-.267-.262-2.988c1.97-.173,3.962-.379,5.921-.612l.356,2.978C830.9,645.68,828.879,645.89,826.878,646.064Zm-42.229-.92c-2-.258-4.01-.548-5.984-.863l.473-2.963c1.944.311,3.927.6,5.9.851Zm275.445-.357q-1.519-2.6-3.055-5.143l2.568-1.551q1.548,2.562,3.077,5.178Zm-221.209-.156-.451-2.967c1.967-.3,3.942-.631,5.868-.987l.547,2.949C842.891,643.988,840.884,644.326,838.885,644.631Zm-66.176-1.388c-1.965-.372-3.957-.778-5.922-1.209l.643-2.93c1.935.424,3.9.825,5.838,1.192Zm78.065-.809-.638-2.932c1.926-.42,3.876-.877,5.794-1.358l.73,2.91C854.712,641.543,852.731,642.007,850.774,642.434ZM760.9,640.655c-1.945-.484-3.912-1-5.845-1.545l.808-2.888c1.9.532,3.844,1.045,5.762,1.523Zm101.593-1.15-.8-2.891c1.9-.527,3.822-1.088,5.726-1.667l.873,2.871C866.362,638.4,864.413,638.971,862.5,639.505ZM749.259,637.4c-1.93-.6-3.863-1.23-5.747-1.875l.97-2.837c1.858.634,3.765,1.256,5.667,1.847ZM874.041,636l-.936-2.85q2.856-.939,5.649-1.924l1,2.828Q876.928,635.049,874.041,636Zm179.866-1.444c-1.093-1.741-2.179-3.429-3.23-5.017l2.5-1.654c1.063,1.606,2.163,3.314,3.269,5.075Zm-316.09-1.067c-1.9-.713-3.8-1.454-5.63-2.2l1.132-2.777c1.807.737,3.674,1.468,5.551,2.171Zm147.6-1.5-1.057-2.808q2.815-1.058,5.571-2.154l1.107,2.787Q888.261,630.92,885.418,631.988Zm-158.8-3.073c-1.859-.826-3.707-1.683-5.492-2.546l1.307-2.7c1.754.85,3.573,1.692,5.4,2.5Zm170-1.373-1.156-2.769q2.78-1.161,5.5-2.345l1.2,2.752Q899.421,626.371,896.62,627.542Zm150.7-2.927c-1.172-1.666-2.35-3.283-3.5-4.806l2.393-1.811c1.174,1.552,2.373,3.2,3.564,4.891Zm-331.605-.986c-3.426-1.82-5.258-2.973-5.334-3.021l1.6-2.537c.019.011,1.827,1.147,5.142,2.909Zm191.947-.894L906.428,620q2.751-1.242,5.437-2.495l1.268,2.719Q910.429,621.484,907.664,622.735Zm10.908-5.078-1.293-2.707q2.731-1.3,5.4-2.6l1.31,2.7Q921.311,616.349,918.572,617.657Zm121.569-2.507c-1.283-1.554-2.587-3.06-3.879-4.476l2.217-2.022c1.324,1.452,2.663,3,3.976,4.59Zm-110.754-2.732-1.321-2.693,5.389-2.642,1.32,2.693Zm10.776-5.272-1.31-2.7q2.739-1.329,5.416-2.608l1.291,2.709Q942.892,605.817,940.163,607.146Zm92-.726c-1.435-1.4-2.9-2.742-4.345-3.983l1.952-2.278c1.5,1.282,3.007,2.667,4.489,4.114Zm-81.186-4.413-1.256-2.725q2.779-1.279,5.5-2.472l1.2,2.748Q953.725,600.736,950.974,602.007Zm72.232-3.2a56.718,56.718,0,0,0-4.915-3.16l1.486-2.605a59.733,59.733,0,0,1,5.175,3.325Zm-61.3-1.573-1.129-2.779c1.939-.788,3.838-1.523,5.644-2.185l1.031,2.817C965.684,595.739,963.817,596.462,961.91,597.237Zm11.156-4.062-.9-2.862c2.011-.632,3.98-1.192,5.854-1.662l.73,2.911C976.934,592.017,975.021,592.56,973.066,593.175Zm40.013-.113a46.147,46.147,0,0,0-5.475-1.931l.816-2.887a49.268,49.268,0,0,1,5.831,2.056ZM984.5,590.331l-.514-2.955c2.064-.359,4.108-.622,6.076-.783l.245,2.99C988.43,589.736,986.477,589.988,984.5,590.331Zm17.429-.417a48.3,48.3,0,0,0-5.791-.5l.078-3a51.012,51.012,0,0,1,6.154.53Z" transform="translate(-530.736 -265.713)" fill="#fff"/>
          <path id="Path_18772" data-name="Path 18772" d="M9.269,2.99a2,2,0,0,1,3.462,0L20.262,16a2,2,0,0,1-1.731,3l-7.252-5.559L3.469,19a2,2,0,0,1-1.731-3Z" transform="matrix(-0.966, -0.259, 0.259, -0.966, 670.908, 552.982)" fill="#fff"/>
        </g>
        <g id="Group_5922" data-name="Group 5922">
          <g id="Record_a_Video" data-name="Record a Video" transform="translate(-643.813 -220.994)" style="isolation: isolate">
            <g id="Group_5914" data-name="Group 5914" style="isolation: isolate">
              <path id="Path_18734" data-name="Path 18734" d="M757.253,669.1h-2.341v4.648h-2.1V661.658h4.25a4.942,4.942,0,0,1,3.229.939,3.32,3.32,0,0,1,1.138,2.716,3.411,3.411,0,0,1-.585,2.032,3.733,3.733,0,0,1-1.632,1.259l2.715,5.033v.107h-2.25Zm-2.341-1.694h2.158a2.4,2.4,0,0,0,1.66-.535,1.866,1.866,0,0,0,.6-1.465,1.986,1.986,0,0,0-.552-1.5,2.339,2.339,0,0,0-1.647-.547h-2.217Z" fill="#fff"/>
              <path id="Path_18735" data-name="Path 18735" d="M767.181,673.91a4.17,4.17,0,0,1-3.109-1.208,4.38,4.38,0,0,1-1.191-3.216v-.25a5.383,5.383,0,0,1,.519-2.4,3.949,3.949,0,0,1,1.456-1.648,3.856,3.856,0,0,1,2.092-.589,3.52,3.52,0,0,1,2.835,1.171,4.943,4.943,0,0,1,1,3.311v.814h-5.868a2.7,2.7,0,0,0,.743,1.759,2.229,2.229,0,0,0,1.639.648,2.733,2.733,0,0,0,2.258-1.12l1.088,1.037a3.636,3.636,0,0,1-1.441,1.249A4.507,4.507,0,0,1,767.181,673.91Zm-.241-7.695a1.7,1.7,0,0,0-1.34.582,3.013,3.013,0,0,0-.652,1.618h3.843v-.149a2.455,2.455,0,0,0-.539-1.532A1.689,1.689,0,0,0,766.94,666.215Z" fill="#fff"/>
              <path id="Path_18736" data-name="Path 18736" d="M776.038,672.3a1.821,1.821,0,0,0,1.253-.441,1.5,1.5,0,0,0,.531-1.087h1.9a2.968,2.968,0,0,1-.524,1.565,3.409,3.409,0,0,1-1.328,1.149,3.936,3.936,0,0,1-1.81.424,3.827,3.827,0,0,1-2.988-1.221,4.839,4.839,0,0,1-1.1-3.369v-.208a4.762,4.762,0,0,1,1.095-3.283,3.8,3.8,0,0,1,2.989-1.232,3.693,3.693,0,0,1,2.61.933,3.352,3.352,0,0,1,1.059,2.453h-1.9a1.84,1.84,0,0,0-.527-1.27,1.694,1.694,0,0,0-1.257-.5,1.776,1.776,0,0,0-1.511.71,3.625,3.625,0,0,0-.54,2.154v.323a3.677,3.677,0,0,0,.528,2.18A1.772,1.772,0,0,0,776.038,672.3Z" fill="#fff"/>
              <path id="Path_18737" data-name="Path 18737" d="M780.869,669.17a5.294,5.294,0,0,1,.523-2.378,3.817,3.817,0,0,1,1.469-1.627,4.141,4.141,0,0,1,2.175-.568,3.915,3.915,0,0,1,2.95,1.171,4.6,4.6,0,0,1,1.225,3.1l.009.474a5.351,5.351,0,0,1-.511,2.374,3.784,3.784,0,0,1-1.461,1.619,4.177,4.177,0,0,1-2.2.572,3.9,3.9,0,0,1-3.043-1.265,4.849,4.849,0,0,1-1.141-3.375Zm2.017.175a3.622,3.622,0,0,0,.573,2.171,1.864,1.864,0,0,0,1.594.784,1.842,1.842,0,0,0,1.589-.8,4,4,0,0,0,.569-2.333,3.566,3.566,0,0,0-.586-2.158,1.972,1.972,0,0,0-3.158-.012A3.923,3.923,0,0,0,782.886,669.345Z" fill="#fff"/>
              <path id="Path_18738" data-name="Path 18738" d="M795.628,666.6a5.146,5.146,0,0,0-.822-.066,1.852,1.852,0,0,0-1.868,1.063v6.142h-2.017v-8.981h1.926l.049,1.005a2.272,2.272,0,0,1,2.026-1.171,1.9,1.9,0,0,1,.714.116Z" fill="#fff"/>
              <path id="Path_18739" data-name="Path 18739" d="M796.366,669.188a5.341,5.341,0,0,1,.963-3.334,3.088,3.088,0,0,1,2.582-1.257,2.934,2.934,0,0,1,2.308,1v-4.6h2.016v12.75h-1.826l-.1-.93a2.972,2.972,0,0,1-2.415,1.1,3.071,3.071,0,0,1-2.553-1.269A5.533,5.533,0,0,1,796.366,669.188Zm2.018.173a3.744,3.744,0,0,0,.527,2.138,1.71,1.71,0,0,0,1.5.768,1.907,1.907,0,0,0,1.81-1.105v-3.834a1.876,1.876,0,0,0-1.793-1.08,1.723,1.723,0,0,0-1.511.776A4.168,4.168,0,0,0,798.384,669.361Z" fill="#fff"/>
              <path id="Path_18740" data-name="Path 18740" d="M815.939,673.744a1.309,1.309,0,1,0-2.589.166,3.176,3.176,0,0,1-2.208-.771,2.474,2.474,0,0,1-.855-1.91,2.55,2.55,0,0,1,1.067-2.2,5.17,5.17,0,0,1,3.05-.767h1.237v-.59a1.571,1.571,0,0,0-.39-1.116,1.547,1.547,0,0,0-1.188-.419,1.774,1.774,0,0,0-1.128.344,1.066,1.066,0,0,0-.44.876h-2.017a2.233,2.233,0,0,1,.49-1.382,3.252,3.252,0,0,1,1.332-1.009,4.685,4.685,0,0,1,1.88-.365,3.768,3.768,0,0,1,2.515.793,2.824,2.824,0,0,1,.963,2.228v4.051A4.6,4.6,0,0,0,818,673.6v.14Zm-2.215-1.453a2.305,2.305,0,0,0,1.125-.29,1.945,1.945,0,0,0,.792-.78v-1.694h-1.087a2.97,2.97,0,0,0-1.686.391,1.263,1.263,0,0,0-.564,1.1,1.179,1.179,0,0,0,.386.926A1.493,1.493,0,0,0,813.724,672.291Z" fill="#fff"/>
              <path id="Path_18741" data-name="Path 18741" d="M828.457,671.113l3.071-9.455h2.308l-4.35,12.086h-2.033l-4.333-12.086h2.3Z" fill="#fff"/>
              <path id="Path_18742" data-name="Path 18742" d="M835.007,662.43a1.068,1.068,0,0,1,.294-.772,1.112,1.112,0,0,1,.843-.306,1.124,1.124,0,0,1,.846.306,1.063,1.063,0,0,1,.3.772,1.038,1.038,0,0,1-.3.759,1.13,1.13,0,0,1-.846.3,1.118,1.118,0,0,1-.843-.3A1.042,1.042,0,0,1,835.007,662.43Zm2.141,11.314h-2.017v-8.981h2.017Z" fill="#fff"/>
              <path id="Path_18743" data-name="Path 18743" d="M838.966,669.188a5.341,5.341,0,0,1,.963-3.334,3.087,3.087,0,0,1,2.582-1.257,2.932,2.932,0,0,1,2.307,1v-4.6h2.017v12.75h-1.826l-.1-.93a2.97,2.97,0,0,1-2.415,1.1,3.072,3.072,0,0,1-2.553-1.269A5.54,5.54,0,0,1,838.966,669.188Zm2.017.173a3.736,3.736,0,0,0,.528,2.138,1.708,1.708,0,0,0,1.5.768,1.9,1.9,0,0,0,1.809-1.105v-3.834a1.876,1.876,0,0,0-1.793-1.08,1.721,1.721,0,0,0-1.51.776A4.159,4.159,0,0,0,840.983,669.361Z" fill="#fff"/>
              <path id="Path_18744" data-name="Path 18744" d="M852.9,673.91a4.17,4.17,0,0,1-3.109-1.208,4.38,4.38,0,0,1-1.191-3.216v-.25a5.383,5.383,0,0,1,.519-2.4,3.949,3.949,0,0,1,1.456-1.648,3.856,3.856,0,0,1,2.092-.589,3.52,3.52,0,0,1,2.835,1.171,4.943,4.943,0,0,1,1,3.311v.814h-5.868a2.688,2.688,0,0,0,.743,1.759,2.229,2.229,0,0,0,1.639.648,2.734,2.734,0,0,0,2.258-1.12l1.087,1.037a3.626,3.626,0,0,1-1.44,1.249A4.51,4.51,0,0,1,852.9,673.91Zm-.241-7.695a1.7,1.7,0,0,0-1.341.582,3.02,3.02,0,0,0-.651,1.618h3.843v-.149a2.455,2.455,0,0,0-.539-1.532A1.69,1.69,0,0,0,852.654,666.215Z" fill="#fff"/>
              <path id="Path_18745" data-name="Path 18745" d="M857.685,669.17a5.294,5.294,0,0,1,.522-2.378,3.826,3.826,0,0,1,1.47-1.627,4.139,4.139,0,0,1,2.175-.568,3.916,3.916,0,0,1,2.95,1.171,4.59,4.59,0,0,1,1.224,3.1l.009.474a5.351,5.351,0,0,1-.511,2.374,3.778,3.778,0,0,1-1.461,1.619,4.174,4.174,0,0,1-2.2.572,3.9,3.9,0,0,1-3.043-1.265,4.849,4.849,0,0,1-1.14-3.375Zm2.016.175a3.629,3.629,0,0,0,.573,2.171,1.864,1.864,0,0,0,1.594.784,1.841,1.841,0,0,0,1.589-.8,3.991,3.991,0,0,0,.569-2.333,3.566,3.566,0,0,0-.586-2.158,1.972,1.972,0,0,0-3.158-.012A3.93,3.93,0,0,0,859.7,669.345Z" fill="#fff"/>
            </g>
          </g>
          <g id="Group_5918" data-name="Group 5918">
            <g id="Group_5911" data-name="Group 5911">
              <g transform="matrix(1, 0, 0, 1, 70, 113)" filter="url(#Ellipse_418)">
                <circle id="Ellipse_418-4" data-name="Ellipse 418" cx="59" cy="59" r="59" transform="translate(37 195)" fill="#fff"/>
              </g>
              <g transform="matrix(1, 0, 0, 1, 70, 113)" filter="url(#Ellipse_1)">
                <circle id="Ellipse_1-4" data-name="Ellipse 1" cx="56" cy="56" r="56" transform="translate(40 198)" fill="#ffc40c"/>
              </g>
            </g>
            <g id="Group_4217" data-name="Group 4217" transform="translate(-157.236 -31.449)">
              <g id="Group_4216" data-name="Group 4216">
                <path id="Path_18728" data-name="Path 18728" d="M329.88,376.97H295.4a5.008,5.008,0,0,0-5,5v34.48a5.015,5.015,0,0,0,5,5h34.48a5.008,5.008,0,0,0,5-5V381.97A5,5,0,0,0,329.88,376.97Zm-8.32,23.61a2.719,2.719,0,0,1-1.01,1.01l-11.18,6.46a2.76,2.76,0,0,1-1.37.37,2.975,2.975,0,0,1-.72-.1,2.723,2.723,0,0,1-1.67-1.28,2.769,2.769,0,0,1-.37-1.38V392.75a2.752,2.752,0,0,1,4.13-2.38l11.18,6.45A2.769,2.769,0,0,1,321.56,400.58Z" fill="#fff"/>
                <path id="Path_18729" data-name="Path 18729" d="M321.56,400.58a2.719,2.719,0,0,1-1.01,1.01l-11.18,6.46a2.76,2.76,0,0,1-1.37.37,2.975,2.975,0,0,1-.72-.1,2.723,2.723,0,0,1-1.67-1.28,2.769,2.769,0,0,1-.37-1.38V392.75a2.752,2.752,0,0,1,4.13-2.38l11.18,6.45A2.769,2.769,0,0,1,321.56,400.58Z" fill="#ffc40c"/>
              </g>
              <g id="Path_3575" data-name="Path 3575">
                <path id="Path_18730" data-name="Path 18730" d="M358.16,384.58v29.25s-9.69-4.12-10.24-5.91c-.09-2-.26-14.97,0-17.43C348.84,388.21,358.16,384.58,358.16,384.58Z" fill="#fff"/>
              </g>
              <rect id="Rectangle_3526" data-name="Rectangle 3526" width="3.46" height="17.51" rx="1" transform="translate(339.58 390.45)" fill="#fff"/>
            </g>
          </g>
        </g>
        <g id="Group_5921" data-name="Group 5921">
          <g id="Upload" transform="translate(-644.621 -220.994)" style="isolation: isolate">
            <g id="Group_5915" data-name="Group 5915" style="isolation: isolate">
              <path id="Path_18746" data-name="Path 18746" d="M1152.652,661.658v8.076a3.924,3.924,0,0,1-1.232,3.051,5.4,5.4,0,0,1-6.578.017,3.943,3.943,0,0,1-1.221-3.075v-8.069h2.092v8.085a2.57,2.57,0,0,0,.614,1.851,2.394,2.394,0,0,0,1.81.639q2.424,0,2.424-2.556v-8.019Z" fill="#fff"/>
              <path id="Path_18747" data-name="Path 18747" d="M1162.563,669.345a5.346,5.346,0,0,1-.946,3.324,3.287,3.287,0,0,1-4.9.27V677.2h-2.018V664.763h1.86l.083.913a2.961,2.961,0,0,1,2.416-1.079,3.063,3.063,0,0,1,2.577,1.224,5.5,5.5,0,0,1,.933,3.4Zm-2.008-.175a3.752,3.752,0,0,0-.535-2.133,1.745,1.745,0,0,0-1.532-.789,1.855,1.855,0,0,0-1.776,1.022v3.984a1.874,1.874,0,0,0,1.793,1.046,1.739,1.739,0,0,0,1.506-.777A4.116,4.116,0,0,0,1160.555,669.17Z" fill="#fff"/>
              <path id="Path_18748" data-name="Path 18748" d="M1166.415,673.744H1164.4v-12.75h2.017Z" fill="#fff"/>
              <path id="Path_18749" data-name="Path 18749" d="M1168.233,669.17a5.294,5.294,0,0,1,.523-2.378,3.819,3.819,0,0,1,1.47-1.627,4.136,4.136,0,0,1,2.174-.568,3.916,3.916,0,0,1,2.951,1.171,4.6,4.6,0,0,1,1.224,3.1l.009.474a5.352,5.352,0,0,1-.511,2.374,3.784,3.784,0,0,1-1.461,1.619,4.175,4.175,0,0,1-2.2.572,3.9,3.9,0,0,1-3.043-1.265,4.849,4.849,0,0,1-1.141-3.375Zm2.017.175a3.622,3.622,0,0,0,.573,2.171,1.864,1.864,0,0,0,1.594.784,1.841,1.841,0,0,0,1.589-.8,3.991,3.991,0,0,0,.569-2.333,3.566,3.566,0,0,0-.586-2.158,1.972,1.972,0,0,0-3.158-.012A3.923,3.923,0,0,0,1170.25,669.345Z" fill="#fff"/>
              <path id="Path_18750" data-name="Path 18750" d="M1183.656,673.744a3.091,3.091,0,0,1-.232-.838,3.144,3.144,0,0,1-2.358,1,3.176,3.176,0,0,1-2.208-.771,2.473,2.473,0,0,1-.855-1.91,2.55,2.55,0,0,1,1.066-2.2,5.18,5.18,0,0,1,3.051-.767h1.237v-.59a1.567,1.567,0,0,0-.39-1.116,1.543,1.543,0,0,0-1.187-.419,1.773,1.773,0,0,0-1.129.344,1.063,1.063,0,0,0-.44.876h-2.017a2.233,2.233,0,0,1,.49-1.382,3.259,3.259,0,0,1,1.332-1.009,4.688,4.688,0,0,1,1.88-.365,3.766,3.766,0,0,1,2.515.793,2.824,2.824,0,0,1,.963,2.228v4.051a4.583,4.583,0,0,0,.341,1.935v.14Zm-2.217-1.453a2.3,2.3,0,0,0,1.125-.29,1.936,1.936,0,0,0,.793-.78v-1.694h-1.087a2.962,2.962,0,0,0-1.685.391,1.261,1.261,0,0,0-.564,1.1,1.175,1.175,0,0,0,.385.926A1.492,1.492,0,0,0,1181.439,672.291Z" fill="#fff"/>
              <path id="Path_18751" data-name="Path 18751" d="M1187.109,669.188a5.342,5.342,0,0,1,.963-3.334,3.085,3.085,0,0,1,2.581-1.257,2.932,2.932,0,0,1,2.308,1v-4.6h2.018v12.75h-1.827l-.1-.93a2.973,2.973,0,0,1-2.416,1.1,3.073,3.073,0,0,1-2.553-1.269A5.546,5.546,0,0,1,1187.109,669.188Zm2.017.173a3.745,3.745,0,0,0,.527,2.138,1.711,1.711,0,0,0,1.5.768,1.905,1.905,0,0,0,1.81-1.105v-3.834a1.875,1.875,0,0,0-1.793-1.08,1.726,1.726,0,0,0-1.511.776A4.177,4.177,0,0,0,1189.126,669.361Z" fill="#fff"/>
            </g>
          </g>
          <g id="Group_5917" data-name="Group 5917">
            <g id="Group_5912" data-name="Group 5912" transform="translate(359)">
              <g transform="matrix(1, 0, 0, 1, -289, 113)" filter="url(#Ellipse_418-2)">
                <circle id="Ellipse_418-5" data-name="Ellipse 418" cx="59" cy="59" r="59" transform="translate(396 195)" fill="#fff"/>
              </g>
              <g transform="matrix(1, 0, 0, 1, -289, 113)" filter="url(#Ellipse_1-2)">
                <circle id="Ellipse_1-5" data-name="Ellipse 1" cx="56" cy="56" r="56" transform="translate(399 198)" fill="#ffc40c"/>
              </g>
            </g>
            <g id="Group_5909" data-name="Group 5909" transform="translate(-157.236 -31.449)">
              <path id="Path_18731" data-name="Path 18731" d="M675.06,420.95a3.867,3.867,0,0,0,1.93-.524l11.913-6.872a3.958,3.958,0,0,0,1.411-1.411l0,0a3.882,3.882,0,0,0-1.416-5.286l-11.917-6.874a3.9,3.9,0,0,0-4.66.613,3.846,3.846,0,0,0-1.133,2.737v13.75a3.845,3.845,0,0,0,.513,1.928A3.885,3.885,0,0,0,675.06,420.95Z" fill="#fff"/>
              <path id="Path_18732" data-name="Path 18732" d="M711.6,376.225l-6.155-7.254a2.138,2.138,0,0,0-1.408-.7l-.066-.008H703.9a2,2,0,0,0-1.529.729l-5.968,7.253a2,2,0,1,0,3.09,2.541l2.367-2.877v47.505a3.034,3.034,0,0,1-3.031,3.032H658.279a3.036,3.036,0,0,1-3.032-3.032V400.449a2,2,0,0,0-4,0v22.968a7.04,7.04,0,0,0,7.032,7.032h40.554a7.04,7.04,0,0,0,7.031-7.032V375.649l2.685,3.164a2,2,0,0,0,3.05-2.588Z" fill="#fff"/>
            </g>
          </g>
        </g>
        <g id="Group_5923" data-name="Group 5923">
          <g id="Share_with_the_World" data-name="Share with the World" transform="translate(-645.195 -223.994)" style="isolation: isolate">
            <g id="Group_5916" data-name="Group 5916" style="isolation: isolate">
              <path id="Path_18752" data-name="Path 18752" d="M946.129,873.631a1.462,1.462,0,0,0-.56-1.229,6.77,6.77,0,0,0-2.021-.871,9.749,9.749,0,0,1-2.324-.979,3.1,3.1,0,0,1-1.653-2.706,2.948,2.948,0,0,1,1.192-2.408,4.825,4.825,0,0,1,3.091-.946,5.222,5.222,0,0,1,2.25.465,3.686,3.686,0,0,1,1.552,1.324,3.389,3.389,0,0,1,.565,1.9h-2.092a1.9,1.9,0,0,0-.593-1.482,2.456,2.456,0,0,0-1.7-.535,2.555,2.555,0,0,0-1.6.44,1.465,1.465,0,0,0-.568,1.229,1.323,1.323,0,0,0,.614,1.107,7.073,7.073,0,0,0,2.026.864,9.244,9.244,0,0,1,2.265.955,3.6,3.6,0,0,1,1.254,1.228,3.2,3.2,0,0,1,.4,1.623,2.874,2.874,0,0,1-1.158,2.4,5.025,5.025,0,0,1-3.141.892,5.908,5.908,0,0,1-2.411-.485,4.044,4.044,0,0,1-1.71-1.341,3.333,3.333,0,0,1-.611-1.992h2.1a1.955,1.955,0,0,0,.681,1.594,2.983,2.983,0,0,0,1.951.564,2.589,2.589,0,0,0,1.647-.444A1.434,1.434,0,0,0,946.129,873.631Z" fill="#fff"/>
              <path id="Path_18753" data-name="Path 18753" d="M951.865,868.742a3.157,3.157,0,0,1,2.5-1.145q2.873,0,2.914,3.278v5.869H955.26V870.95a1.768,1.768,0,0,0-.4-1.315,1.642,1.642,0,0,0-1.182-.387,1.943,1.943,0,0,0-1.81,1.08v6.416h-2.017v-12.75h2.017Z" fill="#fff"/>
              <path id="Path_18754" data-name="Path 18754" d="M964.682,876.744a1.309,1.309,0,1,0-2.59.166,3.173,3.173,0,0,1-2.208-.771,2.471,2.471,0,0,1-.856-1.91,2.55,2.55,0,0,1,1.067-2.2,5.178,5.178,0,0,1,3.051-.767h1.237v-.59a1.568,1.568,0,0,0-.391-1.116,1.542,1.542,0,0,0-1.186-.419,1.773,1.773,0,0,0-1.129.344,1.064,1.064,0,0,0-.441.876H959.22a2.238,2.238,0,0,1,.489-1.382,3.259,3.259,0,0,1,1.332-1.009,4.693,4.693,0,0,1,1.881-.365,3.766,3.766,0,0,1,2.515.793,2.824,2.824,0,0,1,.962,2.228v4.051a4.6,4.6,0,0,0,.341,1.935v.14Zm-2.217-1.453a2.306,2.306,0,0,0,1.125-.29,1.948,1.948,0,0,0,.793-.78v-1.694h-1.088a2.964,2.964,0,0,0-1.685.391,1.261,1.261,0,0,0-.564,1.1,1.176,1.176,0,0,0,.386.926A1.489,1.489,0,0,0,962.465,875.291Z" fill="#fff"/>
              <path id="Path_18755" data-name="Path 18755" d="M973.215,869.6a5.147,5.147,0,0,0-.822-.066,1.852,1.852,0,0,0-1.868,1.063v6.142h-2.017v-8.981h1.926l.049,1.005a2.272,2.272,0,0,1,2.026-1.171,1.9,1.9,0,0,1,.714.116Z" fill="#fff"/>
              <path id="Path_18756" data-name="Path 18756" d="M978.286,876.91a4.169,4.169,0,0,1-3.108-1.208,4.381,4.381,0,0,1-1.192-3.216v-.25a5.37,5.37,0,0,1,.52-2.4,3.949,3.949,0,0,1,1.456-1.648,3.854,3.854,0,0,1,2.092-.589,3.521,3.521,0,0,1,2.835,1.171,4.942,4.942,0,0,1,1,3.311v.814h-5.868a2.688,2.688,0,0,0,.743,1.759,2.225,2.225,0,0,0,1.638.648,2.733,2.733,0,0,0,2.258-1.12l1.088,1.037a3.632,3.632,0,0,1-1.44,1.249A4.514,4.514,0,0,1,978.286,876.91Zm-.24-7.695a1.7,1.7,0,0,0-1.341.582,3,3,0,0,0-.651,1.618H979.9v-.149a2.443,2.443,0,0,0-.539-1.532A1.688,1.688,0,0,0,978.046,869.215Z" fill="#fff"/>
              <path id="Path_18757" data-name="Path 18757" d="M995.577,873.963l1.428-6.2h1.967l-2.449,8.981h-1.66l-1.926-6.168-1.892,6.168h-1.66l-2.457-8.981H988.9l1.453,6.133,1.842-6.133h1.519Z" fill="#fff"/>
              <path id="Path_18758" data-name="Path 18758" d="M1000.325,865.43a1.072,1.072,0,0,1,.294-.772,1.114,1.114,0,0,1,.843-.306,1.128,1.128,0,0,1,.847.306,1.063,1.063,0,0,1,.3.772,1.038,1.038,0,0,1-.3.759,1.134,1.134,0,0,1-.847.3,1.12,1.12,0,0,1-.843-.3A1.046,1.046,0,0,1,1000.325,865.43Zm2.142,11.314h-2.018v-8.981h2.018Z" fill="#fff"/>
              <path id="Path_18759" data-name="Path 18759" d="M1007.189,865.58v2.183h1.586v1.494h-1.586v5.014a1.105,1.105,0,0,0,.2.743.939.939,0,0,0,.725.228,3.075,3.075,0,0,0,.706-.084v1.561a4.943,4.943,0,0,1-1.328.191q-2.325,0-2.324-2.564v-5.089H1003.7v-1.494h1.478V865.58Z" fill="#fff"/>
              <path id="Path_18760" data-name="Path 18760" d="M1012.3,868.742a3.159,3.159,0,0,1,2.5-1.145q2.871,0,2.913,3.278v5.869H1015.7V870.95a1.773,1.773,0,0,0-.4-1.315,1.641,1.641,0,0,0-1.183-.387,1.942,1.942,0,0,0-1.809,1.08v6.416h-2.017v-12.75h2.017Z" fill="#fff"/>
              <path id="Path_18761" data-name="Path 18761" d="M1026.514,865.58v2.183h1.586v1.494h-1.586v5.014a1.105,1.105,0,0,0,.2.743.94.94,0,0,0,.725.228,3.075,3.075,0,0,0,.706-.084v1.561a4.944,4.944,0,0,1-1.328.191q-2.325,0-2.324-2.564v-5.089h-1.477v-1.494h1.477V865.58Z" fill="#fff"/>
              <path id="Path_18762" data-name="Path 18762" d="M1031.627,868.742a3.159,3.159,0,0,1,2.5-1.145q2.871,0,2.913,3.278v5.869h-2.017V870.95a1.769,1.769,0,0,0-.4-1.315,1.639,1.639,0,0,0-1.182-.387,1.943,1.943,0,0,0-1.81,1.08v6.416h-2.017v-12.75h2.017Z" fill="#fff"/>
              <path id="Path_18763" data-name="Path 18763" d="M1043.032,876.91a4.169,4.169,0,0,1-3.108-1.208,4.381,4.381,0,0,1-1.192-3.216v-.25a5.371,5.371,0,0,1,.52-2.4,3.95,3.95,0,0,1,1.456-1.648,3.853,3.853,0,0,1,2.092-.589,3.521,3.521,0,0,1,2.835,1.171,4.943,4.943,0,0,1,1,3.311v.814h-5.868a2.688,2.688,0,0,0,.743,1.759,2.225,2.225,0,0,0,1.638.648,2.733,2.733,0,0,0,2.258-1.12l1.088,1.037a3.632,3.632,0,0,1-1.44,1.249A4.514,4.514,0,0,1,1043.032,876.91Zm-.24-7.695a1.7,1.7,0,0,0-1.341.582,3.012,3.012,0,0,0-.651,1.618h3.843v-.149a2.455,2.455,0,0,0-.539-1.532A1.691,1.691,0,0,0,1042.792,869.215Z" fill="#fff"/>
              <path id="Path_18764" data-name="Path 18764" d="M1062.107,873.756l1.86-9.1h2.084l-2.789,12.086h-2.009l-2.3-8.824-2.349,8.824h-2.017l-2.789-12.086h2.084l1.876,9.081,2.307-9.081h1.76Z" fill="#fff"/>
              <path id="Path_18765" data-name="Path 18765" d="M1066.756,872.17a5.307,5.307,0,0,1,.523-2.378,3.823,3.823,0,0,1,1.469-1.627,4.141,4.141,0,0,1,2.175-.568,3.917,3.917,0,0,1,2.951,1.171,4.6,4.6,0,0,1,1.225,3.1l.007.474a5.351,5.351,0,0,1-.509,2.374,3.791,3.791,0,0,1-1.461,1.619,4.181,4.181,0,0,1-2.2.572,3.9,3.9,0,0,1-3.042-1.265,4.854,4.854,0,0,1-1.141-3.375Zm2.017.175a3.622,3.622,0,0,0,.573,2.171,1.864,1.864,0,0,0,1.593.784,1.843,1.843,0,0,0,1.59-.8,4,4,0,0,0,.569-2.333,3.573,3.573,0,0,0-.585-2.158,1.972,1.972,0,0,0-3.159-.012A3.923,3.923,0,0,0,1068.773,872.345Z" fill="#fff"/>
              <path id="Path_18766" data-name="Path 18766" d="M1081.515,869.6a5.138,5.138,0,0,0-.822-.066,1.852,1.852,0,0,0-1.868,1.063v6.142h-2.016v-8.981h1.925l.05,1.005a2.27,2.27,0,0,1,2.026-1.171,1.894,1.894,0,0,1,.713.116Z" fill="#fff"/>
              <path id="Path_18767" data-name="Path 18767" d="M1084.935,876.744h-2.017v-12.75h2.017Z" fill="#fff"/>
              <path id="Path_18768" data-name="Path 18768" d="M1086.753,872.188a5.335,5.335,0,0,1,.963-3.334,3.084,3.084,0,0,1,2.581-1.257,2.928,2.928,0,0,1,2.307,1v-4.6h2.018v12.75H1092.8l-.1-.93a2.972,2.972,0,0,1-2.416,1.1,3.071,3.071,0,0,1-2.552-1.269A5.539,5.539,0,0,1,1086.753,872.188Zm2.017.173a3.736,3.736,0,0,0,.527,2.138,1.709,1.709,0,0,0,1.5.768,1.9,1.9,0,0,0,1.809-1.105v-3.834a1.873,1.873,0,0,0-1.792-1.08,1.724,1.724,0,0,0-1.511.776A4.168,4.168,0,0,0,1088.77,872.361Z" fill="#fff"/>
            </g>
          </g>
          <g id="Group_5919" data-name="Group 5919">
            <g id="Group_5913" data-name="Group 5913" transform="translate(206 200)">
              <g transform="matrix(1, 0, 0, 1, -136, -87)" filter="url(#Ellipse_418-3)">
                <circle id="Ellipse_418-6" data-name="Ellipse 418" cx="59" cy="59" r="59" transform="translate(243 395)" fill="#fff"/>
              </g>
              <g transform="matrix(1, 0, 0, 1, -136, -87)" filter="url(#Ellipse_1-3)">
                <circle id="Ellipse_1-6" data-name="Ellipse 1" cx="56" cy="56" r="56" transform="translate(246 398)" fill="#ffc40c"/>
              </g>
            </g>
            <path id="Path_18733" data-name="Path 18733" d="M544.16,620.45a5.994,5.994,0,0,0-4.019,1.544l-20.41-12.661,3.081-1.777a3.921,3.921,0,0,0,1.414-1.414v0a3.875,3.875,0,0,0-1.417-5.286l-4.755-2.743,7.126-14.735a6.756,6.756,0,0,0,.979.074,7,7,0,0,0,4.956-11.938,6.908,6.908,0,0,0-1.62-1.222,7.067,7.067,0,0,0-6.678,0,6.858,6.858,0,0,0-1.6,1.209,7,7,0,0,0,.333,10.213l-6.964,14.391-3.688-2.128a3.906,3.906,0,0,0-4.661.614,3.845,3.845,0,0,0-1.133,2.737v13.75a3.865,3.865,0,0,0,3.87,3.87,3.854,3.854,0,0,0,1.93-.524l4.891-2.821,22.441,13.913a6.184,6.184,0,0,0-.072.932,6,6,0,1,0,6-6Z" transform="translate(-155.629 -33.951)" fill="#fff"/>
          </g>
        </g>
      </g>
      <g id="Group_5929" data-name="Group 5929" transform="translate(-904.996 -864.537)">
        <g id="Group_5927" data-name="Group 5927" style="isolation: isolate">
          <path id="Path_18795" data-name="Path 18795" d="M1019.43,1066.562h-4.688v-22.75h4.688Z" fill="#fff"/>
          <path id="Path_18796" data-name="Path 18796" d="M1028.883,1045.5v4.156h2.89v3.313h-2.89v8.437a2.012,2.012,0,0,0,.359,1.344,1.8,1.8,0,0,0,1.375.406,7.191,7.191,0,0,0,1.328-.109v3.422a9.32,9.32,0,0,1-2.734.406q-4.751,0-4.844-4.8v-9.109H1021.9v-3.313h2.469V1045.5Z" fill="#fff"/>
          <path id="Path_18797" data-name="Path 18797" d="M1036.852,1044.858l-.454,6.313h-2.859v-8.609h3.313Z" fill="#fff"/>
          <path id="Path_18798" data-name="Path 18798" d="M1047.18,1061.89a1.456,1.456,0,0,0-.821-1.305,9.325,9.325,0,0,0-2.632-.852q-6.033-1.265-6.032-5.125a4.641,4.641,0,0,1,1.868-3.757,7.53,7.53,0,0,1,4.882-1.508,8.117,8.117,0,0,1,5.149,1.515,4.779,4.779,0,0,1,1.929,3.938h-4.515a2.189,2.189,0,0,0-.625-1.6,2.647,2.647,0,0,0-1.953-.632,2.7,2.7,0,0,0-1.766.515,1.627,1.627,0,0,0-.625,1.313,1.389,1.389,0,0,0,.711,1.211,7.3,7.3,0,0,0,2.4.8,19.761,19.761,0,0,1,2.844.758q3.578,1.313,3.578,4.547a4.411,4.411,0,0,1-1.984,3.742,8.561,8.561,0,0,1-5.125,1.43,8.938,8.938,0,0,1-3.773-.758,6.316,6.316,0,0,1-2.586-2.078,4.827,4.827,0,0,1-.938-2.851h4.281a2.35,2.35,0,0,0,.891,1.843,3.526,3.526,0,0,0,2.219.641,3.275,3.275,0,0,0,1.961-.492A1.533,1.533,0,0,0,1047.18,1061.89Z" fill="#fff"/>
          <path id="Path_18799" data-name="Path 18799" d="M1070.227,1066.874a8.3,8.3,0,0,1-6.055-2.281,8.106,8.106,0,0,1-2.336-6.078v-.438a10.222,10.222,0,0,1,.984-4.555,7.238,7.238,0,0,1,2.789-3.093,7.832,7.832,0,0,1,4.118-1.086,7.019,7.019,0,0,1,5.461,2.187,8.892,8.892,0,0,1,1.992,6.2v1.844h-10.766a4.194,4.194,0,0,0,1.32,2.656,3.99,3.99,0,0,0,2.789,1,4.875,4.875,0,0,0,4.079-1.89l2.218,2.484a6.763,6.763,0,0,1-2.75,2.242A9.025,9.025,0,0,1,1070.227,1066.874Zm-.516-13.891a2.82,2.82,0,0,0-2.18.911,4.712,4.712,0,0,0-1.07,2.6h6.281v-.361a3.364,3.364,0,0,0-.812-2.33A2.913,2.913,0,0,0,1069.711,1052.983Z" fill="#fff"/>
          <path id="Path_18800" data-name="Path 18800" d="M1089.539,1066.562a5.014,5.014,0,0,1-.453-1.516,5.464,5.464,0,0,1-4.266,1.828,6,6,0,0,1-4.117-1.437,4.621,4.621,0,0,1-1.633-3.625,4.778,4.778,0,0,1,1.993-4.125,9.835,9.835,0,0,1,5.757-1.454h2.078v-.968a2.788,2.788,0,0,0-.6-1.875,2.366,2.366,0,0,0-1.9-.7,2.693,2.693,0,0,0-1.789.546,1.862,1.862,0,0,0-.648,1.5h-4.516a4.533,4.533,0,0,1,.907-2.718,5.986,5.986,0,0,1,2.562-1.961,9.339,9.339,0,0,1,3.719-.711,7.38,7.38,0,0,1,4.961,1.57,5.5,5.5,0,0,1,1.836,4.414v7.328a8.05,8.05,0,0,0,.672,3.641v.266Zm-3.734-3.141a3.9,3.9,0,0,0,1.843-.445,2.924,2.924,0,0,0,1.25-1.2v-2.906h-1.687q-3.392,0-3.609,2.344l-.016.265a1.8,1.8,0,0,0,.594,1.391A2.3,2.3,0,0,0,1085.805,1063.421Z" fill="#fff"/>
          <path id="Path_18801" data-name="Path 18801" d="M1106.055,1061.89a1.456,1.456,0,0,0-.821-1.305,9.325,9.325,0,0,0-2.632-.852q-6.033-1.265-6.032-5.125a4.641,4.641,0,0,1,1.868-3.757,7.53,7.53,0,0,1,4.882-1.508,8.117,8.117,0,0,1,5.149,1.515,4.779,4.779,0,0,1,1.929,3.938h-4.515a2.189,2.189,0,0,0-.625-1.6,2.647,2.647,0,0,0-1.953-.632,2.7,2.7,0,0,0-1.766.515,1.627,1.627,0,0,0-.625,1.313,1.389,1.389,0,0,0,.711,1.211,7.3,7.3,0,0,0,2.4.8,19.761,19.761,0,0,1,2.844.758q3.578,1.313,3.578,4.547a4.411,4.411,0,0,1-1.984,3.742,8.561,8.561,0,0,1-5.125,1.43,8.938,8.938,0,0,1-3.773-.758,6.316,6.316,0,0,1-2.586-2.078,4.827,4.827,0,0,1-.938-2.851h4.281a2.35,2.35,0,0,0,.891,1.843,3.526,3.526,0,0,0,2.219.641,3.275,3.275,0,0,0,1.961-.492A1.533,1.533,0,0,0,1106.055,1061.89Z" fill="#fff"/>
          <path id="Path_18802" data-name="Path 18802" d="M1113.32,1045.28a2.227,2.227,0,0,1,.68-1.672,2.929,2.929,0,0,1,3.695,0,2.386,2.386,0,0,1-.007,3.36,2.9,2.9,0,0,1-3.672,0A2.217,2.217,0,0,1,1113.32,1045.28Zm4.8,21.282h-4.531v-16.907h4.531Z" fill="#fff"/>
          <path id="Path_18803" data-name="Path 18803" d="M1129.617,1066.874a8.3,8.3,0,0,1-6.054-2.281,8.106,8.106,0,0,1-2.336-6.078v-.438a10.222,10.222,0,0,1,.984-4.555,7.23,7.23,0,0,1,2.789-3.093,7.826,7.826,0,0,1,4.117-1.086,7.016,7.016,0,0,1,5.461,2.187,8.892,8.892,0,0,1,1.992,6.2v1.844h-10.765a4.187,4.187,0,0,0,1.32,2.656,3.989,3.989,0,0,0,2.789,1,4.872,4.872,0,0,0,4.078-1.89l2.219,2.484a6.779,6.779,0,0,1-2.75,2.242A9.031,9.031,0,0,1,1129.617,1066.874Zm-.515-13.891a2.82,2.82,0,0,0-2.18.911,4.706,4.706,0,0,0-1.07,2.6h6.281v-.361a3.364,3.364,0,0,0-.813-2.33A2.908,2.908,0,0,0,1129.1,1052.983Z" fill="#fff"/>
          <path id="Path_18804" data-name="Path 18804" d="M1148.633,1053.89a12.327,12.327,0,0,0-1.625-.125q-2.564,0-3.36,1.734v11.063h-4.515v-16.907h4.265l.125,2.016a4.186,4.186,0,0,1,3.766-2.328,4.74,4.74,0,0,1,1.406.2Z" fill="#fff"/>
        </g>
        <g id="Group_5928" data-name="Group 5928" style="isolation: isolate">
          <path id="Path_18805" data-name="Path 18805" d="M1019.555,1083.5v4.156h2.89v3.313h-2.89v8.437a2.012,2.012,0,0,0,.359,1.344,1.8,1.8,0,0,0,1.375.406,7.2,7.2,0,0,0,1.328-.109v3.422a9.326,9.326,0,0,1-2.734.406q-4.75,0-4.844-4.8v-9.109h-2.469v-3.313h2.469V1083.5Z" fill="#fff"/>
          <path id="Path_18806" data-name="Path 18806" d="M1029.367,1089.5a5.636,5.636,0,0,1,4.516-2.156q5.5,0,5.578,6.39v10.829h-4.516v-10.7a3.145,3.145,0,0,0-.625-2.148,2.681,2.681,0,0,0-2.078-.695,3.073,3.073,0,0,0-2.875,1.531v12.016h-4.515v-24h4.515Z" fill="#fff"/>
          <path id="Path_18807" data-name="Path 18807" d="M1052.664,1104.562a5.014,5.014,0,0,1-.453-1.516,5.464,5.464,0,0,1-4.266,1.828,6,6,0,0,1-4.117-1.437,4.621,4.621,0,0,1-1.633-3.625,4.778,4.778,0,0,1,1.993-4.125,9.835,9.835,0,0,1,5.757-1.454h2.078v-.968a2.788,2.788,0,0,0-.6-1.875,2.366,2.366,0,0,0-1.9-.7,2.693,2.693,0,0,0-1.789.546,1.862,1.862,0,0,0-.648,1.5h-4.516a4.533,4.533,0,0,1,.907-2.718,5.986,5.986,0,0,1,2.562-1.961,9.339,9.339,0,0,1,3.719-.711,7.38,7.38,0,0,1,4.961,1.57,5.5,5.5,0,0,1,1.836,4.414v7.328a8.05,8.05,0,0,0,.672,3.641v.266Zm-3.734-3.141a3.9,3.9,0,0,0,1.843-.445,2.924,2.924,0,0,0,1.25-1.2v-2.906h-1.687q-3.392,0-3.609,2.344l-.016.265a1.8,1.8,0,0,0,.594,1.391A2.3,2.3,0,0,0,1048.93,1101.421Z" fill="#fff"/>
          <path id="Path_18808" data-name="Path 18808" d="M1064.18,1087.655l.14,1.953a5.906,5.906,0,0,1,4.86-2.265,4.907,4.907,0,0,1,4,1.578,7.366,7.366,0,0,1,1.343,4.719v10.922h-4.515v-10.813a2.935,2.935,0,0,0-.625-2.086,2.8,2.8,0,0,0-2.078-.648,3.106,3.106,0,0,0-2.86,1.625v11.922h-4.515v-16.907Z" fill="#fff"/>
          <path id="Path_18809" data-name="Path 18809" d="M1092.227,1098.171l3.125-10.516h4.843l-6.8,19.532-.375.89a5.154,5.154,0,0,1-5,3.313,7.139,7.139,0,0,1-2-.3v-3.422l.688.016a3.721,3.721,0,0,0,1.914-.391,2.571,2.571,0,0,0,.992-1.3l.531-1.391-5.921-16.953h4.859Z" fill="#fff"/>
          <path id="Path_18810" data-name="Path 18810" d="M1101.039,1095.952a10.007,10.007,0,0,1,.969-4.484,7.082,7.082,0,0,1,2.789-3.047,8.132,8.132,0,0,1,4.226-1.078,7.7,7.7,0,0,1,5.586,2.094,8.4,8.4,0,0,1,2.414,5.687l.032,1.156a8.839,8.839,0,0,1-2.172,6.242,8.417,8.417,0,0,1-11.664.008,8.991,8.991,0,0,1-2.18-6.375Zm4.516.32a6.311,6.311,0,0,0,.906,3.686,3.256,3.256,0,0,0,5.156.016,6.92,6.92,0,0,0,.922-4.03,6.262,6.262,0,0,0-.922-3.662,3,3,0,0,0-2.594-1.3,2.947,2.947,0,0,0-2.562,1.291A7.027,7.027,0,0,0,1105.555,1096.272Z" fill="#fff"/>
          <path id="Path_18811" data-name="Path 18811" d="M1129.961,1102.843a5.663,5.663,0,0,1-4.625,2.031,5.337,5.337,0,0,1-4.148-1.562,6.661,6.661,0,0,1-1.461-4.579v-11.078h4.515v10.935q0,2.645,2.406,2.643a3.261,3.261,0,0,0,3.157-1.6v-11.983h4.531v16.907h-4.25Z" fill="#fff"/>
          <path id="Path_18812" data-name="Path 18812" d="M1151.117,1083.5v4.156h2.891v3.313h-2.891v8.437a2.005,2.005,0,0,0,.36,1.344,1.8,1.8,0,0,0,1.375.406,7.2,7.2,0,0,0,1.328-.109v3.422a9.328,9.328,0,0,1-2.735.406q-4.75,0-4.843-4.8v-9.109h-2.469v-3.313h2.469V1083.5Z" fill="#fff"/>
          <path id="Path_18813" data-name="Path 18813" d="M1160.93,1089.5a5.635,5.635,0,0,1,4.515-2.156q5.5,0,5.578,6.39v10.829h-4.515v-10.7a3.146,3.146,0,0,0-.625-2.148,2.683,2.683,0,0,0-2.078-.695,3.071,3.071,0,0,0-2.875,1.531v12.016h-4.516v-24h4.516Z" fill="#fff"/>
          <path id="Path_18814" data-name="Path 18814" d="M1173.727,1095.952a10.021,10.021,0,0,1,.968-4.484,7.1,7.1,0,0,1,2.789-3.047,8.133,8.133,0,0,1,4.227-1.078,7.7,7.7,0,0,1,5.586,2.094,8.409,8.409,0,0,1,2.414,5.687l.031,1.156a8.834,8.834,0,0,1-2.172,6.242,8.417,8.417,0,0,1-11.664.008,8.99,8.99,0,0,1-2.179-6.375Zm4.515.32a6.32,6.32,0,0,0,.906,3.686,3.257,3.257,0,0,0,5.157.016,6.921,6.921,0,0,0,.922-4.03,6.263,6.263,0,0,0-.922-3.662,3,3,0,0,0-2.594-1.3,2.949,2.949,0,0,0-2.563,1.291A7.036,7.036,0,0,0,1178.242,1096.272Z" fill="#fff"/>
          <path id="Path_18815" data-name="Path 18815" d="M1202.648,1102.843a5.663,5.663,0,0,1-4.625,2.031,5.339,5.339,0,0,1-4.148-1.562,6.672,6.672,0,0,1-1.461-4.579v-11.078h4.516v10.935q0,2.645,2.406,2.643a3.259,3.259,0,0,0,3.156-1.6v-11.983h4.531v16.907h-4.25Z" fill="#fff"/>
          <path id="Path_18816" data-name="Path 18816" d="M1209.773,1095.983a9.911,9.911,0,0,1,1.852-6.265,6,6,0,0,1,4.992-2.375,5.263,5.263,0,0,1,4.328,1.906l.188-1.594h4.094V1104a7.222,7.222,0,0,1-1.008,3.859,6.471,6.471,0,0,1-2.836,2.5,9.973,9.973,0,0,1-4.281.86,9.274,9.274,0,0,1-3.625-.742,6.432,6.432,0,0,1-2.672-1.914l2-2.75a5.292,5.292,0,0,0,4.093,1.89,3.871,3.871,0,0,0,2.8-.961,3.606,3.606,0,0,0,1-2.726v-.907a5.221,5.221,0,0,1-4.109,1.766,5.984,5.984,0,0,1-4.93-2.383,9.9,9.9,0,0,1-1.883-6.32Zm4.516.336a6.165,6.165,0,0,0,.922,3.608,2.931,2.931,0,0,0,2.531,1.306,3.135,3.135,0,0,0,2.953-1.548v-7.122a3.129,3.129,0,0,0-2.922-1.548,2.948,2.948,0,0,0-2.554,1.33A6.95,6.95,0,0,0,1214.289,1096.319Z" fill="#fff"/>
          <path id="Path_18817" data-name="Path 18817" d="M1233.1,1089.5a5.635,5.635,0,0,1,4.515-2.156q5.5,0,5.578,6.39v10.829h-4.515v-10.7a3.146,3.146,0,0,0-.625-2.148,2.683,2.683,0,0,0-2.078-.695,3.071,3.071,0,0,0-2.875,1.531v12.016h-4.516v-24h4.516Z" fill="#fff"/>
          <path id="Path_18818" data-name="Path 18818" d="M1252.008,1083.5v4.156h2.89v3.313h-2.89v8.437a2.012,2.012,0,0,0,.359,1.344,1.8,1.8,0,0,0,1.375.406,7.191,7.191,0,0,0,1.328-.109v3.422a9.32,9.32,0,0,1-2.734.406q-4.751,0-4.844-4.8v-9.109h-2.469v-3.313h2.469V1083.5Z" fill="#fff"/>
          <path id="Path_18819" data-name="Path 18819" d="M1260.133,1100.046a2.536,2.536,0,0,1,1.836.672,2.454,2.454,0,0,1,0,3.422,2.536,2.536,0,0,1-1.836.672,2.51,2.51,0,0,1-1.82-.672,2.267,2.267,0,0,1-.7-1.7,2.291,2.291,0,0,1,.7-1.711A2.487,2.487,0,0,1,1260.133,1100.046Zm1.875-2.469h-3.75l-.531-15.765h4.812Z" fill="#fff"/>
        </g>
      </g>
    </g>
  </g>
</svg>
