<svg xmlns="http://www.w3.org/2000/svg" xmlns:xlink="http://www.w3.org/1999/xlink" width="522.443" height="522" viewBox="0 0 522.443 522">
  <defs>
    <radialGradient id="radial-gradient" cx="0.899" cy="0.366" r="1.072" gradientTransform="translate(-0.004 0.009) rotate(-0.636)" gradientUnits="objectBoundingBox">
      <stop offset="0" stop-color="#c287f3"/>
      <stop offset="1" stop-color="#7322b7"/>
    </radialGradient>
  </defs>
  <g id="login_2" data-name="login 2" transform="translate(-110.557 -151)">
    <rect id="Rectangle_3529" data-name="Rectangle 3529" width="522" height="522" transform="translate(111 151)" opacity="0" fill="url(#radial-gradient)"/>
    <g id="login_2-2" data-name="login 2">
      <g id="Way_of_teaching" data-name="Way of teaching" transform="translate(231.503 210.914)">
        <g id="Group_5074" data-name="Group 5074" transform="translate(0 0)">
          <g id="Group_5070" data-name="Group 5070" transform="translate(26.823 221.499)">
            <path id="Path_17112" data-name="Path 17112" d="M-626.955,1095.2c.495-1.731.742-2.991.495-3.777-.495-2.676-1.98-4.25-4.208-4.407a3.962,3.962,0,0,0-2.723.472V1090c0,.472-.248,8.971-.99,25.654q.743,3.777,5.941,3.305h.5c.247,0,.247,0,.247.157l-8.415,6.925c-4.7-1.416-7.425-3.462-8.415-6.3a28.274,28.274,0,0,1-.5-5.98l.248-24.4c0-3.148-.99-4.721-5.2-4.564a1.273,1.273,0,0,1-.742-.157l12.623-5.823a5.985,5.985,0,0,1,3.96,3.777c1.238-2.046,2.228-3.462,2.97-3.935a31.814,31.814,0,0,1,10.891,3.935c4.208,2.361,5.941,4.564,5.446,6.925Z" transform="translate(650.716 -1053.331)" fill="#f5f4f0"/>
            <path id="Path_17113" data-name="Path 17113" d="M-555.358,1091.33a20.951,20.951,0,0,1-2.722,1.416,38.614,38.614,0,0,0-14.356,12.591V1111q0,7.555,5.941,6.611a11.888,11.888,0,0,0,6.435-3.463l1.485-2.2c1.485-2.675.99-6.138-1.238-10.545l4.455,4.721v.158a8.686,8.686,0,0,1,.5,6.61c-1.238,4.407-5.2,8.656-11.633,12.749l-1.238.787-3.218-.945c-6.435-1.574-10.148-4.092-11.385-7.4a27.8,27.8,0,0,1-.5-6.139v-23.136q-.371-.236,0-.473l22.277-10.23a3.874,3.874,0,0,1,2.475,1.731q1.113,1.653,1.485,8.027a4.247,4.247,0,0,0,1.981,3.148Zm-12.375-4.092a3.586,3.586,0,0,0-2.475-.944,3.205,3.205,0,0,0-1.732,0c-.248,0-.5,0-.5.158v14.795a25.008,25.008,0,0,0,5.941-6.611C-566.5,1090.858-566.991,1088.339-567.733,1087.238Z" transform="translate(620.948 -1053.084)" fill="#f5f4f0"/>
            <path id="Path_17114" data-name="Path 17114" d="M-524.364,1117.929l-8.168,7.555a18.352,18.352,0,0,1-5.692-3.148v8.814c0,2.99,1.732,4.564,5.445,4.564a57.114,57.114,0,0,0-9.158,4.722l-7.178,4.564a42.214,42.214,0,0,1-22.029,6.3c-5.693,0-9.9-1.1-12.871-3.305,6.683,1.417,12.128,1.574,16.584.472,3.465-.787,8.415-3.62,14.851-8.342a5.374,5.374,0,0,0,1.238-.945l1.98-1.574a21.862,21.862,0,0,0,.5-5.194v-42.652c-.248-2.991-1.733-4.407-4.455-4.564a11.577,11.577,0,0,0-4.951.63.464.464,0,0,1,.248-.472,72.536,72.536,0,0,0,10.4-5.824,13.082,13.082,0,0,1,2.475-.157c3.218,0,5.693,1.26,6.931,3.777a43.939,43.939,0,0,0,7.92-4.879,10.616,10.616,0,0,1,2.228-.157c4.455,0,6.93,1.574,7.672,4.879a28.787,28.787,0,0,1,.248,7.083c0,2.991-.248,10.388-.742,21.877a3.4,3.4,0,0,0,1.485,1.889Zm-6.931-27.071a16.937,16.937,0,0,0-1.238-4.879,3.511,3.511,0,0,0-2.475-1.1,3.408,3.408,0,0,0-2.722.944c0,1.259-.5,3.935-.5,5.036l-.248,22.507c0,1.417,2.723,3.62,4.95,3.62a10.642,10.642,0,0,0,1.98-.315v-14.008c.248-2.991.248-4.25.248-3.935Z" transform="translate(621.386 -1053.084)" fill="#f5f4f0"/>
            <path id="Path_17115" data-name="Path 17115" d="M-434.762,1091.33a21,21,0,0,1-2.722,1.416,38.609,38.609,0,0,0-14.356,12.591V1111q0,7.555,5.94,6.611a11.89,11.89,0,0,0,6.436-3.463l1.485-2.2c1.485-2.675.99-6.138-1.238-10.545l4.455,4.721v.158a8.687,8.687,0,0,1,.495,6.61c-1.237,4.407-5.2,8.656-11.633,12.749l-1.238.787-3.218-.945c-6.435-1.574-10.148-4.092-11.385-7.4a27.805,27.805,0,0,1-.5-6.139v-23.136q-.371-.236,0-.473l22.277-10.23a3.873,3.873,0,0,1,2.475,1.731q1.114,1.653,1.485,8.027a4.246,4.246,0,0,0,1.98,3.148Zm-12.376-4.092a3.584,3.584,0,0,0-2.475-.944,3.2,3.2,0,0,0-1.732,0c-.248,0-.5,0-.5.158v14.795a25,25,0,0,0,5.94-6.611C-445.9,1090.858-446.4,1088.339-447.138,1087.238Z" transform="translate(567.919 -1053.084)" fill="#f5f4f0"/>
            <path id="Path_17116" data-name="Path 17116" d="M-380.495,1126.014c-4.7-1.416-7.425-3.62-8.416-6.453l-7.921,6.453c-5.692-1.889-8.663-4.879-8.91-9.129a14.288,14.288,0,0,0-.248-2.2V1099.73l2.475-1.26c-2.228-3.463-2.971-6.61-1.733-9.6s4.208-5.194,8.911-6.61a101.18,101.18,0,0,0,11.138-2.833c1.485-.629,2.475-.944,2.722-.787,3.218.63,4.95,4.407,4.7,11.332,0,.944-.247,9.443-.742,25.654.247,2.518,2.227,3.62,5.693,3.306h.742c.247,0,.247,0,.247.157Zm-8.663-38.718-6.931.944c-4.7,1.1-6.931,3.306-6.931,6.611a14.013,14.013,0,0,0,.5,2.99c4.208-2.518,8.663-5.666,13.366-6.767Zm-.248,26.442.248-20.618c-3.961,1.889-5.941,5.509-5.941,10.7v11.647h.247v.157c.248,2.518,2.228,3.62,5.694,3.306A26.615,26.615,0,0,1-389.405,1113.738Z" transform="translate(543.104 -1053.3)" fill="#f5f4f0"/>
            <path id="Path_17117" data-name="Path 17117" d="M-316.033,1058.312c0,1.574-1.485,3.3-4.7,5.351a58.54,58.54,0,0,0-6.683,4.879c-.248.157-.248.157-.248-.314-.248-.158-.248-.158-.248-.315-.248-.472-1.238-1.1-3.465-1.574l.247,7.4c.247,4.879,0,10.7-.247,17.155l-.248,4.879c.248,2.518,2.228,3.62,5.693,3.306h.743c.247,0,.247,0,.247.158l-8.415,6.925c-4.7-1.416-7.425-3.463-8.415-6.3a27.163,27.163,0,0,1-.5-5.98V1066.5h-1.238l-5.94.629a76.307,76.307,0,0,0,5.94-7.24q1.857-2.6,2.971-8.5t2.97-8.5q6.312-9.444,16.336-9.444a21.415,21.415,0,0,1,4.455.472c-7.673,1.259-12.376,3.777-13.861,7.4a16.351,16.351,0,0,0-.742,5.665v12.434c7.425.157,12.375-.787,15.1-2.676A3.5,3.5,0,0,1-316.033,1058.312Z" transform="translate(518.242 -1033.444)" fill="#f5f4f0"/>
          </g>
          <g id="Group_5071" data-name="Group 5071" transform="translate(0 149.134)">
            <path id="Path_17118" data-name="Path 17118" d="M-638.939,974.8l-8.168,7.555a18.359,18.359,0,0,1-5.692-3.148v8.814c0,2.99,1.732,4.565,5.445,4.565a57.091,57.091,0,0,0-9.158,4.721l-7.178,4.564a42.211,42.211,0,0,1-22.029,6.3c-5.693,0-9.9-1.1-12.871-3.305,6.684,1.417,12.129,1.574,16.584.472,3.465-.787,8.415-3.62,14.851-8.341a5.357,5.357,0,0,0,1.238-.944l1.98-1.574a21.859,21.859,0,0,0,.5-5.194V946.631c-.248-2.991-1.733-4.407-4.455-4.565a11.58,11.58,0,0,0-4.951.63.464.464,0,0,1,.248-.472,72.5,72.5,0,0,0,10.4-5.823,13.073,13.073,0,0,1,2.475-.157c3.218,0,5.693,1.259,6.931,3.777a43.968,43.968,0,0,0,7.921-4.879,10.6,10.6,0,0,1,2.227-.158c4.455,0,6.931,1.574,7.674,4.879a28.821,28.821,0,0,1,.247,7.083c0,2.99-.247,10.388-.742,21.877a3.4,3.4,0,0,0,1.485,1.889Zm-6.931-27.071a16.942,16.942,0,0,0-1.238-4.879,3.511,3.511,0,0,0-2.475-1.1,3.408,3.408,0,0,0-2.722.944c0,1.259-.5,3.935-.5,5.036l-.248,22.507c0,1.416,2.723,3.62,4.951,3.62a10.66,10.66,0,0,0,1.98-.315V959.537c.247-2.991.247-4.25.247-3.935Z" transform="translate(698.591 -909.959)" fill="#f5f4f0"/>
            <path id="Path_17119" data-name="Path 17119" d="M-560.414,952.072c.495-1.732.742-2.991.495-3.777-.495-2.676-1.98-4.25-4.207-4.407a3.966,3.966,0,0,0-2.724.472v2.518c0,.472-.247,8.971-.989,25.654q.743,3.778,5.94,3.306h.5c.247,0,.247,0,.247.157l-8.415,6.925c-4.7-1.416-7.425-3.463-8.415-6.3a28.289,28.289,0,0,1-.495-5.98l.247-24.4c0-3.148-.99-4.722-5.2-4.564a1.27,1.27,0,0,1-.742-.158l12.623-5.823a5.985,5.985,0,0,1,3.96,3.777c1.238-2.046,2.228-3.463,2.971-3.935a31.817,31.817,0,0,1,10.89,3.935c4.208,2.36,5.941,4.564,5.446,6.925Z" transform="translate(648.28 -910.206)" fill="#f5f4f0"/>
            <path id="Path_17120" data-name="Path 17120" d="M-491.093,982.889c-4.7-1.416-7.425-3.62-8.415-6.453l-7.921,6.453c-5.693-1.889-8.664-4.879-8.911-9.129a14.285,14.285,0,0,0-.248-2.2V956.605l2.475-1.259c-2.227-3.463-2.969-6.61-1.732-9.6s4.207-5.194,8.91-6.611A101.267,101.267,0,0,0-495.8,936.3c1.485-.629,2.475-.944,2.722-.787,3.218.63,4.951,4.407,4.7,11.332,0,.944-.248,9.443-.742,25.654.248,2.518,2.228,3.621,5.693,3.306h.742c.247,0,.247,0,.247.157Zm-8.663-38.718-6.93.945c-4.7,1.1-6.931,3.3-6.931,6.61a14.053,14.053,0,0,0,.5,2.99c4.208-2.518,8.663-5.666,13.366-6.768ZM-500,970.613l.247-20.618c-3.96,1.889-5.94,5.509-5.94,10.7v11.647h.248v.157c.248,2.518,2.228,3.621,5.692,3.306A26.668,26.668,0,0,1-500,970.613Z" transform="translate(618.56 -910.175)" fill="#f5f4f0"/>
            <path id="Path_17121" data-name="Path 17121" d="M-431.549,954.028c-2.228-1.1-3.218-3.306-3.465-6.611-.247-2.675-1.238-4.092-3.465-4.249a2.392,2.392,0,0,0-1.485,0,9.189,9.189,0,0,0-1.733.315v24.4q0,7.791,5.941,6.611a13.28,13.28,0,0,0,6.435-3.463l1.485-2.2c1.732-2.675,1.237-6.3-.99-10.545A30.535,30.535,0,0,1-424.619,963v.157a8.689,8.689,0,0,1,.495,6.61c-.742,2.991-4.7,7.24-11.633,12.748l-.99.787a16.4,16.4,0,0,0-3.465-.945c-6.188-1.731-10.148-4.092-11.386-7.4a25.681,25.681,0,0,1-.495-6.138V945.686l.742-.315c3.713-1.574,11.386-5.036,22.771-10.388a3.873,3.873,0,0,1,2.475,1.731q1.114,1.889,1.485,8.027a2.991,2.991,0,0,0,1.732,2.99Z" transform="translate(590.201 -909.959)" fill="#f5f4f0"/>
            <path id="Path_17122" data-name="Path 17122" d="M-369.642,915.186c0,1.574-1.485,3.305-4.7,5.351a58.55,58.55,0,0,0-6.683,4.879c-.248.158-.248.158-.248-.314-.248-.157-.248-.157-.248-.315-.247-.472-1.238-1.1-3.465-1.574l.247,7.4c.248,4.879,0,10.7-.247,17.155l-.248,4.879c.248,2.518,2.228,3.62,5.693,3.306h.743c.247,0,.247,0,.247.157l-8.415,6.925c-4.7-1.416-7.425-3.462-8.415-6.3a27.131,27.131,0,0,1-.5-5.98V923.371h-1.238l-5.94.629a76.56,76.56,0,0,0,5.94-7.24q1.857-2.6,2.971-8.5t2.97-8.5q6.312-9.443,16.336-9.443a21.435,21.435,0,0,1,4.455.472c-7.673,1.259-12.376,3.777-13.861,7.4a16.351,16.351,0,0,0-.742,5.666v12.434c7.425.157,12.375-.787,15.1-2.676A3.509,3.509,0,0,1-369.642,915.186Z" transform="translate(568.639 -890.319)" fill="#f5f4f0"/>
            <path id="Path_17123" data-name="Path 17123" d="M-345.528,971.186c-4.455-1.416-7.178-3.462-8.415-6.3a24.968,24.968,0,0,1-.5-5.98V936.087c0-1.416,0-2.36-.247-2.518-.248-.787-1.238-1.259-2.475-1.416.742,0-1.733.315-7.178.787a1.363,1.363,0,0,1-1.238-.157c-.248-.157,0-.472,1.238-.945l1.485-.787,15.347-7.082c2.227.629,3.465,2.2,4.207,4.564a33.517,33.517,0,0,1,.5,6.611c0,.472,0,2.99-.248,7.554l-.495,18.1q.371,4.014,5.94,3.306c.743,0,.991,0,.743.157Zm-1.979-51.781c-1.733-.629-4.951-4.249-8.664-4.721a2.755,2.755,0,0,0-1.238.157h-.743l11.634-5.981c2.228.63,5.693,4.25,8.91,4.722a8.37,8.37,0,0,0,1.981,0Z" transform="translate(552.196 -898.472)" fill="#f5f4f0"/>
            <path id="Path_17124" data-name="Path 17124" d="M-291.512,954.028c-2.228-1.1-3.218-3.306-3.465-6.611-.247-2.675-1.238-4.092-3.465-4.249a2.4,2.4,0,0,0-1.486,0,9.2,9.2,0,0,0-1.732.315v24.4q0,7.791,5.941,6.611a13.276,13.276,0,0,0,6.435-3.463l1.486-2.2c1.732-2.675,1.238-6.3-.991-10.545A30.523,30.523,0,0,1-284.582,963v.157a8.689,8.689,0,0,1,.495,6.61c-.743,2.991-4.7,7.24-11.633,12.748l-.991.787a16.391,16.391,0,0,0-3.465-.945c-6.188-1.731-10.148-4.092-11.386-7.4a25.653,25.653,0,0,1-.495-6.138V945.686l.742-.315c3.713-1.574,11.385-5.036,22.771-10.388a3.869,3.869,0,0,1,2.475,1.731q1.114,1.889,1.486,8.027a2.991,2.991,0,0,0,1.732,2.99Z" transform="translate(528.624 -909.959)" fill="#f5f4f0"/>
            <path id="Path_17125" data-name="Path 17125" d="M-226.856,948.2a21.058,21.058,0,0,1-2.723,1.416,38.619,38.619,0,0,0-14.356,12.591v5.666q0,7.555,5.941,6.611a11.884,11.884,0,0,0,6.435-3.463l1.486-2.2c1.485-2.675.989-6.138-1.238-10.545l4.455,4.722v.157a8.689,8.689,0,0,1,.5,6.61c-1.238,4.407-5.2,8.656-11.633,12.748l-1.238.787-3.218-.945c-6.436-1.574-10.148-4.092-11.385-7.4a27.767,27.767,0,0,1-.5-6.138V945.686c-.248-.157-.248-.315,0-.472l22.276-10.231a3.869,3.869,0,0,1,2.475,1.731q1.114,1.652,1.485,8.027a4.245,4.245,0,0,0,1.981,3.148Zm-12.375-4.092a3.588,3.588,0,0,0-2.475-.944,3.2,3.2,0,0,0-1.733,0c-.247,0-.5,0-.5.157v14.8a24.989,24.989,0,0,0,5.941-6.611C-237.994,947.732-238.489,945.215-239.232,944.113Z" transform="translate(503.322 -909.959)" fill="#f5f4f0"/>
          </g>
          <g id="Group_5072" data-name="Group 5072" transform="translate(26.823 76.161)">
            <path id="Path_17126" data-name="Path 17126" d="M-639.084,777.256a16.352,16.352,0,0,0-.742,5.665V796.3c0-.157,0,2.676.247,8.5v4.879c0,8.185,0,13.85-.247,17.156l-.247,4.879c.494,2.518,2.475,3.62,5.692,3.305h.742l.248.157-8.415,6.925c-4.7-1.416-7.425-3.462-8.416-6.3a27.176,27.176,0,0,1-.494-5.98v-46.43c1.237-.472,3.712-3.305,7.672-8.184,3.218-3.935,7.425-5.824,12.871-5.824a28.433,28.433,0,0,1,4.95.472C-633.143,771.117-637.846,773.636-639.084,777.256Z" transform="translate(650.716 -769.386)" fill="#f5f4f0"/>
            <path id="Path_17127" data-name="Path 17127" d="M-588.05,827.272a20.917,20.917,0,0,1-2.723,1.416,38.619,38.619,0,0,0-14.356,12.591v5.666q0,7.554,5.941,6.611a11.887,11.887,0,0,0,6.435-3.463l1.485-2.2c1.485-2.676.991-6.138-1.238-10.546l4.456,4.722v.157a8.687,8.687,0,0,1,.495,6.61c-1.238,4.407-5.2,8.656-11.633,12.749l-1.238.787-3.218-.945c-6.435-1.574-10.148-4.092-11.386-7.4a27.836,27.836,0,0,1-.5-6.138V824.753q-.371-.235,0-.472l22.277-10.231a3.872,3.872,0,0,1,2.475,1.732q1.114,1.652,1.485,8.027a4.245,4.245,0,0,0,1.98,3.148Zm-12.376-4.092a3.586,3.586,0,0,0-2.475-.944,3.2,3.2,0,0,0-1.733,0c-.247,0-.5,0-.5.157v14.795a24.989,24.989,0,0,0,5.941-6.611C-599.189,826.8-599.684,824.282-600.427,823.18Z" transform="translate(635.323 -789.026)" fill="#f5f4f0"/>
            <path id="Path_17128" data-name="Path 17128" d="M-533.784,861.956c-4.7-1.417-7.426-3.62-8.416-6.453l-7.92,6.453c-5.693-1.889-8.663-4.879-8.911-9.129a14.317,14.317,0,0,0-.247-2.2V835.672l2.475-1.26c-2.228-3.463-2.971-6.61-1.733-9.6s4.208-5.194,8.911-6.611a101.075,101.075,0,0,0,11.138-2.833c1.485-.63,2.475-.945,2.723-.787,3.218.63,4.95,4.407,4.7,11.332,0,.944-.248,9.443-.742,25.655.248,2.518,2.228,3.62,5.693,3.305h.742c.248,0,.248,0,.248.157Zm-8.663-38.718-6.931.945c-4.7,1.1-6.93,3.305-6.93,6.61a14.019,14.019,0,0,0,.495,2.991c4.208-2.519,8.663-5.666,13.366-6.768Zm-.248,26.442.248-20.618c-3.96,1.889-5.94,5.509-5.94,10.7v11.647h.247v.158c.247,2.518,2.227,3.62,5.693,3.305A26.617,26.617,0,0,1-542.694,849.68Z" transform="translate(610.509 -789.242)" fill="#f5f4f0"/>
            <path id="Path_17129" data-name="Path 17129" d="M-477.65,831.139c.5-1.731.743-2.99.5-3.777-.5-2.675-1.98-4.25-4.208-4.407a3.963,3.963,0,0,0-2.722.472v2.518c0,.472-.247,8.971-.99,25.655q.743,3.777,5.941,3.305h.5c.247,0,.247,0,.247.157l-8.415,6.925c-4.7-1.416-7.425-3.463-8.416-6.3a28.33,28.33,0,0,1-.495-5.98l.248-24.4c0-3.148-.99-4.721-5.2-4.564a1.275,1.275,0,0,1-.742-.157l12.623-5.823a5.986,5.986,0,0,1,3.961,3.777c1.238-2.046,2.228-3.462,2.971-3.935a31.813,31.813,0,0,1,10.89,3.935c4.208,2.361,5.941,4.564,5.445,6.925Z" transform="translate(585.063 -789.273)" fill="#f5f4f0"/>
            <path id="Path_17130" data-name="Path 17130" d="M-401.15,862.111c-4.7-1.416-7.425-3.463-8.663-6.3-.248-.314-.248-2.36-.248-5.98l-.247-22.822a3.815,3.815,0,0,0,0-2.361,2.736,2.736,0,0,0-2.723-1.574,3.214,3.214,0,0,0-1.732,0,7.95,7.95,0,0,1-1.733.472v2.518c0,.472-.247,8.971-.99,25.655q.743,3.777,5.941,3.305h.5c.247,0,.247,0,.247.157l-8.415,6.925c-4.7-1.416-7.425-3.463-8.416-6.3a28.333,28.333,0,0,1-.495-5.98l.248-24.4c0-3.148-.99-4.721-5.2-4.564a1.274,1.274,0,0,1-.742-.157l12.623-5.824q4.084,1.181,4.456,6.138l13.365-6.138a5.655,5.655,0,0,1,4.455,4.564c.248.787.248,2.991.248,6.611,0,.472,0,2.99-.248,7.555l-.5,18.1c.248,2.518,2.228,3.62,5.693,3.305h.743c.247,0,.247,0,.247.157Z" transform="translate(555.343 -789.397)" fill="#f5f4f0"/>
          </g>
          <g id="Group_5073" data-name="Group 5073" transform="translate(26.823)">
            <path id="Path_17131" data-name="Path 17131" d="M-641.558,719.183c-5.693-1.889-8.663-4.88-8.911-9.129V700.3c-.247-5.824-.247-11.017-.247-15.9v-3.935a54.834,54.834,0,0,0,19.306-8.814,8.409,8.409,0,0,1,1.98-.157c4.455,0,6.931,1.574,7.673,4.722a59.54,59.54,0,0,1,.495,6.768c-.248,2.675-.495,8.027-.742,16.211a4.015,4.015,0,0,0,1.732,2.675Zm8.663-22.35v-1.574c.248-2.833.248-4.092.248-3.777v-6.3c0-4.879-1.238-7.4-3.465-7.4a3.659,3.659,0,0,0-3.713,3.148v24.238h.248c-.248,2.675,1.238,3.935,4.455,3.935a8.1,8.1,0,0,0,5.2-2.046C-631.905,705.333-632.9,702.028-632.9,696.834Z" transform="translate(650.716 -645.833)" fill="#f5f4f0"/>
            <path id="Path_17132" data-name="Path 17132" d="M-561.484,682.674h-.248l-.742.63-4.208,3.463-.991.787-13.365,10.7c-5.941-1.731-8.911-4.879-8.911-9.129V662.372c-.247-10.073-.247-18.1-.247-24.238v-3.148a131.457,131.457,0,0,1,11.385-6.768,23.42,23.42,0,0,1,14.356-2.2c-7.673,1.259-12.128,3.777-13.861,7.4a12.375,12.375,0,0,0-.989,5.666v18.257l13.861-6.295c3.465,1.1,4.95,4.878,4.7,11.332l-.742,15.9a4.753,4.753,0,0,0,1.732,2.833Zm-7.921,3.62a10.076,10.076,0,0,1-2.97-7.713c0-2.99,0-6.138.247-9.285a25.448,25.448,0,0,0,0-6.138c0-1.416-.247-3.777-2.97-3.934h-1.732l-2.475.629.247,23.608h-.247v.787h.247v.157c0,2.518,1.485,3.778,4.7,3.778a9.715,9.715,0,0,0,4.7-1.731Z" transform="translate(624.104 -625.693)" fill="#f5f4f0"/>
            <path id="Path_17133" data-name="Path 17133" d="M-512.3,687.616c3.712,1.416,6.188,3.148,7.178,5.509.495.944.743,2.991.743,5.98l.247,9.443c0,.158,0,.158-.247.158-2.228,1.731-7.425,5.351-15.1,10.544a22.638,22.638,0,0,1-4.951-1.574,23,23,0,0,1-5.693-4.092c-1.733-1.731-3.713-3.3-5.445-4.878-.248-.158-.248-.158,0-.315,1.237-1.416,3.712-3.777,6.931-6.768a7.114,7.114,0,0,1-4.456-4.407q-.741-1.417-.742-6.138l-.247-9.444.247-.157c2.723-1.889,7.921-5.351,15.1-10.544l4.951,1.573a17.217,17.217,0,0,1,3.712,2.518,63.333,63.333,0,0,0,7.425,6.453c.248.157.248.315,0,.315A50.173,50.173,0,0,0-512.3,687.616Zm-3.218,11.175c0-1.26-1.485-2.518-4.208-3.935a55.146,55.146,0,0,0-5.2,6.925.463.463,0,0,1-.248.472c0,1.574.991,3.62,3.218,6.3a12.077,12.077,0,0,0,4.208,3.463,2.322,2.322,0,0,0,2.475-.787Zm.495-14.165c-.742-3.306-2.475-5.351-5.2-6.3a2.517,2.517,0,0,0-2.722.629l.495,10.86a4.7,4.7,0,0,0,1.238,3.62c4.208-3.3,6.188-5.666,6.188-7.082Z" transform="translate(600.164 -645.586)" fill="#f5f4f0"/>
            <path id="Path_17134" data-name="Path 17134" d="M-444.921,684.715a20.975,20.975,0,0,1-2.722,1.416A38.618,38.618,0,0,0-462,698.722v5.667q0,7.554,5.941,6.61a11.887,11.887,0,0,0,6.435-3.463l1.485-2.2c1.485-2.675.99-6.138-1.238-10.545l4.455,4.721v.158a8.685,8.685,0,0,1,.495,6.61c-1.237,4.408-5.2,8.657-11.633,12.749l-1.238.787-3.218-.945c-6.435-1.573-10.148-4.091-11.385-7.4a27.809,27.809,0,0,1-.5-6.138V682.2q-.371-.235,0-.472l22.277-10.23a3.871,3.871,0,0,1,2.475,1.731q1.114,1.652,1.485,8.027a4.247,4.247,0,0,0,1.981,3.148Zm-12.375-4.092a3.585,3.585,0,0,0-2.475-.944,3.2,3.2,0,0,0-1.732,0c-.248,0-.5,0-.5.157v14.8a25.006,25.006,0,0,0,5.941-6.611C-456.059,684.243-456.554,681.724-457.3,680.623Z" transform="translate(572.386 -645.833)" fill="#f5f4f0"/>
            <path id="Path_17135" data-name="Path 17135" d="M-399.455,688.582c.495-1.731.742-2.991.495-3.777-.495-2.676-1.981-4.25-4.208-4.407a3.961,3.961,0,0,0-2.723.472v2.518c0,.472-.247,8.971-.99,25.654q.743,3.777,5.94,3.305h.5c.248,0,.248,0,.248.158l-8.416,6.925c-4.7-1.417-7.425-3.463-8.416-6.3a28.327,28.327,0,0,1-.495-5.981l.248-24.4c0-3.148-.99-4.722-5.2-4.564a1.268,1.268,0,0,1-.742-.158l12.623-5.823a5.986,5.986,0,0,1,3.96,3.777c1.238-2.046,2.228-3.462,2.97-3.934a31.814,31.814,0,0,1,10.891,3.934c4.208,2.361,5.941,4.565,5.445,6.925Z" transform="translate(550.68 -646.08)" fill="#f5f4f0"/>
            <path id="Path_17136" data-name="Path 17136" d="M-341.467,719.554c-5.94-2.047-8.91-5.036-8.91-9.129V682.882c0-3.306-1.733-4.722-4.951-4.564a1.27,1.27,0,0,1-.742-.158l12.376-5.823c2.97.944,4.455,4.721,4.455,11.175l-.248,21.247h-.248v.787h.248c-.248,2.675,1.238,3.935,4.455,3.935a8.1,8.1,0,0,0,5.2-2.046c-1.98-1.731-2.971-4.564-2.971-8.184v-3.777h.248V682.882c0-3.306-1.733-4.722-4.951-4.564a1.269,1.269,0,0,1-.742-.158l12.128-5.823c2.228.629,3.466,2.2,4.208,4.564a33.574,33.574,0,0,1,.495,6.611c-.248,1.1-.248,5.194-.495,11.961v4.092a4.013,4.013,0,0,0,1.732,2.675Z" transform="translate(521.154 -646.203)" fill="#f5f4f0"/>
            <path id="Path_17137" data-name="Path 17137" d="M-257.617,684.715a20.888,20.888,0,0,1-2.722,1.416,38.611,38.611,0,0,0-14.355,12.591v5.667q0,7.554,5.94,6.61a11.883,11.883,0,0,0,6.436-3.463l1.485-2.2c1.485-2.675.991-6.138-1.237-10.545l4.455,4.721v.158a8.685,8.685,0,0,1,.5,6.61c-1.238,4.408-5.2,8.657-11.634,12.749l-1.237.787-3.218-.945c-6.435-1.573-10.148-4.091-11.386-7.4a27.821,27.821,0,0,1-.495-6.138V682.2q-.372-.235,0-.472l22.277-10.23a3.871,3.871,0,0,1,2.475,1.731q1.114,1.652,1.485,8.027a4.246,4.246,0,0,0,1.979,3.148Zm-12.375-4.092a3.584,3.584,0,0,0-2.475-.944,3.2,3.2,0,0,0-1.732,0c-.248,0-.495,0-.495.157v14.8a25,25,0,0,0,5.94-6.611C-268.755,684.243-269.25,681.724-269.992,680.623Z" transform="translate(490.025 -645.833)" fill="#f5f4f0"/>
          </g>
        </g>
        <circle id="Ellipse_397" data-name="Ellipse 397" cx="5.216" cy="5.216" r="5.216" transform="translate(267.857 63.502)" fill="#ffc40c"/>
        <circle id="Ellipse_398" data-name="Ellipse 398" cx="5.216" cy="5.216" r="5.216" transform="translate(195.697 137.4)" fill="#ffc40c"/>
        <circle id="Ellipse_399" data-name="Ellipse 399" cx="5.216" cy="5.216" r="5.216" transform="translate(286.114 212.167)" fill="#ffc40c"/>
        <circle id="Ellipse_400" data-name="Ellipse 400" cx="5.216" cy="5.216" r="5.216" transform="translate(233.081 284.327)" fill="#ffc40c"/>
      </g>
      <g id="Group_5942" data-name="Group 5942" transform="translate(110.557 541.926)">
        <g id="Group_5936" data-name="Group 5936" transform="translate(0 0)">
          <g id="Group_5930" data-name="Group 5930" transform="translate(38.421)">
            <path id="Path_18820" data-name="Path 18820" d="M1367.642,698.778c-9.932-4.558-17.985-5.086-30.936-6.594.041.218,8.565-9.237,14.726-11.508,6.218-1.929,19.427,2.157,19.41,2.082.03.046-4.1-5.428-9.761-6.064.005-.006,3.308-1.844,8.241-4.261a115.416,115.416,0,0,1,31.347-9.261,57.372,57.372,0,0,1,28.373,3.839c-1.248-2.235-1.8-4.113-6.873-6.4a69.378,69.378,0,0,1,8.917,1.993c5.2,1.581,11.793,3.98,17.328,10.734,11.755,16.213,22.467,27.422,22.68,26.682.058.213-2.676,3.039-7.122,8.061-4.447,4.9-10.607,11.993-17.435,17.894-13.616,10.672-36.555-1.773-36.543-.5,6.124-3.007,7.784-9.569,10.092-15.9.076.189-12.126,11.424-20.729,12.891-10.4,1.773-22.262-2.848-41.172-1.978a85.311,85.311,0,0,0-13.267,1.531C1351.864,713.465,1357.181,707.261,1367.642,698.778Z" transform="translate(-1335.869 -659.766)" fill="#ffc40c"/>
            <path id="Path_18821" data-name="Path 18821" d="M1432.237,731.037c-7.784,0-15.393-2.658-19.6-4.128-.992-.347-2.013-.7-2.46-.8a.837.837,0,0,1-1.161-.763.987.987,0,0,1,.381-.753.94.94,0,0,1,.415-.174c4.558-2.406,6.427-7.037,8.207-12.052-4.171,3.564-12.407,9.722-18.662,10.788-5.258.9-10.883.2-17.394-.614a132.632,132.632,0,0,0-23.88-1.353,90.248,90.248,0,0,0-13,1.475.837.837,0,0,1-.976-1.279c6.726-8.291,11.937-14.4,21.813-22.536-8.262-3.571-15.289-4.366-25.676-5.542q-1.715-.194-3.553-.406a.922.922,0,0,1-.949-.7.835.835,0,0,1,.41-.883c.143-.131.48-.464.834-.816,2.448-2.43,8.953-8.884,14.016-10.751,3.436-1.065,9.308-.6,17.1,1.329a13.553,13.553,0,0,0-7.253-3.693.837.837,0,0,1-.518-1.4c.242-.26,5.141-2.8,8.485-4.441a115.938,115.938,0,0,1,31.608-9.34,58.167,58.167,0,0,1,26.611,3.042c-.857-1.331-2.1-2.548-5.347-4.01a.866.866,0,0,1-.184-.113.841.841,0,0,1-.218-1.036c.328-.636.565-.586,3.46.012,1.414.292,3.677.8,6.425,1.56,6.049,1.839,12.37,4.441,17.753,11.011,10.861,14.976,20.433,25.2,22.109,26.378a.837.837,0,0,1,.731.614c.156.57.156.57-2.856,3.888-1.161,1.279-2.666,2.937-4.446,4.948q-.891.981-1.854,2.054a180.362,180.362,0,0,1-15.66,15.918C1442.582,729.881,1437.371,731.037,1432.237,731.037Zm-20.118-6.08c.314.108.668.231,1.07.371,6.724,2.349,22.472,7.851,32.69-.158a179.041,179.041,0,0,0,15.479-15.747c.646-.717,1.264-1.4,1.853-2.052,1.778-2.009,3.288-3.672,4.452-4.955.839-.923,1.6-1.765,2.072-2.306a65,65,0,0,1-6.75-7.038c-2.879-3.284-8.707-10.17-15.392-19.389-5.069-6.185-11.118-8.668-16.894-10.425-1.515-.42-2.913-.769-4.125-1.051a10.744,10.744,0,0,1,2.686,3.567c.119.224.241.451.369.682a.835.835,0,0,1,.005.807.921.921,0,0,1-1.138.34,56.459,56.459,0,0,0-27.856-3.749,114.035,114.035,0,0,0-31.093,9.184c-2.657,1.3-4.809,2.419-6.239,3.177a18.586,18.586,0,0,1,8.035,5.862.838.838,0,0,1-.064,1.136.712.712,0,0,1-.628.227.945.945,0,0,1-.108-.014c-.165-.027-.364-.08-.616-.149-10.883-2.949-16.008-2.688-18.391-1.949-4.511,1.664-10.542,7.547-13.1,10.083l1.995.226c10.662,1.207,18.366,2.079,27.417,6.233a.837.837,0,0,1,.178,1.411,131.529,131.529,0,0,0-21.152,21.346c3.127-.514,8.144-.98,11.131-1.117a134.318,134.318,0,0,1,24.163,1.364c6.38.794,11.891,1.481,16.906.626,7.921-1.35,19.31-11.571,20.155-12.5a.837.837,0,0,1,1.493.125.871.871,0,0,1-.01.647c-.254.7-.5,1.4-.746,2.1C1418.229,716.806,1416.443,721.891,1412.119,724.957Z" transform="translate(-1335.725 -659.622)" fill="#f5f4f0"/>
          </g>
          <g id="Group_5931" data-name="Group 5931" transform="translate(71.949 3.643)">
            <path id="Path_18822" data-name="Path 18822" d="M1378.589,671.368c4.6,11.421,11.485,23.176,20.431,27.479-8.885,4.667-17.681,14.534-23.026,22.4,3.133.571,15.614,2.133,19.158,2.03,6.309-5.363,16.213-15.269,30.771-23.738-13.826-10.769-23.608-19.437-25.778-34.67A74.145,74.145,0,0,0,1378.589,671.368Z" transform="translate(-1375.156 -664.034)" fill="#e5e4e0"/>
            <path id="Path_18823" data-name="Path 18823" d="M1394.634,723.978c-4.187,0-16.1-1.532-18.935-2.049a.836.836,0,0,1-.542-1.294c5.052-7.437,13.354-16.893,21.962-21.914-9.111-5.245-15.572-17.546-19.45-27.184a.838.838,0,0,1,.415-1.067A75.176,75.176,0,0,1,1399.9,663.9a.832.832,0,0,1,.932.713c2.125,14.925,11.894,23.559,25.463,34.127a.836.836,0,0,1-.093,1.383c-11.67,6.789-20.278,14.461-26.564,20.063-1.471,1.31-2.859,2.547-4.086,3.59a.832.832,0,0,1-.518.2C1394.908,723.977,1394.776,723.978,1394.634,723.978Zm-17.345-3.484c4.284.656,13.993,1.8,17.4,1.809,1.157-.99,2.457-2.148,3.829-3.37,6.147-5.478,14.5-12.92,25.772-19.633-13.133-10.284-22.611-18.953-25-33.634a74.058,74.058,0,0,0-19.778,5.977c4,9.736,10.585,21.912,19.72,26.305a.837.837,0,0,1,.026,1.5C1390.859,703.86,1382.555,713.01,1377.289,720.495Z" transform="translate(-1375.012 -663.891)" fill="#f5f4f0"/>
          </g>
          <g id="Group_5932" data-name="Group 5932" transform="translate(0 36.153)">
            <path id="Path_18824" data-name="Path 18824" d="M1291.693,722.367c-.042-.282,9.435-3.717,15.109-10.734,5.756-7.612,13.446-10.314,23.923-7.693,10.414,2.476,16.47,5.238,16.461,5.292.02.1-6.573,8.669-10.058,13.345-3.492,4.8-10.519,6.146-18.843,4.034A155.3,155.3,0,0,0,1291.693,722.367Z" transform="translate(-1290.85 -702.128)" fill="#ffc40c"/>
            <path id="Path_18825" data-name="Path 18825" d="M1325.381,728.282a30.47,30.47,0,0,1-7.447-1,158.268,158.268,0,0,0-26.233-4.232.839.839,0,0,1-.968-.633.644.644,0,0,1-.013-.068c-.1-.668.289-.855,1.575-1.476,2.556-1.233,9.347-4.51,13.711-9.906,6.06-8.015,14.169-10.631,24.776-7.978A117.064,117.064,0,0,1,1343,706.563c5.024,1.8,4.993,1.965,4.863,2.675-.163.435-.968,1.494-4.432,6.052-1.958,2.576-4.19,5.513-5.778,7.643C1335.1,726.451,1330.79,728.281,1325.381,728.282Zm-30.74-6.7c1.382.133,3.3.358,5.989.717a150.039,150.039,0,0,1,17.726,3.361c8.175,2.073,14.722.719,17.952-3.718,1.6-2.141,3.831-5.083,5.792-7.664,1.434-1.887,2.9-3.82,3.675-4.855a101.852,101.852,0,0,0-15.387-4.812c-10.03-2.508-17.356-.162-23.062,7.383C1303.461,716.771,1297.9,719.929,1294.64,721.581Z" transform="translate(-1290.706 -701.984)" fill="#f5f4f0"/>
          </g>
          <g id="Group_5933" data-name="Group 5933" transform="translate(17.973 42.359)">
            <path id="Path_18826" data-name="Path 18826" d="M1342.791,713.251c-2.318,3.277-5.012,6.813-6.952,9.609-.8,1.154-2.516,3.541-9.8,1.662-4.318-1.154-8.915-2.11-13.293-3.009a30.458,30.458,0,0,0,4.642-4.587c2.443-3.041,4.981-5.216,7.708-6.132.859-.3,3.488-1.151,8.912.134C1337.451,711.731,1340.409,712.529,1342.791,713.251Z" transform="translate(-1311.909 -709.4)" fill="#e5e4e0"/>
            <path id="Path_18827" data-name="Path 18827" d="M1330.594,725.9a19.865,19.865,0,0,1-4.907-.717c-4.16-1.11-8.463-2.016-13.253-3a.836.836,0,0,1-.357-1.471,29.352,29.352,0,0,0,4.515-4.461c2.726-3.392,5.373-5.487,8.094-6.4,2.362-.836,5.52-.8,9.372.113,3.229.754,6.2,1.54,8.831,2.336a.837.837,0,0,1,.441,1.284c-1.09,1.541-2.263,3.139-3.4,4.69-1.3,1.767-2.522,3.437-3.546,4.912C1335.754,724.1,1334.5,725.9,1330.594,725.9Zm-16.138-5.009c4.151.86,7.955,1.685,11.656,2.673,6.76,1.744,8.2-.333,8.9-1.332,1.036-1.492,2.267-3.171,3.572-4.947.9-1.226,1.821-2.481,2.705-3.713-2.3-.669-4.906-1.346-7.61-1.977-3.536-.837-6.376-.891-8.442-.16-2.421.813-4.816,2.731-7.335,5.867A29.6,29.6,0,0,1,1314.457,720.9Z" transform="translate(-1311.766 -709.256)" fill="#f5f4f0"/>
          </g>
          <g id="Group_5934" data-name="Group 5934" transform="translate(38.421 21.638)">
            <path id="Path_18828" data-name="Path 18828" d="M1374.421,700.778c-2.682-7.837-16.527-13.161-26.146-14.821-5.533,3.648-11.551,10.03-11.568,9.942,12.951,1.51,21,2.036,30.936,6.595-10.461,8.483-15.779,14.687-22.723,23.246,0,.008,7.2-.627,13.267-1.531C1363.133,714.633,1368.678,705.1,1374.421,700.778Z" transform="translate(-1335.869 -685.12)" fill="#e5e4e0"/>
            <path id="Path_18829" data-name="Path 18829" d="M1344.836,726.413c-.384,0-.46-.062-.59-.168a.836.836,0,0,1-.12-1.175c6.7-8.265,11.916-14.376,21.791-22.508-8.261-3.571-15.287-4.365-25.672-5.542-1.16-.131-2.358-.266-3.6-.411a.931.931,0,0,1-.326-.051.838.838,0,0,1-.239-1.483c.09-.083.274-.265.538-.527a81.251,81.251,0,0,1,11.053-9.431.848.848,0,0,1,.6-.126c7.916,1.367,23.7,6.34,26.8,15.375a.836.836,0,0,1-.288.94c-5.851,4.4-11.621,14.682-16,23.146a.836.836,0,0,1-.62.444c-3.167.471-6.61.865-8.94,1.111C1346.507,726.292,1345.371,726.413,1344.836,726.413Zm-6.424-31.286,2.021.23c10.66,1.207,18.362,2.079,27.414,6.233a.837.837,0,0,1,.178,1.411,132.127,132.127,0,0,0-21.345,21.581c2.47-.241,6.863-.707,10.816-1.282,4.561-8.8,9.966-18.276,15.779-22.946-3.058-7.288-16.351-12.108-24.959-13.658A77.349,77.349,0,0,0,1338.413,695.127Z" transform="translate(-1335.726 -684.977)" fill="#f5f4f0"/>
          </g>
          <g id="Group_5935" data-name="Group 5935" transform="translate(111.442)">
            <path id="Path_18830" data-name="Path 18830" d="M1459.079,725.973c6.827-5.9,12.987-12.995,17.435-17.895,4.445-5.021,7.179-7.849,7.122-8.061-.215.742-10.926-10.47-22.681-26.682-5.535-6.754-12.129-9.152-17.328-10.734a69.337,69.337,0,0,0-8.917-1.993c5.075,2.287,5.625,4.165,6.873,6.4a58.991,58.991,0,0,0-19.315-4.266c5.881,10.234,15.494,17.3,23.715,23.684,8.218,6.091,15.044,11.508,15.272,11.6-8.247,2.9-18.775,9.868-27.221,30.759C1441.7,730.734,1451.845,732.327,1459.079,725.973Z" transform="translate(-1421.431 -659.766)" fill="#e5e4e0"/>
            <path id="Path_18831" data-name="Path 18831" d="M1445.6,731.213a49.2,49.2,0,0,1-11.92-1.757.837.837,0,0,1-.57-1.125c6.536-16.166,15.141-26.225,26.273-30.691l-1.372-1.059c-2.78-2.146-7.431-5.739-12.674-9.625l-1.565-1.212c-7.866-6.088-16.78-12.987-22.377-22.727a.838.838,0,0,1,.774-1.253,64.39,64.39,0,0,1,17.387,3.46c-.856-1.325-2.106-2.54-5.337-3.995a.862.862,0,0,1-.183-.113.84.84,0,0,1-.218-1.036c.328-.636.565-.586,3.46.012,1.414.292,3.678.8,6.425,1.56,6.049,1.84,12.371,4.442,17.753,11.011,10.862,14.977,20.432,25.2,22.109,26.378a.838.838,0,0,1,.731.615c.155.569.155.569-2.849,3.878-1.161,1.28-2.67,2.942-4.454,4.957q-.887.979-1.848,2.047a180.357,180.357,0,0,1-15.664,15.925C1455.414,730.035,1450.522,731.213,1445.6,731.213Zm-10.572-3.147c7.529,1.826,16.741,2.941,23.352-2.866a178.833,178.833,0,0,0,15.522-15.783c.642-.714,1.259-1.4,1.845-2.044,1.782-2.014,3.295-3.68,4.461-4.964.834-.92,1.594-1.757,2.063-2.3a65.089,65.089,0,0,1-6.75-7.038c-2.879-3.284-8.7-10.169-15.391-19.389-5.068-6.184-11.117-8.667-16.894-10.425-1.514-.42-2.912-.769-4.125-1.051a10.739,10.739,0,0,1,2.686,3.567c.119.224.241.451.37.682a.837.837,0,0,1-1.189,1.109,59.238,59.238,0,0,0-17.312-4.017c5.468,8.749,13.767,15.171,21.131,20.87l1.553,1.2c5.24,3.884,9.9,7.483,12.685,9.633,1.273.983,2.285,1.765,2.484,1.9a.837.837,0,0,1-.133,1.518C1450.24,702.592,1441.612,712.211,1435.032,728.065Z" transform="translate(-1421.287 -659.622)" fill="#f5f4f0"/>
          </g>
        </g>
        <g id="Group_5938" data-name="Group 5938" transform="translate(69.031 35.682)">
          <g id="Group_5937" data-name="Group 5937">
            <path id="Path_18832" data-name="Path 18832" d="M1721.611,707.435H1375.084a2.511,2.511,0,1,1,0-5.022h346.527a2.511,2.511,0,1,1,0,5.022Z" transform="translate(-1371.737 -701.576)" fill="#e5e4e0"/>
            <path id="Path_18833" data-name="Path 18833" d="M1721.468,708.128H1374.94a3.348,3.348,0,0,1,0-6.7h346.527a3.348,3.348,0,0,1,0,6.7Zm-346.527-5.022a1.674,1.674,0,1,0,0,3.347h346.527a1.674,1.674,0,0,0,0-3.347Z" transform="translate(-1371.593 -701.432)" fill="#f5f4f0"/>
          </g>
        </g>
        <path id="Path_18834" data-name="Path 18834" d="M1824.482,697.751c-19.06-5.448-41.8-13.868-56.941-23.17a3.161,3.161,0,0,0-4.742,3.411c1.441,6.159,3.072,14.88,3.072,22.8a104.378,104.378,0,0,1-3.031,22.781,3.159,3.159,0,0,0,4.744,3.4c15.145-9.29,37.855-17.7,56.9-23.144A3.157,3.157,0,0,0,1824.482,697.751Z" transform="translate(-1359.888 -661.744)" fill="#f5f4f0"/>
        <circle id="Ellipse_419" data-name="Ellipse 419" cx="8.626" cy="8.626" r="8.626" transform="translate(377.259 39.03) rotate(-45)" fill="#ffc40c"/>
        <g id="Group_5939" data-name="Group 5939" transform="translate(352.691 30.235)">
          <rect id="Rectangle_3527" data-name="Rectangle 3527" width="23.916" height="15.916" rx="5.883" transform="translate(0.837 0.837)" fill="#f5f4f0"/>
          <path id="Path_18835" data-name="Path 18835" d="M1723.8,712.639h-14.069a5.767,5.767,0,0,1-5.76-5.761v-6.068a5.767,5.767,0,0,1,5.76-5.761H1723.8a5.767,5.767,0,0,1,5.761,5.761v6.068A5.767,5.767,0,0,1,1723.8,712.639Zm-14.069-15.915a4.091,4.091,0,0,0-4.087,4.086v6.068a4.091,4.091,0,0,0,4.087,4.087H1723.8a4.091,4.091,0,0,0,4.086-4.087v-6.068a4.091,4.091,0,0,0-4.086-4.086Z" transform="translate(-1703.969 -695.05)" fill="#ffc40c"/>
        </g>
        <path id="Path_18836" data-name="Path 18836" d="M1694.918,711.947a4.925,4.925,0,0,1-4.924-4.924v-6.068a4.924,4.924,0,0,1,9.849,0v6.068A4.924,4.924,0,0,1,1694.918,711.947Z" transform="translate(-1349.23 -664.958)" fill="#ffc40c"/>
        <g id="Group_5940" data-name="Group 5940" transform="translate(179.201 22.215)">
          <path id="Path_18837" data-name="Path 18837" d="M1543.988,712.806c-12.361,0-14.231-7.826-15.6-13.54-1.218-5.1-2.051-7.771-6.328-8.05-2.7-.167-4.048,2.144-6.207,6.257-2.47,4.707-5.544,10.565-13.083,12.492a1.674,1.674,0,0,1-1.8-2.569,18.986,18.986,0,0,0,3.23-10.753,1.674,1.674,0,0,1,3.346-.135,21.338,21.338,0,0,1-1.516,8.39c3.32-2.246,5.171-5.772,6.854-8.98,2.159-4.115,4.4-8.365,9.391-8.044,6.939.453,8.229,5.851,9.366,10.613,1.407,5.886,2.621,10.97,12.34,10.97,8.315,0,11.778-5.778,15.446-11.9,3.509-5.856,7.14-11.911,15.152-11.911,9.374,0,13.446,6,17.383,11.808,3.8,5.608,7.4,10.9,15.885,10.9a16.756,16.756,0,0,0,6.386-1.376,1.673,1.673,0,0,1,1.281,3.092,20.052,20.052,0,0,1-7.667,1.632c-10.263,0-14.722-6.574-18.655-12.373-3.763-5.548-7.014-10.339-14.613-10.339-6.117,0-8.974,4.766-12.282,10.284C1558.506,705.622,1554.2,712.806,1543.988,712.806Z" transform="translate(-1500.684 -685.652)" fill="#ffc40c"/>
        </g>
        <g id="Group_5941" data-name="Group 5941" transform="translate(171.973 31.986)">
          <path id="Path_18838" data-name="Path 18838" d="M1493.887,711.226a1.675,1.675,0,0,1-1.435-2.535c2.457-4.1,2.995-5.94,2.877-9.865a1.674,1.674,0,1,1,3.346-.1c.137,4.559-.584,7.071-3.351,11.687A1.674,1.674,0,0,1,1493.887,711.226Z" transform="translate(-1492.214 -697.102)" fill="#ffc40c"/>
        </g>
      </g>
    </g>
  </g>
</svg>
