<svg xmlns="http://www.w3.org/2000/svg" xmlns:xlink="http://www.w3.org/1999/xlink" width="522" height="522" viewBox="0 0 522 522">
  <defs>
    <radialGradient id="radial-gradient" cx="0.899" cy="0.366" r="1.072" gradientTransform="translate(-0.004 0.009) rotate(-0.636)" gradientUnits="objectBoundingBox">
      <stop offset="0" stop-color="#c287f3"/>
      <stop offset="1" stop-color="#7322b7"/>
    </radialGradient>
  </defs>
  <g id="login_2" data-name="login 2" transform="translate(-111 -151)">
    <rect id="Rectangle_3529" data-name="Rectangle 3529" width="522" height="522" transform="translate(111 151)" opacity="0" fill="url(#radial-gradient)"/>
    <g id="login_2-2" data-name="login 2" transform="translate(44.932 38.745)">
      <g id="Way_of_teaching" data-name="Way of teaching" transform="translate(208.224 210.914)">
        <g id="Group_5074" data-name="Group 5074" transform="translate(0 0)">
          <g id="Group_5070" data-name="Group 5070" transform="translate(21.661 178.866)">
            <path id="Path_17112" data-name="Path 17112" d="M-631.528,1092.016a6.207,6.207,0,0,0,.4-3.05c-.4-2.161-1.6-3.432-3.4-3.559a3.2,3.2,0,0,0-2.2.381v2.034c0,.381-.2,7.245-.8,20.716q.6,3.05,4.8,2.669h.4c.2,0,.2,0,.2.127l-6.8,5.592c-3.8-1.144-6-2.8-6.8-5.084a22.832,22.832,0,0,1-.4-4.829l.2-19.7c0-2.542-.8-3.813-4.2-3.686a1.027,1.027,0,0,1-.6-.127l10.193-4.7a4.833,4.833,0,0,1,3.2,3.05,11.265,11.265,0,0,1,2.4-3.177,25.69,25.69,0,0,1,8.795,3.177c3.4,1.906,4.8,3.686,4.4,5.592Z" transform="translate(650.716 -1058.208)" fill="#f5f4f0"/>
            <path id="Path_17113" data-name="Path 17113" d="M-560.682,1088.785a16.941,16.941,0,0,1-2.2,1.144,31.183,31.183,0,0,0-11.593,10.168v4.575q0,6.1,4.8,5.339a9.6,9.6,0,0,0,5.2-2.8l1.2-1.78c1.2-2.16.8-4.956-1-8.515l3.6,3.813v.128a7.015,7.015,0,0,1,.4,5.338c-1,3.559-4.2,6.99-9.394,10.295l-1,.635-2.6-.763c-5.2-1.271-8.195-3.3-9.194-5.974a22.452,22.452,0,0,1-.4-4.957v-18.683q-.3-.191,0-.382l17.989-8.261a3.128,3.128,0,0,1,2,1.4q.9,1.335,1.2,6.482a3.429,3.429,0,0,0,1.6,2.542Zm-9.993-3.3a2.9,2.9,0,0,0-2-.762,2.588,2.588,0,0,0-1.4,0c-.2,0-.4,0-.4.127v11.947a20.2,20.2,0,0,0,4.8-5.339C-569.676,1088.4-570.076,1086.37-570.675,1085.481Z" transform="translate(613.647 -1057.901)" fill="#f5f4f0"/>
            <path id="Path_17114" data-name="Path 17114" d="M-535.845,1110.265l-6.6,6.1a14.82,14.82,0,0,1-4.6-2.542v7.117c0,2.415,1.4,3.686,4.4,3.686a46.11,46.11,0,0,0-7.4,3.813l-5.8,3.686a34.088,34.088,0,0,1-17.789,5.084c-4.6,0-7.995-.89-10.393-2.669,5.4,1.144,9.794,1.271,13.392.381,2.8-.635,6.8-2.923,11.992-6.736a4.337,4.337,0,0,0,1-.763l1.6-1.271a17.654,17.654,0,0,0,.4-4.194v-34.443c-.2-2.415-1.4-3.559-3.6-3.686a9.348,9.348,0,0,0-4,.509.375.375,0,0,1,.2-.381,58.59,58.59,0,0,0,8.4-4.7,10.563,10.563,0,0,1,2-.127c2.6,0,4.6,1.017,5.6,3.05a35.486,35.486,0,0,0,6.4-3.94,8.571,8.571,0,0,1,1.8-.127c3.6,0,5.6,1.271,6.2,3.94a23.245,23.245,0,0,1,.2,5.719c0,2.415-.2,8.389-.6,17.666a2.748,2.748,0,0,0,1.2,1.526Zm-5.6-21.861a13.678,13.678,0,0,0-1-3.94,2.836,2.836,0,0,0-2-.89,2.752,2.752,0,0,0-2.2.763c0,1.017-.4,3.177-.4,4.067l-.2,18.175c0,1.144,2.2,2.923,4,2.923a8.6,8.6,0,0,0,1.6-.254v-11.311c.2-2.415.2-3.432.2-3.177Z" transform="translate(614.193 -1057.901)" fill="#f5f4f0"/>
            <path id="Path_17115" data-name="Path 17115" d="M-440.086,1088.785a16.979,16.979,0,0,1-2.2,1.144,31.179,31.179,0,0,0-11.593,10.168v4.575q0,6.1,4.8,5.339a9.6,9.6,0,0,0,5.2-2.8l1.2-1.78c1.2-2.16.8-4.956-1-8.515l3.6,3.813v.128a7.015,7.015,0,0,1,.4,5.338c-1,3.559-4.2,6.99-9.394,10.295l-1,.635-2.6-.763c-5.2-1.271-8.195-3.3-9.194-5.974a22.454,22.454,0,0,1-.4-4.957v-18.683q-.3-.191,0-.382l17.989-8.261a3.127,3.127,0,0,1,2,1.4q.9,1.335,1.2,6.482a3.428,3.428,0,0,0,1.6,2.542Zm-9.994-3.3a2.893,2.893,0,0,0-2-.762,2.588,2.588,0,0,0-1.4,0c-.2,0-.4,0-.4.127v11.947a20.188,20.188,0,0,0,4.8-5.339C-449.08,1088.4-449.48,1086.37-450.08,1085.481Z" transform="translate(547.614 -1057.901)" fill="#f5f4f0"/>
            <path id="Path_17116" data-name="Path 17116" d="M-385.4,1116.888c-3.8-1.144-6-2.923-6.8-5.211l-6.4,5.211c-4.6-1.525-7-3.94-7.2-7.372a11.539,11.539,0,0,0-.2-1.78v-12.074l2-1.017c-1.8-2.8-2.4-5.338-1.4-7.753s3.4-4.194,7.2-5.338a81.708,81.708,0,0,0,8.995-2.288c1.2-.508,2-.762,2.2-.635,2.6.509,4,3.559,3.8,9.151,0,.762-.2,7.626-.6,20.716.2,2.034,1.8,2.924,4.6,2.669h.6c.2,0,.2,0,.2.127Zm-7-31.266-5.6.762c-3.8.89-5.6,2.669-5.6,5.338a11.314,11.314,0,0,0,.4,2.415c3.4-2.033,7-4.576,10.793-5.465Zm-.2,21.352.2-16.65c-3.2,1.525-4.8,4.448-4.8,8.642v9.405h.2v.127c.2,2.034,1.8,2.924,4.6,2.669A21.49,21.49,0,0,1-392.6,1106.975Z" transform="translate(516.713 -1058.169)" fill="#f5f4f0"/>
            <path id="Path_17117" data-name="Path 17117" d="M-322.464,1053.525c0,1.271-1.2,2.669-3.8,4.321a47.284,47.284,0,0,0-5.4,3.94c-.2.127-.2.127-.2-.254-.2-.127-.2-.127-.2-.254-.2-.381-1-.889-2.8-1.271l.2,5.974c.2,3.94,0,8.643-.2,13.853l-.2,3.94c.2,2.034,1.8,2.924,4.6,2.669h.6c.2,0,.2,0,.2.127l-6.8,5.592c-3.8-1.144-6-2.8-6.8-5.084a21.934,21.934,0,0,1-.4-4.829v-22.115h-1l-4.8.508a61.625,61.625,0,0,0,4.8-5.846,17.988,17.988,0,0,0,2.4-6.863,17.988,17.988,0,0,1,2.4-6.863q5.1-7.626,13.192-7.626a17.3,17.3,0,0,1,3.6.381c-6.2,1.017-9.994,3.05-11.193,5.974a13.2,13.2,0,0,0-.6,4.575v10.041c6,.127,9.993-.636,12.192-2.161A2.829,2.829,0,0,1-322.464,1053.525Z" transform="translate(485.753 -1033.444)" fill="#f5f4f0"/>
          </g>
          <g id="Group_5071" data-name="Group 5071" transform="translate(0 120.43)">
            <path id="Path_17118" data-name="Path 17118" d="M-650.421,967.139l-6.6,6.1a14.825,14.825,0,0,1-4.6-2.542v7.117c0,2.415,1.4,3.686,4.4,3.686a46.1,46.1,0,0,0-7.4,3.813l-5.8,3.686a34.087,34.087,0,0,1-17.789,5.084c-4.6,0-8-.89-10.394-2.669,5.4,1.144,9.794,1.271,13.392.381,2.8-.635,6.8-2.923,11.992-6.736a4.325,4.325,0,0,0,1-.762l1.6-1.271a17.651,17.651,0,0,0,.4-4.194V944.389c-.2-2.415-1.4-3.559-3.6-3.686a9.352,9.352,0,0,0-4,.509.375.375,0,0,1,.2-.381,58.554,58.554,0,0,0,8.4-4.7,10.558,10.558,0,0,1,2-.127c2.6,0,4.6,1.017,5.6,3.05a35.507,35.507,0,0,0,6.4-3.94,8.564,8.564,0,0,1,1.8-.127c3.6,0,5.6,1.271,6.2,3.94a23.277,23.277,0,0,1,.2,5.72c0,2.415-.2,8.388-.6,17.666a2.749,2.749,0,0,0,1.2,1.526Zm-5.6-21.861a13.681,13.681,0,0,0-1-3.94,2.835,2.835,0,0,0-2-.89,2.752,2.752,0,0,0-2.2.762c0,1.017-.4,3.177-.4,4.067l-.2,18.175c0,1.144,2.2,2.923,4,2.923a8.608,8.608,0,0,0,1.6-.254V954.811c.2-2.415.2-3.432.2-3.177Z" transform="translate(698.591 -914.776)" fill="#f5f4f0"/>
            <path id="Path_17119" data-name="Path 17119" d="M-564.987,948.891a6.207,6.207,0,0,0,.4-3.05c-.4-2.161-1.6-3.432-3.4-3.559a3.2,3.2,0,0,0-2.2.381V944.7c0,.381-.2,7.245-.8,20.716q.6,3.051,4.8,2.67h.4c.2,0,.2,0,.2.127l-6.8,5.592c-3.8-1.144-6-2.8-6.8-5.084a22.844,22.844,0,0,1-.4-4.829l.2-19.7c0-2.542-.8-3.813-4.2-3.686a1.026,1.026,0,0,1-.6-.128l10.193-4.7a4.833,4.833,0,0,1,3.2,3.05,11.26,11.26,0,0,1,2.4-3.177,25.694,25.694,0,0,1,8.794,3.177c3.4,1.906,4.8,3.686,4.4,5.592Z" transform="translate(635.942 -915.083)" fill="#f5f4f0"/>
            <path id="Path_17120" data-name="Path 17120" d="M-496,973.763c-3.8-1.144-6-2.923-6.8-5.211l-6.4,5.211c-4.6-1.525-7-3.94-7.2-7.372a11.535,11.535,0,0,0-.2-1.779V952.538l2-1.017c-1.8-2.8-2.4-5.338-1.4-7.753s3.4-4.195,7.2-5.338a81.767,81.767,0,0,0,8.995-2.288c1.2-.508,2-.762,2.2-.635,2.6.509,4,3.559,3.8,9.151,0,.762-.2,7.626-.6,20.716.2,2.034,1.8,2.924,4.6,2.669h.6c.2,0,.2,0,.2.127Zm-7-31.266-5.6.763c-3.8.89-5.6,2.669-5.6,5.338a11.352,11.352,0,0,0,.4,2.415c3.4-2.033,7-4.576,10.793-5.465Zm-.2,21.353.2-16.65c-3.2,1.525-4.8,4.448-4.8,8.643v9.405h.2v.127c.2,2.034,1.8,2.924,4.6,2.669A21.533,21.533,0,0,1-503.2,963.85Z" transform="translate(598.933 -915.044)" fill="#f5f4f0"/>
            <path id="Path_17121" data-name="Path 17121" d="M-435.5,950.363c-1.8-.89-2.6-2.669-2.8-5.338-.2-2.16-1-3.3-2.8-3.431a1.931,1.931,0,0,0-1.2,0,7.419,7.419,0,0,0-1.4.254v19.7q0,6.291,4.8,5.338a10.724,10.724,0,0,0,5.2-2.8l1.2-1.78c1.4-2.161,1-5.084-.8-8.515a24.655,24.655,0,0,1,3.4,3.813v.127a7.017,7.017,0,0,1,.4,5.338c-.6,2.415-3.8,5.846-9.394,10.295l-.8.636a13.247,13.247,0,0,0-2.8-.763c-5-1.4-8.2-3.3-9.194-5.974a20.739,20.739,0,0,1-.4-4.957V943.627l.6-.254c3-1.271,9.194-4.067,18.389-8.388a3.128,3.128,0,0,1,2,1.4q.9,1.526,1.2,6.482a2.415,2.415,0,0,0,1.4,2.415Z" transform="translate(563.619 -914.776)" fill="#f5f4f0"/>
            <path id="Path_17122" data-name="Path 17122" d="M-376.074,910.4c0,1.271-1.2,2.669-3.8,4.321a47.286,47.286,0,0,0-5.4,3.94c-.2.128-.2.128-.2-.254-.2-.127-.2-.127-.2-.254-.2-.381-1-.89-2.8-1.271l.2,5.974c.2,3.94,0,8.643-.2,13.853l-.2,3.94c.2,2.034,1.8,2.924,4.6,2.669h.6c.2,0,.2,0,.2.127l-6.8,5.592c-3.8-1.144-6-2.8-6.8-5.084a21.908,21.908,0,0,1-.4-4.829V917.009h-1l-4.8.508a61.824,61.824,0,0,0,4.8-5.846,18,18,0,0,0,2.4-6.863,17.992,17.992,0,0,1,2.4-6.864q5.1-7.625,13.192-7.625a17.31,17.31,0,0,1,3.6.381c-6.2,1.017-9.994,3.05-11.193,5.974a13.2,13.2,0,0,0-.6,4.575V911.29c6,.127,9.993-.636,12.192-2.161A2.833,2.833,0,0,1-376.074,910.4Z" transform="translate(536.769 -890.319)" fill="#f5f4f0"/>
            <path id="Path_17123" data-name="Path 17123" d="M-349.4,959.189c-3.6-1.144-5.8-2.8-6.8-5.084a20.162,20.162,0,0,1-.4-4.829V930.847c0-1.144,0-1.906-.2-2.034-.2-.635-1-1.017-2-1.144.6,0-1.4.254-5.8.636a1.1,1.1,0,0,1-1-.127c-.2-.127,0-.381,1-.763l1.2-.635L-351,921.061a4.918,4.918,0,0,1,3.4,3.686,27.066,27.066,0,0,1,.4,5.338c0,.381,0,2.415-.2,6.1l-.4,14.616q.3,3.241,4.8,2.669c.6,0,.8,0,.6.127Zm-1.6-41.815c-1.4-.508-4-3.431-7-3.813a2.225,2.225,0,0,0-1,.127h-.6l9.395-4.83c1.8.508,4.6,3.432,7.2,3.813a6.757,6.757,0,0,0,1.6,0Z" transform="translate(516.293 -900.471)" fill="#f5f4f0"/>
            <path id="Path_17124" data-name="Path 17124" d="M-295.466,950.363c-1.8-.89-2.6-2.669-2.8-5.338-.2-2.16-1-3.3-2.8-3.431a1.934,1.934,0,0,0-1.2,0,7.428,7.428,0,0,0-1.4.254v19.7q0,6.291,4.8,5.338a10.721,10.721,0,0,0,5.2-2.8l1.2-1.78c1.4-2.161,1-5.084-.8-8.515a24.648,24.648,0,0,1,3.4,3.813v.127a7.017,7.017,0,0,1,.4,5.338c-.6,2.415-3.8,5.846-9.394,10.295l-.8.636a13.236,13.236,0,0,0-2.8-.763c-5-1.4-8.2-3.3-9.194-5.974a20.717,20.717,0,0,1-.4-4.957V943.627l.6-.254c3-1.271,9.194-4.067,18.388-8.388a3.125,3.125,0,0,1,2,1.4q.9,1.526,1.2,6.482a2.415,2.415,0,0,0,1.4,2.415Z" transform="translate(486.94 -914.776)" fill="#f5f4f0"/>
            <path id="Path_17125" data-name="Path 17125" d="M-232.18,945.66a17,17,0,0,1-2.2,1.144,31.186,31.186,0,0,0-11.593,10.168v4.576q0,6.1,4.8,5.338a9.6,9.6,0,0,0,5.2-2.8l1.2-1.78c1.2-2.161.8-4.957-1-8.515l3.6,3.813v.127a7.017,7.017,0,0,1,.4,5.338c-1,3.559-4.2,6.99-9.394,10.295l-1,.636-2.6-.763c-5.2-1.271-8.2-3.3-9.194-5.974a22.423,22.423,0,0,1-.4-4.957V943.627c-.2-.127-.2-.254,0-.381l17.989-8.262a3.124,3.124,0,0,1,2,1.4q.9,1.334,1.2,6.482a3.428,3.428,0,0,0,1.6,2.542Zm-9.994-3.3a2.9,2.9,0,0,0-2-.762,2.585,2.585,0,0,0-1.4,0c-.2,0-.4,0-.4.127v11.948a20.178,20.178,0,0,0,4.8-5.338C-241.174,945.279-241.574,943.246-242.174,942.356Z" transform="translate(455.434 -914.776)" fill="#f5f4f0"/>
          </g>
          <g id="Group_5072" data-name="Group 5072" transform="translate(21.661 61.502)">
            <path id="Path_17126" data-name="Path 17126" d="M-641.323,775.741a13.2,13.2,0,0,0-.6,4.575v10.8c0-.127,0,2.161.2,6.864v3.94c0,6.609,0,11.184-.2,13.854l-.2,3.94c.4,2.033,2,2.923,4.6,2.669h.6l.2.127-6.8,5.592c-3.8-1.144-6-2.8-6.8-5.084a21.941,21.941,0,0,1-.4-4.829V780.7c1-.381,3-2.669,6.2-6.609a12.606,12.606,0,0,1,10.394-4.7,22.955,22.955,0,0,1,4,.381C-636.525,770.784-640.323,772.818-641.323,775.741Z" transform="translate(650.716 -769.386)" fill="#f5f4f0"/>
            <path id="Path_17127" data-name="Path 17127" d="M-593.374,824.727a16.88,16.88,0,0,1-2.2,1.144,31.186,31.186,0,0,0-11.593,10.168v4.576q0,6.1,4.8,5.338a9.6,9.6,0,0,0,5.2-2.8l1.2-1.78c1.2-2.161.8-4.957-1-8.516l3.6,3.813v.127a7.014,7.014,0,0,1,.4,5.338c-1,3.559-4.2,6.99-9.394,10.295l-1,.636-2.6-.763c-5.2-1.271-8.2-3.3-9.194-5.974a22.477,22.477,0,0,1-.4-4.957V822.694q-.3-.19,0-.381l17.989-8.261a3.126,3.126,0,0,1,2,1.4q.9,1.334,1.2,6.482a3.428,3.428,0,0,0,1.6,2.542Zm-9.994-3.3a2.9,2.9,0,0,0-2-.762,2.585,2.585,0,0,0-1.4,0c-.2,0-.4,0-.4.127v11.947a20.18,20.18,0,0,0,4.8-5.338C-602.369,824.346-602.769,822.313-603.368,821.423Z" transform="translate(631.549 -793.843)" fill="#f5f4f0"/>
            <path id="Path_17128" data-name="Path 17128" d="M-538.691,852.83c-3.8-1.144-6-2.923-6.8-5.211l-6.4,5.211c-4.6-1.525-7-3.94-7.2-7.372a11.561,11.561,0,0,0-.2-1.779V831.6l2-1.017c-1.8-2.8-2.4-5.338-1.4-7.752s3.4-4.195,7.2-5.339a81.631,81.631,0,0,0,8.994-2.287c1.2-.509,2-.763,2.2-.636,2.6.509,4,3.559,3.8,9.151,0,.762-.2,7.626-.6,20.717.2,2.033,1.8,2.923,4.6,2.669h.6c.2,0,.2,0,.2.127Zm-7-31.266-5.6.763c-3.8.89-5.6,2.669-5.6,5.338a11.321,11.321,0,0,0,.4,2.415c3.4-2.034,7-4.576,10.793-5.465Zm-.2,21.353.2-16.65c-3.2,1.525-4.8,4.448-4.8,8.642v9.405h.2v.127c.2,2.033,1.8,2.923,4.6,2.669A21.5,21.5,0,0,1-545.886,842.917Z" transform="translate(600.648 -794.111)" fill="#f5f4f0"/>
            <path id="Path_17129" data-name="Path 17129" d="M-482.223,827.958a6.2,6.2,0,0,0,.4-3.05c-.4-2.161-1.6-3.432-3.4-3.559a3.2,3.2,0,0,0-2.2.381v2.034c0,.381-.2,7.245-.8,20.717q.6,3.05,4.8,2.669h.4c.2,0,.2,0,.2.127l-6.8,5.592c-3.8-1.144-6-2.8-6.8-5.084a22.877,22.877,0,0,1-.4-4.829l.2-19.7c0-2.542-.8-3.813-4.2-3.686a1.03,1.03,0,0,1-.6-.127l10.193-4.7a4.834,4.834,0,0,1,3.2,3.05,11.257,11.257,0,0,1,2.4-3.177,25.693,25.693,0,0,1,8.794,3.177c3.4,1.907,4.8,3.686,4.4,5.592Z" transform="translate(568.963 -794.151)" fill="#f5f4f0"/>
            <path id="Path_17130" data-name="Path 17130" d="M-407.438,853.023c-3.8-1.144-6-2.8-7-5.084-.2-.254-.2-1.906-.2-4.829l-.2-18.429a3.081,3.081,0,0,0,0-1.906,2.209,2.209,0,0,0-2.2-1.271,2.594,2.594,0,0,0-1.4,0,6.421,6.421,0,0,1-1.4.381v2.034c0,.381-.2,7.245-.8,20.717q.6,3.05,4.8,2.669h.4c.2,0,.2,0,.2.127l-6.8,5.592c-3.8-1.144-6-2.8-6.8-5.084a22.879,22.879,0,0,1-.4-4.829l.2-19.7c0-2.542-.8-3.813-4.2-3.686a1.029,1.029,0,0,1-.6-.127l10.193-4.7q3.3.954,3.6,4.957l10.793-4.957a4.567,4.567,0,0,1,3.6,3.686,29.979,29.979,0,0,1,.2,5.338c0,.381,0,2.415-.2,6.1l-.4,14.616c.2,2.033,1.8,2.923,4.6,2.669h.6c.2,0,.2,0,.2.127Z" transform="translate(531.954 -794.304)" fill="#f5f4f0"/>
          </g>
          <g id="Group_5073" data-name="Group 5073" transform="translate(21.661)">
            <path id="Path_17131" data-name="Path 17131" d="M-643.321,710c-4.6-1.525-7-3.94-7.2-7.372v-7.88c-.2-4.7-.2-8.9-.2-12.837v-3.177a44.28,44.28,0,0,0,15.59-7.117,6.793,6.793,0,0,1,1.6-.127c3.6,0,5.6,1.271,6.2,3.813a48.079,48.079,0,0,1,.4,5.465c-.2,2.16-.4,6.482-.6,13.091a3.243,3.243,0,0,0,1.4,2.161Zm7-18.048v-1.271c.2-2.287.2-3.3.2-3.05v-5.084c0-3.94-1-5.974-2.8-5.974a2.955,2.955,0,0,0-3,2.542v19.573h.2c-.2,2.16,1,3.177,3.6,3.177a6.543,6.543,0,0,0,4.2-1.652C-635.526,698.82-636.325,696.151-636.325,691.957Z" transform="translate(650.716 -650.772)" fill="#f5f4f0"/>
            <path id="Path_17132" data-name="Path 17132" d="M-567.01,671.707h-.2l-.6.509-3.4,2.8-.8.636L-582.8,684.29c-4.8-1.4-7.2-3.94-7.2-7.372V655.312c-.2-8.134-.2-14.616-.2-19.573V633.2A106.151,106.151,0,0,1-581,627.732a18.912,18.912,0,0,1,11.593-1.779c-6.2,1.017-9.794,3.05-11.193,5.974a9.993,9.993,0,0,0-.8,4.576v14.743l11.193-5.083c2.8.89,4,3.94,3.8,9.151l-.6,12.837a3.838,3.838,0,0,0,1.4,2.288Zm-6.4,2.924a8.137,8.137,0,0,1-2.4-6.228c0-2.414,0-4.956.2-7.5a20.556,20.556,0,0,0,0-4.957c0-1.144-.2-3.05-2.4-3.177h-1.4l-2,.508.2,19.064h-.2v.636h.2v.127c0,2.034,1.2,3.051,3.8,3.051a7.845,7.845,0,0,0,3.8-1.4Z" transform="translate(617.578 -625.693)" fill="#f5f4f0"/>
            <path id="Path_17133" data-name="Path 17133" d="M-516.814,684.4c3,1.144,5,2.542,5.8,4.448a12.492,12.492,0,0,1,.6,4.829l.2,7.626c0,.128,0,.128-.2.128-1.8,1.4-6,4.321-12.193,8.515a18.281,18.281,0,0,1-4-1.271,18.57,18.57,0,0,1-4.6-3.3c-1.4-1.4-3-2.669-4.4-3.939-.2-.128-.2-.128,0-.255,1-1.143,3-3.05,5.6-5.465a5.745,5.745,0,0,1-3.6-3.559q-.6-1.144-.6-4.957l-.2-7.626.2-.127c2.2-1.525,6.4-4.321,12.192-8.515l4,1.27a13.9,13.9,0,0,1,3,2.034,51.14,51.14,0,0,0,6,5.211c.2.127.2.255,0,.255A40.515,40.515,0,0,0-516.814,684.4Zm-2.6,9.024c0-1.017-1.2-2.034-3.4-3.178a44.531,44.531,0,0,0-4.2,5.592.374.374,0,0,1-.2.381c0,1.271.8,2.923,2.6,5.084a9.753,9.753,0,0,0,3.4,2.8,1.875,1.875,0,0,0,2-.636Zm.4-11.439a6.367,6.367,0,0,0-4.2-5.084,2.032,2.032,0,0,0-2.2.508l.4,8.77a3.794,3.794,0,0,0,1,2.923c3.4-2.669,5-4.575,5-5.719Z" transform="translate(587.767 -650.465)" fill="#f5f4f0"/>
            <path id="Path_17134" data-name="Path 17134" d="M-450.245,682.17a16.938,16.938,0,0,1-2.2,1.144,31.185,31.185,0,0,0-11.593,10.167v4.576q0,6.1,4.8,5.338a9.6,9.6,0,0,0,5.2-2.8l1.2-1.779c1.2-2.16.8-4.957-1-8.515l3.6,3.813v.128a7.014,7.014,0,0,1,.4,5.337c-1,3.559-4.2,6.991-9.394,10.3l-1,.636-2.6-.763c-5.2-1.271-8.195-3.3-9.194-5.973a22.457,22.457,0,0,1-.4-4.957V680.137q-.3-.19,0-.381l17.989-8.261a3.126,3.126,0,0,1,2,1.4q.9,1.334,1.2,6.482a3.429,3.429,0,0,0,1.6,2.542Zm-9.994-3.3a2.9,2.9,0,0,0-2-.762,2.585,2.585,0,0,0-1.4,0c-.2,0-.4,0-.4.127v11.948a20.194,20.194,0,0,0,4.8-5.338C-459.239,681.789-459.639,679.755-460.238,678.866Z" transform="translate(553.176 -650.772)" fill="#f5f4f0"/>
            <path id="Path_17135" data-name="Path 17135" d="M-404.028,685.4a6.205,6.205,0,0,0,.4-3.05c-.4-2.161-1.6-3.432-3.4-3.559a3.2,3.2,0,0,0-2.2.381v2.034c0,.381-.2,7.244-.8,20.716q.6,3.05,4.8,2.669h.4c.2,0,.2,0,.2.128l-6.8,5.592c-3.8-1.144-6-2.8-6.8-5.084a22.878,22.878,0,0,1-.4-4.83l.2-19.7c0-2.542-.8-3.813-4.2-3.686a1.024,1.024,0,0,1-.6-.128l10.193-4.7a4.834,4.834,0,0,1,3.2,3.05,11.269,11.269,0,0,1,2.4-3.177,25.691,25.691,0,0,1,8.795,3.177c3.4,1.907,4.8,3.686,4.4,5.592Z" transform="translate(526.146 -651.08)" fill="#f5f4f0"/>
            <path id="Path_17136" data-name="Path 17136" d="M-344.278,710.466c-4.8-1.653-7.2-4.067-7.2-7.372V680.852c0-2.669-1.4-3.813-4-3.686a1.026,1.026,0,0,1-.6-.128l9.994-4.7c2.4.762,3.6,3.813,3.6,9.024l-.2,17.158h-.2v.635h.2c-.2,2.16,1,3.178,3.6,3.178a6.544,6.544,0,0,0,4.2-1.652c-1.6-1.4-2.4-3.686-2.4-6.609v-3.05h.2V680.852c0-2.669-1.4-3.813-4-3.686a1.025,1.025,0,0,1-.6-.128l9.794-4.7a4.917,4.917,0,0,1,3.4,3.686,27.111,27.111,0,0,1,.4,5.338c-.2.89-.2,4.194-.4,9.659v3.3a3.241,3.241,0,0,0,1.4,2.16Z" transform="translate(489.38 -651.233)" fill="#f5f4f0"/>
            <path id="Path_17137" data-name="Path 17137" d="M-262.941,682.17a16.873,16.873,0,0,1-2.2,1.144,31.18,31.18,0,0,0-11.592,10.167v4.576q0,6.1,4.8,5.338a9.6,9.6,0,0,0,5.2-2.8l1.2-1.779c1.2-2.16.8-4.957-1-8.515l3.6,3.813v.128a7.014,7.014,0,0,1,.4,5.337c-1,3.559-4.2,6.991-9.395,10.3l-1,.636-2.6-.763c-5.2-1.271-8.2-3.3-9.194-5.973a22.464,22.464,0,0,1-.4-4.957V680.137q-.3-.19,0-.381l17.989-8.261a3.126,3.126,0,0,1,2,1.4q.9,1.334,1.2,6.482a3.429,3.429,0,0,0,1.6,2.542Zm-9.994-3.3a2.894,2.894,0,0,0-2-.762,2.585,2.585,0,0,0-1.4,0c-.2,0-.4,0-.4.127v11.948a20.185,20.185,0,0,0,4.8-5.338C-271.935,681.789-272.335,679.755-272.934,678.866Z" transform="translate(450.616 -650.772)" fill="#f5f4f0"/>
          </g>
        </g>
        <circle id="Ellipse_397" data-name="Ellipse 397" cx="4.212" cy="4.212" r="4.212" transform="translate(216.301 51.279)" fill="#ffc40c"/>
        <circle id="Ellipse_398" data-name="Ellipse 398" cx="4.212" cy="4.212" r="4.212" transform="translate(158.031 110.954)" fill="#ffc40c"/>
        <circle id="Ellipse_399" data-name="Ellipse 399" cx="4.212" cy="4.212" r="4.212" transform="translate(231.045 171.331)" fill="#ffc40c"/>
        <circle id="Ellipse_400" data-name="Ellipse 400" cx="4.212" cy="4.212" r="4.212" transform="translate(188.219 229.602)" fill="#ffc40c"/>
      </g>
      <g id="Group_5942" data-name="Group 5942" transform="translate(110.557 478.215)">
        <g id="Group_5936" data-name="Group 5936" transform="translate(0 0)">
          <g id="Group_5930" data-name="Group 5930" transform="translate(31.026)">
            <path id="Path_18820" data-name="Path 18820" d="M1361.688,691.431c-8.02-3.681-14.524-4.107-24.982-5.325.033.176,6.916-7.459,11.891-9.293,5.021-1.558,15.688,1.741,15.674,1.681.024.037-3.315-4.383-7.882-4.9,0,0,2.671-1.489,6.655-3.441a93.2,93.2,0,0,1,25.314-7.478,46.33,46.33,0,0,1,22.912,3.1c-1.007-1.8-1.452-3.321-5.55-5.168a56.039,56.039,0,0,1,7.2,1.609c4.2,1.276,9.524,3.214,13.993,8.668,9.492,13.092,18.143,22.144,18.315,21.546.047.172-2.161,2.454-5.751,6.51a166.351,166.351,0,0,1-14.079,14.45c-11,8.618-29.519-1.431-29.51-.4,4.946-2.428,6.286-7.727,8.149-12.838.062.153-9.792,9.225-16.739,10.41-8.4,1.431-17.977-2.3-33.248-1.6a68.893,68.893,0,0,0-10.713,1.237C1348.946,703.291,1353.24,698.281,1361.688,691.431Z" transform="translate(-1336.03 -659.928)" fill="#ffc40c"/>
            <path id="Path_18821" data-name="Path 18821" d="M1413.661,717.292c-6.286,0-12.431-2.147-15.828-3.333-.8-.28-1.626-.568-1.986-.649a.676.676,0,0,1-.938-.616.8.8,0,0,1,.307-.608.759.759,0,0,1,.335-.141c3.681-1.943,5.19-5.683,6.627-9.732-3.368,2.878-10.019,7.851-15.07,8.712-4.246.724-8.788.159-14.046-.5a107.105,107.105,0,0,0-19.284-1.092,72.877,72.877,0,0,0-10.5,1.191.676.676,0,0,1-.788-1.033c5.431-6.7,9.64-11.63,17.615-18.2-6.672-2.884-12.346-3.526-20.734-4.475q-1.385-.157-2.869-.328a.744.744,0,0,1-.766-.567.675.675,0,0,1,.331-.713c.116-.106.388-.375.673-.659,1.977-1.962,7.23-7.174,11.318-8.682,2.775-.86,7.517-.486,13.806,1.073a10.944,10.944,0,0,0-5.857-2.983.676.676,0,0,1-.418-1.132c.2-.21,4.151-2.264,6.852-3.586a93.623,93.623,0,0,1,25.524-7.542,46.973,46.973,0,0,1,21.489,2.457c-.692-1.075-1.7-2.058-4.318-3.238a.7.7,0,0,1-.148-.092.679.679,0,0,1-.176-.837c.265-.513.456-.474,2.794.01,1.142.236,2.97.646,5.188,1.26,4.885,1.485,9.989,3.586,14.336,8.892,8.77,12.094,16.5,20.35,17.854,21.3a.675.675,0,0,1,.59.5c.126.46.126.46-2.306,3.14-.937,1.033-2.153,2.371-3.591,4q-.719.792-1.5,1.659a145.631,145.631,0,0,1-12.646,12.854A18.8,18.8,0,0,1,1413.661,717.292Zm-16.246-4.91c.254.087.54.187.864.3,5.43,1.9,18.146,6.34,26.4-.127a144.567,144.567,0,0,0,12.5-12.716c.522-.579,1.021-1.133,1.5-1.657,1.436-1.622,2.655-2.966,3.6-4,.677-.746,1.293-1.425,1.673-1.862a52.478,52.478,0,0,1-5.451-5.684c-2.325-2.652-7.031-8.213-12.429-15.657-4.093-4.994-8.978-7-13.643-8.418-1.223-.339-2.352-.621-3.331-.848a8.678,8.678,0,0,1,2.169,2.881c.1.181.194.364.3.551a.675.675,0,0,1,0,.652.743.743,0,0,1-.919.274,45.592,45.592,0,0,0-22.495-3.027,92.088,92.088,0,0,0-25.109,7.416c-2.145,1.051-3.883,1.953-5.038,2.566a15.009,15.009,0,0,1,6.488,4.734.676.676,0,0,1-.052.917.575.575,0,0,1-.507.183.774.774,0,0,1-.087-.011c-.133-.022-.294-.065-.5-.121-8.789-2.382-12.927-2.17-14.851-1.574-3.643,1.344-8.513,6.094-10.58,8.143l1.611.183c8.61.974,14.831,1.679,22.14,5.034a.676.676,0,0,1,.144,1.139,106.214,106.214,0,0,0-17.081,17.237c2.525-.415,6.577-.791,8.988-.9a108.472,108.472,0,0,1,19.512,1.1c5.152.642,9.6,1.2,13.652.505,6.4-1.09,15.594-9.344,16.276-10.1a.676.676,0,0,1,1.205.1.7.7,0,0,1-.008.522c-.2.564-.4,1.13-.6,1.693C1402.349,705.8,1400.907,709.906,1397.415,712.382Z" transform="translate(-1335.725 -659.622)" fill="#f5f4f0"/>
          </g>
          <g id="Group_5931" data-name="Group 5931" transform="translate(58.101 2.941)">
            <path id="Path_18822" data-name="Path 18822" d="M1378.089,670.118c3.712,9.223,9.275,18.715,16.5,22.19-7.175,3.769-14.278,11.737-18.594,18.091,2.53.461,12.609,1.723,15.47,1.639,5.094-4.331,13.093-12.331,24.849-19.169-11.165-8.7-19.064-15.7-20.816-28A59.877,59.877,0,0,0,1378.089,670.118Z" transform="translate(-1375.317 -664.196)" fill="#e5e4e0"/>
            <path id="Path_18823" data-name="Path 18823" d="M1390.857,712.413a147.75,147.75,0,0,1-15.291-1.655.675.675,0,0,1-.437-1.045c4.079-6.005,10.783-13.641,17.734-17.7-7.357-4.236-12.575-14.169-15.706-21.952a.677.677,0,0,1,.335-.862,60.706,60.706,0,0,1,17.615-5.307.672.672,0,0,1,.753.575c1.716,12.052,9.6,19.024,20.562,27.559a.676.676,0,0,1-.075,1.117,128.515,128.515,0,0,0-21.451,16.2c-1.187,1.058-2.309,2.057-3.3,2.9a.672.672,0,0,1-.418.161C1391.079,712.412,1390.972,712.413,1390.857,712.413Zm-14.007-2.813c3.459.53,11.3,1.45,14.054,1.461.934-.8,1.984-1.735,3.092-2.721a131.631,131.631,0,0,1,20.812-15.854c-10.606-8.3-18.259-15.3-20.186-27.161a59.8,59.8,0,0,0-15.971,4.827c3.227,7.862,8.548,17.695,15.924,21.242a.676.676,0,0,1,.021,1.207C1387.809,696.167,1381.1,703.556,1376.851,709.6Z" transform="translate(-1375.012 -663.891)" fill="#f5f4f0"/>
          </g>
          <g id="Group_5932" data-name="Group 5932" transform="translate(0 29.194)">
            <path id="Path_18824" data-name="Path 18824" d="M1291.693,718.633c-.034-.228,7.619-3,12.2-8.668,4.648-6.147,10.858-8.328,19.319-6.212a71.722,71.722,0,0,1,13.293,4.273c.016.083-5.308,7-8.122,10.777-2.82,3.876-8.494,4.963-15.216,3.258A125.4,125.4,0,0,0,1291.693,718.633Z" transform="translate(-1291.013 -702.289)" fill="#ffc40c"/>
            <path id="Path_18825" data-name="Path 18825" d="M1318.707,723.22a24.606,24.606,0,0,1-6.013-.81,127.8,127.8,0,0,0-21.184-3.417.678.678,0,0,1-.781-.511.515.515,0,0,1-.01-.055c-.08-.539.233-.69,1.272-1.192,2.064-1,7.548-3.642,11.072-8,4.894-6.472,11.442-8.585,20.008-6.443a94.532,94.532,0,0,1,9.866,2.89c4.057,1.451,4.032,1.587,3.927,2.16a48.083,48.083,0,0,1-3.579,4.887c-1.581,2.08-3.383,4.452-4.666,6.172C1326.552,721.742,1323.075,723.219,1318.707,723.22Zm-24.824-5.411c1.116.107,2.668.289,4.836.579a121.171,121.171,0,0,1,14.314,2.714c6.6,1.674,11.888.581,14.5-3,1.288-1.729,3.094-4.1,4.677-6.189,1.158-1.524,2.345-3.085,2.968-3.921a82.251,82.251,0,0,0-12.426-3.886c-8.1-2.026-14.015-.131-18.623,5.962C1301.006,713.925,1296.518,716.475,1293.883,717.81Z" transform="translate(-1290.706 -701.984)" fill="#f5f4f0"/>
          </g>
          <g id="Group_5933" data-name="Group 5933" transform="translate(14.514 34.206)">
            <path id="Path_18826" data-name="Path 18826" d="M1337.008,712.671c-1.872,2.646-4.047,5.5-5.614,7.759-.649.932-2.032,2.859-7.913,1.342-3.487-.932-7.2-1.7-10.734-2.43a24.589,24.589,0,0,0,3.748-3.7c1.973-2.456,4.023-4.212,6.225-4.952.694-.245,2.817-.929,7.2.108C1332.7,711.443,1335.085,712.088,1337.008,712.671Z" transform="translate(-1312.071 -709.561)" fill="#e5e4e0"/>
            <path id="Path_18827" data-name="Path 18827" d="M1326.97,722.7a16.043,16.043,0,0,1-3.963-.579c-3.359-.9-6.834-1.628-10.7-2.422a.675.675,0,0,1-.288-1.187,23.7,23.7,0,0,0,3.646-3.6c2.2-2.739,4.339-4.431,6.536-5.169,1.908-.675,4.458-.645,7.568.092,2.608.609,5.008,1.244,7.131,1.886a.676.676,0,0,1,.356,1.037c-.88,1.245-1.828,2.535-2.747,3.788-1.047,1.427-2.037,2.775-2.863,3.967C1331.137,721.239,1330.12,722.7,1326.97,722.7Zm-13.032-4.045c3.352.695,6.424,1.36,9.412,2.158,5.459,1.409,6.623-.269,7.184-1.076.837-1.2,1.831-2.56,2.884-4,.727-.99,1.471-2,2.185-3-1.858-.54-3.962-1.087-6.145-1.6-2.855-.676-5.149-.719-6.817-.13-1.955.657-3.889,2.206-5.923,4.738A23.893,23.893,0,0,1,1313.939,718.656Z" transform="translate(-1311.766 -709.256)" fill="#f5f4f0"/>
          </g>
          <g id="Group_5934" data-name="Group 5934" transform="translate(31.026 17.473)">
            <path id="Path_18828" data-name="Path 18828" d="M1367.162,697.926c-2.166-6.329-13.346-10.628-21.114-11.969-4.468,2.946-9.328,8.1-9.342,8.029,10.458,1.219,16.962,1.644,24.982,5.325-8.448,6.85-12.742,11.86-18.349,18.771,0,.006,5.813-.507,10.713-1.236C1358.047,709.114,1362.524,701.415,1367.162,697.926Z" transform="translate(-1336.03 -685.281)" fill="#e5e4e0"/>
            <path id="Path_18829" data-name="Path 18829" d="M1343.083,718.437c-.31,0-.371-.05-.476-.136a.675.675,0,0,1-.1-.949c5.414-6.674,9.622-11.609,17.6-18.176-6.671-2.883-12.344-3.525-20.731-4.475-.937-.105-1.9-.215-2.908-.332a.752.752,0,0,1-.263-.041.676.676,0,0,1-.193-1.2c.072-.067.221-.214.434-.426a65.614,65.614,0,0,1,8.926-7.616.685.685,0,0,1,.487-.1c6.392,1.1,19.142,5.12,21.639,12.416a.675.675,0,0,1-.233.759c-4.725,3.555-9.384,11.856-12.916,18.691a.675.675,0,0,1-.5.358c-2.557.38-5.338.7-7.22.9C1344.432,718.34,1343.515,718.437,1343.083,718.437Zm-5.187-25.264,1.632.185c8.609.974,14.828,1.679,22.138,5.033a.676.676,0,0,1,.144,1.139,106.7,106.7,0,0,0-17.237,17.428c1.994-.194,5.542-.571,8.734-1.035,3.683-7.107,8.048-14.759,12.742-18.53-2.469-5.885-13.2-9.778-20.155-11.029A62.455,62.455,0,0,0,1337.9,693.173Z" transform="translate(-1335.726 -684.977)" fill="#f5f4f0"/>
          </g>
          <g id="Group_5935" data-name="Group 5935" transform="translate(89.992)">
            <path id="Path_18830" data-name="Path 18830" d="M1451.994,713.392a166.368,166.368,0,0,0,14.079-14.45c3.59-4.055,5.8-6.338,5.751-6.509-.173.6-8.823-8.455-18.315-21.546-4.47-5.454-9.795-7.391-13.993-8.668a56,56,0,0,0-7.2-1.609c4.1,1.847,4.542,3.363,5.55,5.168a47.64,47.64,0,0,0-15.6-3.445c4.749,8.264,12.512,13.967,19.151,19.126,6.636,4.919,12.149,9.293,12.333,9.368-6.66,2.34-15.162,7.968-21.982,24.839C1437.959,717.236,1446.153,718.522,1451.994,713.392Z" transform="translate(-1421.592 -659.928)" fill="#e5e4e0"/>
            <path id="Path_18831" data-name="Path 18831" d="M1440.923,717.434a39.727,39.727,0,0,1-9.626-1.419.676.676,0,0,1-.46-.908c5.278-13.054,12.227-21.177,21.216-24.784l-1.108-.855c-2.245-1.733-6-4.635-10.234-7.772l-1.264-.979c-6.352-4.916-13.55-10.487-18.07-18.353a.677.677,0,0,1,.625-1.012,52,52,0,0,1,14.04,2.794c-.691-1.07-1.7-2.051-4.309-3.226a.7.7,0,0,1-.148-.092.678.678,0,0,1-.176-.837c.264-.513.456-.474,2.794.01,1.142.236,2.97.646,5.188,1.26,4.885,1.486,9.99,3.587,14.336,8.892,8.771,12.094,16.5,20.35,17.853,21.3a.677.677,0,0,1,.591.5c.125.46.125.46-2.3,3.131-.938,1.034-2.156,2.376-3.6,4q-.716.791-1.492,1.653a145.642,145.642,0,0,1-12.649,12.86A16.4,16.4,0,0,1,1440.923,717.434Zm-8.537-2.542c6.08,1.474,13.519,2.375,18.857-2.314a144.421,144.421,0,0,0,12.535-12.746c.519-.577,1.016-1.129,1.49-1.65,1.439-1.626,2.661-2.972,3.6-4.009.674-.743,1.287-1.419,1.666-1.855a52.552,52.552,0,0,1-5.451-5.684c-2.325-2.652-7.029-8.212-12.429-15.657-4.093-4.994-8.978-7-13.643-8.418-1.223-.339-2.351-.621-3.331-.848a8.671,8.671,0,0,1,2.169,2.881c.1.181.194.364.3.551a.676.676,0,0,1-.96.9,47.833,47.833,0,0,0-13.98-3.244c4.416,7.065,11.117,12.251,17.064,16.853l1.254.972c4.231,3.136,8,6.043,10.243,7.779,1.028.794,1.845,1.425,2.006,1.535a.676.676,0,0,1-.108,1.226C1444.668,694.322,1437.7,702.089,1432.386,714.892Z" transform="translate(-1421.287 -659.622)" fill="#f5f4f0"/>
          </g>
        </g>
        <g id="Group_5938" data-name="Group 5938" transform="translate(55.745 28.814)">
          <g id="Group_5937" data-name="Group 5937">
            <path id="Path_18832" data-name="Path 18832" d="M1654.431,706.468H1374.6a2.028,2.028,0,1,1,0-4.055h279.83a2.028,2.028,0,1,1,0,4.055Z" transform="translate(-1371.898 -701.737)" fill="#e5e4e0"/>
            <path id="Path_18833" data-name="Path 18833" d="M1654.126,706.839H1374.3a2.7,2.7,0,0,1,0-5.407h279.83a2.7,2.7,0,0,1,0,5.407Zm-279.83-4.055a1.351,1.351,0,1,0,0,2.7h279.83a1.351,1.351,0,0,0,0-2.7Z" transform="translate(-1371.593 -701.432)" fill="#f5f4f0"/>
          </g>
        </g>
        <path id="Path_18834" data-name="Path 18834" d="M1812.593,693.2c-15.392-4.4-33.751-11.2-45.981-18.711a2.552,2.552,0,0,0-3.829,2.754,85.681,85.681,0,0,1,2.481,18.408,84.288,84.288,0,0,1-2.448,18.4,2.551,2.551,0,0,0,3.831,2.746c12.23-7.5,30.569-14.294,45.946-18.69A2.55,2.55,0,0,0,1812.593,693.2Z" transform="translate(-1437.421 -664.122)" fill="#f5f4f0"/>
        <circle id="Ellipse_419" data-name="Ellipse 419" cx="6.966" cy="6.966" r="6.966" transform="translate(304.647 31.518) rotate(-45)" fill="#ffc40c"/>
        <g id="Group_5939" data-name="Group 5939" transform="translate(284.808 24.416)">
          <rect id="Rectangle_3527" data-name="Rectangle 3527" width="19.313" height="12.852" rx="5.883" transform="translate(0.676 0.676)" fill="#f5f4f0"/>
          <path id="Path_18835" data-name="Path 18835" d="M1719.981,709.254h-11.361a4.657,4.657,0,0,1-4.652-4.652v-4.9a4.657,4.657,0,0,1,4.652-4.652h11.361a4.657,4.657,0,0,1,4.652,4.652v4.9A4.657,4.657,0,0,1,1719.981,709.254ZM1708.621,696.4a3.3,3.3,0,0,0-3.3,3.3v4.9a3.3,3.3,0,0,0,3.3,3.3h11.361a3.3,3.3,0,0,0,3.3-3.3v-4.9a3.3,3.3,0,0,0-3.3-3.3Z" transform="translate(-1703.969 -695.05)" fill="#ffc40c"/>
        </g>
        <path id="Path_18836" data-name="Path 18836" d="M1693.97,708.883a3.977,3.977,0,0,1-3.977-3.977v-4.9a3.977,3.977,0,0,1,7.953,0v4.9A3.976,3.976,0,0,1,1693.97,708.883Z" transform="translate(-1414.817 -670.939)" fill="#ffc40c"/>
        <g id="Group_5940" data-name="Group 5940" transform="translate(144.71 17.939)">
          <path id="Path_18837" data-name="Path 18837" d="M1535.653,707.579c-9.982,0-11.492-6.32-12.594-10.934-.983-4.117-1.657-6.276-5.11-6.5-2.183-.135-3.269,1.731-5.013,5.053-1.994,3.8-4.477,8.532-10.564,10.087a1.352,1.352,0,0,1-1.45-2.074,15.332,15.332,0,0,0,2.608-8.683,1.352,1.352,0,0,1,2.7-.109,17.23,17.23,0,0,1-1.224,6.775c2.681-1.814,4.176-4.661,5.534-7.251,1.744-3.323,3.55-6.755,7.584-6.5,5.6.366,6.645,4.725,7.563,8.571,1.136,4.753,2.117,8.859,9.965,8.859,6.715,0,9.511-4.666,12.473-9.606,2.834-4.729,5.766-9.618,12.236-9.618,7.57,0,10.858,4.848,14.038,9.535,3.072,4.529,5.973,8.806,12.827,8.806a13.53,13.53,0,0,0,5.157-1.111,1.351,1.351,0,0,1,1.034,2.5,16.191,16.191,0,0,1-6.191,1.318c-8.288,0-11.888-5.309-15.064-9.992-3.039-4.48-5.664-8.349-11.8-8.349-4.939,0-7.247,3.848-9.918,8.3C1547.377,701.779,1543.9,707.579,1535.653,707.579Z" transform="translate(-1500.684 -685.652)" fill="#ffc40c"/>
        </g>
        <g id="Group_5941" data-name="Group 5941" transform="translate(138.873 25.829)">
          <path id="Path_18838" data-name="Path 18838" d="M1493.565,708.508a1.353,1.353,0,0,1-1.159-2.047c1.984-3.308,2.418-4.8,2.323-7.966a1.352,1.352,0,0,1,2.7-.081c.111,3.682-.471,5.71-2.706,9.438A1.352,1.352,0,0,1,1493.565,708.508Z" transform="translate(-1492.214 -697.102)" fill="#ffc40c"/>
        </g>
      </g>
    </g>
  </g>
</svg>
