<svg width="45" height="38" viewBox="0 0 45 38" fill="none" xmlns="http://www.w3.org/2000/svg">
<g opacity="0.15">
<path d="M28.7691 20.4705C30.1567 20.4705 31.3778 19.8249 32.0068 18.8486L38.6302 8.62902C39.3148 7.58974 38.4267 6.29851 37.0206 6.29851H9.63905L7.89995 3.14917H1.8501V6.29851H5.55031L12.2107 18.2502L9.71305 22.0924C8.36247 24.2025 10.1386 26.7692 12.9507 26.7692H35.152V23.6199H12.9507L14.9859 20.4705H28.7691ZM11.3966 9.44785H33.8754L28.7691 17.3212H15.7814L11.3966 9.44785ZM12.9507 28.3439C10.9156 28.3439 9.26903 29.7611 9.26903 31.4932C9.26903 33.2253 10.9156 34.6425 12.9507 34.6425C14.9859 34.6425 16.651 33.2253 16.651 31.4932C16.651 29.7611 14.9859 28.3439 12.9507 28.3439ZM31.4518 28.3439C29.4167 28.3439 27.7701 29.7611 27.7701 31.4932C27.7701 33.2253 29.4167 34.6425 31.4518 34.6425C33.4869 34.6425 35.152 33.2253 35.152 31.4932C35.152 29.7611 33.4869 28.3439 31.4518 28.3439Z" fill="black"/>
</g>
</svg>
