<svg width="56" height="50" viewBox="0 0 56 50" fill="none" xmlns="http://www.w3.org/2000/svg">
<path d="M47.9636 45.7794V37.8974H52.0036C53.8029 37.8974 53.8029 37.8974 53.8029 36.0754C53.8029 27.6156 53.8029 19.1558 53.8029 10.696C53.8029 9.41196 53.9174 9.5457 52.6867 9.54511C43.7987 9.54231 34.9109 9.54231 26.0233 9.54511H24.9857V7.27502H56.0004V40.2215H50.2925V41.1163C50.2925 43.1807 50.2721 45.2456 50.3033 47.31C50.3141 48.0411 50.103 48.6337 49.442 48.9294C48.7931 49.2172 48.1826 49.0079 47.6266 48.5563C44.4665 45.9773 41.2883 43.4236 38.1372 40.8356C37.6208 40.411 37.1098 40.2299 36.4363 40.2317C27.725 40.2525 19.0136 40.2571 10.3019 40.2455H9.34229V22.2252H11.5998V37.8974H12.6236C20.7803 37.8974 28.9369 37.9094 37.0936 37.8794C37.8817 37.8794 38.4641 38.1079 39.056 38.5991C41.7735 40.8422 44.5204 43.0499 47.2589 45.2684C47.4341 45.4052 47.6182 45.5281 47.9636 45.7794Z" fill="#3479E2"/>
<path d="M22.0453 8.61556C21.7197 9.12655 21.4666 9.70891 21.0533 10.1347C20.0535 11.1627 18.9596 12.0983 17.9508 13.1179C17.7367 13.3344 17.5987 13.7681 17.6401 14.0727C17.8392 15.541 18.1199 16.9978 18.3556 18.4612C18.5026 19.3752 18.2591 20.1729 17.4944 20.73C16.7567 21.2698 15.9824 21.1541 15.2225 20.736C14.0098 20.0703 12.7839 19.4286 11.5886 18.7329C11.1232 18.4618 10.7489 18.4396 10.2691 18.7023C9.05639 19.3656 7.81009 19.9702 6.58299 20.6047C5.76852 21.0245 4.94326 21.1679 4.17617 20.5537C3.43787 19.9636 3.26873 19.1743 3.45046 18.2483C3.72515 16.843 3.95066 15.4294 4.14078 14.0086C4.17977 13.7189 4.06101 13.3123 3.86309 13.1023C2.8627 12.0396 1.82392 11.0134 0.775545 9.9956C0.122409 9.35985 -0.173871 8.61616 0.104416 7.74471C0.402496 6.82168 1.1432 6.43544 2.05783 6.32269C3.40548 6.15775 4.75193 5.98562 6.10139 5.83688C6.59259 5.7823 6.91046 5.58738 7.13537 5.11717C7.72973 3.86908 8.39066 2.65277 9.00601 1.41427C9.41804 0.58421 10.0316 0.00604422 10.9798 4.66521e-05C11.9598 -0.00595092 12.5944 0.566817 13.0052 1.43946C13.6049 2.71395 14.2107 3.98483 14.8752 5.22453C15.0234 5.50042 15.4024 5.76431 15.7149 5.82129C17.1483 6.07918 18.5973 6.25071 20.0373 6.47442C21.1667 6.65195 21.8942 7.47122 22.0453 8.61556ZM19.2019 8.71032C17.4056 8.43083 15.8049 8.14895 14.1939 7.94983C13.6883 7.88985 13.4514 7.67694 13.2523 7.25351C12.6435 5.95683 12.0042 4.67455 11.3709 3.38927C11.2707 3.18596 11.1405 2.99703 10.9636 2.69955C10.124 4.33389 9.34427 5.82309 8.59818 7.32968C8.39726 7.73511 8.15016 7.90305 7.68954 7.95283C6.078 8.12675 4.47305 8.36186 2.66298 8.60056C3.63699 9.57517 4.40228 10.5198 5.34449 11.2395C6.60398 12.1991 6.83189 13.2973 6.41566 14.7565C6.09899 15.8678 6.01502 17.0463 5.80331 18.346C6.22314 18.1589 6.47324 18.0593 6.71314 17.937C7.94444 17.3096 9.18114 16.6907 10.398 16.0364C10.7969 15.8216 11.1178 15.8108 11.5142 16.0417C12.5776 16.6607 13.6691 17.2365 14.7493 17.8308C15.1091 18.0287 15.469 18.2249 15.9914 18.5091C15.7707 17.1459 15.7065 15.9488 15.3652 14.8362C14.8854 13.2691 15.2099 12.1463 16.5564 11.1777C17.4788 10.5102 18.2399 9.62135 19.2019 8.71032Z" fill="#3479E2"/>
<path d="M22.8867 23.8698V21.6339H48.6697V23.8698H22.8867Z" fill="#3479E2"/>
<path d="M22.8857 16.9275V14.772C23.2138 14.7552 23.5071 14.727 23.7998 14.727C31.8005 14.727 39.8007 14.736 47.8008 14.7084C48.5667 14.7054 48.8588 14.9069 48.7545 15.6782C48.6987 16.0902 48.7443 16.5179 48.7443 16.9305L22.8857 16.9275Z" fill="#3479E2"/>
<path d="M22.8809 30.7327V28.5574H48.6794V30.7327H22.8809Z" fill="#3479E2"/>
</svg>
