<svg width="20" height="20" viewBox="0 0 20 20" fill="none" xmlns="http://www.w3.org/2000/svg">
<path d="M7.77783 5C7.77783 4.85266 7.83636 4.71135 7.94055 4.60716C8.04474 4.50297 8.18605 4.44444 8.33339 4.44444H12.7778C12.9252 4.44444 13.0665 4.50297 13.1707 4.60716C13.2749 4.71135 13.3334 4.85266 13.3334 5C13.3334 5.14734 13.2749 5.28865 13.1707 5.39284C13.0665 5.49702 12.9252 5.55555 12.7778 5.55555H8.33339C8.18605 5.55555 8.04474 5.49702 7.94055 5.39284C7.83636 5.28865 7.77783 5.14734 7.77783 5ZM8.33339 6.66666C8.18605 6.66666 8.04474 6.7252 7.94055 6.82938C7.83636 6.93357 7.77783 7.07488 7.77783 7.22222C7.77783 7.36956 7.83636 7.51087 7.94055 7.61506C8.04474 7.71924 8.18605 7.77778 8.33339 7.77778H12.7778C12.9252 7.77778 13.0665 7.71924 13.1707 7.61506C13.2749 7.51087 13.3334 7.36956 13.3334 7.22222C13.3334 7.07488 13.2749 6.93357 13.1707 6.82938C13.0665 6.7252 12.9252 6.66666 12.7778 6.66666H8.33339ZM7.77783 12.2222C7.77783 12.0749 7.83636 11.9336 7.94055 11.8294C8.04474 11.7252 8.18605 11.6667 8.33339 11.6667H12.7778C12.9252 11.6667 13.0665 11.7252 13.1707 11.8294C13.2749 11.9336 13.3334 12.0749 13.3334 12.2222C13.3334 12.3696 13.2749 12.5109 13.1707 12.6151C13.0665 12.7192 12.9252 12.7778 12.7778 12.7778H8.33339C8.18605 12.7778 8.04474 12.7192 7.94055 12.6151C7.83636 12.5109 7.77783 12.3696 7.77783 12.2222ZM8.33339 13.8889C8.18605 13.8889 8.04474 13.9474 7.94055 14.0516C7.83636 14.1558 7.77783 14.2971 7.77783 14.4444C7.77783 14.5918 7.83636 14.7331 7.94055 14.8373C8.04474 14.9415 8.18605 15 8.33339 15H12.7778C12.9252 15 13.0665 14.9415 13.1707 14.8373C13.2749 14.7331 13.3334 14.5918 13.3334 14.4444C13.3334 14.2971 13.2749 14.1558 13.1707 14.0516C13.0665 13.9474 12.9252 13.8889 12.7778 13.8889H8.33339Z" fill="#A8A5A5"/>
<path fill-rule="evenodd" clip-rule="evenodd" d="M2.22217 11.6667C2.22217 11.5193 2.2807 11.378 2.38489 11.2738C2.48907 11.1696 2.63038 11.1111 2.77772 11.1111H5.5555C5.70284 11.1111 5.84415 11.1696 5.94834 11.2738C6.05253 11.378 6.11106 11.5193 6.11106 11.6667V14.4444C6.11106 14.5918 6.05253 14.7331 5.94834 14.8373C5.84415 14.9415 5.70284 15 5.5555 15H2.77772C2.63038 15 2.48907 14.9415 2.38489 14.8373C2.2807 14.7331 2.22217 14.5918 2.22217 14.4444V11.6667ZM3.33328 12.2222V13.8889H4.99995V12.2222H3.33328Z" fill="#A8A5A5"/>
<path d="M6.50384 5.39277C6.60504 5.28799 6.66104 5.14766 6.65977 5.00199C6.65851 4.85633 6.60008 4.71699 6.49708 4.61398C6.39407 4.51098 6.25473 4.45255 6.10907 4.45128C5.9634 4.45002 5.82307 4.50602 5.71829 4.60721L3.88884 6.43666L3.17051 5.71833C3.06573 5.61713 2.9254 5.56113 2.77973 5.5624C2.63407 5.56366 2.49473 5.62209 2.39172 5.72509C2.28872 5.8281 2.23029 5.96744 2.22902 6.1131C2.22776 6.25877 2.28376 6.3991 2.38495 6.50388L3.88884 8.00777L6.50384 5.39277Z" fill="#A8A5A5"/>
<path fill-rule="evenodd" clip-rule="evenodd" d="M2.22222 0C1.63285 0 1.06762 0.234126 0.650874 0.650874C0.234126 1.06762 0 1.63285 0 2.22222V17.7778C0 18.3671 0.234126 18.9324 0.650874 19.3491C1.06762 19.7659 1.63285 20 2.22222 20H13.3333C13.9227 20 14.4879 19.7659 14.9047 19.3491C15.3214 18.9324 15.5556 18.3671 15.5556 17.7778V2.22222C15.5556 1.63285 15.3214 1.06762 14.9047 0.650874C14.4879 0.234126 13.9227 0 13.3333 0H2.22222ZM1.11111 2.22222C1.11111 1.92754 1.22817 1.64492 1.43655 1.43655C1.64492 1.22817 1.92754 1.11111 2.22222 1.11111H13.3333C13.628 1.11111 13.9106 1.22817 14.119 1.43655C14.3274 1.64492 14.4444 1.92754 14.4444 2.22222V17.7778C14.4444 18.0725 14.3274 18.3551 14.119 18.5635C13.9106 18.7718 13.628 18.8889 13.3333 18.8889H2.22222C1.92754 18.8889 1.64492 18.7718 1.43655 18.5635C1.22817 18.3551 1.11111 18.0725 1.11111 17.7778V2.22222ZM16.6667 5.55556C16.6667 5.11353 16.8423 4.6896 17.1548 4.37704C17.4674 4.06448 17.8913 3.88889 18.3333 3.88889C18.7754 3.88889 19.1993 4.06448 19.5118 4.37704C19.8244 4.6896 20 5.11353 20 5.55556V16.835L18.3333 19.335L16.6667 16.835V5.55556ZM18.3333 5C18.186 5 18.0447 5.05853 17.9405 5.16272C17.8363 5.26691 17.7778 5.40821 17.7778 5.55556V6.66667H18.8889V5.55556C18.8889 5.40821 18.8304 5.26691 18.7262 5.16272C18.622 5.05853 18.4807 5 18.3333 5ZM18.3333 17.3317L17.7778 16.4983V7.77778H18.8889V16.4983L18.3333 17.3317Z" fill="#A8A5A5"/>
</svg>
