<svg width="47" height="47" viewBox="0 0 47 47" fill="none" xmlns="http://www.w3.org/2000/svg">
<path d="M9.0463 37.2637C6.73087 37.2637 4.5484 37.2688 2.3653 37.2637C0.511416 37.2579 0 36.7382 0 34.8594C0 24.0553 0 13.2516 0 2.4484C0 0.502465 0.501187 0.000639269 2.44137 0C13.2459 0 24.0495 0 34.8523 0C36.7062 0 37.2579 0.545297 37.2637 2.37808C37.2707 4.56311 37.2637 6.74813 37.2637 9.09617C39.464 9.09617 41.5602 9.09617 43.6563 9.09617C45.8842 9.09617 46.3138 9.52064 46.3138 11.7037C46.3138 22.3859 46.3138 33.0683 46.3138 43.751C46.3138 45.842 45.8369 46.3163 43.7369 46.3163C33.0138 46.3163 22.2907 46.3163 11.5676 46.3163C9.55964 46.3163 9.04694 45.8049 9.04374 43.8059C9.04374 41.6932 9.0463 39.5823 9.0463 37.2637ZM42.8637 42.8707V12.5533H12.5335V42.8707H42.8637ZM9.0463 33.7841V32.294C9.0463 25.4325 9.0463 18.571 9.0463 11.7095C9.0463 9.53151 9.52639 9.04183 11.6673 9.04119C18.6089 9.04119 25.5507 9.04119 32.4928 9.04119H33.8142V3.45909H3.50703V33.7841H9.0463Z" fill="#3479E2"/>
<path d="M27.6793 18.1968C30.2754 18.1968 32.8715 18.1846 35.4675 18.2019C36.7806 18.2108 37.549 18.8712 37.5343 19.9081C37.5209 20.8983 36.771 21.5938 35.5526 21.599C30.3201 21.6201 25.0877 21.6092 19.8553 21.606C18.9712 21.606 18.1485 21.319 17.9906 20.3914C17.8979 19.8467 18.1088 19.0905 18.4681 18.6769C18.7698 18.3297 19.482 18.2236 20.0158 18.214C22.5684 18.1718 25.1242 18.1968 27.6793 18.1968Z" fill="#3479E2"/>
<path d="M27.7655 25.9978C30.3226 25.9978 32.8796 25.9863 35.4316 26.0023C36.7549 26.0099 37.5265 26.646 37.5361 27.6733C37.5457 28.7006 36.7606 29.3993 35.4642 29.4025C30.2729 29.4196 25.0812 29.4196 19.889 29.4025C18.6169 29.3981 17.8069 28.6578 17.8357 27.6471C17.8645 26.6364 18.6559 26.0099 19.9779 26.0029C22.5733 25.9876 25.1694 25.9978 27.7655 25.9978Z" fill="#3479E2"/>
<path d="M27.7898 37.21C25.1541 37.21 22.5184 37.233 19.8827 37.201C18.4123 37.1831 17.4304 36.0638 17.9898 34.9808C18.2557 34.4694 18.9819 33.8692 19.5074 33.8608C24.9412 33.7784 30.375 33.7969 35.8088 33.8167C36.8591 33.8206 37.467 34.4394 37.5252 35.4859C37.5783 36.4345 36.822 37.1742 35.6982 37.1921C33.0631 37.2336 30.4268 37.2055 27.7904 37.2055L27.7898 37.21Z" fill="#3479E2"/>
</svg>
