<svg width="54" height="48" viewBox="0 0 54 48" fill="none" xmlns="http://www.w3.org/2000/svg">
<path d="M32.7477 15.1981C32.6472 17.6475 32.0762 19.9487 30.9038 22.0899C29.4924 24.6693 27.4868 26.6781 24.9291 28.1764C23.1577 29.2148 21.2059 29.9173 19.1739 30.2475C17.3678 30.5518 15.5235 30.5609 13.7143 30.2746C13.1023 30.177 12.6253 30.4899 12.1084 30.6722C10.7665 31.1428 9.45622 31.7175 8.09236 32.1128C5.51215 32.8605 3.12049 30.7864 3.35722 28.2452C3.43454 27.4146 3.82592 26.7158 4.21075 26.0175C4.36599 25.7352 4.32614 25.5652 4.11974 25.3475C2.03202 23.154 0.672923 20.5746 0.198278 17.6005C-0.441123 13.5917 0.468909 9.92401 2.88496 6.62107C4.38681 4.56578 6.30323 2.9946 8.55808 1.83637C10.5096 0.836367 12.6027 0.278131 14.8034 0.0716607C16.8024 -0.112371 18.8186 0.0587562 20.7567 0.576955C22.3132 0.98872 23.799 1.57695 25.1683 2.43343C28.7328 4.65401 31.1786 7.71578 32.2142 11.7864C32.4973 12.8987 32.5758 14.0599 32.7477 15.1981ZM14.4198 16.5128C14.4239 17.3552 14.5738 17.9352 14.9456 18.5387C15.3583 19.2081 16.2119 19.2222 16.6223 18.5452C16.7902 18.2503 16.9233 17.9372 17.019 17.6122C17.3206 16.6781 17.841 15.9064 18.6475 15.3252C19.1692 14.9493 19.6872 14.5681 20.194 14.1758C21.9135 12.8487 22.434 10.7017 21.5121 8.77343C20.329 6.29872 18.0028 5.4699 15.6385 5.48578C14.2556 5.4946 12.9346 5.8899 11.8015 6.74931C11.0877 7.29048 10.6119 7.94401 10.6981 8.88872C10.8064 10.0846 11.921 11.1828 13.3818 10.2828C13.5329 10.1899 13.6822 10.0922 13.8256 9.98872C14.7178 9.33813 15.6914 9.11578 16.7775 9.39637C17.8208 9.66578 18.3751 10.9328 17.5882 11.714C17.3153 11.9956 17.0206 12.2556 16.7067 12.4917C15.3185 13.4911 14.4382 14.7605 14.4198 16.5128ZM16.1411 20.4664C14.779 20.4746 13.9225 21.3046 13.9308 22.6093C13.9392 23.887 14.854 24.7811 16.1482 24.777C17.4746 24.7728 18.3591 23.8628 18.349 22.5146C18.3353 21.2717 17.4627 20.4593 16.1411 20.4664Z" fill="#3479E2"/>
<path d="M23.5881 33.323C23.7421 33.8365 23.8599 34.3389 24.0407 34.8177C25.7656 39.3918 29.1179 42.1842 33.8185 43.4518C35.9752 44.0336 38.1676 44.0518 40.3672 43.6548C40.6349 43.6127 40.909 43.6388 41.1636 43.7306C42.8445 44.3348 44.5159 44.9659 46.1914 45.5842C46.9111 45.8501 47.5202 45.7206 47.9579 45.2171C48.385 44.7259 48.4213 44.1336 48.0769 43.4671C47.6837 42.7024 47.3078 41.9306 46.9075 41.1701C46.7594 40.8877 46.7838 40.7218 47.0491 40.4942C50.0266 37.9365 51.6801 34.7136 51.6593 30.8012C51.6331 26.2024 49.4699 22.6771 45.6656 20.1271C43.08 18.3942 40.178 17.6659 37.0655 17.7242C36.9198 17.7242 36.7735 17.7242 36.6218 17.7242C36.6694 17.0136 36.6991 16.3501 36.774 15.6906C36.7848 15.5995 37.0149 15.4677 37.147 15.4642C38.6622 15.4124 40.1771 15.5734 41.6466 15.9424C46.1188 17.0812 49.6501 19.5248 51.9692 23.5071C54.3157 27.5336 54.6018 31.7742 52.9661 36.1283C52.2523 38.0324 51.196 39.7342 49.728 41.1736C49.6561 41.2448 49.6418 41.4436 49.6858 41.5477C49.8404 41.9106 50.0349 42.2565 50.2086 42.6118C50.9027 44.0312 50.6916 45.6059 49.6549 46.7606C49.1591 47.3163 48.5054 47.7111 47.7791 47.8934C47.0528 48.0757 46.2878 48.037 45.5841 47.7824C44.1061 47.2642 42.6411 46.7083 41.1779 46.1501C40.7967 45.9994 40.3816 45.9523 39.9758 46.0136C32.8002 47.0212 25.8198 43.5806 22.6674 37.4106C22.1749 36.4465 21.8793 35.3842 21.4956 34.3659C21.3903 34.0853 21.4629 33.9242 21.7894 33.8442C22.3848 33.6953 22.9701 33.5071 23.5881 33.323Z" fill="#3479E2"/>
<path d="M44.8501 36.4189C44.8501 37.1836 44.451 37.6613 43.8562 37.8213C43.2614 37.9813 42.7226 37.7972 42.4585 37.2477C42.076 36.4525 41.7447 35.6301 41.4342 34.8036C41.3093 34.4713 41.1559 34.3519 40.7895 34.3572C39.1794 34.3789 37.5687 34.3742 35.958 34.3572C35.6731 34.3572 35.5553 34.4501 35.4596 34.7101C35.1556 35.5248 34.8457 36.3395 34.49 37.133C34.1849 37.8125 33.6871 38.0154 33.0167 37.8083C32.3767 37.613 32.0109 37.0713 32.1174 36.3966C32.1799 36.0633 32.2786 35.7377 32.4118 35.4254C33.7204 32.1246 35.0335 28.826 36.3512 25.5295C36.4469 25.2901 36.5587 25.0554 36.6777 24.8236C37.0292 24.1436 37.5996 23.7925 38.3675 23.7789C39.1467 23.7648 39.7908 24.0613 40.1263 24.7707C40.5795 25.7289 40.9709 26.716 41.3754 27.6966C42.4321 30.2628 43.4829 32.8315 44.5278 35.4025C44.686 35.7919 44.7805 36.2025 44.8501 36.4189ZM40.501 32.3307C39.8075 30.4289 39.1282 28.566 38.449 26.706L38.3384 26.7142C37.6722 28.5736 37.0066 30.4336 36.3268 32.3307H40.501Z" fill="#3479E2"/>
</svg>
