<svg width="44" height="47" viewBox="0 0 44 47" fill="none" xmlns="http://www.w3.org/2000/svg">
<path d="M19.2779 24.8879V24.0164C19.2779 16.9995 19.2779 9.98231 19.2779 2.96494C19.2779 1.42808 20.0482 0.396026 21.4078 0.0716083C22.9886 -0.306328 24.5887 0.857875 24.7063 2.47732C24.7261 2.75483 24.7215 3.03497 24.7215 3.3138C24.7215 10.181 24.7215 17.0477 24.7215 23.914V24.7412C25.0148 24.5344 25.2017 24.4109 25.3821 24.2787C27.3712 22.7841 29.3412 21.2631 31.3529 19.7996C33.1366 18.5013 35.5241 19.5941 35.7077 21.7752C35.8009 22.8786 35.2737 23.6913 34.4023 24.3435C31.0498 26.8437 27.7027 29.3524 24.3608 31.8698C24.1897 31.9987 24.0192 32.1295 23.8455 32.2557C22.5731 33.1807 21.4613 33.1985 20.1757 32.2947C17.1936 30.1975 14.2142 28.0964 11.2374 25.9913C10.6236 25.5585 9.99935 25.1403 9.40148 24.6877C8.17073 23.7554 7.90582 22.1379 8.76464 20.9143C8.96534 20.6211 9.22205 20.3704 9.51999 20.1768C9.81794 19.9833 10.1512 19.8505 10.5007 19.7863C10.8501 19.722 11.2088 19.7276 11.5561 19.8026C11.9034 19.8775 12.2324 20.0205 12.5243 20.2232C14.5491 21.5935 16.5389 23.0141 18.5446 24.4122C18.752 24.5503 18.9647 24.6811 19.2779 24.8879Z" fill="#BCB7B7"/>
<path d="M5.50596 41.1861H38.5004C38.5004 40.2181 38.4733 39.2793 38.507 38.345C38.5546 37.0057 39.5224 35.9664 40.8562 35.7642C41.4765 35.666 42.1116 35.7907 42.6488 36.116C43.186 36.4413 43.5908 36.9463 43.7914 37.5415C43.9111 37.9298 43.9717 38.3338 43.9711 38.7401C43.9982 40.4355 43.9982 42.1316 44.0041 43.8277C44.0101 45.5238 42.7634 46.729 41.0676 46.7257C28.6187 46.7147 16.1703 46.705 3.72226 46.6966C3.21027 46.6966 2.68441 46.7263 2.1896 46.6233C0.859757 46.3464 0.00358131 45.2608 0.000938791 43.905C-0.00302498 42.1431 0.00556315 40.3829 0.0267033 38.6245C0.048504 36.9205 1.24424 35.6856 2.81125 35.7173C4.37826 35.749 5.49473 36.9627 5.5053 38.6443C5.51058 39.4801 5.50596 40.3126 5.50596 41.1861Z" fill="#BCB7B7"/>
</svg>
