<svg xmlns="http://www.w3.org/2000/svg" xmlns:xlink="http://www.w3.org/1999/xlink" width="191.819" height="387.091" viewBox="0 0 191.819 387.091">
  <defs>
    <linearGradient id="linear-gradient" y1="0.5" x2="0.116" y2="0.5" gradientUnits="objectBoundingBox">
      <stop offset="0" stop-color="#666"/>
      <stop offset="0.057" stop-color="#727272"/>
      <stop offset="0.331" stop-color="#a8a8a8"/>
      <stop offset="0.568" stop-color="#cfcfcf"/>
      <stop offset="0.755" stop-color="#e8e8e8"/>
      <stop offset="0.87" stop-color="#f1f1f1"/>
      <stop offset="0.947" stop-color="#f7f7f7"/>
      <stop offset="1" stop-color="#fff"/>
    </linearGradient>
    <linearGradient id="linear-gradient-2" x1="0.9" y1="0.5" x2="1.018" y2="0.5" gradientUnits="objectBoundingBox">
      <stop offset="0" stop-color="#fff"/>
      <stop offset="0.053" stop-color="#f7f7f7"/>
      <stop offset="0.13" stop-color="#f1f1f1"/>
      <stop offset="0.245" stop-color="#e8e8e8"/>
      <stop offset="0.432" stop-color="#cfcfcf"/>
      <stop offset="0.669" stop-color="#a8a8a8"/>
      <stop offset="0.943" stop-color="#727272"/>
      <stop offset="1" stop-color="#666"/>
    </linearGradient>
    <linearGradient id="linear-gradient-3" x1="0.5" y1="1" x2="0.5" y2="0.199" gradientUnits="objectBoundingBox">
      <stop offset="0" stop-color="#f1f1f1"/>
      <stop offset="0.116" stop-color="#e3e3e3"/>
      <stop offset="0.336" stop-color="#bebebe"/>
      <stop offset="0.635" stop-color="#838383"/>
      <stop offset="1" stop-color="#333"/>
    </linearGradient>
    <linearGradient id="linear-gradient-4" x1="0.5" y1="0.765" x2="0.5" y2="-0.235" gradientUnits="objectBoundingBox">
      <stop offset="0" stop-color="#333"/>
      <stop offset="0.074" stop-color="#4b4b4b"/>
      <stop offset="0.251" stop-color="#818181"/>
      <stop offset="0.424" stop-color="#aeaeae"/>
      <stop offset="0.589" stop-color="#d1d1d1"/>
      <stop offset="0.744" stop-color="#eaeaea"/>
      <stop offset="0.885" stop-color="#f9f9f9"/>
      <stop offset="1" stop-color="#fff"/>
    </linearGradient>
    <linearGradient id="linear-gradient-5" y1="0.5" x2="1" y2="0.5" gradientUnits="objectBoundingBox">
      <stop offset="0" stop-color="#f1f1f1"/>
      <stop offset="0.001" stop-color="#f0f0f0"/>
      <stop offset="0.138" stop-color="#b7b7b7"/>
      <stop offset="0.271" stop-color="#888"/>
      <stop offset="0.397" stop-color="#636363"/>
      <stop offset="0.513" stop-color="#484848"/>
      <stop offset="0.617" stop-color="#383838"/>
      <stop offset="0.698" stop-color="#333"/>
    </linearGradient>
    <linearGradient id="linear-gradient-6" y1="0.5" x2="1" y2="0.5" gradientUnits="objectBoundingBox">
      <stop offset="0"/>
      <stop offset="0.105" stop-color="#141414"/>
      <stop offset="0.259" stop-color="#2c2c2c"/>
      <stop offset="0.403" stop-color="#3a3a3a"/>
      <stop offset="0.523" stop-color="#404040"/>
      <stop offset="0.631" stop-color="#383838"/>
      <stop offset="0.793" stop-color="#232323"/>
      <stop offset="0.988" stop-color="#020202"/>
      <stop offset="1"/>
    </linearGradient>
    <linearGradient id="linear-gradient-8" y1="0.5" x2="0.592" y2="0.5" gradientUnits="objectBoundingBox">
      <stop offset="0" stop-color="#404040"/>
      <stop offset="0.644" stop-color="#191919"/>
      <stop offset="1" stop-color="#0a0a0a"/>
    </linearGradient>
    <linearGradient id="linear-gradient-9" y1="0.5" x2="1" y2="0.5" gradientUnits="objectBoundingBox">
      <stop offset="0" stop-color="#0a0a0a"/>
      <stop offset="0.356" stop-color="#191919"/>
      <stop offset="1" stop-color="#404040"/>
    </linearGradient>
    <linearGradient id="linear-gradient-10" y1="0.5" x2="1" y2="0.5" gradientUnits="objectBoundingBox">
      <stop offset="0" stop-color="#333"/>
      <stop offset="0.09" stop-color="#2a2a2a"/>
      <stop offset="0.289" stop-color="#1e1e1e"/>
      <stop offset="0.479" stop-color="#1a1a1a"/>
      <stop offset="0.788" stop-color="#1b1b1b"/>
      <stop offset="0.9" stop-color="#222"/>
      <stop offset="0.979" stop-color="#2e2e2e"/>
      <stop offset="1" stop-color="#333"/>
    </linearGradient>
    <linearGradient id="linear-gradient-11" x1="-0.267" y1="0.146" x2="1.267" y2="0.854" gradientUnits="objectBoundingBox">
      <stop offset="0" stop-color="#f2f3f4"/>
      <stop offset="0.356" stop-color="#edeeee"/>
      <stop offset="0.783" stop-color="#dedfe0"/>
      <stop offset="1" stop-color="#d5d6d6"/>
    </linearGradient>
  </defs>
  <g id="Group_5660" data-name="Group 5660" transform="translate(1283.647 -11141.584)">
    <g id="Group_5659" data-name="Group 5659" transform="translate(-1283.647 11135.045)">
      <g id="Group_5609" data-name="Group 5609" transform="translate(0 -0.296)">
        <g id="Group_5608" data-name="Group 5608" transform="translate(0 6.834)">
          <g id="Group_5607" data-name="Group 5607">
            <g id="Group_5602" data-name="Group 5602">
              <path id="Path_18107" data-name="Path 18107" d="M1390.919,678.394H1251.288a26.093,26.093,0,0,0-26.094,26.094v334.9a26.094,26.094,0,0,0,26.094,26.094h139.631a26.1,26.1,0,0,0,26.094-26.094v-334.9A26.094,26.094,0,0,0,1390.919,678.394Zm25.368,358.574a25.265,25.265,0,0,1-1.226,7.794c-.06.19-.122.379-.19.563s-.13.372-.2.557c-.048.14-.1.28-.159.415q-.25.618-.525,1.22c-.083.18-.165.358-.251.532-.12.247-.243.49-.373.732-.082.165-.168.326-.26.484s-.19.339-.291.51c-.272.465-.561.925-.868,1.375-.1.14-.194.285-.3.427-.111.159-.222.314-.345.469s-.228.31-.349.465-.238.3-.362.454-.247.3-.38.452c-.247.295-.507.586-.773.866-.408.437-.829.858-1.27,1.27-.131.121-.261.241-.4.358-.307.27-.615.532-.931.795-.136.105-.276.217-.416.324-.462.358-.935.7-1.419,1.023-.161.111-.325.217-.49.32-.33.213-.663.41-1,.605-.17.1-.335.193-.5.28-.548.3-1.1.582-1.676.833-.151.073-.3.136-.45.2-.18.082-.36.155-.544.228s-.368.146-.552.213c-.412.155-.827.3-1.249.431-.145.048-.3.092-.446.136-.552.165-1.119.31-1.691.437-.2.042-.4.086-.6.124s-.421.083-.64.117q-.589.1-1.192.174h-.015c-.077.01-.155.019-.232.025a.965.965,0,0,1-.165.013.279.279,0,0,1-.069.006c.36-.038.713-.088,1.067-.146.174-.029.349-.057.526-.092s.351-.067.519-.1c.523-.107,1.036-.238,1.546-.377.168-.044.339-.1.5-.151.333-.1.663-.213.992-.329.494-.178.979-.374,1.454-.581.159-.063.32-.136.475-.214s.31-.149.464-.222c.311-.155.617-.314.921-.479s.6-.339.891-.519c.266-.165.529-.333.791-.5a.344.344,0,0,0,.076-.054c.427-.289.843-.59,1.251-.906.134-.1.27-.207.4-.318.38-.306.747-.626,1.105-.956a23.015,23.015,0,0,0,2.446-2.643c.107-.132.213-.272.316-.408a23.047,23.047,0,0,0,2.712-4.62c.115-.263.228-.534.329-.8a22.487,22.487,0,0,0,1.182-4.074c.054-.276.1-.556.145-.837a23.558,23.558,0,0,0,.26-3.473v-334.9a22.987,22.987,0,0,0-20.518-22.824c-.2-.021-.412-.04-.617-.054s-.422-.031-.628-.04h-.006c-.393-.019-.78-.029-1.176-.029H1251.292q-.595,0-1.176.029h-.015a22.983,22.983,0,0,0-21.759,22.918v334.9a22.983,22.983,0,0,0,20.37,22.8c-.155-.015-.312-.025-.466-.044h-.015q-.6-.072-1.191-.174a25.241,25.241,0,0,1-6.79-2.174c-.151-.073-.3-.146-.446-.219-.377-.2-.751-.4-1.119-.611-.171-.1-.335-.193-.5-.295a24.646,24.646,0,0,1-2.4-1.651c-.14-.107-.276-.214-.412-.326-.406-.329-.8-.668-1.187-1.017-.124-.117-.251-.232-.372-.354-.146-.134-.287-.27-.427-.412s-.276-.28-.411-.422c-.092-.092-.178-.184-.267-.28-.111-.123-.222-.243-.329-.364a25.316,25.316,0,0,1-1.816-2.281c-.1-.14-.2-.285-.295-.427-.306-.444-.592-.9-.864-1.366-.1-.165-.2-.333-.289-.5a25.248,25.248,0,0,1-1.779-3.952c-.067-.19-.13-.374-.188-.563a25.463,25.463,0,0,1-.751-2.906c-.038-.2-.079-.4-.111-.6a25.551,25.551,0,0,1-.364-4.293V704.488c0-.253.006-.5.016-.747,0-.188.01-.372.019-.557.019-.406.048-.808.092-1.211.019-.209.044-.416.067-.62.015-.111.029-.216.044-.328.014-.132.034-.262.057-.4.031-.209.063-.416.1-.624q.095-.546.218-1.074c.038-.18.082-.354.126-.529.126-.529.272-1.042.437-1.555.052-.159.105-.324.159-.485.067-.2.136-.4.209-.59.057-.165.121-.326.184-.485.054-.136.1-.266.159-.4.063-.159.132-.32.2-.473.054-.123.1-.238.159-.354.079-.174.155-.345.244-.519.14-.3.291-.6.45-.895.076-.151.161-.3.247-.452.092-.174.193-.349.3-.517a25.431,25.431,0,0,1,2.388-3.4c.126-.149.253-.3.383-.45.145-.165.291-.335.444-.5.253-.27.506-.536.766-.793.281-.282.567-.554.858-.82s.59-.523.9-.774c.149-.126.3-.247.46-.374.31-.243.624-.479.948-.713s.646-.45.979-.669.669-.421,1.013-.62c.169-.1.343-.2.519-.295s.347-.19.523-.282.352-.184.532-.27.358-.174.542-.262c.358-.165.726-.324,1.1-.475.174-.071.354-.144.533-.213a.254.254,0,0,1,.05-.019c.178-.067.362-.13.542-.2s.359-.121.538-.184c.2-.063.406-.13.615-.188.193-.059.387-.111.58-.165s.393-.107.592-.155.4-.1.6-.142c.4-.092.8-.168,1.21-.237.2-.033.4-.067.605-.1.437-.063.877-.117,1.318-.155.349-.034.7-.057,1.055-.079.215-.01.431-.019.649-.023s.437-.01.653-.01h139.628c.216,0,.435,0,.653.01.18,0,.364.01.542.019.412.019.82.048,1.226.088h.015c.207.019.412.042.615.067s.412.054.615.082.408.063.611.1.4.073.6.113h.01c.2.038.4.082.6.124s.364.082.544.123c.042.01.083.019.115.029.17.044.339.086.509.136.238.063.475.13.707.2.159.048.32.1.475.149.352.117.7.238,1.052.368.237.083.469.174.7.272.169.067.333.14.5.212s.364.161.547.247.358.17.536.257a24.431,24.431,0,0,1,3.634,2.186c.14.1.281.2.417.3.5.377.987.77,1.458,1.182.207.18.411.364.609.554a24.26,24.26,0,0,1,2.287,2.431c.13.155.253.3.373.46.257.326.5.649.732.979.12.165.238.335.349.5.2.285.387.582.571.877.092.15.18.3.272.45.164.285.329.573.484.868.077.14.155.28.223.425.256.49.488.984.712,1.492.053.132.111.263.165.4.207.5.4,1.017.576,1.534.067.193.13.383.188.576a25.376,25.376,0,0,1,.814,3.425c.019.121.038.247.057.377.031.2.059.408.083.611s.05.412.069.621.038.416.057.624c.025.383.044.764.054,1.153.01.247.015.494.015.741Z" transform="translate(-1225.194 -678.394)" fill="#c7c7c7"/>
              <g id="Group_5601" data-name="Group 5601" transform="translate(0.726 3.176)">
                <path id="Path_18108" data-name="Path 18108" d="M1248.51,1060.7c-.2-.019-.408-.038-.611-.063h-.015c-.4-.048-.8-.105-1.191-.174a25.23,25.23,0,0,1-6.79-2.174c-.151-.073-.3-.146-.446-.219-.377-.2-.751-.4-1.118-.611-.171-.1-.335-.193-.5-.295a24.676,24.676,0,0,1-2.4-1.651c-.14-.107-.276-.214-.412-.326-.406-.329-.8-.668-1.187-1.017-.125-.117-.251-.232-.371-.354-.146-.134-.288-.27-.427-.412s-.276-.28-.412-.422c-.092-.092-.178-.184-.266-.279-.111-.123-.222-.243-.329-.364a25.376,25.376,0,0,1-1.816-2.281c-.1-.14-.2-.286-.3-.427-.307-.444-.592-.9-.864-1.366-.1-.165-.2-.333-.289-.5a25.3,25.3,0,0,1-1.779-3.952c-.067-.19-.13-.374-.188-.563a25.488,25.488,0,0,1-.751-2.906c-.038-.2-.079-.4-.111-.6a25.578,25.578,0,0,1-.364-4.293V705.391a25.4,25.4,0,0,1,24.18-25.339,22.984,22.984,0,0,0-21.759,22.918v334.9A22.984,22.984,0,0,0,1248.51,1060.7Z" transform="translate(-1225.573 -680.052)" fill="url(#linear-gradient)"/>
                <path id="Path_18109" data-name="Path 18109" d="M1336.219,705.372v330.06a25.267,25.267,0,0,1-1.226,7.794c-.06.19-.123.379-.19.563s-.13.372-.2.557c-.048.14-.1.28-.159.416q-.25.618-.525,1.22c-.083.18-.165.358-.251.532-.12.247-.243.49-.373.732-.083.165-.169.326-.26.485s-.19.339-.291.51c-.272.465-.561.925-.868,1.375-.1.14-.194.285-.3.427-.111.159-.228.314-.345.469s-.232.314-.349.465-.242.3-.362.454-.247.3-.379.452c-.251.295-.507.586-.774.866-.408.437-.829.858-1.27,1.27-.13.115-.261.238-.4.358-.307.27-.615.532-.931.795-.136.105-.276.213-.416.324-.462.358-.935.7-1.419,1.023l-.49.32c-.33.213-.663.41-1,.605-.165.1-.335.193-.5.28-.548.3-1.1.582-1.676.833-.151.073-.3.136-.45.2-.18.082-.36.155-.544.228s-.368.146-.552.213c-.412.155-.827.3-1.249.431-.151.048-.3.092-.446.136-.552.165-1.119.31-1.692.437-.2.042-.4.086-.6.124s-.421.083-.64.117c-.4.069-.795.126-1.191.174h-.015c-.2.025-.406.044-.609.063a22.988,22.988,0,0,0,20.518-22.824v-334.9a22.98,22.98,0,0,0-21.134-22.878A25.394,25.394,0,0,1,1336.219,705.372Z" transform="translate(-1145.852 -680.033)" fill="url(#linear-gradient-2)"/>
                <path id="Path_18110" data-name="Path 18110" d="M1415.94,865.6v2.423a25.4,25.4,0,0,1-25.368,25.368H1250.944a25.4,25.4,0,0,1-25.371-25.368V865.6a25.576,25.576,0,0,0,.364,4.292c.033.2.073.4.111.6a25.5,25.5,0,0,0,.751,2.906c.057.19.121.373.188.563a25.3,25.3,0,0,0,1.779,3.951c.092.171.188.339.289.5.272.465.557.921.864,1.366.1.142.193.287.3.427a25.359,25.359,0,0,0,1.816,2.281c.107.121.219.241.329.364.088.1.174.188.266.28.136.142.276.282.412.422s.281.278.427.411c.12.123.247.238.371.354.383.349.782.688,1.188,1.017.136.111.272.219.412.326a24.677,24.677,0,0,0,2.4,1.651c.165.1.329.2.5.295.367.213.741.412,1.118.611.149.073.3.146.446.218a25.226,25.226,0,0,0,6.79,2.174q.589.1,1.191.174h.015c.406.048.814.088,1.226.117.207.014.421.029.628.038.392.019.791.029,1.191.029h139.628c.4,0,.789-.01,1.182-.029.207-.01.421-.025.628-.038.335-.025.665-.054.994-.092.076-.006.155-.015.232-.025h.015c.4-.048.8-.105,1.191-.174.218-.035.431-.073.64-.117s.4-.082.6-.124c.573-.126,1.14-.272,1.692-.437.149-.044.3-.088.446-.136.422-.13.837-.276,1.249-.431.184-.067.368-.14.552-.213s.364-.146.544-.228c.149-.063.3-.126.45-.2.571-.251,1.128-.532,1.676-.833.169-.086.333-.178.5-.28.339-.2.672-.393,1-.605.165-.1.329-.209.49-.32.485-.326.958-.665,1.419-1.023.14-.107.28-.218.416-.324.316-.262.624-.525.931-.795.136-.117.266-.237.4-.358.441-.412.862-.833,1.27-1.27.266-.28.527-.571.774-.866.132-.151.257-.3.379-.452s.245-.3.362-.454.237-.31.349-.465.234-.31.345-.469c.1-.142.2-.287.3-.427.306-.45.6-.91.868-1.375.1-.17.2-.339.291-.51s.178-.32.26-.484c.13-.241.253-.485.373-.732.086-.174.175-.352.251-.532q.276-.6.525-1.22c.057-.136.111-.276.159-.415.073-.186.14-.37.2-.557s.13-.374.19-.563A25.266,25.266,0,0,0,1415.94,865.6Z" transform="translate(-1225.573 -510.2)" fill="url(#linear-gradient-3)"/>
              </g>
              <path id="Path_18111" data-name="Path 18111" d="M1415.94,704.141v2.421A25.391,25.391,0,0,0,1393,681.317c-.205-.021-.412-.04-.617-.054s-.421-.031-.628-.04h-.006c-.393-.019-.78-.029-1.176-.029H1250.944c-.4,0-.789.01-1.176.029h-.015a25.405,25.405,0,0,0-24.18,25.339v-2.421c0-.253.006-.5.016-.747,0-.188.009-.372.019-.557.019-.406.048-.808.092-1.211.019-.209.044-.415.067-.62.016-.111.029-.216.044-.328.013-.132.034-.262.058-.4.031-.209.063-.416.1-.625q.095-.546.219-1.074c.038-.18.082-.354.126-.529.126-.529.272-1.042.437-1.555.052-.159.106-.324.159-.485.067-.2.136-.4.209-.59.057-.165.121-.326.184-.485.054-.136.1-.266.159-.4.063-.159.132-.32.2-.473.054-.123.1-.238.159-.354.078-.174.155-.345.244-.519.14-.3.291-.6.45-.895.077-.151.161-.3.247-.452.092-.174.193-.349.295-.517a25.464,25.464,0,0,1,2.389-3.4c.127-.149.253-.3.383-.45.146-.165.291-.335.444-.5.253-.27.506-.536.766-.793.281-.282.567-.554.858-.82s.59-.523.9-.774c.149-.126.3-.247.46-.373.31-.243.625-.479.948-.713s.646-.45.979-.668.668-.421,1.013-.621c.169-.1.343-.2.519-.295s.347-.19.523-.282.353-.184.533-.27.358-.174.542-.262c.358-.165.726-.324,1.1-.475.175-.071.354-.144.533-.213a.25.25,0,0,1,.05-.019c.178-.067.362-.13.542-.2s.358-.121.538-.184c.2-.063.406-.13.615-.188.193-.059.387-.111.58-.165s.393-.107.592-.155.4-.1.6-.142c.4-.092.8-.168,1.211-.237.2-.033.4-.067.605-.1.437-.063.877-.117,1.318-.155.349-.034.7-.057,1.056-.079.214-.01.431-.019.649-.023s.437-.01.653-.01h139.628c.216,0,.435,0,.653.01.18,0,.364.01.542.019.412.019.82.048,1.226.088h.016c.207.019.412.042.615.067s.412.053.615.082.408.063.611.1.4.073.6.113h.01c.2.038.4.083.6.124s.364.083.544.123c.042.009.082.019.115.029.171.044.339.086.51.136.238.063.475.13.707.2.159.048.32.1.475.149.352.117.7.238,1.052.368.238.083.469.174.7.272.169.067.333.14.5.213s.364.161.548.247.358.17.536.257a24.426,24.426,0,0,1,3.634,2.186c.14.1.281.2.417.3.5.377.986.77,1.457,1.182.207.18.412.364.609.554a24.233,24.233,0,0,1,2.287,2.431c.13.155.253.3.373.46.257.326.5.649.732.979.12.165.238.335.349.5.2.285.387.582.571.877.092.149.18.3.272.45.165.285.329.573.485.868.077.14.155.28.222.425.257.49.488.984.712,1.492.053.132.111.262.165.4.207.5.4,1.017.576,1.534.067.194.13.383.188.576a25.391,25.391,0,0,1,.814,3.425c.019.121.038.247.057.377.031.2.059.408.083.611s.05.412.069.621.038.416.057.625c.025.383.044.764.054,1.153C1415.934,703.646,1415.94,703.894,1415.94,704.141Z" transform="translate(-1224.847 -678.047)" fill="url(#linear-gradient-4)"/>
            </g>
            <g id="Group_5603" data-name="Group 5603" transform="translate(3.147 3.147)">
              <path id="Path_18112" data-name="Path 18112" d="M1390.6,680.066h-.006c-.387-.019-.78-.029-1.176-.029H1249.787c-.4,0-.789.01-1.176.029h-.015a22.983,22.983,0,0,0-21.759,22.918v334.9a22.978,22.978,0,0,0,21.131,22.877c.207.014.422.029.628.038.392.019.791.029,1.191.029h139.628c.4,0,.789-.01,1.182-.029.207-.01.421-.025.628-.038a22.981,22.981,0,0,0,21.134-22.877v-334.9A22.98,22.98,0,0,0,1390.6,680.066Zm19.824,357.822a21.108,21.108,0,0,1-19.33,20.945c-.2.013-.393.029-.592.035-.358.019-.722.029-1.084.029H1249.787c-.368,0-.735-.01-1.1-.029-.193-.006-.391-.021-.571-.035a21.106,21.106,0,0,1-19.342-20.945v-334.9A21,21,0,0,1,1248.65,682h.01l.05-.006c.352-.013.717-.023,1.078-.023h139.628c.362,0,.726.01,1.08.023l.033.006a20.992,20.992,0,0,1,19.893,20.979Z" transform="translate(-1226.837 -680.037)" fill="#404040"/>
            </g>
            <path id="Path_18113" data-name="Path 18113" d="M1325.915,699.474v334.9a20.749,20.749,0,0,1-2.747,10.328c-.159.282-.329.557-.5.829-.263.406-.533.8-.814,1.192a21.825,21.825,0,0,1-2.7,3.032,21.84,21.84,0,0,0,2.886-10.86v-3.86c.01-.228.014-.462.014-.693v-334.9c0-.238,0-.475-.014-.707v-3.779a21.932,21.932,0,0,0-2.892-10.933A20.972,20.972,0,0,1,1325.915,699.474Z" transform="translate(-1139.188 -673.244)" fill="url(#linear-gradient-5)"/>
            <g id="Group_5604" data-name="Group 5604" transform="translate(7.024 7.026)">
              <path id="Path_18114" data-name="Path 18114" d="M1388.574,682.083l-.088-.006c-.306-.01-.611-.016-.923-.016H1247.935c-.316,0-.634.006-.944.016l-.1.011h-.044a19.069,19.069,0,0,0-17.99,19.041v334.9a19.159,19.159,0,0,0,17.563,19.02c.144.011.3.021.461.027h.056c.327.017.661.029.994.029h139.627c.328,0,.657-.011.979-.029h.061c.161-.006.328-.015.482-.032a19.154,19.154,0,0,0,17.547-19.014V701.13A19.063,19.063,0,0,0,1388.574,682.083Zm12.973,353.953a13.952,13.952,0,0,1-2.9,8.5c-.1.128-.2.249-.3.372-.3.373-.634.728-.971,1.069-.3.293-.619.582-.946.854h-.006a14.519,14.519,0,0,1-1.294.952,13.221,13.221,0,0,1-1.395.8h-.006c-.24.123-.483.234-.734.339h-.006c-.243.105-.5.207-.754.295a13.569,13.569,0,0,1-1.58.462,14.533,14.533,0,0,1-1.983.3l-.184.015h-.09l-.059.006h-.067c-.061.006-.116.006-.172.011s-.117.006-.178.006c-.122,0-.245.006-.362.006H1247.935c-.117,0-.24-.006-.362-.006l-.366-.017h-.05l-.055-.006h-.09l-.188-.015a14.048,14.048,0,0,1-12.877-13.94V701.13a13.99,13.99,0,0,1,13.059-13.956h.123l.19-.017c.228-.01.427-.01.617-.01h139.622c.189,0,.394,0,.617.01l.067.006h.067a1.17,1.17,0,0,1,.14.012c.138.006.272.017.4.035a1.168,1.168,0,0,1,.184.015c.123.011.245.023.368.044a4.243,4.243,0,0,1,.433.061l.023.006c.211.029.416.067.621.111a.937.937,0,0,0,.117.029c.172.033.341.077.507.123.243.065.489.138.734.216.194.055.389.123.577.193.207.073.412.157.611.245a11.682,11.682,0,0,1,1.18.567c.35.184.688.389,1.017.605.071.05.144.1.222.151l.4.284c.176.123.343.255.511.395.333.272.655.556.959.856a4.862,4.862,0,0,1,.452.46c.144.157.287.318.427.479a13.6,13.6,0,0,1,1.49,2.107c.216.372.41.76.594,1.155s.345.795.489,1.212c.073.2.14.41.2.623a12.964,12.964,0,0,1,.333,1.389c.038.19.073.372.094.561a13.429,13.429,0,0,1,.151,2.034Z" transform="translate(-1228.861 -682.062)"/>
              <path id="Path_18115" data-name="Path 18115" d="M1251.091,688.27c-.05-.1-.09-.19-.134-.285-.011-.038-.027-.071-.038-.105C1250.975,688.013,1251.03,688.141,1251.091,688.27Z" transform="translate(-1208.669 -676.737)"/>
              <path id="Path_18116" data-name="Path 18116" d="M1299.7,687.879c-.012.034-.029.067-.04.105-.044.1-.082.19-.132.285C1299.585,688.141,1299.641,688.013,1299.7,687.879Z" transform="translate(-1164.175 -676.737)"/>
            </g>
            <path id="Path_18117" data-name="Path 18117" d="M1348.666,684.717a2.335,2.335,0,0,0-2.2,2.09c0,.105-.006.2-.011.3a9.314,9.314,0,0,1-.134,1.251c-.021.144-.044.283-.077.423v0c-.033.172-.073.341-.117.507-.032.149-.079.3-.123.45a.9.9,0,0,0-.033.105c-.012.032-.023.071-.04.111a.4.4,0,0,1-.027.088l-.05.151c-.023.056-.038.111-.062.167-.044.138-.1.272-.155.4s-.111.262-.172.391a.164.164,0,0,1-.023.054l-.012.029c-.05.111-.105.217-.161.322s-.094.19-.144.278a.513.513,0,0,1-.052.09,1.077,1.077,0,0,1-.076.138,2.15,2.15,0,0,1-.111.19c-.012.017-.017.033-.029.05a.669.669,0,0,1-.044.073c-.026.044-.05.082-.076.123a1.475,1.475,0,0,1-.09.138c-.023.04-.05.079-.077.117a.346.346,0,0,1-.046.061c-.033.05-.061.094-.094.14a.7.7,0,0,1-.073.094.875.875,0,0,1-.1.14l-.023.032a.052.052,0,0,1-.027.027c-.033.05-.073.1-.111.151a.311.311,0,0,1-.044.056c-.04.055-.084.111-.128.161h-.005c-.056.067-.111.134-.167.194a1.455,1.455,0,0,1-.172.2l-.006.012h-.006a1.362,1.362,0,0,1-.111.123c-.038.044-.083.088-.128.132a1.146,1.146,0,0,1-.121.122,3.138,3.138,0,0,1-.228.222,1.7,1.7,0,0,1-.178.167c-.04.033-.073.067-.111.1-.09.078-.184.157-.274.228s-.17.14-.26.213c-.056.044-.105.082-.161.121a1.921,1.921,0,0,1-.19.14l-.006.006a2.271,2.271,0,0,1-.188.128.36.36,0,0,1-.084.059c-.105.067-.211.14-.316.2a1.966,1.966,0,0,1-.251.155,2.523,2.523,0,0,1-.322.178,1.3,1.3,0,0,1-.123.073c-.011.006-.017.012-.027.012-.078.044-.157.082-.239.121a2.043,2.043,0,0,1-.217.107c-.061.033-.128.059-.2.088a1.13,1.13,0,0,1-.105.044.419.419,0,0,1-.088.04h-.006c-.173.071-.339.138-.512.2s-.318.111-.479.161c-.178.056-.351.105-.527.149-.356.09-.724.169-1.09.224-.151.021-.306.044-.462.059-.033.006-.061.006-.094.011-.134.011-.266.023-.395.029-.155.011-.306.017-.456.021a1.2,1.2,0,0,0-.145.006h-72.962a1.155,1.155,0,0,0-.144-.006c-.151,0-.3-.01-.456-.021-.128-.006-.262-.017-.395-.029-.034-.006-.061-.006-.1-.011-.155-.015-.31-.038-.46-.059-.368-.056-.735-.134-1.09-.224-.178-.044-.35-.094-.529-.149-.161-.05-.316-.105-.477-.161s-.341-.129-.511-.2h-.006a.44.44,0,0,1-.09-.04,1.13,1.13,0,0,1-.105-.044c-.067-.029-.132-.056-.2-.088a2.03,2.03,0,0,1-.216-.107c-.082-.038-.161-.077-.238-.121-.011,0-.017-.006-.029-.012-.038-.023-.082-.044-.123-.073a2.5,2.5,0,0,1-.322-.178,1.958,1.958,0,0,1-.251-.155c-.105-.061-.211-.134-.316-.2a.363.363,0,0,1-.082-.059c-.067-.04-.128-.084-.19-.128l-.006-.006a1.965,1.965,0,0,1-.19-.14c-.055-.038-.105-.077-.161-.121-.088-.073-.178-.14-.26-.213s-.184-.149-.272-.228c-.04-.033-.073-.067-.111-.1a1.65,1.65,0,0,1-.178-.167,2.716,2.716,0,0,1-.228-.222,1.149,1.149,0,0,1-.123-.122c-.044-.044-.09-.088-.128-.132a1.328,1.328,0,0,1-.111-.123h-.006a.976.976,0,0,1-.088-.105c-.09-.1-.172-.2-.257-.3h-.005a1.733,1.733,0,0,1-.126-.161.258.258,0,0,1-.046-.056c-.038-.05-.077-.1-.111-.151a.061.061,0,0,1-.026-.027l-.023-.032a1.006,1.006,0,0,1-.1-.14.925.925,0,0,1-.073-.094c-.032-.046-.061-.09-.094-.14a.594.594,0,0,1-.044-.061,1.171,1.171,0,0,1-.079-.117,1.123,1.123,0,0,1-.088-.138c-.029-.04-.05-.078-.078-.123-.012-.023-.027-.044-.044-.073s-.017-.032-.029-.05c-.038-.061-.077-.122-.111-.19a1.078,1.078,0,0,1-.077-.138c-.017-.029-.035-.061-.05-.09-.05-.088-.1-.182-.146-.278s-.111-.211-.161-.322l-.011-.029a.148.148,0,0,1-.021-.054c-.061-.128-.117-.257-.172-.391s-.111-.266-.157-.4c-.021-.056-.038-.111-.059-.167l-.05-.151a.386.386,0,0,1-.029-.088.977.977,0,0,1-.038-.111l-.034-.105c-.044-.151-.088-.3-.123-.45-.044-.167-.082-.335-.115-.507v0c-.035-.14-.057-.28-.079-.423a9.394,9.394,0,0,1-.134-1.251c-.005-.1-.011-.2-.011-.3a2.335,2.335,0,0,0-2.2-2.09Z" transform="translate(-1203.093 -672.606)"/>
            <path id="Path_18118" data-name="Path 18118" d="M1256.1,691.48c.155.011.3.017.456.021-.084,0-.172,0-.257,0a2.077,2.077,0,0,1-.266-.017c-.1-.006-.2-.017-.295-.023a.064.064,0,0,1-.033-.006C1255.833,691.462,1255.967,691.474,1256.1,691.48Z" transform="translate(-1197.267 -666.442)"/>
            <path id="Path_18119" data-name="Path 18119" d="M1295.239,691.451a.076.076,0,0,1-.035.006c-.1.006-.193.017-.293.023a2.1,2.1,0,0,1-.268.017c-.082,0-.172,0-.255,0,.15,0,.3-.01.456-.021C1294.972,691.474,1295.1,691.462,1295.239,691.451Z" transform="translate(-1161.853 -666.442)"/>
            <path id="Path_18120" data-name="Path 18120" d="M1250.865,687.748l-.01-.017-.05-.149C1250.827,687.636,1250.844,687.692,1250.865,687.748Z" transform="translate(-1201.749 -669.984)"/>
            <path id="Path_18121" data-name="Path 18121" d="M1251.091,688.27c-.05-.1-.09-.19-.134-.285-.011-.038-.027-.071-.038-.105C1250.975,688.013,1251.03,688.141,1251.091,688.27Z" transform="translate(-1201.645 -669.711)"/>
            <path id="Path_18122" data-name="Path 18122" d="M1251.788,689.34a2.13,2.13,0,0,1-.138-.178.062.062,0,0,0,.027.027C1251.711,689.239,1251.749,689.29,1251.788,689.34Z" transform="translate(-1200.976 -668.537)"/>
            <path id="Path_18123" data-name="Path 18123" d="M1252.074,689.669a1.715,1.715,0,0,1-.166-.19c-.035-.038-.067-.073-.1-.111h.005C1251.9,689.468,1251.984,689.567,1252.074,689.669Z" transform="translate(-1200.828 -668.348)"/>
            <path id="Path_18124" data-name="Path 18124" d="M1252.112,689.7a1.643,1.643,0,0,1-.117-.122H1252A1.362,1.362,0,0,0,1252.112,689.7Z" transform="translate(-1200.66 -668.154)"/>
            <path id="Path_18125" data-name="Path 18125" d="M1252.989,690.473a2.844,2.844,0,0,1-.26-.207,1.61,1.61,0,0,1-.155-.132,1.529,1.529,0,0,1-.117-.1c.088.078.182.157.272.228S1252.9,690.4,1252.989,690.473Z" transform="translate(-1200.237 -667.74)"/>
            <path id="Path_18126" data-name="Path 18126" d="M1252.819,690.325a1.925,1.925,0,0,0,.19.14c-.023-.011-.038-.023-.056-.033C1252.909,690.4,1252.865,690.365,1252.819,690.325Z" transform="translate(-1199.906 -667.472)"/>
            <path id="Path_18127" data-name="Path 18127" d="M1253.379,690.7c-.065-.033-.126-.073-.188-.111l-.011-.006-.117-.084C1253.168,690.566,1253.273,690.639,1253.379,690.7Z" transform="translate(-1199.682 -667.313)"/>
            <path id="Path_18128" data-name="Path 18128" d="M1254.562,691.23c-.146-.05-.284-.1-.429-.161a.8.8,0,0,1-.082-.038C1254.221,691.1,1254.389,691.169,1254.562,691.23Z" transform="translate(-1198.779 -666.826)"/>
            <path id="Path_18129" data-name="Path 18129" d="M1254.794,691.3c.178.056.351.105.529.149-.117-.027-.239-.059-.356-.094-.061-.017-.117-.033-.172-.05-.078-.023-.155-.05-.234-.078s-.167-.056-.243-.088C1254.478,691.191,1254.633,691.246,1254.794,691.3Z" transform="translate(-1198.534 -666.731)"/>
            <path id="Path_18130" data-name="Path 18130" d="M1255.932,691.521c.149.021.3.044.459.059a4.128,4.128,0,0,1-.412-.05c-.016,0-.033-.006-.048-.006l-.184-.033c-.123-.017-.245-.038-.368-.067-.155-.033-.3-.067-.462-.105a.53.53,0,0,1-.076-.023C1255.2,691.387,1255.564,691.466,1255.932,691.521Z" transform="translate(-1198.054 -666.582)"/>
            <path id="Path_18131" data-name="Path 18131" d="M1256.1,691.48h-.067a.636.636,0,0,1-.105-.006l-.19-.017a.064.064,0,0,1-.033-.006C1255.833,691.462,1255.967,691.474,1256.1,691.48Z" transform="translate(-1197.267 -666.442)"/>
            <path id="Path_18132" data-name="Path 18132" d="M1329.182,691.48a1.145,1.145,0,0,1-.144.006h-72.675a1.148,1.148,0,0,1-.144-.006Z" transform="translate(-1196.792 -666.415)"/>
            <path id="Path_18133" data-name="Path 18133" d="M1294.626,691.48c.128-.006.261-.017.395-.029a.075.075,0,0,1-.034.006l-.188.017a.658.658,0,0,1-.105.006Z" transform="translate(-1161.635 -666.442)"/>
            <path id="Path_18134" data-name="Path 18134" d="M1295.343,691.521c.366-.056.734-.134,1.09-.224a.571.571,0,0,1-.079.023c-.155.038-.306.073-.461.105-.123.029-.243.05-.366.067l-.184.033c-.017,0-.034.006-.05.006a4.06,4.06,0,0,1-.412.05C1295.036,691.565,1295.191,691.542,1295.343,691.521Z" transform="translate(-1161.402 -666.582)"/>
            <path id="Path_18135" data-name="Path 18135" d="M1296.7,691.135c-.078.032-.161.061-.245.088s-.155.056-.234.078c-.055.017-.111.033-.172.05-.117.034-.238.067-.354.094.176-.044.349-.094.526-.149C1296.379,691.246,1296.536,691.191,1296.7,691.135Z" transform="translate(-1160.66 -666.731)"/>
            <path id="Path_18136" data-name="Path 18136" d="M1296.216,691.23c.173-.061.339-.128.512-.2a.874.874,0,0,1-.084.038C1296.5,691.131,1296.36,691.18,1296.216,691.23Z" transform="translate(-1160.18 -666.826)"/>
            <path id="Path_18137" data-name="Path 18137" d="M1297.3,690.7c.105-.061.211-.134.316-.2l-.117.084-.01.006A2.077,2.077,0,0,1,1297.3,690.7Z" transform="translate(-1159.184 -667.313)"/>
            <path id="Path_18138" data-name="Path 18138" d="M1297.8,690.325c-.044.04-.088.073-.134.107a.567.567,0,0,1-.055.033A1.923,1.923,0,0,0,1297.8,690.325Z" transform="translate(-1158.9 -667.472)"/>
            <path id="Path_18139" data-name="Path 18139" d="M1298.331,690.032c-.038.034-.073.067-.117.1a1.42,1.42,0,0,1-.157.132,2.643,2.643,0,0,1-.26.207c.09-.073.178-.14.26-.213S1298.241,690.11,1298.331,690.032Z" transform="translate(-1158.732 -667.74)"/>
            <path id="Path_18140" data-name="Path 18140" d="M1298.593,689.58a1.294,1.294,0,0,1-.117.122,1.279,1.279,0,0,0,.111-.122Z" transform="translate(-1158.111 -668.154)"/>
            <path id="Path_18141" data-name="Path 18141" d="M1298.8,689.368c-.029.038-.061.073-.094.111a.639.639,0,0,1-.079.082c.056-.06.111-.127.167-.194Z" transform="translate(-1157.97 -668.348)"/>
            <path id="Path_18142" data-name="Path 18142" d="M1298.948,689.162a2.1,2.1,0,0,1-.138.178c.038-.05.078-.1.111-.151A.051.051,0,0,0,1298.948,689.162Z" transform="translate(-1157.805 -668.537)"/>
            <path id="Path_18143" data-name="Path 18143" d="M1299.7,687.879c-.012.034-.029.067-.04.105-.044.1-.082.19-.132.285C1299.585,688.141,1299.641,688.013,1299.7,687.879Z" transform="translate(-1157.151 -669.711)"/>
            <path id="Path_18144" data-name="Path 18144" d="M1299.756,687.581l-.05.149-.012.017C1299.718,687.692,1299.733,687.636,1299.756,687.581Z" transform="translate(-1156.995 -669.984)"/>
            <g id="Group_5605" data-name="Group 5605" transform="translate(5.085 5.187)">
              <path id="Path_18145" data-name="Path 18145" d="M1403.76,867.61v3.86a21.839,21.839,0,0,1-2.886,10.86,20.9,20.9,0,0,1-12.555,5.532c-.193.015-.393.029-.592.035-.358.019-.722.029-1.084.029H1247.016c-.37,0-.738-.01-1.1-.029-.2-.006-.393-.019-.573-.035-.266-.019-.533-.048-.8-.082a20.858,20.858,0,0,1-11.757-5.445,21.832,21.832,0,0,1-2.911-10.9v-4.518a17.155,17.155,0,0,0,6.031,13.015,16.975,16.975,0,0,0,9.74,4.064c.123.01.244.023.364.023l.053.006h.054c.295.015.6.025.9.025h139.626c.289,0,.586-.01.875-.025h.059l.054-.006c.134,0,.266-.013.4-.023A17.2,17.2,0,0,0,1403.76,867.61Z" transform="translate(-1225.993 -511.005)" fill="url(#linear-gradient-6)"/>
              <path id="Path_18146" data-name="Path 18146" d="M1407.635,702.145l.015-.034a20.993,20.993,0,0,0-19.9-20.979l-.032,0c-.354-.015-.718-.025-1.081-.025H1247.016c-.364,0-.728.01-1.08.025l-.05,0h-.01c-.454.025-.9.063-1.346.117a20.918,20.918,0,0,0-11.761,5.411,21.926,21.926,0,0,0-2.892,10.931v4.52a17.13,17.13,0,0,1,16.11-17.1h.092l.126-.013c.3-.01.563-.015.81-.015h139.626c.223,0,.464.006.732.015h0l.174.01a17.119,17.119,0,0,1,16.208,16.4v-3.779a21.932,21.932,0,0,0-2.892-10.933A20.972,20.972,0,0,1,1407.635,702.145Z" transform="translate(-1225.993 -681.102)" fill="url(#linear-gradient-6)"/>
              <path id="Path_18147" data-name="Path 18147" d="M1234.635,1049.722a21.02,21.02,0,0,1-6.786-15.417V699.4a20.968,20.968,0,0,1,6.767-15.452,21.921,21.921,0,0,0-2.892,10.931v343.943A21.83,21.83,0,0,0,1234.635,1049.722Z" transform="translate(-1227.849 -678.495)" fill="url(#linear-gradient-8)"/>
              <path id="Path_18148" data-name="Path 18148" d="M1325.924,699.474v334.9a20.751,20.751,0,0,1-2.747,10.328c-.159.282-.329.557-.5.829q-.379.609-.814,1.192a20.878,20.878,0,0,1-2.728,3.07l.025-.038a21.841,21.841,0,0,0,2.886-10.86V694.953a21.934,21.934,0,0,0-2.892-10.933A20.972,20.972,0,0,1,1325.924,699.474Z" transform="translate(-1144.282 -678.431)" fill="url(#linear-gradient-9)"/>
            </g>
            <g id="Group_5606" data-name="Group 5606" transform="translate(84.182 13.613)">
              <rect id="Rectangle_3540" data-name="Rectangle 3540" width="22.282" height="2.341" rx="0.328" fill="url(#linear-gradient-10)"/>
            </g>
          </g>
          <path id="Path_18149" data-name="Path 18149" d="M1399.116,698.7v334.906a13.953,13.953,0,0,1-2.9,8.5c-.1.128-.2.249-.3.371-.31.373-.634.728-.971,1.069-.3.293-.619.582-.946.854h-.006a14.52,14.52,0,0,1-1.295.952,14.883,14.883,0,0,1-1.394.8h-.006c-.24.117-.483.228-.734.339h-.006c-.243.105-.5.2-.755.295a14.778,14.778,0,0,1-1.581.462,14.562,14.562,0,0,1-1.982.3l-.184.015h-.05l-.04.005h-.094l-.017.006c-.061,0-.127,0-.188.006s-.117.006-.178.006c-.122,0-.245.006-.362.006H1245.5c-.117,0-.24-.006-.362-.006s-.243-.012-.366-.012l-.023-.006h-.088l-.038-.005h-.046l-.188-.015a14.048,14.048,0,0,1-12.877-13.94V698.7a13.99,13.99,0,0,1,13.059-13.956h.122l.19-.017c.228-.01.427-.01.617-.01h20.146a2.335,2.335,0,0,1,2.2,2.09c.006.077.006.155.006.234v.033a.094.094,0,0,0,.005.038,9.354,9.354,0,0,0,.134,1.251c.021.144.044.283.078.423v0c.032.172.071.341.115.507.035.149.078.3.123.45l.034.105a.955.955,0,0,0,.039.111.374.374,0,0,0,.029.088l.05.151.05.149.01.017c.046.138.1.272.157.4s.111.262.172.391a.142.142,0,0,0,.021.054l.011.029c.05.111.106.217.161.322s.1.19.146.278c.015.029.032.061.05.09a1.11,1.11,0,0,0,.077.138c.035.067.073.128.111.19.011.017.017.033.028.05s.033.05.044.073c.029.044.05.082.078.123a1.123,1.123,0,0,0,.088.138,1.19,1.19,0,0,0,.078.117.594.594,0,0,0,.044.061c.032.05.061.094.094.14a.876.876,0,0,0,.073.094.974.974,0,0,0,.1.14l.023.032a.061.061,0,0,0,.027.027c.034.05.073.1.111.151a.268.268,0,0,0,.046.056,1.842,1.842,0,0,0,.126.161h.006a.8.8,0,0,0,.09.111,1.673,1.673,0,0,0,.166.19.935.935,0,0,0,.088.105h.006a1.308,1.308,0,0,0,.111.123c.038.044.084.088.128.132a1.171,1.171,0,0,0,.122.122,2.773,2.773,0,0,0,.228.222,1.665,1.665,0,0,0,.178.167c.038.033.071.067.111.1s.071.067.117.1a1.722,1.722,0,0,0,.155.126v.006a2.974,2.974,0,0,0,.26.207c.056.044.106.082.161.121s.09.073.134.107c.017.01.032.021.055.033l.006.006c.061.044.122.088.19.128a.368.368,0,0,0,.082.059l.117.084.011.006c.061.038.122.078.188.111a1.968,1.968,0,0,0,.251.155,2.511,2.511,0,0,0,.322.178c.04.029.084.05.122.073.012.006.017.012.029.012.077.044.155.082.238.121a2.018,2.018,0,0,0,.216.107c.063.033.128.059.2.088a.589.589,0,0,0,.106.044.435.435,0,0,0,.09.04.867.867,0,0,0,.088.038c.145.061.283.111.429.161.077.032.161.061.243.088s.155.052.234.073v.006c.056.017.111.033.173.05.117.035.239.067.356.094a.544.544,0,0,0,.076.023c.157.038.306.073.462.105.123.029.245.05.368.067.062.012.123.023.184.029v0c.015,0,.032.006.048.006a4.119,4.119,0,0,0,.412.05c.035.006.061.006.1.011a.064.064,0,0,0,.033.006l.189.017a.636.636,0,0,0,.105.006,2.1,2.1,0,0,0,.266.017,3.5,3.5,0,0,0,.4.01,1.16,1.16,0,0,0,.144.006h72.674a1.16,1.16,0,0,0,.144-.006,3.492,3.492,0,0,0,.4-.01,2.123,2.123,0,0,0,.268-.017.655.655,0,0,0,.105-.006l.188-.017a.074.074,0,0,0,.034-.006c.033-.006.061-.006.094-.011a4.055,4.055,0,0,0,.412-.05c.015,0,.033-.006.05-.006v0c.062-.006.123-.017.184-.029.122-.017.243-.038.366-.067.155-.033.306-.067.461-.105a.6.6,0,0,0,.079-.023c.117-.027.237-.059.354-.094.061-.017.117-.032.172-.05v-.006c.078-.021.157-.044.234-.073s.167-.056.245-.088c.144-.05.284-.1.427-.161a.892.892,0,0,0,.09-.038.413.413,0,0,0,.088-.04.589.589,0,0,0,.105-.044c.067-.029.134-.056.2-.088a2.071,2.071,0,0,0,.217-.107c.082-.038.161-.077.239-.121.01,0,.016-.006.027-.012a1.3,1.3,0,0,0,.122-.073,2.535,2.535,0,0,0,.322-.178,1.988,1.988,0,0,0,.25-.155,2.035,2.035,0,0,0,.19-.111l.009-.006.117-.084a.369.369,0,0,0,.084-.059c.067-.04.128-.084.188-.128l.006-.006a.566.566,0,0,0,.056-.033,1.7,1.7,0,0,0,.134-.107c.056-.038.105-.077.161-.121a2.727,2.727,0,0,0,.26-.207v-.006a1.454,1.454,0,0,0,.157-.126c.044-.035.079-.067.117-.1s.071-.067.111-.1a1.665,1.665,0,0,0,.178-.167,3.14,3.14,0,0,0,.228-.222,1.146,1.146,0,0,0,.121-.122c.046-.044.09-.088.128-.132a1.4,1.4,0,0,0,.111-.123h.005l.006-.012a1.454,1.454,0,0,0,.172-.2.621.621,0,0,0,.079-.082,1,1,0,0,0,.088-.111h.006c.044-.05.088-.105.128-.161a.312.312,0,0,0,.044-.056c.038-.05.079-.1.111-.151a.052.052,0,0,0,.027-.027l.023-.032a.874.874,0,0,0,.1-.14.688.688,0,0,0,.073-.094c.032-.046.061-.09.094-.14a.334.334,0,0,0,.046-.061c.027-.038.054-.077.077-.117a1.475,1.475,0,0,0,.09-.138c.027-.04.05-.078.077-.123a.635.635,0,0,0,.044-.073c.011-.017.017-.032.029-.05a2.15,2.15,0,0,0,.111-.19,1.14,1.14,0,0,0,.076-.138.51.51,0,0,0,.052-.09c.05-.088.1-.182.144-.278s.111-.211.161-.322l.011-.029a.157.157,0,0,0,.023-.054c.061-.128.116-.257.172-.391s.111-.266.155-.4l.012-.017.05-.149.05-.151a.379.379,0,0,0,.027-.088c.017-.04.029-.078.04-.111a.942.942,0,0,1,.033-.105c.044-.151.09-.3.122-.45.044-.167.084-.335.117-.507v0c.032-.14.055-.28.076-.423a9.334,9.334,0,0,0,.134-1.251.094.094,0,0,0,.005-.038v-.033c0-.078.006-.157.006-.234a2.335,2.335,0,0,1,2.2-2.09h20.146c.19,0,.395,0,.617.01l.067.006.123.012h.122c.122.006.245.017.366.035a1.179,1.179,0,0,1,.183.015c.123.011.245.023.368.044.144.017.287.034.433.061l.023.006c.211.035.415.073.621.111a.908.908,0,0,0,.117.029c.172.038.341.077.507.123.244.065.489.138.734.217.193.061.388.126.577.193.207.078.412.163.611.245.4.172.8.362,1.18.567.343.19.688.389,1.017.605.071.05.144.1.222.151l.4.283c.171.126.343.26.511.395.333.272.655.555.96.856.157.149.306.3.452.46s.287.318.427.479a14.771,14.771,0,0,1,1.49,2.107c.216.372.41.76.594,1.155s.345.795.488,1.213c.073.2.14.41.2.622a13,13,0,0,1,.333,1.389c.038.184.067.372.094.561A13.443,13.443,0,0,1,1399.116,698.7Z" transform="translate(-1219.407 -672.606)" fill="url(#linear-gradient-11)"/>
        </g>
      </g>
    </g>
    <rect id="Rectangle_3562" data-name="Rectangle 3562" width="169" height="369" rx="15" transform="translate(-1272 11152.997)"/>
    <rect id="Rectangle_3563" data-name="Rectangle 3563" width="169" height="336" transform="translate(-1272 11168.997)" fill="#fff"/>
  </g>
</svg>
