<?xml version="1.0" encoding="utf-8"?>
<!-- Generator: Adobe Illustrator 25.2.1, SVG Export Plug-In . SVG Version: 6.00 Build 0)  -->
<svg version="1.1" id="laptop-frame-a" xmlns="http://www.w3.org/2000/svg" xmlns:xlink="http://www.w3.org/1999/xlink" x="0px"
	 y="0px" viewBox="0 0 1023.3 580.7" style="enable-background:new 0 0 1023.3 580.7;" xml:space="preserve">
<style type="text/css">
	.st0{fill:url(#Path_3_1_);}
	.st1{fill:url(#Path_4_1_);}
	.st2{fill:url(#Rectangle_23_1_);}
	.st3{fill:url(#Rectangle_24_1_);}
	.st4{fill:url(#Rectangle_25_1_);}
	.st5{fill:url(#Rectangle_26_1_);}
	.st6{fill:url(#Rectangle_27_1_);}
	.st7{fill:url(#Path_7_1_);}
	.st8{fill:url(#Path_8_1_);}
	.st9{fill:#FFFFFF;}
</style>
<g>
	<path id="Exclusion_2" d="M926.9,534.9H104.8V25c0.1-11.9,9.7-21.5,21.6-21.4h778.9c11.9,0,21.5,9.6,21.6,21.4L926.9,534.9
		L926.9,534.9z M121.8,34.7v487.6h788.1V34.7H121.8z"/>
	<g id="Group_16" transform="translate(0 0)">
		<g id="Group_11" transform="translate(101.095)">
			
				<linearGradient id="Path_3_1_" gradientUnits="userSpaceOnUse" x1="-88.6095" y1="789.6172" x2="-88.6095" y2="790.6172" gradientTransform="matrix(829.3749 0 0 -545.9226 73905.2109 431619.3438)">
				<stop  offset="0" style="stop-color:#9A9A9A"/>
				<stop  offset="9.400000e-02" style="stop-color:#A1A1A1"/>
				<stop  offset="0.238" style="stop-color:#B7B7B7"/>
				<stop  offset="0.415" style="stop-color:#DADADA"/>
				<stop  offset="0.447" style="stop-color:#E2E2E2"/>
				<stop  offset="1" style="stop-color:#C5C5C5"/>
			</linearGradient>
			<path id="Path_3" class="st0" d="M804.2,3.6H25.3C11.5,3.5,0.1,14.6,0,28.5v521h3.6V24.9c0-1.1,0.1-2.2,0.2-3.2
				C4,21.3,4,21,4.1,20.6s0.2-0.7,0.2-1s0.2-0.7,0.3-1C5.5,15.8,7,13.2,8.9,11c0.2-0.3,0.5-0.5,0.7-0.8C9.8,10.1,9.9,10,10,9.9
				c1.1-1.1,2.3-2.1,3.6-2.9c0.4-0.3,0.9-0.5,1.3-0.8s0.9-0.5,1.4-0.7l0,0c0.3-0.1,0.6-0.3,1-0.4l0,0c2.5-1,5.2-1.5,7.9-1.5
				L804.2,3.6c3.5,0.1,7.1,0.9,10.2,2.6c0.5,0.2,0.9,0.5,1.3,0.8c0.6,0.4,1.1,0.8,1.7,1.2l0,0c0.3,0.2,0.5,0.4,0.8,0.6v0
				c0.4,0.3,0.8,0.7,1.1,1c0.1,0.1,0.2,0.2,0.4,0.4c0.2,0.2,0.5,0.5,0.7,0.8c3.4,3.8,5.3,8.8,5.3,13.9v524.6h3.7V26.9
				C828.5,13.7,817.5,3.5,804.2,3.6z"/>
			
				<linearGradient id="Path_4_1_" gradientUnits="userSpaceOnUse" x1="-88.6095" y1="782.6663" x2="-88.6095" y2="783.6663" gradientTransform="matrix(829.429 0 0 -28.4986 73909.9766 22333.4141)">
				<stop  offset="0" style="stop-color:#404040"/>
				<stop  offset="0.28" style="stop-color:#424242"/>
				<stop  offset="0.448" style="stop-color:#4A4A4A"/>
				<stop  offset="0.586" style="stop-color:#595959"/>
				<stop  offset="0.709" style="stop-color:#6D6D6D"/>
				<stop  offset="0.82" style="stop-color:#878787"/>
				<stop  offset="0.922" style="stop-color:#A7A7A7"/>
				<stop  offset="1" style="stop-color:#C5C5C5"/>
			</linearGradient>
			<path id="Path_4" class="st1" d="M0,24.9C0.1,11.1,11.4-0.1,25.3,0c0,0,0,0,0,0h778.9c13.9-0.1,25.2,11.1,25.3,24.9c0,0,0,0,0,0
				v2c-0.9-13.2-12-23.4-25.2-23.4H25.3C11.5,3.5,0.1,14.6,0.1,28.5c0,0,0,0,0,0L0,24.9z"/>
			<g id="Group_10" transform="translate(0.051 3.614)">
				<rect id="Rectangle_22" x="3.6" y="531.3" width="822.1" height="14.6"/>
				<path id="Path_6" d="M829.4,545.9v1.3h-3.7l0,0H3.6l0,0H0v-1.3H829.4z"/>
			</g>
		</g>
		<g id="Group_15" transform="translate(0 549.7)">
			<g id="Group_14">
				<g id="Group_12" transform="translate(0 1.121)">
					
						<linearGradient id="Rectangle_23_1_" gradientUnits="userSpaceOnUse" x1="11.9765" y1="226.1838" x2="12.9765" y2="226.1838" gradientTransform="matrix(511.661 0 0 -15.487 -6127.9321 3511.4241)">
						<stop  offset="0" style="stop-color:#929292"/>
						<stop  offset="1.400000e-02" style="stop-color:#C1C1C1"/>
						<stop  offset="2.700000e-02" style="stop-color:#B1B1B1"/>
						<stop  offset="4.900000e-02" style="stop-color:#9C9C9C"/>
						<stop  offset="7.100000e-02" style="stop-color:#A3A3A3"/>
						<stop  offset="9.099999e-02" style="stop-color:#AFAFAF"/>
						<stop  offset="1" style="stop-color:#CFCFCF"/>
					</linearGradient>
					<rect id="Rectangle_23" y="0.8" class="st2" width="511.7" height="15.5"/>
					
						<linearGradient id="Rectangle_24_1_" gradientUnits="userSpaceOnUse" x1="11.9883" y1="-31.0464" x2="12.9883" y2="-31.0464" gradientTransform="matrix(1023.322 0 0 -0.772 -12267.8643 -23.5818)">
						<stop  offset="5.000000e-03" style="stop-color:#F8F8F8"/>
						<stop  offset="6.400000e-02" style="stop-color:#D0D0D0"/>
						<stop  offset="0.503" style="stop-color:#F8F8F8"/>
						<stop  offset="0.866" style="stop-color:#D0D0D0"/>
						<stop  offset="0.876" style="stop-color:#D3D3D3"/>
						<stop  offset="0.951" style="stop-color:#E8E8E8"/>
						<stop  offset="1" style="stop-color:#F1F1F1"/>
					</linearGradient>
					<rect id="Rectangle_24" y="0" class="st3" width="1023.3" height="0.8"/>
					
						<linearGradient id="Rectangle_25_1_" gradientUnits="userSpaceOnUse" x1="11.9765" y1="226.1838" x2="12.9765" y2="226.1838" gradientTransform="matrix(511.661 0 0 -15.487 -5616.271 3511.4241)">
						<stop  offset="0" style="stop-color:#CFCFCF"/>
						<stop  offset="0.909" style="stop-color:#AFAFAF"/>
						<stop  offset="0.929" style="stop-color:#A3A3A3"/>
						<stop  offset="0.951" style="stop-color:#9C9C9C"/>
						<stop  offset="0.973" style="stop-color:#B1B1B1"/>
						<stop  offset="0.986" style="stop-color:#C1C1C1"/>
						<stop  offset="1" style="stop-color:#929292"/>
					</linearGradient>
					<rect id="Rectangle_25" x="511.7" y="0.8" class="st4" width="511.7" height="15.5"/>
				</g>
				<g id="Group_13" transform="translate(0 1.894)">
					
						<linearGradient id="Rectangle_26_1_" gradientUnits="userSpaceOnUse" x1="11.9765" y1="224.5634" x2="12.9765" y2="224.5634" gradientTransform="matrix(511.661 0 0 -14.572 -6127.9321 3279.624)">
						<stop  offset="0" style="stop-color:#666666"/>
						<stop  offset="1.400000e-02" style="stop-color:#D5D5D5"/>
						<stop  offset="2.100000e-02" style="stop-color:#BDBDBD"/>
						<stop  offset="4.000000e-02" style="stop-color:#858585"/>
						<stop  offset="4.900000e-02" style="stop-color:#707070"/>
						<stop  offset="5.700000e-02" style="stop-color:#787878"/>
						<stop  offset="7.000000e-02" style="stop-color:#8D8D8D"/>
						<stop  offset="8.700000e-02" style="stop-color:#B1B1B1"/>
						<stop  offset="9.099999e-02" style="stop-color:#BCBCBC"/>
						<stop  offset="1" style="stop-color:#F1F1F1"/>
					</linearGradient>
					<rect id="Rectangle_26" y="0" class="st5" width="511.7" height="14.6"/>
					
						<linearGradient id="Rectangle_27_1_" gradientUnits="userSpaceOnUse" x1="11.9765" y1="224.5634" x2="12.9765" y2="224.5634" gradientTransform="matrix(511.661 0 0 -14.572 -5616.271 3279.624)">
						<stop  offset="0" style="stop-color:#F1F1F1"/>
						<stop  offset="0.909" style="stop-color:#BCBCBC"/>
						<stop  offset="0.913" style="stop-color:#B1B1B1"/>
						<stop  offset="0.93" style="stop-color:#8D8D8D"/>
						<stop  offset="0.943" style="stop-color:#787878"/>
						<stop  offset="0.951" style="stop-color:#707070"/>
						<stop  offset="0.96" style="stop-color:#858585"/>
						<stop  offset="0.979" style="stop-color:#BDBDBD"/>
						<stop  offset="0.986" style="stop-color:#D5D5D5"/>
						<stop  offset="1" style="stop-color:#666666"/>
					</linearGradient>
					<rect id="Rectangle_27" x="511.7" y="0" class="st6" width="511.7" height="14.6"/>
				</g>
				
					<linearGradient id="Path_7_1_" gradientUnits="userSpaceOnUse" x1="11.9176" y1="223.1747" x2="12.9176" y2="223.1747" gradientTransform="matrix(145.6531 0 0 -11.858 -1297.0029 2653.4534)">
					<stop  offset="0" style="stop-color:#9F9F9F"/>
					<stop  offset="4.000000e-02" style="stop-color:#ACACAC"/>
					<stop  offset="0.514" style="stop-color:#E5E5E5"/>
					<stop  offset="0.963" style="stop-color:#ACACAC"/>
					<stop  offset="1" style="stop-color:#9F9F9F"/>
				</linearGradient>
				<path id="Path_7" class="st7" d="M584.5,1.1c0,6.5-5.3,11.9-11.9,11.9H450.7c-6.5,0-11.8-5.3-11.8-11.9H584.5z"/>
				
					<image style="overflow:visible;enable-background:new    ;" width="117" height="11" id="Rectangle_28" xlink:href="E5CA5590.png"  transform="matrix(1.2602 0 0 1.2602 437.785 6.028851e-05)">
				</image>
			</g>
			
				<linearGradient id="Path_8_1_" gradientUnits="userSpaceOnUse" x1="12.4883" y1="224.9865" x2="12.4883" y2="225.9865" gradientTransform="matrix(1023.3201 0 0 -13.6481 -12267.8389 3101.6741)">
				<stop  offset="0" style="stop-color:#575757"/>
				<stop  offset="0.739" style="stop-color:#B9B9B9"/>
				<stop  offset="0.847" style="stop-color:#B5B5B5"/>
				<stop  offset="0.936" style="stop-color:#ABABAB"/>
				<stop  offset="1" style="stop-color:#9F9F9F"/>
			</linearGradient>
			<path id="Path_8" class="st8" d="M0,17.4C36.3,26.5,73.7,31.1,111.1,31h801c37.5,0,74.8-4.6,111.1-13.6H0z"/>
		</g>
	</g>
	<rect x="121.8" y="34.7" class="st9" width="788.1" height="487.6"/>
</g>
</svg>
