<svg xmlns="http://www.w3.org/2000/svg" viewBox="0 0 105 32"><defs><style>.cls-1{opacity:0.82;}.cls-1,.cls-6{isolation:isolate;}.cls-2{fill:#ffc619;}.cls-3{opacity:0.9;}.cls-4{fill:none;}.cls-5{fill:#fff;}</style></defs><g id="Layer_2" data-name="Layer 2"><g id="Layer_1-2" data-name="Layer 1"><g id="Master_Class-2" data-name="Master Class-2"><g id="Rectangle_3448" data-name="Rectangle 3448" class="cls-1"><path class="cls-2" d="M33.75,18.48l-1.06,3.26H35Zm0,0-1.06,3.26H35ZM25.52,6.53a2.29,2.29,0,1,0,0,4.58,2.33,2.33,0,0,0,.7-.11V9.55l1.22.5a2.29,2.29,0,0,0-1.92-3.52Zm8.23,12-1.06,3.26H35Zm0,0-1.06,3.26H35ZM25.52,6.53a2.29,2.29,0,1,0,0,4.58,2.33,2.33,0,0,0,.7-.11V9.55l1.22.5a2.29,2.29,0,0,0-1.92-3.52ZM89,0H16a16,16,0,0,0,0,32H89A16,16,0,0,0,89,0ZM36.25,25.16l-.61-1.44H31.91l-.52,1.44h-2.6l1.95-5.32H27.05v5.37H24.57V23.53H18.84V13.25l2.48,1v7h3.26V14.78l1.65.63V12a3.19,3.19,0,0,1-.7.08,3.3,3.3,0,1,1,2.85-1.67l.33.13v7h2.88l1-2.77L35,15.89l3.85,9.27Zm-3.56-3.42H35l-1.23-3.26ZM25.52,6.53a2.29,2.29,0,1,0,0,4.58,2.33,2.33,0,0,0,.7-.11V9.55l1.22.5a2.29,2.29,0,0,0-1.92-3.52Zm8.23,12-1.06,3.26H35Zm0,0-1.06,3.26H35Z"/></g><g id="lila_logo" data-name="lila logo" class="cls-3"><g id="Ellipse_185" data-name="Ellipse 185"><path class="cls-4" d="M27.8,8.82a2.27,2.27,0,0,1-.36,1.23l-1.22-.5V11a2.33,2.33,0,0,1-.7.11A2.29,2.29,0,1,1,27.8,8.82Z"/><path class="cls-5" d="M35,15.89l-2.43-1.11-1,2.77H28.7v-7l-.33-.13a3.28,3.28,0,1,0-2.85,1.67,3.19,3.19,0,0,0,.7-.08v3.38l-1.65-.63v6.47H21.31v-7l-2.48-1V23.53h5.73v1.68h2.48V19.84h3.69l-1.95,5.32h2.6l.52-1.44h3.73l.61,1.44h2.62Zm-8.8-6.34V11a2.33,2.33,0,0,1-.7.11,2.29,2.29,0,1,1,1.92-1.06Zm6.47,12.19,1.06-3.26L35,21.74Z"/></g></g><g id="Group_5056" data-name="Group 5056" class="cls-3"><g id="MASTER_CLASS-3" data-name="MASTER CLASS-3" class="cls-6"><g class="cls-6"><path class="cls-5" d="M47.7,8.27l1.84,4.91,1.84-4.91h1.44v6.4H51.71V12.56l.11-2.82-1.89,4.93h-.79L47.25,9.74l.11,2.82v2.11h-1.1V8.27Z"/><path class="cls-5" d="M58.7,13.18H56.22l-.52,1.49H54.54L57,8.27h1l2.42,6.4H59.22Zm-2.17-.9h1.85l-.92-2.65Z"/><path class="cls-5" d="M65.35,13a.78.78,0,0,0-.3-.65A3.74,3.74,0,0,0,64,11.91a5.16,5.16,0,0,1-1.23-.52A1.63,1.63,0,0,1,61.88,10a1.54,1.54,0,0,1,.63-1.27,2.5,2.5,0,0,1,1.63-.51,2.78,2.78,0,0,1,1.19.25,2,2,0,0,1,.83.7,1.79,1.79,0,0,1,.3,1H65.35A1,1,0,0,0,65,9.36a1.29,1.29,0,0,0-.89-.29,1.32,1.32,0,0,0-.85.24A.77.77,0,0,0,63,10a.7.7,0,0,0,.32.58,3.78,3.78,0,0,0,1.08.46,5.78,5.78,0,0,1,1.2.5,2,2,0,0,1,.66.65,1.74,1.74,0,0,1,.21.86,1.53,1.53,0,0,1-.61,1.28,2.71,2.71,0,0,1-1.67.47,3.1,3.1,0,0,1-1.27-.26,2.18,2.18,0,0,1-.91-.71,1.79,1.79,0,0,1-.32-1h1.11a1,1,0,0,0,.36.84,1.58,1.58,0,0,0,1,.3,1.38,1.38,0,0,0,.88-.24A.75.75,0,0,0,65.35,13Z"/><path class="cls-5" d="M73,9.17H71v5.5h-1.1V9.17h-2v-.9H73Z"/><path class="cls-5" d="M78.44,11.81H75.81v2h3.07v.89H74.7V8.27h4.15v.9h-3v1.77h2.63Z"/><path class="cls-5" d="M83,12.21H81.8v2.46H80.69V8.27h2.25a2.62,2.62,0,0,1,1.71.5,1.76,1.76,0,0,1,.6,1.44,1.83,1.83,0,0,1-.31,1.07,2.07,2.07,0,0,1-.86.67l1.43,2.66v.06H84.32Zm-1.24-.9h1.14a1.26,1.26,0,0,0,.88-.28,1,1,0,0,0,.32-.78,1,1,0,0,0-.3-.79A1.18,1.18,0,0,0,83,9.17H81.8Z"/></g><g class="cls-6"><path class="cls-5" d="M51.14,23.59a2.36,2.36,0,0,1-.76,1.6,2.58,2.58,0,0,1-1.75.57,2.52,2.52,0,0,1-1.35-.36,2.44,2.44,0,0,1-.9-1,3.81,3.81,0,0,1-.33-1.56v-.59a3.81,3.81,0,0,1,.32-1.6,2.52,2.52,0,0,1,.92-1.06,2.61,2.61,0,0,1,1.39-.38,2.49,2.49,0,0,1,1.71.58,2.38,2.38,0,0,1,.75,1.62H50a1.57,1.57,0,0,0-.4-1,1.5,1.5,0,0,0-2.06.22,2.67,2.67,0,0,0-.4,1.56v.56a2.81,2.81,0,0,0,.37,1.59,1.24,1.24,0,0,0,1.09.54,1.45,1.45,0,0,0,1-.29,1.57,1.57,0,0,0,.42-1Z"/><path class="cls-5" d="M54.14,24.78h2.91v.89H53v-6.4h1.11Z"/><path class="cls-5" d="M62.47,24.18H60l-.52,1.49H58.31l2.42-6.4h1l2.42,6.4H63Zm-2.17-.9h1.85l-.92-2.65Z"/><path class="cls-5" d="M69.12,24a.78.78,0,0,0-.3-.65,3.74,3.74,0,0,0-1.07-.46,5.16,5.16,0,0,1-1.23-.52A1.63,1.63,0,0,1,65.65,21a1.54,1.54,0,0,1,.63-1.27,2.5,2.5,0,0,1,1.63-.51,2.78,2.78,0,0,1,1.19.25,2,2,0,0,1,.83.7,1.79,1.79,0,0,1,.3,1H69.12a1,1,0,0,0-.32-.78,1.29,1.29,0,0,0-.89-.29,1.32,1.32,0,0,0-.85.24.77.77,0,0,0-.3.65.7.7,0,0,0,.32.58,3.78,3.78,0,0,0,1.08.46,5.78,5.78,0,0,1,1.2.5,2,2,0,0,1,.66.65,1.74,1.74,0,0,1,.21.86,1.53,1.53,0,0,1-.61,1.28,2.71,2.71,0,0,1-1.67.47,3.1,3.1,0,0,1-1.27-.26,2.18,2.18,0,0,1-.91-.71,1.79,1.79,0,0,1-.32-1.05h1.11a1,1,0,0,0,.36.84,1.58,1.58,0,0,0,1,.3,1.38,1.38,0,0,0,.88-.24A.75.75,0,0,0,69.12,24Z"/><path class="cls-5" d="M75.45,24a.78.78,0,0,0-.3-.65,3.61,3.61,0,0,0-1.07-.46,5.16,5.16,0,0,1-1.23-.52A1.63,1.63,0,0,1,72,21a1.54,1.54,0,0,1,.63-1.27,2.51,2.51,0,0,1,1.64-.51,2.84,2.84,0,0,1,1.19.25,1.94,1.94,0,0,1,.82.7,1.79,1.79,0,0,1,.3,1H75.45a1,1,0,0,0-.31-.78,1.3,1.3,0,0,0-.9-.29,1.32,1.32,0,0,0-.85.24.77.77,0,0,0-.3.65.7.7,0,0,0,.32.58,3.78,3.78,0,0,0,1.08.46,5.35,5.35,0,0,1,1.2.5,2,2,0,0,1,.66.65,1.74,1.74,0,0,1,.21.86A1.53,1.53,0,0,1,76,25.29a2.68,2.68,0,0,1-1.66.47A3.15,3.15,0,0,1,73,25.5a2.18,2.18,0,0,1-.91-.71,1.79,1.79,0,0,1-.32-1.05h1.11a1,1,0,0,0,.36.84,1.59,1.59,0,0,0,1,.3,1.37,1.37,0,0,0,.87-.24A.75.75,0,0,0,75.45,24Z"/></g></g></g></g></g></g></svg>