<svg xmlns="http://www.w3.org/2000/svg" width="528.848" height="537.457" viewBox="0 0 528.848 537.457">
  <g id="failed" transform="translate(-244.506 -231.092)">
    <g id="Group_5496" data-name="Group 5496">
      <g id="Background_Complete" data-name="Background Complete">
        <g id="Group_5164" data-name="Group 5164">
          <g id="Group_5142" data-name="Group 5142">
            <g id="Group_5141" data-name="Group 5141">
              <path id="Path_17691" data-name="Path 17691" d="M685.543,534.55s11.148,2.95,1.773,27.013-16.328,36.208-16.328,36.208-1.537,5.521,3.018,5.9,14.248-2.186,16.79,3.087c2.638,5.469-.946,11.238-8.834,16.776S657.239,641.841,655.72,643c-1.49,1.139-2.834,3.772.228,4.526s25.448.837,24.771,11.458-25.185,22.438-27.839,23.781-3.2,2.58-2.82,4.074,7.9.813,14.27,1.1,13.7,1.731,12.794,7.824-14.717,20.1-50.948,27.364l-17.008,2.267-10.737-13.483c-21.218-30.253-21.559-49.919-18.009-54.954s9.856-1.025,14.661,3.16,9.784,9.87,11.088,9.05,1.764-2.09.768-4.894-10.586-28.267-3.75-36.421,23.1,7.226,25.838,8.794,3.579-1.267,3.287-3.119c-.3-1.887-3.68-22.745-5.569-32.2s-.506-16.1,5.176-18.24c5.478-2.063,10.728,6.476,14.286,9.346s6.253-2.187,6.253-2.187,3.346-13.587,13.158-37.475,20.146-18.144,20.146-18.144" fill="#dfddd8"/>
            </g>
          </g>
          <g id="Group_5145" data-name="Group 5145">
            <g id="Group_5144" data-name="Group 5144">
              <g id="Group_5143" data-name="Group 5143">
                <path id="Path_17692" data-name="Path 17692" d="M608.69,729.491c7.137-17.572,19.3-49.017,29.875-75.96s20.174-51.309,27.221-68.916l8.367-20.842c.98-2.445,1.744-4.352,2.271-5.669l.579-1.479c.126-.335.179-.512.179-.512s-.086.163-.231.491q-.223.522-.626,1.458c-.55,1.309-1.344,3.2-2.364,5.632-2.047,4.893-4.959,11.993-8.525,20.78-7.137,17.572-16.791,41.928-27.367,68.861s-22.683,58.407-29.729,76.014" fill="#4d4e4e"/>
              </g>
            </g>
          </g>
          <g id="Group_5148" data-name="Group 5148">
            <g id="Group_5147" data-name="Group 5147">
              <g id="Group_5146" data-name="Group 5146">
                <path id="Path_17693" data-name="Path 17693" d="M677.384,610.883a5.7,5.7,0,0,0-1.158.452c-.732.319-1.775.811-3.059,1.431-2.564,1.245-6.064,3.054-9.889,5.121l-9.773,5.327-2.969,1.6a5.561,5.561,0,0,0-1.069.628,5.539,5.539,0,0,0,1.16-.442c.73-.322,1.775-.814,3.053-1.447,2.553-1.271,6.028-3.125,9.852-5.192l9.807-5.254,2.98-1.581A5.424,5.424,0,0,0,677.384,610.883Z" fill="#4d4e4e"/>
              </g>
            </g>
          </g>
          <g id="Group_5151" data-name="Group 5151">
            <g id="Group_5150" data-name="Group 5150">
              <g id="Group_5149" data-name="Group 5149">
                <path id="Path_17694" data-name="Path 17694" d="M648.192,624.463c.133-.064-3.281-7.441-7.623-16.477s-7.971-16.312-8.1-16.249,3.28,7.44,7.624,16.479S648.059,624.524,648.192,624.463Z" fill="#4d4e4e"/>
              </g>
            </g>
          </g>
          <g id="Group_5154" data-name="Group 5154">
            <g id="Group_5153" data-name="Group 5153">
              <g id="Group_5152" data-name="Group 5152">
                <path id="Path_17695" data-name="Path 17695" d="M633.814,666.564a5.989,5.989,0,0,0-.8-.983l-2.3-2.563c-1.938-2.167-4.6-5.169-7.42-8.59s-5.277-6.6-7.032-8.912c-.829-1.089-1.525-2.007-2.083-2.742a5.956,5.956,0,0,0-.814-.971,5.621,5.621,0,0,0,.644,1.091c.444.682,1.1,1.658,1.948,2.845,1.68,2.376,4.091,5.6,6.926,9.028s5.543,6.4,7.555,8.507c1.01,1.048,1.838,1.887,2.427,2.45A5.614,5.614,0,0,0,633.814,666.564Z" fill="#4d4e4e"/>
              </g>
            </g>
          </g>
          <g id="Group_5157" data-name="Group 5157">
            <g id="Group_5156" data-name="Group 5156">
              <g id="Group_5155" data-name="Group 5155">
                <path id="Path_17696" data-name="Path 17696" d="M662.921,660.091a5.012,5.012,0,0,0-1.164.137l-3.133.568c-2.64.5-6.281,1.232-10.3,2.071s-7.644,1.628-10.264,2.224l-3.1.734a5.036,5.036,0,0,0-1.121.34,4.912,4.912,0,0,0,1.164-.137l3.133-.567c2.64-.5,6.281-1.234,10.3-2.072s7.643-1.628,10.263-2.224l3.1-.734A5.014,5.014,0,0,0,662.921,660.091Z" fill="#4d4e4e"/>
              </g>
            </g>
          </g>
          <g id="Group_5160" data-name="Group 5160">
            <g id="Group_5159" data-name="Group 5159">
              <g id="Group_5158" data-name="Group 5158">
                <path id="Path_17697" data-name="Path 17697" d="M654.949,698.872a8.015,8.015,0,0,0-1.488.19l-4.018.713c-3.387.625-8.06,1.525-13.215,2.55s-9.818,1.985-13.187,2.7l-3.983.879a8.217,8.217,0,0,0-1.447.394,8.021,8.021,0,0,0,1.488-.19l4.016-.713c3.388-.625,8.061-1.525,13.218-2.551s9.816-1.984,13.185-2.7l3.984-.879A8.088,8.088,0,0,0,654.949,698.872Z" fill="#4d4e4e"/>
              </g>
            </g>
          </g>
          <g id="Group_5163" data-name="Group 5163">
            <g id="Group_5162" data-name="Group 5162">
              <g id="Group_5161" data-name="Group 5161">
                <path id="Path_17698" data-name="Path 17698" d="M618.455,705.873a9.6,9.6,0,0,0-.981-1.272l-2.8-3.355c-2.36-2.834-5.6-6.761-9.063-11.2s-6.5-8.527-8.672-11.507l-2.578-3.527a9.266,9.266,0,0,0-1-1.259,9.137,9.137,0,0,0,.825,1.377c.56.868,1.39,2.11,2.442,3.627,2.1,3.038,5.087,7.176,8.559,11.616s6.76,8.342,9.2,11.116c1.221,1.385,2.221,2.494,2.929,3.247A9.062,9.062,0,0,0,618.455,705.873Z" fill="#4d4e4e"/>
              </g>
            </g>
          </g>
        </g>
        <g id="Group_5178" data-name="Group 5178">
          <g id="Group_5177" data-name="Group 5177">
            <g id="Group_5176" data-name="Group 5176">
              <g id="Group_5175" data-name="Group 5175">
                <g id="Group_5165" data-name="Group 5165">
                  <path id="Rectangle_3452" data-name="Rectangle 3452" d="M342.865,767.611l-91.194-50.259a7.541,7.541,0,0,1-2.965-10.245h0l81.205-147.346a7.542,7.542,0,0,1,10.245-2.965h0l91.2,50.26a7.54,7.54,0,0,1,2.964,10.244h0L353.111,764.646a7.542,7.542,0,0,1-10.246,2.965Z" fill="#dfddd8"/>
                </g>
                <g id="Group_5166" data-name="Group 5166">
                  <path id="Path_17699" data-name="Path 17699" d="M344.8,590.193a12.653,12.653,0,1,1-17.189,4.976A12.653,12.653,0,0,1,344.8,590.193Z" fill="#fff"/>
                </g>
                <g id="Group_5167" data-name="Group 5167">
                  <path id="Path_17700" data-name="Path 17700" d="M357.538,581.266a13.423,13.423,0,0,1,1.262,2.966,13.2,13.2,0,1,1-1.262-2.966Zm-21.9,12.7a12.042,12.042,0,1,0,16.232-16.585h0a12.039,12.039,0,0,0-17.378,13.89A12.175,12.175,0,0,0,335.636,593.963Z" fill="#fff"/>
                </g>
                <g id="Group_5168" data-name="Group 5168">
                  <path id="Path_17701" data-name="Path 17701" d="M319.75,736.212l8.91,4.911-.506.916-8.094-4.462-1.159,2.1-.815-.45Z" fill="#fff"/>
                  <path id="Path_17702" data-name="Path 17702" d="M332.895,731.509l.817.452-3.445,6.248-.65-.36-1.584-5.7c-.441-1.552-.934-2.073-1.545-2.411-1.031-.567-2.068-.192-2.821,1.167a3.452,3.452,0,0,0-.344,2.981l-.917.34a4.567,4.567,0,0,1,.465-3.857c1-1.808,2.544-2.448,4.034-1.627.85.471,1.471,1.157,1.981,3l1.311,4.67Z" fill="#fff"/>
                  <path id="Path_17703" data-name="Path 17703" d="M336.54,721.286l-.982,1.782,2.34,1.293-.5.916-2.345-1.29-2.768,5.026-.661-.366-3.3-7.976.56-1.017,3.24,7.723,2.135-3.866-2.063-1.141.49-.891,2.064,1.14.984-1.782Z" fill="#fff"/>
                  <path id="Path_17704" data-name="Path 17704" d="M344.069,707.628l-.983,1.782,2.34,1.291-.5.917-2.345-1.291-2.768,5.027-.661-.366-3.305-7.977.561-1.017,3.241,7.722,2.135-3.866-2.064-1.14.49-.891,2.064,1.141.983-1.783Z" fill="#fff"/>
                  <path id="Path_17705" data-name="Path 17705" d="M348.082,699.68c1.514.836,2.115,2.545.916,4.723a5.257,5.257,0,0,1-2.9,2.565l-.486-.842a4.4,4.4,0,0,0,2.54-2.169c.834-1.515.54-2.723-.542-3.32-1.146-.63-2.254-.315-3.5,1.954l-1.044,1.893-4.217-2.921,2.688-4.876.816.452-2.245,4.07,2.67,1.87.632-1.148C344.885,699.248,346.5,698.812,348.082,699.68Z" fill="#fff"/>
                  <path id="Path_17706" data-name="Path 17706" d="M352.9,690.852a3.172,3.172,0,0,1,1.2,4.32q-.068.118-.144.231c-1.3,2.369-3.656,2.75-6.469,1.194-3.029-1.665-3.7-4.191-2.363-6.609a4.685,4.685,0,0,1,1.648-1.848l.541.78a3.548,3.548,0,0,0-1.375,1.5c-1.064,1.92-.51,3.836,1.91,5.167.2.113.465.241.746.362a3.25,3.25,0,0,1-.026-3.565C349.544,690.613,351.267,689.954,352.9,690.852Zm-.474.919c-1.172-.645-2.4-.193-3.157,1.182a2.353,2.353,0,0,0,.561,3.282c.04.029.08.056.122.082.983.538,2.361.237,3.211-1.3a2.228,2.228,0,0,0-.737-3.241Z" fill="#fff"/>
                  <path id="Path_17707" data-name="Path 17707" d="M359.72,678.712c1.49.821,2.04,2.534.856,4.683a5.29,5.29,0,0,1-2.915,2.582l-.481-.846a4.451,4.451,0,0,0,2.553-2.2c.814-1.474.577-2.669-.533-3.279-1.069-.589-2.183-.224-3.094,1.43l-.352.638-.675-.371-1.733-4.175-2.509,4.556-.815-.449,3.158-5.729.65.356,1.779,4.27C356.763,678.327,358.294,677.925,359.72,678.712Z" fill="#fff"/>
                  <path id="Path_17708" data-name="Path 17708" d="M364.544,669.719a3.174,3.174,0,0,1,1.2,4.322c-.045.078-.093.155-.143.23-1.3,2.369-3.658,2.749-6.47,1.2-3.03-1.667-3.7-4.192-2.363-6.61a4.671,4.671,0,0,1,1.648-1.848l.536.776a3.557,3.557,0,0,0-1.374,1.5c-1.06,1.923-.507,3.838,1.914,5.169.2.113.464.241.746.362a3.248,3.248,0,0,1-.027-3.564C361.19,669.481,362.913,668.821,364.544,669.719Zm-.474.92c-1.17-.645-2.4-.2-3.156,1.18a2.357,2.357,0,0,0,.564,3.286c.04.028.08.055.121.08.981.539,2.36.236,3.208-1.3a2.226,2.226,0,0,0-.517-3.1A2.088,2.088,0,0,0,364.07,670.639Z" fill="#fff"/>
                  <path id="Path_17709" data-name="Path 17709" d="M362.811,658.075l.65.359,6.207,8.283-.547.994-6.079-8.128-2.522,4.582,1.668.918-.5.9-2.481-1.366Z" fill="#fff"/>
                  <path id="Path_17710" data-name="Path 17710" d="M369.832,645.332l.65.358,6.207,8.284-.547.994-6.078-8.127-2.523,4.582,1.669.918-.5.9-2.482-1.368Z" fill="#fff"/>
                  <path id="Path_17711" data-name="Path 17711" d="M381.1,640.106c1.579.871,1.818,2.75.65,4.873s-2.874,2.9-4.452,2.029a2.538,2.538,0,0,1-1.242-2.926,2.3,2.3,0,0,1-2.733.318c-1.45-.8-1.675-2.534-.637-4.417s2.638-2.647,4.088-1.845a2.3,2.3,0,0,1,1.176,2.505A2.562,2.562,0,0,1,381.1,640.106Zm-.533.936c-1.094-.6-2.3-.042-3.17,1.537s-.694,2.887.4,3.491,2.308.059,3.177-1.52S381.672,641.651,380.564,641.042Zm-3.9,1.139c.765-1.387.6-2.559-.37-3.093-1.006-.554-2.1-.013-2.838,1.325s-.6,2.54.4,3.084,2.048.07,2.812-1.317Z" fill="#fff"/>
                  <path id="Path_17712" data-name="Path 17712" d="M383.816,630.321c3.031,1.668,3.7,4.2,2.364,6.612a4.647,4.647,0,0,1-1.648,1.847L384,638a3.576,3.576,0,0,0,1.374-1.5c1.059-1.92.505-3.837-1.915-5.169-.2-.114-.463-.24-.745-.362a3.252,3.252,0,0,1,.025,3.565c-.975,1.772-2.7,2.43-4.328,1.534a3.172,3.172,0,0,1-1.2-4.32c.045-.08.093-.157.145-.233C378.653,629.149,381,628.77,383.816,630.321Zm-2.463.285c-.98-.539-2.359-.238-3.208,1.3a2.226,2.226,0,0,0,.52,3.105,2.289,2.289,0,0,0,.215.136c1.172.645,2.4.2,3.158-1.18a2.355,2.355,0,0,0-.563-3.284c-.04-.029-.08-.056-.122-.081Z" fill="#fff"/>
                  <path id="Path_17713" data-name="Path 17713" d="M384.42,618.87l8.911,4.91-.507.916-8.1-4.46-1.156,2.1-.815-.45Z" fill="#fff"/>
                  <path id="Path_17714" data-name="Path 17714" d="M397.568,614.165l.815.452-3.445,6.247-.649-.359-1.587-5.7c-.437-1.555-.931-2.074-1.543-2.412-1.031-.568-2.072-.189-2.821,1.167a3.457,3.457,0,0,0-.343,2.982l-.919.34a4.576,4.576,0,0,1,.466-3.859c1-1.808,2.545-2.447,4.035-1.626.849.471,1.469,1.157,1.981,3l1.311,4.671Z" fill="#fff"/>
                  <path id="Path_17715" data-name="Path 17715" d="M400.23,605.211c1.489.82,2.04,2.533.855,4.682a5.29,5.29,0,0,1-2.915,2.582l-.48-.845a4.457,4.457,0,0,0,2.551-2.2c.814-1.478.576-2.67-.531-3.281-1.07-.591-2.182-.225-3.1,1.433l-.352.638-.677-.372-1.73-4.174-2.507,4.553-.814-.448,3.159-5.728.65.357,1.777,4.269C397.271,604.825,398.8,604.424,400.23,605.211Z" fill="#fff"/>
                </g>
                <g id="Group_5169" data-name="Group 5169">
                  <rect id="Rectangle_3453" data-name="Rectangle 3453" width="81.514" height="4.419" transform="matrix(0.483, -0.876, 0.876, 0.483, 371.617, 678.796)" fill="#fff"/>
                </g>
                <g id="Group_5170" data-name="Group 5170">
                  <rect id="Rectangle_3454" data-name="Rectangle 3454" width="41.809" height="4.42" transform="translate(398.51 648.277) rotate(-61.131)" fill="#fff"/>
                </g>
                <g id="Group_5171" data-name="Group 5171">
                  <path id="Rectangle_3455" data-name="Rectangle 3455" d="M289.042,720.826l11.721-21.259a4.962,4.962,0,0,1,6.741-1.948l13.682,7.544a4.965,4.965,0,0,1,1.951,6.744h0l-11.72,21.256a4.961,4.961,0,0,1-6.742,1.95h0l-13.682-7.543A4.964,4.964,0,0,1,289.042,720.826Z" fill="#d9d9d8"/>
                </g>
                <g id="Group_5172" data-name="Group 5172">
                  <path id="Path_17716" data-name="Path 17716" d="M302.827,734.092l-1.434-.789,8.5-15.422a3.686,3.686,0,0,0-6.456-3.56l-8.5,15.422-1.435-.791,8.5-15.423a5.325,5.325,0,0,1,9.41,4.987q-.041.077-.084.153Z" fill="#e6e6e6"/>
                </g>
                <g id="Group_5173" data-name="Group 5173">
                  <rect id="Rectangle_3456" data-name="Rectangle 3456" width="12.081" height="1.638" transform="translate(308.117 711.755) rotate(-61.082)" fill="#e6e6e6"/>
                </g>
                <g id="Group_5174" data-name="Group 5174">
                  <rect id="Rectangle_3457" data-name="Rectangle 3457" width="87.963" height="7.549" transform="matrix(0.483, -0.876, 0.876, 0.483, 270.18, 711.487)" fill="#fff"/>
                </g>
              </g>
            </g>
          </g>
        </g>
        <g id="Group_5218" data-name="Group 5218">
          <g id="Group_5180" data-name="Group 5180">
            <g id="Group_5179" data-name="Group 5179">
              <path id="Path_17717" data-name="Path 17717" d="M558.894,231.092c.929,13.258-.007,37.946,4.824,50.327s11.269,25.138,23.351,30.675c14.877,6.819,32.361,3.929,48.231,7.925,24.877,6.26,42.861,29.081,50.539,53.556s6.827,50.7,5.9,76.333L564.782,467.525s-.668-51.589-11.74-65.667S489.371,375.1,472,336.546c-15.636-34.7-20.351-89.732-20.351-89.732Z" fill="#dfddd8"/>
            </g>
          </g>
          <g id="Group_5181" data-name="Group 5181">
            <path id="Path_17718" data-name="Path 17718" d="M487.408,270.565l-2.276-2.587a5.8,5.8,0,0,1-.693.109l-2.335.245.291,2.753-.919.1-.9-8.685,3.252-.34c2.205-.23,3.662.747,3.857,2.606a2.707,2.707,0,0,1-1.7,2.938l2.431,2.758Zm-.645-5.7c-.145-1.393-1.147-2.1-2.883-1.909l-2.309.24.455,4.353,2.3-.239C486.072,267.127,486.9,266.225,486.763,264.864Z" fill="#4d4e4e"/>
            <path id="Path_17719" data-name="Path 17719" d="M496.505,268.81l.081.8-6.141.641-.9-8.685,5.955-.622.081.8-5.036.525.323,3.089,4.49-.468.078.783-4.486.468.334,3.225Z" fill="#4d4e4e"/>
            <path id="Path_17720" data-name="Path 17720" d="M497.475,265.123a4.383,4.383,0,0,1,3.836-4.869c.085-.01.171-.018.257-.023a4.224,4.224,0,0,1,3.308.933l-.523.64a3.457,3.457,0,0,0-2.675-.757,3.568,3.568,0,0,0-3.313,3.806c0,.059.009.118.017.177a3.567,3.567,0,0,0,3.875,3.231c.057,0,.115-.011.172-.019a3.428,3.428,0,0,0,2.46-1.311l.643.522a4.24,4.24,0,0,1-3.055,1.612,4.38,4.38,0,0,1-4.972-3.694C497.493,265.289,497.483,265.206,497.475,265.123Z" fill="#4d4e4e"/>
            <path id="Path_17721" data-name="Path 17721" d="M513.676,267.02l.081.794-6.14.64-.9-8.685,5.954-.622.081.795-5.036.526.322,3.089,4.491-.469.079.784-4.488.466.335,3.227Z" fill="#4d4e4e"/>
            <path id="Path_17722" data-name="Path 17722" d="M515.012,258.9l.918-.1.906,8.684-.917.1Z" fill="#4d4e4e"/>
            <path id="Path_17723" data-name="Path 17723" d="M525.869,260.78c.191,1.85-1.03,3.1-3.239,3.335l-2.333.244.287,2.742-.919.1-.907-8.685,3.253-.34C524.218,257.944,525.674,258.921,525.869,260.78Zm-.918.1c-.145-1.393-1.148-2.1-2.884-1.911l-2.307.242.453,4.343,2.3-.24C524.258,263.131,525.089,262.242,524.951,260.88Z" fill="#4d4e4e"/>
            <path id="Path_17724" data-name="Path 17724" d="M529.027,258.245l-3.052.318-.081-.794,7.021-.734.081.8-3.052.317.825,7.892-.918.1Z" fill="#4d4e4e"/>
          </g>
          <g id="Group_5183" data-name="Group 5183">
            <g id="Group_5182" data-name="Group 5182">
              <path id="Path_17725" data-name="Path 17725" d="M498.282,287.115c.023.174,11.589-1.257,25.829-3.2s25.77-3.657,25.746-3.831-11.586,1.256-25.832,3.2S498.257,286.94,498.282,287.115Z" fill="#4d4e4e"/>
            </g>
          </g>
          <g id="Group_5185" data-name="Group 5185">
            <g id="Group_5184" data-name="Group 5184">
              <path id="Path_17726" data-name="Path 17726" d="M499.67,297.452c.023.174,11.59-1.257,25.829-3.2s25.77-3.657,25.747-3.831-11.588,1.257-25.833,3.2S499.643,297.278,499.67,297.452Z" fill="#4d4e4e"/>
            </g>
          </g>
          <g id="Group_5187" data-name="Group 5187">
            <g id="Group_5186" data-name="Group 5186">
              <path id="Path_17727" data-name="Path 17727" d="M504.4,307.992c.025.176,11.59-1.257,25.831-3.2s25.769-3.656,25.746-3.831-11.588,1.257-25.832,3.2S504.375,307.818,504.4,307.992Z" fill="#4d4e4e"/>
            </g>
          </g>
          <g id="Group_5189" data-name="Group 5189">
            <g id="Group_5188" data-name="Group 5188">
              <path id="Path_17728" data-name="Path 17728" d="M513.009,318.625c.023.176,11.589-1.257,25.829-3.2s25.77-3.657,25.746-3.831-11.586,1.257-25.832,3.2S512.984,318.451,513.009,318.625Z" fill="#4d4e4e"/>
            </g>
          </g>
          <g id="Group_5191" data-name="Group 5191">
            <g id="Group_5190" data-name="Group 5190">
              <path id="Path_17729" data-name="Path 17729" d="M526.717,329.236c.025.174,11.59-1.257,25.831-3.2s25.769-3.657,25.746-3.831-11.588,1.257-25.832,3.2S526.69,329.064,526.717,329.236Z" fill="#4d4e4e"/>
            </g>
          </g>
          <g id="Group_5193" data-name="Group 5193">
            <g id="Group_5192" data-name="Group 5192">
              <path id="Path_17730" data-name="Path 17730" d="M475.156,290.562c.028.174,2.871-.144,6.35-.709s6.275-1.167,6.246-1.342-2.87.144-6.349.711S475.128,290.388,475.156,290.562Z" fill="#4d4e4e"/>
            </g>
          </g>
          <g id="Group_5195" data-name="Group 5195">
            <g id="Group_5194" data-name="Group 5194">
              <path id="Path_17731" data-name="Path 17731" d="M475.607,299.777c.028.173,2.871-.145,6.349-.711s6.276-1.166,6.247-1.34-2.87.144-6.349.709S475.579,299.6,475.607,299.777Z" fill="#4d4e4e"/>
            </g>
          </g>
          <g id="Group_5197" data-name="Group 5197">
            <g id="Group_5196" data-name="Group 5196">
              <path id="Path_17732" data-name="Path 17732" d="M478.732,312.531c.029.174,2.876-.16,6.359-.738a37.535,37.535,0,0,0,6.237-1.313c.02-.218-2.869.109-6.341.684S478.7,312.356,478.732,312.531Z" fill="#4d4e4e"/>
            </g>
          </g>
          <g id="Group_5199" data-name="Group 5199">
            <g id="Group_5198" data-name="Group 5198">
              <path id="Path_17733" data-name="Path 17733" d="M483.249,323.32c.028.174,2.875-.16,6.357-.737a37.654,37.654,0,0,0,6.238-1.315c.018-.218-2.87.109-6.343.684S483.22,323.147,483.249,323.32Z" fill="#4d4e4e"/>
            </g>
          </g>
          <g id="Group_5201" data-name="Group 5201">
            <g id="Group_5200" data-name="Group 5200">
              <path id="Path_17734" data-name="Path 17734" d="M492.961,333.576c.029.174,2.876-.16,6.359-.737a37.636,37.636,0,0,0,6.237-1.315c.02-.219-2.869.109-6.341.684S492.932,333.4,492.961,333.576Z" fill="#4d4e4e"/>
            </g>
          </g>
          <g id="Group_5203" data-name="Group 5203">
            <g id="Group_5202" data-name="Group 5202">
              <path id="Path_17735" data-name="Path 17735" d="M538.435,342.2c.025.176,17.385-2.137,38.772-5.163s38.71-5.623,38.685-5.8-17.382,2.137-38.775,5.164S538.41,342.03,538.435,342.2Z" fill="#4d4e4e"/>
            </g>
          </g>
          <g id="Group_5205" data-name="Group 5205">
            <g id="Group_5204" data-name="Group 5204">
              <path id="Path_17736" data-name="Path 17736" d="M547.4,353.049a4.261,4.261,0,0,0,.858-.069l2.443-.323,8.962-1.3,29.53-4.553c11.529-1.818,21.959-3.5,29.5-4.766l8.925-1.539c1.053-.2,1.867-.345,2.422-.464a4.3,4.3,0,0,0,.832-.216,4.566,4.566,0,0,0-.858.09l-2.437.345-8.956,1.338-29.529,4.582-29.5,4.737-8.931,1.5-2.423.441A4.538,4.538,0,0,0,547.4,353.049Z" fill="#4d4e4e"/>
            </g>
          </g>
          <g id="Group_5207" data-name="Group 5207">
            <g id="Group_5206" data-name="Group 5206">
              <path id="Path_17737" data-name="Path 17737" d="M563.6,362.98a14.418,14.418,0,0,0,3.19-.281c2.082-.265,5.09-.682,8.8-1.221,7.426-1.077,17.675-2.633,28.985-4.4s21.55-3.417,28.953-4.642l8.761-1.485,2.376-.436a4.232,4.232,0,0,0,.822-.2,4.235,4.235,0,0,0-.842.068l-2.4.318-8.793,1.284-28.98,4.457-28.956,4.587C568.778,362.135,565.171,362.725,563.6,362.98Z" fill="#4d4e4e"/>
            </g>
          </g>
          <g id="Group_5209" data-name="Group 5209">
            <g id="Group_5208" data-name="Group 5208">
              <path id="Path_17738" data-name="Path 17738" d="M509.185,348.166c.028.174,2.875-.16,6.357-.737a37.651,37.651,0,0,0,6.238-1.315c.018-.219-2.87.109-6.343.684S509.155,347.993,509.185,348.166Z" fill="#4d4e4e"/>
            </g>
          </g>
          <g id="Group_5211" data-name="Group 5211">
            <g id="Group_5210" data-name="Group 5210">
              <path id="Path_17739" data-name="Path 17739" d="M521.694,355.125c.029.174,2.876-.161,6.359-.738a37.632,37.632,0,0,0,6.237-1.312c.02-.218-2.869.109-6.341.684S521.665,354.95,521.694,355.125Z" fill="#4d4e4e"/>
            </g>
          </g>
          <g id="Group_5213" data-name="Group 5213">
            <g id="Group_5212" data-name="Group 5212">
              <path id="Path_17740" data-name="Path 17740" d="M538.533,366.855c.029.174,2.876-.161,6.359-.738a37.737,37.737,0,0,0,6.237-1.313c.02-.219-2.869.109-6.341.682S538.5,366.681,538.533,366.855Z" fill="#4d4e4e"/>
            </g>
          </g>
          <g id="Group_5215" data-name="Group 5215">
            <g id="Group_5214" data-name="Group 5214">
              <path id="Path_17741" data-name="Path 17741" d="M570.728,385.367c.027.174,21.485-2.983,47.922-7.05s47.855-7.507,47.828-7.683-21.479,2.982-47.926,7.051S570.7,385.191,570.728,385.367Z" fill="#4d4e4e"/>
            </g>
          </g>
          <g id="Group_5217" data-name="Group 5217">
            <g id="Group_5216" data-name="Group 5216">
              <path id="Path_17742" data-name="Path 17742" d="M583.58,408.594c.028.174,7.062-.819,15.708-2.218s15.636-2.673,15.608-2.848-7.061.818-15.71,2.217S583.552,408.419,583.58,408.594Z" fill="#4d4e4e"/>
            </g>
          </g>
        </g>
      </g>
      <g id="Floor">
        <g id="Group_5220" data-name="Group 5220">
          <g id="Group_5219" data-name="Group 5219">
            <path id="Path_17743" data-name="Path 17743" d="M244.506,766.093c0,.177,118.4.319,264.412.319,146.065,0,264.436-.142,264.436-.319s-118.371-.319-264.436-.319C362.9,765.774,244.506,765.916,244.506,766.093Z" fill="#4d4e4e"/>
          </g>
        </g>
      </g>
      <g id="Device">
        <g id="Group_5479" data-name="Group 5479">
          <g id="Group_5385" data-name="Group 5385">
            <g id="Group_5384" data-name="Group 5384">
              <g id="Group_5383" data-name="Group 5383">
                <g id="Group_5382" data-name="Group 5382">
                  <g id="Group_5379" data-name="Group 5379">
                    <g id="Group_5378" data-name="Group 5378">
                      <path id="Path_17812" data-name="Path 17812" d="M422.183,767.744l154.459-.714a33.645,33.645,0,0,0,33.49-33.787l-1.641-387.232a33.646,33.646,0,0,0-33.79-33.5h-.01l-154.459.713a33.646,33.646,0,0,0-33.49,33.788l1.641,387.228a33.644,33.644,0,0,0,33.783,33.5Z" fill="#030504"/>
                    </g>
                  </g>
                  <g id="Group_5381" data-name="Group 5381">
                    <g id="Group_5380" data-name="Group 5380">
                      <path id="Path_17813" data-name="Path 17813" d="M421.73,324.1l29.946-.139a7.442,7.442,0,0,1,7.3,7.569l.023,5.432a7.438,7.438,0,0,0,7.3,7.569l58.373-.27a7.446,7.446,0,0,0,7.24-7.635l-.023-5.432a7.448,7.448,0,0,1,7.24-7.636l10.533-.049,26.21-.12a23.564,23.564,0,0,1,23.672,23.455v.01l1.6,377.965a23.566,23.566,0,0,1-23.455,23.665l-154.151.711a23.562,23.562,0,0,1-23.671-23.454v-.01l-1.6-377.967A23.563,23.563,0,0,1,421.73,324.1Z" fill="#fff"/>
                    </g>
                  </g>
                </g>
              </g>
            </g>
          </g>
          <g id="Group_5386" data-name="Group 5386">
            <path id="Path_17814" data-name="Path 17814" d="M579.584,364.268a.613.613,0,0,0,.443-.189l2.348-2.453a.612.612,0,0,0,.171-.437.623.623,0,0,0-.189-.431l-2.348-2.245a.614.614,0,0,0-.883.854c.011.011.022.022.034.032l1.905,1.822-1.924,2.008a.614.614,0,0,0,.443,1.038Z" fill="#1c262a"/>
          </g>
          <g id="Group_5442" data-name="Group 5442">
            <g id="Group_5395" data-name="Group 5395">
              <g id="Group_5392" data-name="Group 5392">
                <circle id="Ellipse_398" data-name="Ellipse 398" cx="32.137" cy="32.137" r="32.137" transform="translate(468.976 462.938)" fill="#ec4115"/>
              </g>
              <g id="Group_5077" data-name="Group 5077">
                <path id="Path_3617" data-name="Path 3617" d="M486.058,510.34l30.281-30.25" fill="none" stroke="#fff" stroke-width="3"/>
                <path id="Path_17097" data-name="Path 17097" d="M516.339,510.34l-30.281-30.25" fill="none" stroke="#fff" stroke-width="3"/>
              </g>
            </g>
          </g>
          <g id="Group_5449" data-name="Group 5449">
            <g id="Group_5444" data-name="Group 5444">
              <g id="Group_5443" data-name="Group 5443">
                <path id="Path_17874" data-name="Path 17874" d="M414.883,357.7c0,.177,3.883.319,8.67.319s8.669-.142,8.669-.319-3.88-.32-8.669-.32S414.883,357.519,414.883,357.7Z" fill="#030504"/>
              </g>
            </g>
            <g id="Group_5446" data-name="Group 5446">
              <g id="Group_5445" data-name="Group 5445">
                <path id="Path_17875" data-name="Path 17875" d="M414.883,361.307c0,.177,3.883.32,8.67.32s8.669-.144,8.669-.32-3.88-.319-8.669-.319S414.883,361.132,414.883,361.307Z" fill="#030504"/>
              </g>
            </g>
            <g id="Group_5448" data-name="Group 5448">
              <g id="Group_5447" data-name="Group 5447">
                <path id="Path_17876" data-name="Path 17876" d="M414.883,364.919c0,.177,3.883.32,8.67.32s8.669-.144,8.669-.32-3.88-.319-8.669-.319S414.883,364.742,414.883,364.919Z" fill="#030504"/>
              </g>
            </g>
          </g>
        </g>
      </g>
      <g id="Plant">
        <g id="Group_5495" data-name="Group 5495">
          <g id="Group_5481" data-name="Group 5481">
            <g id="Group_5480" data-name="Group 5480">
              <path id="Path_17891" data-name="Path 17891" d="M297.245,685.15a15.228,15.228,0,0,0-7.891,8.937,26.872,26.872,0,0,0-1.047,12.107c.89,7.856,5.354,15.787,10.161,22.066,6.615-5.774,8.137-15.847,8.589-21.005.713-8.152-2.948-23.32-9.813-22.1" fill="#ffb700"/>
            </g>
          </g>
          <g id="Group_5483" data-name="Group 5483">
            <g id="Group_5482" data-name="Group 5482">
              <path id="Path_17892" data-name="Path 17892" d="M290.777,741.226a13,13,0,0,0-4.2-12.349,17.255,17.255,0,0,0-12.722-3.973c-2.105.161-4.379.775-5.584,2.508a5.554,5.554,0,0,0-.086,5.629,11.25,11.25,0,0,0,4.167,4.1c5.732,3.6,11.94,6.026,18.422,4.08" fill="#ffb700"/>
            </g>
          </g>
          <g id="Group_5486" data-name="Group 5486">
            <g id="Group_5485" data-name="Group 5485">
              <g id="Group_5484" data-name="Group 5484">
                <path id="Path_17893" data-name="Path 17893" d="M299.261,765.317a9.34,9.34,0,0,0-.237-1.612c-.207-1.135-.476-2.6-.8-4.364-.732-3.646-1.671-8.869-4.5-13.938a27.918,27.918,0,0,0-10-10.629,19.013,19.013,0,0,0-4.079-1.8,11.975,11.975,0,0,0-1.175-.3,1.2,1.2,0,0,0-.42-.058,29.692,29.692,0,0,1,5.464,2.508,28.825,28.825,0,0,1,9.712,10.56C296,750.649,297,755.8,297.832,759.426c.4,1.828.727,3.309.98,4.327A8.4,8.4,0,0,0,299.261,765.317Z" fill="#1c262a"/>
              </g>
            </g>
          </g>
          <g id="Group_5489" data-name="Group 5489">
            <g id="Group_5488" data-name="Group 5488">
              <g id="Group_5487" data-name="Group 5487">
                <path id="Path_17894" data-name="Path 17894" d="M299.013,696.947a3.178,3.178,0,0,0-.081.7c-.032.523-.071,1.194-.12,2.024-.1,1.759-.2,4.306-.3,7.453-.2,6.295-.363,15-.323,24.608s.279,18.314.536,24.608c.129,3.146.254,5.692.363,7.45.056.83.1,1.5.137,2.023.038.463-.02,0,0,0-.087-.7.117.459.115,0q-.01-.785-.029-2.028c-.045-1.831-.107-4.36-.182-7.453-.155-6.293-.325-14.989-.368-24.6s.055-18.3.155-24.6c.049-3.1.088-5.623.117-7.456.006-.832.01-1.5.013-2.028A3.426,3.426,0,0,0,299.013,696.947Z" fill="#1c262a"/>
              </g>
            </g>
          </g>
          <g id="Group_5491" data-name="Group 5491">
            <g id="Group_5490" data-name="Group 5490">
              <path id="Path_17895" data-name="Path 17895" d="M302.22,746.009a30.382,30.382,0,0,1,16.6-22.258c2.211-1.058,5.1-1.75,6.916-.107s1.412,4.6.522,6.891a25.961,25.961,0,0,1-23.873,16.12" fill="#ffb700"/>
            </g>
          </g>
          <g id="Group_5494" data-name="Group 5494">
            <g id="Group_5493" data-name="Group 5493">
              <g id="Group_5492" data-name="Group 5492">
                <path id="Path_17896" data-name="Path 17896" d="M317.744,731.2a7.812,7.812,0,0,0-1.4.611,15.247,15.247,0,0,0-1.586.846c-.594.372-1.312.734-2.019,1.267a26.772,26.772,0,0,0-2.31,1.739,29.758,29.758,0,0,0-2.46,2.234,33.79,33.79,0,0,0-4.672,6,33.078,33.078,0,0,0-3.079,6.96,28.725,28.725,0,0,0-.777,3.232,24.3,24.3,0,0,0-.4,2.866,22.285,22.285,0,0,0-.11,2.381,13.52,13.52,0,0,0,.054,1.8,7.706,7.706,0,0,0,.169,1.522c.129,0-.1-2.185.29-5.66a26.039,26.039,0,0,1,.46-2.815,30.108,30.108,0,0,1,.815-3.168,34.462,34.462,0,0,1,3.065-6.821,35.188,35.188,0,0,1,4.559-5.929,31.391,31.391,0,0,1,2.388-2.239,28.463,28.463,0,0,1,2.238-1.771C315.809,732.221,317.8,731.314,317.744,731.2Z" fill="#1c262a"/>
              </g>
            </g>
          </g>
        </g>
      </g>
      <g id="Payment_Failed" data-name="Payment Failed" style="isolation: isolate">
        <g id="Group_5505" data-name="Group 5505" style="isolation: isolate">
          <path id="Path_17950" data-name="Path 17950" d="M443.156,577.622v-19.88H451.5a5.519,5.519,0,0,1,2.477.56,6.376,6.376,0,0,1,1.947,1.47,6.938,6.938,0,0,1,1.274,2.072,6.353,6.353,0,0,1,.462,2.366,6.875,6.875,0,0,1-.434,2.422,6.794,6.794,0,0,1-1.218,2.072,5.943,5.943,0,0,1-1.89,1.456,5.463,5.463,0,0,1-2.45.546h-5.376v6.916Zm3.136-9.688h5.18a2.618,2.618,0,0,0,1.217-.28,2.787,2.787,0,0,0,.939-.784,3.933,3.933,0,0,0,.616-1.176,4.677,4.677,0,0,0,.224-1.484,4.281,4.281,0,0,0-.252-1.512,3.56,3.56,0,0,0-.7-1.162,3.23,3.23,0,0,0-1.022-.756,2.808,2.808,0,0,0-1.19-.266h-5.012Z" fill="#1b1b1b"/>
          <path id="Path_17951" data-name="Path 17951" d="M463.96,577.9a5.465,5.465,0,0,1-1.975-.35,4.746,4.746,0,0,1-1.567-.966,4.477,4.477,0,0,1-1.036-1.456,4.38,4.38,0,0,1-.378-1.819,3.922,3.922,0,0,1,.447-1.877,4.378,4.378,0,0,1,1.275-1.455,6.145,6.145,0,0,1,1.959-.953,8.8,8.8,0,0,1,2.506-.336,11.506,11.506,0,0,1,2.044.182,10.407,10.407,0,0,1,1.821.49v-1.008a3.4,3.4,0,0,0-.924-2.534,3.637,3.637,0,0,0-2.66-.91,6.427,6.427,0,0,0-2.311.434,11.745,11.745,0,0,0-2.338,1.246l-.952-1.96a10.39,10.39,0,0,1,5.881-1.9,6.7,6.7,0,0,1,4.7,1.54,5.7,5.7,0,0,1,1.681,4.424v5.292q0,.981.811,1.008v2.632q-.448.084-.769.112t-.63.028a1.981,1.981,0,0,1-1.387-.448,1.912,1.912,0,0,1-.6-1.148l-.084-.924a6.532,6.532,0,0,1-2.422,1.974A7.122,7.122,0,0,1,463.96,577.9Zm.84-2.268a5.543,5.543,0,0,0,2.113-.4,3.649,3.649,0,0,0,1.555-1.135,1.424,1.424,0,0,0,.588-1.064V571.1a9.393,9.393,0,0,0-1.666-.476,9.2,9.2,0,0,0-1.722-.168,4.7,4.7,0,0,0-2.7.714,2.19,2.19,0,0,0-1.051,1.89,2.384,2.384,0,0,0,.812,1.834A2.953,2.953,0,0,0,464.8,575.634Z" fill="#1b1b1b"/>
          <path id="Path_17952" data-name="Path 17952" d="M476,581.066c.28.056.556.1.826.14a5.1,5.1,0,0,0,.658.056,1.243,1.243,0,0,0,.63-.154,1.889,1.889,0,0,0,.546-.545,5.666,5.666,0,0,0,.574-1.107c.2-.476.424-1.088.686-1.834l-6.02-14.643h3.164l4.537,11.927,4.031-11.927h2.912l-6.636,18.031a4.414,4.414,0,0,1-4.4,2.969,6.357,6.357,0,0,1-.7-.042,4.512,4.512,0,0,1-.812-.183Z" fill="#1b1b1b"/>
          <path id="Path_17953" data-name="Path 17953" d="M513.212,577.622h-3.08v-8.2a5.278,5.278,0,0,0-.672-3,2.251,2.251,0,0,0-1.96-.952,3.5,3.5,0,0,0-2.395.967,5.433,5.433,0,0,0-1.553,2.505v8.68h-3.08v-8.2a5.26,5.26,0,0,0-.672-3.01,2.233,2.233,0,0,0-1.933-.938,3.583,3.583,0,0,0-2.407.952,5.289,5.289,0,0,0-1.568,2.492v8.708h-3.081V562.979h2.8v2.939a6.2,6.2,0,0,1,2.282-2.366,6.3,6.3,0,0,1,3.235-.826,3.917,3.917,0,0,1,4.172,3.332,6.7,6.7,0,0,1,2.324-2.478,6.006,6.006,0,0,1,3.191-.854,4.266,4.266,0,0,1,2.143.49,3.8,3.8,0,0,1,1.357,1.3,5.366,5.366,0,0,1,.7,1.889,12.817,12.817,0,0,1,.2,2.282Z" fill="#1b1b1b"/>
          <path id="Path_17954" data-name="Path 17954" d="M523.4,577.9a7.787,7.787,0,0,1-3.107-.6,7.239,7.239,0,0,1-2.4-1.638,7.4,7.4,0,0,1-1.54-2.408,7.818,7.818,0,0,1-.546-2.912,7.929,7.929,0,0,1,.546-2.926,7.537,7.537,0,0,1,1.54-2.436,7.129,7.129,0,0,1,2.4-1.652,7.861,7.861,0,0,1,3.136-.6,7.542,7.542,0,0,1,3.093.616,7.422,7.422,0,0,1,2.367,1.638,7.035,7.035,0,0,1,1.5,2.38,7.918,7.918,0,0,1,.517,2.842q0,.336-.027.63c-.019.2-.038.359-.057.49H519.092a4.99,4.99,0,0,0,.462,1.764,4.645,4.645,0,0,0,.979,1.358,4.3,4.3,0,0,0,2.983,1.19,4.873,4.873,0,0,0,1.217-.154,4.232,4.232,0,0,0,1.107-.448,3.905,3.905,0,0,0,.895-.714,3.344,3.344,0,0,0,.617-.923l2.631.755a6.1,6.1,0,0,1-2.506,2.7A7.773,7.773,0,0,1,523.4,577.9Zm4.452-8.708a4.9,4.9,0,0,0-.462-1.708,4.416,4.416,0,0,0-.965-1.33,4.329,4.329,0,0,0-1.372-.854,4.489,4.489,0,0,0-1.653-.308,4.386,4.386,0,0,0-3,1.162,4.231,4.231,0,0,0-.951,1.33,5.1,5.1,0,0,0-.448,1.708Z" fill="#1b1b1b"/>
          <path id="Path_17955" data-name="Path 17955" d="M546.559,577.622h-3.081v-8.2a5.356,5.356,0,0,0-.657-3.01,2.225,2.225,0,0,0-1.946-.938,3.8,3.8,0,0,0-1.344.252,4.7,4.7,0,0,0-1.261.715,5.551,5.551,0,0,0-1.049,1.091,5,5,0,0,0-.714,1.386v8.708h-3.08V562.979h2.8v2.939a5.949,5.949,0,0,1,2.436-2.338,7.361,7.361,0,0,1,3.527-.854,4.344,4.344,0,0,1,2.157.476,3.574,3.574,0,0,1,1.33,1.3,5.717,5.717,0,0,1,.686,1.9,12.817,12.817,0,0,1,.2,2.282Z" fill="#1b1b1b"/>
          <path id="Path_17956" data-name="Path 17956" d="M558.151,576.866a15.268,15.268,0,0,1-1.624.63,6.875,6.875,0,0,1-2.212.35,4.705,4.705,0,0,1-1.372-.2,3.377,3.377,0,0,1-1.134-.587,2.678,2.678,0,0,1-.77-1.023,3.74,3.74,0,0,1-.28-1.526v-9.156h-1.932v-2.379h1.932v-4.817h3.08v4.817h3.192v2.379h-3.192v8.176a1.516,1.516,0,0,0,.49,1.134,1.663,1.663,0,0,0,1.078.351,3.441,3.441,0,0,0,1.232-.225q.588-.223.868-.364Z" fill="#1b1b1b"/>
        </g>
        <g id="Group_5506" data-name="Group 5506" style="isolation: isolate">
          <path id="Path_17957" data-name="Path 17957" d="M462.252,610.622v-19.88h13.243v2.772H465.388v5.936h8.456v2.6h-8.456v8.568Z" fill="#1b1b1b"/>
          <path id="Path_17958" data-name="Path 17958" d="M479.584,610.9a5.456,5.456,0,0,1-1.974-.35,4.74,4.74,0,0,1-1.568-.966,4.477,4.477,0,0,1-1.036-1.456,4.38,4.38,0,0,1-.378-1.819,3.921,3.921,0,0,1,.447-1.877,4.378,4.378,0,0,1,1.275-1.455,6.14,6.14,0,0,1,1.96-.953,8.79,8.79,0,0,1,2.505-.336,11.509,11.509,0,0,1,2.045.182,10.4,10.4,0,0,1,1.82.49v-1.008a3.4,3.4,0,0,0-.924-2.534,3.637,3.637,0,0,0-2.66-.91,6.417,6.417,0,0,0-2.31.434,11.717,11.717,0,0,0-2.338,1.246l-.953-1.96a10.39,10.39,0,0,1,5.881-1.9,6.7,6.7,0,0,1,4.7,1.54,5.7,5.7,0,0,1,1.681,4.424v5.292q0,.981.811,1.008v2.632c-.3.056-.554.093-.769.112s-.425.028-.63.028a1.977,1.977,0,0,1-1.386-.448,1.913,1.913,0,0,1-.6-1.148l-.084-.924a6.524,6.524,0,0,1-2.422,1.974A7.119,7.119,0,0,1,479.584,610.9Zm.84-2.268a5.551,5.551,0,0,0,2.114-.4,3.652,3.652,0,0,0,1.554-1.135,1.424,1.424,0,0,0,.588-1.064V604.1a9.344,9.344,0,0,0-1.666-.476,9.194,9.194,0,0,0-1.722-.168,4.708,4.708,0,0,0-2.7.714,2.189,2.189,0,0,0-1.05,1.89,2.384,2.384,0,0,0,.812,1.834A2.951,2.951,0,0,0,480.424,608.634Z" fill="#1b1b1b"/>
          <path id="Path_17959" data-name="Path 17959" d="M491.483,593.57v-3.388h3.08v3.388Zm0,17.052V595.979h3.08v14.643Z" fill="#1b1b1b"/>
          <path id="Path_17960" data-name="Path 17960" d="M498.287,590.182h3.08V606.4a1.822,1.822,0,0,0,.42,1.273,1.509,1.509,0,0,0,1.176.462,2.75,2.75,0,0,0,.714-.111q.4-.114.77-.253l.448,2.408a7.12,7.12,0,0,1-1.6.49,8.7,8.7,0,0,1-1.653.182,3.384,3.384,0,0,1-2.478-.867,3.306,3.306,0,0,1-.882-2.465Z" fill="#1b1b1b"/>
          <path id="Path_17961" data-name="Path 17961" d="M513.323,610.9a7.787,7.787,0,0,1-3.107-.6,7.228,7.228,0,0,1-2.395-1.638,7.384,7.384,0,0,1-1.54-2.408,7.8,7.8,0,0,1-.546-2.912,7.909,7.909,0,0,1,.546-2.926,7.52,7.52,0,0,1,1.54-2.436,7.119,7.119,0,0,1,2.395-1.652,7.861,7.861,0,0,1,3.136-.6,7.549,7.549,0,0,1,3.093.616,7.416,7.416,0,0,1,2.366,1.638,7.036,7.036,0,0,1,1.5,2.38,7.917,7.917,0,0,1,.517,2.842c0,.224-.01.434-.027.63s-.038.359-.057.49H509.011a5.012,5.012,0,0,0,.463,1.764,4.645,4.645,0,0,0,.979,1.358,4.245,4.245,0,0,0,1.372.882,4.308,4.308,0,0,0,1.61.308,4.875,4.875,0,0,0,1.218-.154,4.226,4.226,0,0,0,1.106-.448,3.934,3.934,0,0,0,.9-.714,3.32,3.32,0,0,0,.616-.923l2.632.755a6.111,6.111,0,0,1-2.506,2.7A7.776,7.776,0,0,1,513.323,610.9Zm4.452-8.708a4.906,4.906,0,0,0-.462-1.708,4.418,4.418,0,0,0-.966-1.33,4.324,4.324,0,0,0-1.371-.854,4.5,4.5,0,0,0-1.653-.308,4.381,4.381,0,0,0-3,1.162,4.215,4.215,0,0,0-.951,1.33,5.1,5.1,0,0,0-.449,1.708Z" fill="#1b1b1b"/>
          <path id="Path_17962" data-name="Path 17962" d="M529.311,610.9a6.284,6.284,0,0,1-2.744-.6,6.863,6.863,0,0,1-2.184-1.638,7.6,7.6,0,0,1-1.443-2.422,8.836,8.836,0,0,1-.027-5.88,7.666,7.666,0,0,1,1.372-2.394,6.62,6.62,0,0,1,2.071-1.638,6.044,6.044,0,0,1,5.727.252,6.221,6.221,0,0,1,2.1,2.17v-8.568h3.08v16.8a1.215,1.215,0,0,0,.181.756.877.877,0,0,0,.658.252v2.632c-.317.056-.574.093-.769.112s-.359.028-.49.028a2.325,2.325,0,0,1-1.512-.476,1.682,1.682,0,0,1-.645-1.232l-.055-1.092a5.841,5.841,0,0,1-2.212,2.156A6.251,6.251,0,0,1,529.311,610.9Zm.756-2.631a4.239,4.239,0,0,0,1.344-.225,4.82,4.82,0,0,0,1.232-.616,4.259,4.259,0,0,0,.965-.924,3.3,3.3,0,0,0,.575-1.148v-3.836a4.642,4.642,0,0,0-.713-1.288,5.135,5.135,0,0,0-1.051-1.008,4.811,4.811,0,0,0-1.246-.644,4.113,4.113,0,0,0-1.33-.224,3.478,3.478,0,0,0-1.694.42,4.379,4.379,0,0,0-1.33,1.12,5.513,5.513,0,0,0-.883,1.6,5.445,5.445,0,0,0-.321,1.848,5.174,5.174,0,0,0,.35,1.9,4.952,4.952,0,0,0,.966,1.568,4.726,4.726,0,0,0,1.414,1.064A3.845,3.845,0,0,0,530.067,608.271Z" fill="#1b1b1b"/>
        </g>
      </g>
    </g>
    <g id="Group_5500" data-name="Group 5500">
      <path id="Path_17897" data-name="Path 17897" d="M589.282,401.569s-.57-9.226-.5-13.221,9.937-15.455,13.288-15.455,2.234,10.562,1.676,13.846S604.863,393,603,395.61s-5.525,8.132-5.525,8.132Z" fill="#f58c5c"/>
      <path id="Path_17898" data-name="Path 17898" d="M648.16,416.777l-15.839,15.184a48.581,48.581,0,0,1-9.042-10.171c-.369-.544-.723-1.087-1.061-1.624a76.952,76.952,0,0,1-4.785-9.028q-.274-.6-.51-1.132c-.875-1.911,8.792-8.03,14.253-11.906a21.011,21.011,0,0,0,3.441-2.842,15.456,15.456,0,0,0-.018,4.307,17.688,17.688,0,0,0,4.775,8.943C644.905,414.579,648.16,416.777,648.16,416.777Z" fill="#faa178"/>
      <path id="Path_17899" data-name="Path 17899" d="M636.181,399.933s-3.139,16.688-12.9,21.857c-.369-.544-.723-1.087-1.061-1.624a77.115,77.115,0,0,1-4.786-9.028c1.188-2.469,9.325-7.664,14.163-11.094C634.326,399.988,636.181,399.933,636.181,399.933Z" fill="#f58c5c"/>
      <path id="Path_17900" data-name="Path 17900" d="M616.771,418.462s23.706-7.915,18.55-22.6-5.569-25.6-20.922-21.168-16.311,11.064-15.783,16.385S610.476,420.143,616.771,418.462Z" fill="#faa178"/>
      <path id="Path_17901" data-name="Path 17901" d="M637.141,400.3s-2.412-1.6,2.893-9.981c2.735-4.321,5.173-8.384,1.3-15.414s-3.63-12.694-14.309-12.692-11.755-4.946-17.2-3.221-10.275,9.719-14.932,11.219-8.19,25.906,2.468,25.232c0,0,4.007-1.994,5.8-5.218s10.879-10.569,13.768-8.175S631.409,400.408,637.141,400.3Z" fill="#030504"/>
      <path id="Path_17902" data-name="Path 17902" d="M631.454,428.981c-8.071-.479-22.749,6.85-35.992,15.46l3.049-41.537c-2.654-4.6-10.1-2.918-10.1-2.918s-4.4,3.858-12.673,27.486a149.944,149.944,0,0,0-8.066,41.553c.3,10.953,9.2,11.556,9.2,11.556,28.418-4.8,75.176-25.73,75.176-25.73C657.971,447.517,648.574,430,631.454,428.981Z" fill="#ffb600"/>
      <path id="Path_17903" data-name="Path 17903" d="M641.254,761.295c-.213,2.339-.723,4.316-1.776,4.815a3.689,3.689,0,0,1-.9.231h-35.6c-.953-.029-1.494-.048-1.494-.048s.09-4.4,6.141-5.251c4.89-.685,12.8-3.017,16.685-8.085a11.014,11.014,0,0,0,1.992-4.078c1.959-7.947,14.777,2.756,14.777,2.756s.146,1.385.235,3.307A47.437,47.437,0,0,1,641.254,761.295Z" fill="#1f313d"/>
      <path id="Path_17904" data-name="Path 17904" d="M674.631,766.341H635.07a9.057,9.057,0,0,1,6.183-5.046,10.73,10.73,0,0,1,1.265-.253c4.265-.6,10.824-2.447,15.01-6.271a11.775,11.775,0,0,0,3.668-5.892c1.958-7.947,14.777,2.756,14.777,2.756s.134,1.27.232,3.073C676.414,758.61,676.462,765.008,674.631,766.341Z" fill="#1f313d"/>
      <path id="Path_17905" data-name="Path 17905" d="M657.833,550.984s-.03,1.436-.087,4.018c-.359,16.647-1.781,81.012-3.131,116.9-.056,1.307-.1,2.569-.151,3.8-.026.648-.052,1.3-.078,1.946a388.941,388.941,0,0,1-5.541,47.921c-3.031,17.326-6.111,29.125-6.111,29.125-11.558,2.341-19.048-2.054-19.048-2.054s-3.117-26.889-4.3-43.163c-.39-5.281-2.293-23.3-4.681-45.218-1.852-16.95-3.99-36.235-5.956-53.773-.1-.935-.2-1.868-.311-2.79-3.171-28.355-5.8-51.45-5.8-51.45l20.436-1.947Z" fill="#292332"/>
      <path id="Path_17906" data-name="Path 17906" d="M648.845,725.564,614.7,664.253c-1.852-16.951-3.991-36.235-5.956-53.773-.1-.935-.2-1.868-.312-2.79-3.171-28.355-5.8-51.45-5.8-51.45l20.436-1.947L657.74,555Z" fill="#1a171f"/>
      <path id="Path_17907" data-name="Path 17907" d="M606.417,556.393s19.1,94.429,34.668,140,15.764,58.239,15.764,58.239,14.283,3.1,20.575-.5c0,0,3.6-86.4-5.823-109.342-6.23-15.177-11-47.478-9.376-59.111s3.131-34.967,3.131-34.967Z" fill="#292332"/>
      <path id="Path_17908" data-name="Path 17908" d="M667.865,548.258c-1.072,5.777-3.634,10.379-7.593,13.184-4.514,3.2-11.631,4.35-19.467,4.231a106.57,106.57,0,0,1-27.376-4.462,63.815,63.815,0,0,1-10.834-4.167c-12.1-6.309-10.384-14.707-10.093-46.136.293-32.077,20.037-73.542,23.593-80.484,6.328-12.357,33.18-8.293,33.18-8.293,5.887,5.4,11.042,13.239,14.554,25.771,1.422,5.072,2.253,12.167,2.729,20.137,1.453,24.349-.424,56.821.995,64.4A43.5,43.5,0,0,1,667.865,548.258Z" fill="#ffd04e"/>
      <path id="Path_17909" data-name="Path 17909" d="M645.767,409.881s4.393,10.4,3.506,12.25c0,0-24.124,2.276-33.943,9.271,0,0,3.23-10.1,7.156-12.607S645.767,409.881,645.767,409.881Z" fill="#ffb600"/>
      <path id="Path_17910" data-name="Path 17910" d="M667.87,548.258c-49.964-19.016-21.437-89.333-21.437-89.333,6.991.5,13.84,3.892,20.13,9.113,1.453,24.349-.424,56.821.994,64.4A43.485,43.485,0,0,1,667.87,548.258Z" fill="#ffb600"/>
      <path id="Path_17911" data-name="Path 17911" d="M650.979,519.527s-2.738,4.742-5.372,3.625-7.951-2.3-11.9.248-9.91,9.415-6.187,11.091,10.8-2.773,12.476-3.518,4.593.745,7.821-.869a32.516,32.516,0,0,0,6.58-4.841Z" fill="#faa178"/>
      <path id="Path_17912" data-name="Path 17912" d="M706.442,477.53c-18.594-22.021-61.421-50.715-61.421-50.715-9.327-1.363-19.628,15.64-11.793,30.9,4.53,8.82,23.9,19.337,40.6,25.967L646.676,520.81c-2.134,7.893,10.068,5.794,10.068,5.794S666.9,523.6,685.3,508.457a66.75,66.75,0,0,0,18.181-22.816A22.373,22.373,0,0,0,706.442,477.53Z" fill="#ffd04e"/>
    </g>
  </g>
</svg>
