<svg xmlns="http://www.w3.org/2000/svg" width="176.805" height="120.905" viewBox="0 0 176.805 120.905">
  <g id="Subscribe" transform="translate(-623.583 -485.97)">
    <g id="Group_5576" data-name="Group 5576" transform="translate(607.78 472.089)">
      <g id="Group_5574" data-name="Group 5574" transform="translate(16.252 13.861)">
        <g id="Group_5569" data-name="Group 5569" transform="translate(0 0)">
          <g id="Group_5568" data-name="Group 5568">
            <rect id="Rectangle_3471" data-name="Rectangle 3471" width="159.334" height="110.928" transform="translate(0.427 3.8)" fill="#f5f4f0"/>
            <rect id="Rectangle_3473" data-name="Rectangle 3473" width="54" height="4" transform="translate(9.552 23.02)" fill="#c4c4c4"/>
            <rect id="Rectangle_3476" data-name="Rectangle 3476" width="76" height="14" transform="translate(43.552 0.02)"/>
            <rect id="Rectangle_3477" data-name="Rectangle 3477" width="41" height="14" transform="translate(119.552 0.02)"/>
            <rect id="Rectangle_3478" data-name="Rectangle 3478" width="44" height="14" transform="translate(-0.448 0.02)"/>
            <rect id="Rectangle_3474" data-name="Rectangle 3474" width="27" height="4" transform="translate(9.552 29.02)" fill="#c4c4c4"/>
            <rect id="Rectangle_3475" data-name="Rectangle 3475" width="25" height="4" transform="translate(124.552 23.02)" fill="#1ec812"/>
          </g>
        </g>
        <g id="Group_5570" data-name="Group 5570" transform="translate(3.323 4.172)" opacity="0.33">
          <circle id="Ellipse_400" data-name="Ellipse 400" cx="1.756" cy="1.756" r="1.756" transform="translate(0 3.653) rotate(-72.848)" fill="#fff"/>
          <circle id="Ellipse_401" data-name="Ellipse 401" cx="1.756" cy="1.756" r="1.756" transform="translate(5.133 2.488) rotate(-45)" fill="#fff"/>
          <circle id="Ellipse_402" data-name="Ellipse 402" cx="1.756" cy="1.756" r="1.756" transform="translate(10.554 2.484) rotate(-45)" fill="#fff"/>
        </g>
        <g id="Group_5573" data-name="Group 5573" transform="translate(8.861 40.46)">
          <path id="Path_18029" data-name="Path 18029" d="M1047.43,1197.017l-119.5.093c-5.566,0-10.079-1.323-10.081-2.965l-.044-57.561c0-1.642,4.51-2.976,10.076-2.98l119.5-.093c5.566,0,10.079,1.323,10.081,2.965l.045,57.561C1057.507,1195.678,1053,1197.013,1047.43,1197.017Z" transform="translate(-917.452 -1133.505)" fill="#fff"/>
          <path id="Path_18030" data-name="Path 18030" d="M2154.656,1196.951l-35.249.027a2.973,2.973,0,0,1-2.975-2.97l-.045-57.561a2.973,2.973,0,0,1,2.97-2.975l35.25-.027a2.972,2.972,0,0,1,2.975,2.971l.045,57.561A2.972,2.972,0,0,1,2154.656,1196.951Z" transform="translate(-2017.59 -1133.445)" fill="#fff"/>
          <path id="Path_18031" data-name="Path 18031" d="M951.8,1196.951l-35.25.027a2.973,2.973,0,0,1-2.975-2.97l-.045-57.561a2.973,2.973,0,0,1,2.97-2.975l35.25-.027a2.973,2.973,0,0,1,2.975,2.971l.045,57.561A2.973,2.973,0,0,1,951.8,1196.951Z" transform="translate(-913.531 -1133.445)" fill="#fff"/>
        </g>
      </g>
    </g>
    <path id="Path_18032" data-name="Path 18032" d="M1621.618,1376.606V1388.2a4.621,4.621,0,0,1-4.9,4.9h-22.294a4.621,4.621,0,0,1-4.9-4.9v-11.593a4.621,4.621,0,0,1,4.9-4.9h22.294A4.621,4.621,0,0,1,1621.618,1376.606Zm-10.825,5.756a.806.806,0,0,0-.447-.724l-7.843-3.926a.808.808,0,0,0-1.171.724v7.839a.81.81,0,0,0,1.17.725l7.844-3.915A.809.809,0,0,0,1610.793,1382.362Z" transform="translate(-901.099 -825.722)" fill="#ffc40c"/>
    <g id="Group_5577" data-name="Group 5577" transform="translate(762.018 503.062)">
      <path id="Path_18033" data-name="Path 18033" d="M2782.6,2027.867a2.027,2.027,0,0,0-1.005.752,1.782,1.782,0,0,0-.2,1.019,2.314,2.314,0,0,0,.269.839,1.646,1.646,0,0,0,.668.609,3.815,3.815,0,0,1,1.541,1.165,4.275,4.275,0,0,0,1,1.352,4.792,4.792,0,0,0,2.771.275,1.738,1.738,0,0,0,1-.48c.246-.4.055-.883.089-1.1a10.153,10.153,0,0,0-.215-3.791c-.15-.646-.38-.576-.693-.894-.285-.289-.4-.186-.8-.265a12.265,12.265,0,0,0-2.395-.452c-.317,0-.518-.105-.8.137A5.237,5.237,0,0,1,2782.6,2027.867Z" transform="translate(-2757.1 -1930.146)"/>
      <path id="Path_18034" data-name="Path 18034" d="M2788.769,2062.7c0-.026.007-.054.01-.08a2,2,0,0,1-1.185.6,3.99,3.99,0,0,1-2.9-.371c-.365-.249-.541-.7-.912-1.005a5.118,5.118,0,0,0-1.076-.693,3.14,3.14,0,0,1-1.281-1.153,1.912,1.912,0,0,0,.271.88,1.648,1.648,0,0,0,.668.61,3.812,3.812,0,0,1,1.541,1.165c.259.448.3.913.9,1.357a5,5,0,0,0,2.874.27,1.734,1.734,0,0,0,1-.48C2788.926,2063.395,2788.735,2062.911,2788.769,2062.7Z" transform="translate(-2757.129 -1960.542)" fill="#002c38"/>
      <path id="Path_18035" data-name="Path 18035" d="M2616.948,2008.578c-.3.223-.509.554-.823.754a4.207,4.207,0,0,1-1.967.541,2.941,2.941,0,0,0-1.892.711,1.6,1.6,0,0,0-.425,1.04,2.259,2.259,0,0,0,.262,1.184,3.4,3.4,0,0,0,1.847,1.429,14.993,14.993,0,0,0,2.323.529c1.876.361,3.566,1.059,5.654.71a1.381,1.381,0,0,0,.748-.386,1.513,1.513,0,0,0,.233-1.014,3.727,3.727,0,0,0-.2-1.016c-.181-.686-.322-1.628-.527-2.455a1.279,1.279,0,0,0-.272-.642,1.3,1.3,0,0,0-.757-.257,7.31,7.31,0,0,1-2.266-.7c-.34-.169-.5-.444-.821-.632A1.175,1.175,0,0,0,2616.948,2008.578Z" transform="translate(-2601.471 -1913.097)"/>
      <path id="Path_18036" data-name="Path 18036" d="M2622.858,2043.683a3.072,3.072,0,0,1-1.63.5,17.722,17.722,0,0,1-4.019-.3,13.54,13.54,0,0,1-3.887-1.157,2.427,2.427,0,0,1-1.312-2.153,1.7,1.7,0,0,0-.17.673,2.259,2.259,0,0,0,.262,1.184,3.393,3.393,0,0,0,1.847,1.429,14.951,14.951,0,0,0,2.323.529c1.876.361,3.566,1.059,5.654.711a1.382,1.382,0,0,0,.748-.386,1.51,1.51,0,0,0,.233-1.014c0-.015,0-.029,0-.044Z" transform="translate(-2601.471 -1942.715)" fill="#002c38"/>
      <path id="Path_18037" data-name="Path 18037" d="M2679.146,1938.279c.017.339.045.578.045.857a4.344,4.344,0,0,0-1.148.311c-.68.27-1,.755-2.017.667a1.841,1.841,0,0,1-1.53-1.677c-.018-.56.466-.657.707-1.163a8.647,8.647,0,0,0,.311-3.088c.061-1.18.04-2.178.046-3.151,1.193.081,2.153.4,3.346.482.648.044,1.049-.879.907-.3-.16.658-.443,2.428-.526,3.1A22.852,22.852,0,0,0,2679.146,1938.279Z" transform="translate(-2658.983 -1842.17)" fill="#e8b588"/>
      <path id="Path_18038" data-name="Path 18038" d="M2811.975,1932.47c-.072.4-.217.528.084.951.289.4.917.278,1.406.191a7.421,7.421,0,0,1,2.794-.092,8.852,8.852,0,0,1-.451-2.618c-.073-2.267.295-3.539.341-7.341-.791.028-1.932.651-2.723.679-.408.015-.648-.248-1.056-.233-.1,0-.389-.04-.458.041a.779.779,0,0,0-.14.4,53.1,53.1,0,0,1,.508,5.732A11.751,11.751,0,0,1,2811.975,1932.47Z" transform="translate(-2784.983 -1835.318)" fill="#e8b588"/>
      <path id="Path_18039" data-name="Path 18039" d="M2882.588,1242.113a24.414,24.414,0,0,0-.216-3.152c-.864.167-1.722.406-2.588.528-.771.108-1.548.2-2.309.358.006.093.012.186.022.28.086.831.453,3.471.577,4.3q.148.988.271,1.979a21.191,21.191,0,0,1,.023,2.343c-.011,1.323.094,2.242.194,3.561.073.969.145,1.938.165,2.91.011.5.018,1-.015,1.5a17.115,17.115,0,0,1-.566,2.943,6.4,6.4,0,0,1-.514.946,5.6,5.6,0,0,0-.59.879,3.138,3.138,0,0,0-.213,1.328,8.845,8.845,0,0,1,.01,1.5c-.055.386-.19.758-.255,1.142a1.44,1.44,0,0,0,.173,1.122c.17-.088.307-.086.434-.252a1.415,1.415,0,0,0,.227-.545,6.409,6.409,0,0,0,.166-1.061c.016-.235-.115-.569.219-.655a.479.479,0,0,1,.5.235.927.927,0,0,1,.1.572c-.018.2-.068.388-.089.584a7.6,7.6,0,0,1-.068,1.548,2.087,2.087,0,0,1-.633.878c-.225.2-.593.409-.672.717a.377.377,0,0,0,.027.286.37.37,0,0,0,.337.156,3.3,3.3,0,0,0,1.089-.455,6.937,6.937,0,0,0,1.132-.534,3.833,3.833,0,0,0,.984-.591,2.565,2.565,0,0,0,.664-1.091,6.989,6.989,0,0,0,.283-1.759c.119-1.8-.506-3.112-.357-4.681a5.588,5.588,0,0,1,.233-1.168c.173-.543.954-3.781,1.047-4.392a34.4,34.4,0,0,0,.251-8.842A18.534,18.534,0,0,1,2882.588,1242.113Z" transform="translate(-2844.438 -1206.946)" fill="#e8b588"/>
      <path id="Path_18040" data-name="Path 18040" d="M2492.8,975.784a21.5,21.5,0,0,0-1.562-4.187c-.488-1.186-1.124-2.483-.81-3.8a3.755,3.755,0,0,0,.049-1.919c-.082-.389-.794-.93-.87-1.006.091.311.2.531.295.828.029.092-.194.073-.3-.1-.4-.656-.4-.627-.942-1.488-.219-.347-.606-2.2-.874-2.362a.353.353,0,0,0-.495.108c-.184.276.037.761.06,1.1-.076-.309-.178-.745-.5-.63-.269.1-.4.244-.3.908a.293.293,0,0,0-.444.095c-.116.16-.064.491-.1.679-.032-.059-.2.036-.255.081a.31.31,0,0,0-.081.181,3.954,3.954,0,0,0,.008,1.266,4.581,4.581,0,0,0,.231,1.115c.075.206,1.281,2.091,1.609,2.584a7.472,7.472,0,0,1,1.052,3.116c.187,1.086.162,2.2.412,3.278a9.663,9.663,0,0,0,1.035,3.027,4.577,4.577,0,0,0,1.371,1.55,2.135,2.135,0,0,0,1.533-.12,24.982,24.982,0,0,0,5.057-1.849,37.726,37.726,0,0,1-3.15-4.346c-.365.31-.495.431-.869.729A7.734,7.734,0,0,0,2492.8,975.784Z" transform="translate(-2485.625 -952.455)" fill="#e8b588"/>
      <path id="Path_18041" data-name="Path 18041" d="M2658.761,1380.059c-.77,4.757-2.135,8.505-2.058,13.323.065,4.056.948,4.041,1.4,8.609a76.153,76.153,0,0,1-.391,8.745,11.792,11.792,0,0,1-4.506.06c-.362-3.364-1.066-6.372-1.459-9.233-1.071-7.778-1.991-13.883-1.991-22.022-.893,5.663-2.646,11.257-2.119,16.965a49.773,49.773,0,0,1,.513,6.189c-.029,1.842-.608,4.016-.886,8.722-1.259.5-4.085.186-4.51-.284-.18-2.89-.845-7.919-1.214-11.192-.1-.909-.656-3.047-.786-3.928-.543-3.678-.888-6.352-1.3-10.864a66.945,66.945,0,0,1,.944-20.356,124.209,124.209,0,0,0,13.251.275q1.618-.053,3.235-.148c.659-.039.235-1.815.573-1.333a26.6,26.6,0,0,1,1.3,3.654,34.037,34.037,0,0,1,.593,6.213A40.759,40.759,0,0,1,2658.761,1380.059Z" transform="translate(-2626.487 -1321.261)" fill="#352246"/>
      <path id="Path_18042" data-name="Path 18042" d="M2776.869,1495.88a16.448,16.448,0,0,1-3.81,1.745,16.954,16.954,0,0,1-3.445.251,22.428,22.428,0,0,0-.657,3.071c.022,8.059.928,14.3,1.991,22.022.394,2.86,1.113,5.892,1.459,9.233a5.922,5.922,0,0,0,.884.132c-.276-4.337-.73-6.42-.818-8.036a32.072,32.072,0,0,1-.044-6.083c.115-2.005-1.2-3.787-1.22-7.1-.013-1.836-.2-3.771-.062-5.61.183-2.425.631-5.073,2.3-6.952,1.247-1.4,2.389-1.684,3.561-2.778C2776.961,1495.809,2776.916,1495.846,2776.869,1495.88Z" transform="translate(-2745.685 -1442.666)" fill="#2b193a"/>
      <path id="Path_18043" data-name="Path 18043" d="M2594.774,1035.267a6.119,6.119,0,0,1,7.5-.115,7.987,7.987,0,0,1,1.012,1.1c.9.947,1.925.45,4.932,2.163a4.239,4.239,0,0,1,2.254,2.539,46.6,46.6,0,0,1,.944,5.6l.324,2.3c.108.767.533,4.028.583,4.453-1.73.213-3.428.469-5.173.859-.248-1.816-.3-2.924-.642-4.521-1.172,2.456-2.333,5.447-1.8,8.836.093.593.58,2.115,1.12,3.926.225.755.327.989-.015.917s-.973-.163-1.113-.173a25.589,25.589,0,0,0-2.751-.122c-.971.029-1.941.1-2.909.178-1.057.087-2.89.413-3.947.493a24.354,24.354,0,0,1-6.611-.015,2.36,2.36,0,0,1-.859-.259c-.4-.283-.082-1.03.045-1.4.327-.956.384-1.2.617-2,1.01-3.462,1.489-5.551,1.364-7.827,0-.031,0-.061,0-.092-.066-1.215-.6-5.108-.675-5.917a24.055,24.055,0,0,1-.065-2.508,8.248,8.248,0,0,1-1.948.941q-.526.209-1.063.386a5.939,5.939,0,0,1-1.091.333c-1.552.182-3.709-2.212-2.646-4.408,1.18-.828,1.324-1.153,2.584-2.028,1.323-.919,2.611-2.432,4.159-2.876,2.235-.641,2.9-.021,5.468-.678A1.9,1.9,0,0,1,2594.774,1035.267Z" transform="translate(-2573.967 -1018.751)" fill="#ffe289"/>
      <path id="Path_18044" data-name="Path 18044" d="M2882.839,1152.031a26.292,26.292,0,0,1-1.014,3.393c.347,1.563.44,3.277.642,4.521.489-.106,1.141-.244,1.655-.335-.147-.855-.741-5.747-.756-6.058-.056-1.239.257-3.872.273-4.394A23.9,23.9,0,0,0,2882.839,1152.031Z" transform="translate(-2849.283 -1124.521)" fill="#ffc40c"/>
      <path id="Path_18045" data-name="Path 18045" d="M2686.4,858.657c.072.391.161.773.264,1.138.525,1.871,1.505,3.683,1.386,5.623-.1,1.638-1.464,3.053-.961,4.741.66,2.213,3.817,2.8,4.671,4.944.376.944.03,1.584.016,2.522a4.3,4.3,0,0,0,3.627,4.34,3.5,3.5,0,0,0,2.771-.674,5.8,5.8,0,0,0,1.263-1.742l2.774-5.05a11.2,11.2,0,0,0,1.609-4.178,8.658,8.658,0,0,0-2.067-5.834c-1.219-1.639-1.273-3.776-1.448-5.751q-.053-.6-.146-1.191c-.052-.326-.023-.644-.1-.964a11.807,11.807,0,0,0-.694-2.054,10.009,10.009,0,0,0-2.542-3.507,7.522,7.522,0,0,0-5.022-1.826,6.989,6.989,0,0,0-2.673.577,3.923,3.923,0,0,0-1.827,1.883c-.1.18-.2.364-.287.549A10.778,10.778,0,0,0,2686.4,858.657Z" transform="translate(-2669.704 -849.191)"/>
    </g>
  </g>
</svg>
