<svg xmlns="http://www.w3.org/2000/svg" width="512.109" height="520.009" viewBox="0 0 512.109 520.009">
  <g id="success_520" data-name="success 520" transform="translate(-235.092 -231.092)">
    <g id="Background_Complete" data-name="Background Complete" transform="translate(238.248 231.092)">
      <g id="Group_5164" data-name="Group 5164" transform="translate(320.215 293.095)">
        <g id="Group_5142" data-name="Group 5142">
          <g id="Group_5141" data-name="Group 5141">
            <path id="Path_17691" data-name="Path 17691" d="M672.661,534.533s10.786,2.854,1.716,26.136-15.8,35.033-15.8,35.033-1.487,5.342,2.92,5.708,13.786-2.115,16.245,2.987c2.553,5.291-.915,10.873-8.547,16.231s-23.92,17.713-25.39,18.834c-1.442,1.1-2.742,3.65.22,4.379s24.622.81,23.967,11.086-24.367,21.709-26.935,23.009-3.1,2.5-2.728,3.942,7.643.787,13.807,1.065,13.255,1.675,12.379,7.57-14.239,19.448-49.294,26.476l-16.456,2.193-10.388-13.045c-20.529-29.271-20.859-48.3-17.424-53.17s9.536-.992,14.185,3.057,9.466,9.549,10.728,8.756,1.707-2.022.743-4.735-10.242-27.349-3.628-35.239,22.35,6.992,25,8.509,3.463-1.226,3.18-3.018c-.29-1.826-3.56-22.007-5.388-31.155s-.49-15.577,5.008-17.648c5.3-2,10.38,6.266,13.822,9.043s6.05-2.116,6.05-2.116,3.237-13.146,12.731-36.258,19.492-17.555,19.492-17.555" transform="translate(-569.314 -534.021)" fill="#dfddd8"/>
          </g>
        </g>
        <g id="Group_5145" data-name="Group 5145" transform="translate(28.651 21.375)">
          <g id="Group_5144" data-name="Group 5144">
            <g id="Group_5143" data-name="Group 5143">
              <path id="Path_17692" data-name="Path 17692" d="M599.265,723.862c6.905-17,18.673-47.426,28.905-73.494s19.519-49.643,26.337-66.679l8.1-20.165c.948-2.366,1.687-4.211,2.2-5.485l.56-1.431c.122-.324.173-.5.173-.5s-.083.158-.224.475q-.216.505-.606,1.411c-.532,1.267-1.3,3.1-2.287,5.449-1.98,4.734-4.8,11.6-8.248,20.105-6.905,17-16.246,40.567-26.478,66.625s-21.947,56.511-28.764,73.546" transform="translate(-598.926 -556.113)" fill="#4d4e4e"/>
            </g>
          </g>
        </g>
        <g id="Group_5148" data-name="Group 5148" transform="translate(68.443 74.366)">
          <g id="Group_5147" data-name="Group 5147">
            <g id="Group_5146" data-name="Group 5146">
              <path id="Path_17693" data-name="Path 17693" d="M667.064,610.883a5.512,5.512,0,0,0-1.12.437c-.708.309-1.717.785-2.96,1.385-2.481,1.2-5.867,2.955-9.568,4.955l-9.456,5.154-2.873,1.543a5.376,5.376,0,0,0-1.034.608,5.355,5.355,0,0,0,1.122-.428c.707-.311,1.717-.787,2.954-1.4,2.47-1.23,5.832-3.023,9.532-5.023l9.489-5.083,2.883-1.53A5.259,5.259,0,0,0,667.064,610.883Z" transform="translate(-640.053 -610.883)" fill="#4d4e4e"/>
            </g>
          </g>
        </g>
        <g id="Group_5151" data-name="Group 5151" transform="translate(51.993 55.842)">
          <g id="Group_5150" data-name="Group 5150">
            <g id="Group_5149" data-name="Group 5149">
              <path id="Path_17694" data-name="Path 17694" d="M638.268,623.4c.128-.062-3.175-7.2-7.376-15.942s-7.712-15.783-7.837-15.722,3.174,7.2,7.376,15.944S638.139,623.459,638.268,623.4Z" transform="translate(-623.051 -591.737)" fill="#4d4e4e"/>
            </g>
          </g>
        </g>
        <g id="Group_5154" data-name="Group 5154" transform="translate(33.513 104.283)">
          <g id="Group_5153" data-name="Group 5153">
            <g id="Group_5152" data-name="Group 5152">
              <path id="Path_17695" data-name="Path 17695" d="M623.736,665.76a5.8,5.8,0,0,0-.774-.951l-2.225-2.48c-1.875-2.1-4.451-5-7.179-8.311s-5.106-6.386-6.8-8.623c-.8-1.054-1.475-1.942-2.015-2.653a5.751,5.751,0,0,0-.788-.939,5.434,5.434,0,0,0,.623,1.056c.43.66,1.064,1.6,1.885,2.753,1.625,2.3,3.958,5.418,6.7,8.735s5.363,6.192,7.31,8.231c.977,1.014,1.778,1.826,2.348,2.371A5.436,5.436,0,0,0,623.736,665.76Z" transform="translate(-603.951 -641.803)" fill="#4d4e4e"/>
            </g>
          </g>
        </g>
        <g id="Group_5157" data-name="Group 5157" transform="translate(53.322 121.977)">
          <g id="Group_5156" data-name="Group 5156">
            <g id="Group_5155" data-name="Group 5155">
              <path id="Path_17696" data-name="Path 17696" d="M652.563,660.091a4.838,4.838,0,0,0-1.126.133l-3.031.549c-2.555.484-6.077,1.192-9.966,2s-7.4,1.575-9.931,2.152l-3,.71a4.875,4.875,0,0,0-1.085.329,4.741,4.741,0,0,0,1.126-.132l3.031-.549c2.554-.484,6.077-1.194,9.966-2s7.395-1.575,9.93-2.152l3-.71A4.84,4.84,0,0,0,652.563,660.091Z" transform="translate(-624.425 -660.091)" fill="#4d4e4e"/>
            </g>
          </g>
        </g>
        <g id="Group_5160" data-name="Group 5160" transform="translate(37.621 159.499)">
          <g id="Group_5159" data-name="Group 5159">
            <g id="Group_5158" data-name="Group 5158">
              <path id="Path_17697" data-name="Path 17697" d="M644.323,698.872a7.773,7.773,0,0,0-1.44.184l-3.888.69c-3.277.6-7.8,1.476-12.786,2.467s-9.5,1.92-12.759,2.612l-3.854.85a7.973,7.973,0,0,0-1.4.381,7.744,7.744,0,0,0,1.44-.184l3.886-.69c3.278-.6,7.8-1.476,12.789-2.468s9.5-1.919,12.757-2.612l3.855-.85A7.816,7.816,0,0,0,644.323,698.872Z" transform="translate(-608.197 -698.872)" fill="#4d4e4e"/>
            </g>
          </g>
        </g>
        <g id="Group_5163" data-name="Group 5163" transform="translate(14.158 135.195)">
          <g id="Group_5162" data-name="Group 5162">
            <g id="Group_5161" data-name="Group 5161">
              <path id="Path_17698" data-name="Path 17698" d="M608.226,704.83a9.327,9.327,0,0,0-.949-1.231l-2.709-3.246c-2.284-2.742-5.418-6.542-8.769-10.836s-6.289-8.25-8.391-11.133l-2.494-3.413a8.949,8.949,0,0,0-.968-1.218,8.859,8.859,0,0,0,.8,1.332c.542.84,1.345,2.042,2.363,3.509,2.032,2.939,4.922,6.943,8.281,11.239s6.541,8.071,8.9,10.755c1.181,1.34,2.149,2.413,2.834,3.142A8.765,8.765,0,0,0,608.226,704.83Z" transform="translate(-583.947 -673.753)" fill="#4d4e4e"/>
            </g>
          </g>
        </g>
      </g>
      <g id="Group_5178" data-name="Group 5178" transform="translate(0 314.222)">
        <g id="Group_5177" data-name="Group 5177">
          <g id="Group_5176" data-name="Group 5176">
            <g id="Group_5175" data-name="Group 5175">
              <g id="Group_5165" data-name="Group 5165">
                <path id="Rectangle_3452" data-name="Rectangle 3452" d="M330.364,760.736,242.13,712.109a7.3,7.3,0,0,1-2.869-9.912h0L317.83,559.634a7.3,7.3,0,0,1,9.912-2.869h0l88.235,48.628a7.3,7.3,0,0,1,2.868,9.911h0L340.277,757.867a7.3,7.3,0,0,1-9.913,2.869Z" transform="translate(-238.354 -555.858)" fill="#dfddd8"/>
              </g>
              <g id="Group_5166" data-name="Group 5166" transform="translate(75.731 31.698)">
                <path id="Path_17699" data-name="Path 17699" d="M334.78,590.142a12.242,12.242,0,1,1-16.631,4.814A12.242,12.242,0,0,1,334.78,590.142Z" transform="translate(-316.626 -588.62)" fill="#fff"/>
              </g>
              <g id="Group_5167" data-name="Group 5167" transform="translate(82.379 18.208)">
                <path id="Path_17700" data-name="Path 17700" d="M347.324,581.052a12.988,12.988,0,0,1,1.221,2.87,12.771,12.771,0,1,1-1.221-2.87Zm-21.191,12.285a11.651,11.651,0,1,0,15.705-16.046h0a11.649,11.649,0,0,0-16.815,13.439A11.821,11.821,0,0,0,326.133,593.337Z" transform="translate(-323.497 -574.677)" fill="#fff"/>
              </g>
              <g id="Group_5168" data-name="Group 5168" transform="translate(68.035 44.695)">
                <path id="Path_17701" data-name="Path 17701" d="M310.282,736.212l8.621,4.752-.49.886-7.831-4.317-1.121,2.035-.789-.436Z" transform="translate(-308.672 -606.409)" fill="#fff"/>
                <path id="Path_17702" data-name="Path 17702" d="M323.133,731.408l.79.437-3.333,6.045-.629-.348-1.533-5.517c-.427-1.5-.9-2.006-1.495-2.333-1-.549-2-.186-2.729,1.129a3.34,3.34,0,0,0-.333,2.884l-.887.329a4.418,4.418,0,0,1,.45-3.732c.966-1.749,2.461-2.369,3.9-1.574.822.456,1.423,1.119,1.917,2.9l1.269,4.518Z" transform="translate(-308.805 -606.154)" fill="#fff"/>
                <path id="Path_17703" data-name="Path 17703" d="M326.859,721.233l-.951,1.724,2.265,1.251-.488.886-2.269-1.248-2.678,4.863-.64-.354-3.2-7.717.542-.984,3.135,7.472,2.066-3.741-2-1.1.474-.862,2,1.1.952-1.724Z" transform="translate(-309.004 -605.871)" fill="#fff"/>
                <path id="Path_17704" data-name="Path 17704" d="M334.388,707.575l-.951,1.724,2.264,1.249-.488.887-2.269-1.249-2.678,4.864-.64-.354-3.2-7.718.543-.984,3.136,7.471,2.066-3.741-2-1.1.474-.862,2,1.1.951-1.725Z" transform="translate(-309.248 -605.428)" fill="#fff"/>
                <path id="Path_17705" data-name="Path 17705" d="M338.368,699.583c1.465.809,2.046,2.462.886,4.57a5.087,5.087,0,0,1-2.809,2.482l-.47-.815a4.256,4.256,0,0,0,2.457-2.1c.807-1.466.523-2.635-.524-3.212-1.109-.61-2.181-.3-3.387,1.89l-1.01,1.831-4.08-2.826,2.6-4.718.789.438-2.172,3.938,2.583,1.809.612-1.111C335.275,699.165,336.84,698.743,338.368,699.583Z" transform="translate(-309.346 -605.125)" fill="#fff"/>
                <path id="Path_17706" data-name="Path 17706" d="M343.21,690.764a3.069,3.069,0,0,1,1.164,4.18q-.065.115-.139.223c-1.261,2.292-3.537,2.661-6.259,1.155-2.931-1.611-3.575-4.055-2.286-6.394a4.532,4.532,0,0,1,1.595-1.788l.523.755a3.433,3.433,0,0,0-1.33,1.45c-1.029,1.858-.493,3.711,1.848,5,.2.109.45.233.722.35a3.144,3.144,0,0,1-.025-3.449C339.965,690.533,341.632,689.9,343.21,690.764Zm-.458.889c-1.134-.624-2.322-.187-3.055,1.144a2.276,2.276,0,0,0,.543,3.175c.039.028.077.054.118.079.951.521,2.284.229,3.107-1.263a2.156,2.156,0,0,0-.507-3.006A2.2,2.2,0,0,0,342.752,691.653Z" transform="translate(-309.529 -604.848)" fill="#fff"/>
                <path id="Path_17707" data-name="Path 17707" d="M349.991,678.609c1.442.794,1.974,2.452.828,4.531a5.118,5.118,0,0,1-2.82,2.5l-.465-.819a4.306,4.306,0,0,0,2.47-2.127c.788-1.426.558-2.582-.516-3.173-1.034-.57-2.112-.217-2.994,1.384l-.341.617-.653-.359-1.677-4.039-2.428,4.408-.788-.434,3.055-5.543.628.345,1.722,4.131C347.13,678.237,348.611,677.848,349.991,678.609Z" transform="translate(-309.709 -604.439)" fill="#fff"/>
                <path id="Path_17708" data-name="Path 17708" d="M354.856,669.631a3.071,3.071,0,0,1,1.165,4.182c-.044.076-.09.15-.139.223-1.261,2.292-3.538,2.66-6.259,1.156-2.932-1.613-3.576-4.056-2.286-6.4a4.517,4.517,0,0,1,1.595-1.788l.519.751a3.442,3.442,0,0,0-1.329,1.452c-1.026,1.861-.491,3.713,1.852,5,.2.109.449.233.722.35a3.142,3.142,0,0,1-.026-3.448C351.611,669.4,353.278,668.762,354.856,669.631Zm-.458.89c-1.132-.624-2.32-.189-3.054,1.142a2.281,2.281,0,0,0,.546,3.179c.039.027.077.053.117.077.949.522,2.283.228,3.1-1.262a2.153,2.153,0,0,0-.5-3A2.029,2.029,0,0,0,354.4,670.521Z" transform="translate(-309.907 -604.162)" fill="#fff"/>
                <path id="Path_17709" data-name="Path 17709" d="M353.28,658.075l.629.347,6.005,8.014-.529.962-5.882-7.864-2.44,4.433,1.614.888-.484.874-2.4-1.322Z" transform="translate(-310.007 -603.872)" fill="#fff"/>
                <path id="Path_17710" data-name="Path 17710" d="M360.3,645.332l.629.347,6.005,8.015-.529.962-5.881-7.863-2.441,4.433,1.615.888-.483.875-2.4-1.323Z" transform="translate(-310.235 -603.458)" fill="#fff"/>
                <path id="Path_17711" data-name="Path 17711" d="M371.389,640.032c1.528.843,1.759,2.661.629,4.715s-2.781,2.8-4.307,1.963a2.455,2.455,0,0,1-1.2-2.831,2.226,2.226,0,0,1-2.644.308c-1.4-.773-1.621-2.452-.616-4.274s2.552-2.561,3.955-1.785a2.224,2.224,0,0,1,1.138,2.424A2.479,2.479,0,0,1,371.389,640.032Zm-.516.905c-1.059-.584-2.225-.041-3.067,1.487s-.671,2.793.386,3.378,2.233.057,3.074-1.471S371.945,641.527,370.873,640.937Zm-3.769,1.1c.74-1.342.581-2.476-.358-2.992-.973-.536-2.033-.013-2.746,1.282s-.58,2.458.382,2.984,1.981.068,2.721-1.274Z" transform="translate(-310.424 -603.214)" fill="#fff"/>
                <path id="Path_17712" data-name="Path 17712" d="M374.174,630.291c2.933,1.614,3.578,4.061,2.287,6.4a4.5,4.5,0,0,1-1.594,1.787l-.517-.751a3.461,3.461,0,0,0,1.329-1.452c1.025-1.858.489-3.712-1.853-5-.2-.11-.448-.232-.721-.35a3.146,3.146,0,0,1,.024,3.449c-.943,1.714-2.613,2.351-4.187,1.484a3.069,3.069,0,0,1-1.165-4.18c.044-.077.09-.152.14-.225C369.179,629.157,371.452,628.79,374.174,630.291Zm-2.383.276c-.948-.522-2.282-.231-3.1,1.262a2.154,2.154,0,0,0,.5,3,2.21,2.21,0,0,0,.208.131c1.134.624,2.322.19,3.055-1.142a2.278,2.278,0,0,0-.545-3.177c-.039-.028-.078-.054-.118-.078Z" transform="translate(-310.578 -602.94)" fill="#fff"/>
                <path id="Path_17713" data-name="Path 17713" d="M374.952,618.87l8.622,4.751-.49.886-7.833-4.315-1.118,2.032-.789-.435Z" transform="translate(-310.771 -602.599)" fill="#fff"/>
                <path id="Path_17714" data-name="Path 17714" d="M387.806,614.063l.788.437-3.333,6.044-.628-.347-1.536-5.516c-.423-1.5-.9-2.007-1.493-2.334-1-.55-2-.183-2.729,1.129a3.345,3.345,0,0,0-.332,2.885l-.889.329a4.428,4.428,0,0,1,.451-3.734c.966-1.749,2.462-2.367,3.9-1.573.821.456,1.421,1.119,1.917,2.9l1.268,4.519Z" transform="translate(-310.904 -602.345)" fill="#fff"/>
                <path id="Path_17715" data-name="Path 17715" d="M390.5,605.108c1.442.793,1.974,2.451.828,4.53a5.118,5.118,0,0,1-2.82,2.5l-.464-.817a4.313,4.313,0,0,0,2.468-2.127c.788-1.43.557-2.583-.514-3.175-1.035-.572-2.111-.218-3,1.387l-.34.617-.655-.36-1.674-4.039-2.426,4.405-.788-.433,3.057-5.542.629.345,1.719,4.13C387.638,604.735,389.121,604.347,390.5,605.108Z" transform="translate(-311.024 -602.053)" fill="#fff"/>
              </g>
              <g id="Group_5169" data-name="Group 5169" transform="translate(119.828 49.872)">
                <rect id="Rectangle_3453" data-name="Rectangle 3453" width="78.868" height="4.276" transform="matrix(0.483, -0.876, 0.876, 0.483, 0, 69.074)" fill="#fff"/>
              </g>
              <g id="Group_5170" data-name="Group 5170" transform="translate(145.848 53.994)">
                <rect id="Rectangle_3454" data-name="Rectangle 3454" width="40.451" height="4.277" transform="translate(0 35.424) rotate(-61.131)" fill="#fff"/>
              </g>
              <g id="Group_5171" data-name="Group 5171" transform="translate(39.336 136.561)">
                <path id="Rectangle_3455" data-name="Rectangle 3455" d="M279.608,720.052l11.34-20.569a4.8,4.8,0,0,1,6.522-1.885l13.238,7.3a4.8,4.8,0,0,1,1.888,6.525h0l-11.34,20.566a4.8,4.8,0,0,1-6.523,1.887h0l-13.238-7.3A4.8,4.8,0,0,1,279.608,720.052Z" transform="translate(-279.01 -697.001)" fill="#d9d9d8"/>
              </g>
              <g id="Group_5172" data-name="Group 5172" transform="translate(44.248 149.812)">
                <path id="Path_17716" data-name="Path 17716" d="M293.11,733.332l-1.387-.763,8.225-14.921A3.566,3.566,0,1,0,293.7,714.2l-8.227,14.921-1.388-.765,8.224-14.923a5.152,5.152,0,0,1,9.105,4.825q-.039.074-.081.148Z" transform="translate(-284.086 -710.697)" fill="#e6e6e6"/>
              </g>
              <g id="Group_5173" data-name="Group 5173" transform="translate(58.39 140.604)">
                <rect id="Rectangle_3456" data-name="Rectangle 3456" width="11.689" height="1.585" transform="translate(0 10.231) rotate(-61.082)" fill="#e6e6e6"/>
              </g>
              <g id="Group_5174" data-name="Group 5174" transform="translate(21.685 76.041)">
                <rect id="Rectangle_3457" data-name="Rectangle 3457" width="85.107" height="7.304" transform="matrix(0.483, -0.876, 0.876, 0.483, 0, 74.535)" fill="#fff"/>
              </g>
            </g>
          </g>
        </g>
      </g>
      <g id="Group_5218" data-name="Group 5218" transform="translate(197.259 0)">
        <g id="Group_5180" data-name="Group 5180">
          <g id="Group_5179" data-name="Group 5179">
            <path id="Path_17717" data-name="Path 17717" d="M546,231.092c.9,12.828-.007,36.714,4.667,48.693s10.9,24.322,22.593,29.679c14.394,6.6,31.31,3.8,46.665,7.668,24.069,6.057,41.47,28.137,48.9,51.817S675.427,418,674.53,442.8L551.7,459.849s-.646-49.914-11.359-63.535-61.6-25.885-78.414-63.192c-15.128-33.573-19.69-86.819-19.69-86.819Z" transform="translate(-442.232 -231.092)" fill="#dfddd8"/>
          </g>
        </g>
        <g id="Group_5181" data-name="Group 5181" transform="translate(27.986 25.101)">
          <path id="Path_17718" data-name="Path 17718" d="M477.772,270.291l-2.2-2.5a5.623,5.623,0,0,1-.67.105l-2.259.237.282,2.664-.889.093-.876-8.4,3.146-.329c2.133-.223,3.543.723,3.732,2.521a2.619,2.619,0,0,1-1.644,2.843l2.352,2.668Zm-.624-5.516c-.14-1.348-1.11-2.028-2.789-1.847l-2.234.232.44,4.212,2.23-.231C476.479,266.965,477.285,266.092,477.148,264.775Z" transform="translate(-471.157 -257.2)" fill="#4d4e4e"/>
          <path id="Path_17719" data-name="Path 17719" d="M486.865,268.554l.078.769-5.942.62-.875-8.4,5.762-.6.078.769-4.872.508.313,2.989,4.344-.453.075.758-4.34.453.323,3.12Z" transform="translate(-471.448 -257.162)" fill="#4d4e4e"/>
          <path id="Path_17720" data-name="Path 17720" d="M488.06,264.963a4.24,4.24,0,0,1,3.711-4.711c.082-.01.165-.017.249-.022a4.087,4.087,0,0,1,3.2.9l-.506.619a3.344,3.344,0,0,0-2.588-.732,3.452,3.452,0,0,0-3.205,3.682c0,.057.009.114.015.171a3.452,3.452,0,0,0,3.75,3.126c.055,0,.111-.011.166-.018a3.317,3.317,0,0,0,2.38-1.268l.622.505a4.1,4.1,0,0,1-2.956,1.56,4.238,4.238,0,0,1-4.811-3.574C488.076,265.123,488.068,265.043,488.06,264.963Z" transform="translate(-471.705 -257.137)" fill="#4d4e4e"/>
          <path id="Path_17721" data-name="Path 17721" d="M504.036,266.764l.078.768-5.941.619-.875-8.4,5.761-.6.078.769-4.872.509.311,2.989,4.345-.454.076.759-4.342.451.324,3.122Z" transform="translate(-472.006 -257.104)" fill="#4d4e4e"/>
          <path id="Path_17722" data-name="Path 17722" d="M505.6,258.9l.888-.093.877,8.4-.887.093Z" transform="translate(-472.275 -257.093)" fill="#4d4e4e"/>
          <path id="Path_17723" data-name="Path 17723" d="M516.224,260.694c.185,1.79-1,3-3.134,3.227l-2.257.236.278,2.653-.889.094-.878-8.4,3.147-.329C514.627,257.95,516.036,258.9,516.224,260.694Zm-.888.1c-.14-1.348-1.111-2.027-2.79-1.849l-2.232.234.438,4.2,2.23-.232C514.665,262.969,515.469,262.109,515.336,260.791Z" transform="translate(-472.397 -257.071)" fill="#4d4e4e"/>
          <path id="Path_17724" data-name="Path 17724" d="M519.511,258.206l-2.953.308-.078-.768,6.793-.71.078.77-2.953.307.8,7.636-.888.092Z" transform="translate(-472.628 -257.035)" fill="#4d4e4e"/>
        </g>
        <g id="Group_5183" data-name="Group 5183" transform="translate(45.122 47.388)">
          <g id="Group_5182" data-name="Group 5182">
            <path id="Path_17725" data-name="Path 17725" d="M488.868,286.886c.022.168,11.213-1.216,24.991-3.1s24.933-3.538,24.91-3.707-11.21,1.215-24.993,3.1S488.844,286.717,488.868,286.886Z" transform="translate(-488.868 -280.07)" fill="#4d4e4e"/>
          </g>
        </g>
        <g id="Group_5185" data-name="Group 5185" transform="translate(46.465 57.389)">
          <g id="Group_5184" data-name="Group 5184">
            <path id="Path_17726" data-name="Path 17726" d="M490.256,297.223c.022.168,11.214-1.216,24.99-3.1s24.933-3.538,24.911-3.707-11.212,1.216-24.994,3.1S490.23,297.055,490.256,297.223Z" transform="translate(-490.256 -290.407)" fill="#4d4e4e"/>
          </g>
        </g>
        <g id="Group_5187" data-name="Group 5187" transform="translate(51.039 67.587)">
          <g id="Group_5186" data-name="Group 5186">
            <path id="Path_17727" data-name="Path 17727" d="M494.984,307.763c.024.17,11.214-1.216,24.992-3.1s24.932-3.537,24.91-3.707-11.212,1.216-24.993,3.1S494.962,307.595,494.984,307.763Z" transform="translate(-494.984 -300.947)" fill="#4d4e4e"/>
          </g>
        </g>
        <g id="Group_5189" data-name="Group 5189" transform="translate(59.371 77.875)">
          <g id="Group_5188" data-name="Group 5188">
            <path id="Path_17728" data-name="Path 17728" d="M503.6,318.4c.022.17,11.213-1.216,24.99-3.1s24.933-3.538,24.91-3.707-11.21,1.216-24.993,3.1S503.571,318.228,503.6,318.4Z" transform="translate(-503.595 -311.58)" fill="#4d4e4e"/>
          </g>
        </g>
        <g id="Group_5191" data-name="Group 5191" transform="translate(72.634 88.141)">
          <g id="Group_5190" data-name="Group 5190">
            <path id="Path_17729" data-name="Path 17729" d="M517.3,329.007c.024.168,11.214-1.216,24.993-3.1s24.932-3.538,24.91-3.707-11.212,1.216-24.993,3.1S517.277,328.841,517.3,329.007Z" transform="translate(-517.303 -322.191)" fill="#4d4e4e"/>
          </g>
        </g>
        <g id="Group_5193" data-name="Group 5193" transform="translate(22.747 55.508)">
          <g id="Group_5192" data-name="Group 5192">
            <path id="Path_17730" data-name="Path 17730" d="M465.742,290.494c.027.168,2.778-.139,6.144-.686s6.071-1.129,6.043-1.3-2.777.139-6.143.688S465.715,290.326,465.742,290.494Z" transform="translate(-465.742 -288.463)" fill="#4d4e4e"/>
          </g>
        </g>
        <g id="Group_5195" data-name="Group 5195" transform="translate(23.183 64.425)">
          <g id="Group_5194" data-name="Group 5194">
            <path id="Path_17731" data-name="Path 17731" d="M466.193,299.709c.027.167,2.778-.14,6.143-.688s6.072-1.128,6.044-1.3-2.777.139-6.143.686S466.166,299.54,466.193,299.709Z" transform="translate(-466.193 -297.678)" fill="#4d4e4e"/>
          </g>
        </g>
        <g id="Group_5197" data-name="Group 5197" transform="translate(26.206 76.745)">
          <g id="Group_5196" data-name="Group 5196">
            <path id="Path_17732" data-name="Path 17732" d="M469.318,312.462c.028.168,2.783-.155,6.153-.714a36.31,36.31,0,0,0,6.034-1.27c.019-.211-2.776.105-6.135.662S469.291,312.293,469.318,312.462Z" transform="translate(-469.318 -310.412)" fill="#4d4e4e"/>
          </g>
        </g>
        <g id="Group_5199" data-name="Group 5199" transform="translate(30.577 87.183)">
          <g id="Group_5198" data-name="Group 5198">
            <path id="Path_17733" data-name="Path 17733" d="M473.835,323.251c.027.168,2.782-.155,6.151-.713a36.434,36.434,0,0,0,6.036-1.272c.017-.211-2.777.105-6.137.662S473.807,323.084,473.835,323.251Z" transform="translate(-473.835 -321.2)" fill="#4d4e4e"/>
          </g>
        </g>
        <g id="Group_5201" data-name="Group 5201" transform="translate(39.973 97.105)">
          <g id="Group_5200" data-name="Group 5200">
            <path id="Path_17734" data-name="Path 17734" d="M483.547,333.507c.028.168,2.783-.155,6.153-.713a36.409,36.409,0,0,0,6.034-1.272c.019-.212-2.776.105-6.135.662S483.519,333.34,483.547,333.507Z" transform="translate(-483.547 -331.456)" fill="#4d4e4e"/>
          </g>
        </g>
        <g id="Group_5203" data-name="Group 5203" transform="translate(83.971 96.888)">
          <g id="Group_5202" data-name="Group 5202">
            <path id="Path_17735" data-name="Path 17735" d="M529.021,341.848c.024.17,16.821-2.068,37.513-5s37.453-5.44,37.429-5.612-16.818,2.068-37.516,5S529,341.679,529.021,341.848Z" transform="translate(-529.021 -331.231)" fill="#4d4e4e"/>
          </g>
        </g>
        <g id="Group_5205" data-name="Group 5205" transform="translate(92.644 105.197)">
          <g id="Group_5204" data-name="Group 5204">
            <path id="Path_17736" data-name="Path 17736" d="M537.985,352.62a4.124,4.124,0,0,0,.83-.067l2.364-.313,8.671-1.258,28.571-4.405c11.155-1.759,21.246-3.386,28.542-4.611l8.635-1.489c1.019-.194,1.806-.334,2.343-.449a4.155,4.155,0,0,0,.8-.209,4.409,4.409,0,0,0-.83.087l-2.358.334-8.665,1.295-28.57,4.433-28.542,4.583L541.14,352l-2.344.427A4.38,4.38,0,0,0,537.985,352.62Z" transform="translate(-537.985 -339.819)" fill="#4d4e4e"/>
          </g>
        </g>
        <g id="Group_5207" data-name="Group 5207" transform="translate(108.322 115.352)">
          <g id="Group_5206" data-name="Group 5206">
            <path id="Path_17737" data-name="Path 17737" d="M554.189,362.569a13.948,13.948,0,0,0,3.086-.272c2.015-.256,4.925-.66,8.514-1.181,7.185-1.042,17.1-2.548,28.044-4.257s20.85-3.306,28.013-4.491l8.476-1.437,2.3-.422a4.1,4.1,0,0,0,.8-.194,4.1,4.1,0,0,0-.815.066l-2.322.308-8.508,1.242-28.039,4.312-28.016,4.438C559.2,361.751,555.706,362.322,554.189,362.569Z" transform="translate(-554.189 -350.314)" fill="#4d4e4e"/>
          </g>
        </g>
        <g id="Group_5209" data-name="Group 5209" transform="translate(55.671 111.222)">
          <g id="Group_5208" data-name="Group 5208">
            <path id="Path_17738" data-name="Path 17738" d="M499.771,348.1c.027.168,2.782-.155,6.151-.713a36.437,36.437,0,0,0,6.035-1.272c.017-.212-2.777.105-6.137.662S499.742,347.93,499.771,348.1Z" transform="translate(-499.771 -346.046)" fill="#4d4e4e"/>
          </g>
        </g>
        <g id="Group_5211" data-name="Group 5211" transform="translate(67.774 117.957)">
          <g id="Group_5210" data-name="Group 5210">
            <path id="Path_17739" data-name="Path 17739" d="M512.28,355.056c.028.168,2.783-.156,6.153-.714a36.424,36.424,0,0,0,6.034-1.269c.019-.211-2.776.105-6.135.662S512.252,354.887,512.28,355.056Z" transform="translate(-512.28 -353.007)" fill="#4d4e4e"/>
          </g>
        </g>
        <g id="Group_5213" data-name="Group 5213" transform="translate(84.066 129.305)">
          <g id="Group_5212" data-name="Group 5212">
            <path id="Path_17740" data-name="Path 17740" d="M529.119,366.786c.028.168,2.783-.156,6.153-.714a36.509,36.509,0,0,0,6.034-1.27c.019-.212-2.776.105-6.135.66S529.091,366.618,529.119,366.786Z" transform="translate(-529.119 -364.736)" fill="#4d4e4e"/>
          </g>
        </g>
        <g id="Group_5215" data-name="Group 5215" transform="translate(115.216 135.005)">
          <g id="Group_5214" data-name="Group 5214">
            <path id="Path_17741" data-name="Path 17741" d="M561.314,384.888c.026.168,20.788-2.886,46.366-6.821s46.3-7.263,46.275-7.434-20.782,2.885-46.37,6.822S561.289,384.718,561.314,384.888Z" transform="translate(-561.314 -370.627)" fill="#4d4e4e"/>
          </g>
        </g>
        <g id="Group_5217" data-name="Group 5217" transform="translate(127.651 166.818)">
          <g id="Group_5216" data-name="Group 5216">
            <path id="Path_17742" data-name="Path 17742" d="M574.166,408.429c.027.168,6.833-.792,15.2-2.146s15.128-2.586,15.1-2.755-6.832.792-15.2,2.145S574.139,408.26,574.166,408.429Z" transform="translate(-574.166 -403.508)" fill="#4d4e4e"/>
          </g>
        </g>
      </g>
    </g>
    <g id="Floor" transform="translate(235.092 748.415)">
      <g id="Group_5220" data-name="Group 5220" transform="translate(0)">
        <g id="Group_5219" data-name="Group 5219">
          <path id="Path_17743" data-name="Path 17743" d="M235.092,766.083c0,.171,114.556.309,255.828.309,141.323,0,255.851-.137,255.851-.309s-114.528-.308-255.851-.308C349.645,765.774,235.092,765.911,235.092,766.083Z" transform="translate(-235.092 -765.774)" fill="#4d4e4e"/>
        </g>
      </g>
    </g>
    <g id="Device" transform="translate(372.71 309.867)">
      <g id="Group_5479" data-name="Group 5479" transform="translate(0)">
        <g id="Group_5385" data-name="Group 5385">
          <g id="Group_5384" data-name="Group 5384">
            <g id="Group_5383" data-name="Group 5383">
              <g id="Group_5382" data-name="Group 5382">
                <g id="Group_5379" data-name="Group 5379">
                  <g id="Group_5378" data-name="Group 5378">
                    <path id="Path_17812" data-name="Path 17812" d="M411.618,752.965l149.444-.691a32.553,32.553,0,0,0,32.4-32.69l-1.588-374.66a32.553,32.553,0,0,0-32.693-32.412h-.01l-149.444.69a32.554,32.554,0,0,0-32.4,32.691l1.588,374.656A32.551,32.551,0,0,0,411.6,752.965Z" transform="translate(-377.328 -312.511)" fill="#030504"/>
                  </g>
                </g>
                <g id="Group_5381" data-name="Group 5381" transform="translate(11.152 10.52)">
                  <g id="Group_5380" data-name="Group 5380">
                    <path id="Path_17813" data-name="Path 17813" d="M411.554,324.072l28.974-.134a7.2,7.2,0,0,1,7.063,7.323l.022,5.256a7.2,7.2,0,0,0,7.063,7.323l56.478-.261a7.2,7.2,0,0,0,7-7.387l-.022-5.256a7.206,7.206,0,0,1,7.005-7.388l10.191-.047,25.359-.116a22.8,22.8,0,0,1,22.9,22.694v.01l1.548,365.694a22.8,22.8,0,0,1-22.694,22.9l-149.146.688a22.8,22.8,0,0,1-22.9-22.693v-.01l-1.548-365.7A22.8,22.8,0,0,1,411.554,324.072Z" transform="translate(-388.854 -323.384)" fill="#fff"/>
                  </g>
                </g>
              </g>
            </g>
          </g>
        </g>
        <g id="Group_5386" data-name="Group 5386" transform="translate(185.971 44.328)">
          <path id="Path_17814" data-name="Path 17814" d="M570.149,364.075a.593.593,0,0,0,.429-.183l2.272-2.373a.592.592,0,0,0,.166-.423.6.6,0,0,0-.183-.417l-2.272-2.172a.594.594,0,0,0-.854.826c.011.01.021.021.033.031l1.843,1.763-1.861,1.943a.594.594,0,0,0,.428,1Z" transform="translate(-569.539 -358.326)" fill="#1c262a"/>
        </g>
        <g id="Group_5442" data-name="Group 5442" transform="translate(43.764 111.192)">
          <g id="Group_5395" data-name="Group 5395" transform="translate(35.801 46.93)">
            <g id="Group_5392" data-name="Group 5392">
              <circle id="Ellipse_398" data-name="Ellipse 398" cx="31.094" cy="31.094" r="31.094" fill="#4ca935"/>
            </g>
            <g id="Group_5394" data-name="Group 5394" transform="translate(17.892 17.964)">
              <g id="Group_5393" data-name="Group 5393">
                <path id="Path_17849" data-name="Path 17849" d="M506.569,494.516c.4.323-5.412,8.135-12.973,17.447l-4.579,5.555-.626.761-.672-.694c-5.9-6.083-9.935-10.6-9.65-10.888s4.8,3.746,10.888,9.65l-1.3.068,4.5-5.622C499.718,501.481,506.172,494.193,506.569,494.516Z" transform="translate(-478.054 -494.505)" fill="#fff"/>
              </g>
            </g>
          </g>
          <g id="Group_5396" data-name="Group 5396" transform="translate(105.9 62.539)">
            <path id="Path_17850" data-name="Path 17850" d="M537.181,495.03c-.923-3.267-5.168-2.95-5.168-2.95l.116,2.272c2.454-.424,3.979,2.453,3.979,2.453Z" transform="translate(-532.013 -492.071)" fill="#ffb300"/>
          </g>
          <g id="Group_5399" data-name="Group 5399" transform="translate(40.715 33.277)">
            <path id="Path_17853" data-name="Path 17853" d="M467.206,461.828c-2.291.244-2.565,3.121-2.565,3.121l1.534.182c0-1.691,2.1-2.382,2.1-2.382Z" transform="translate(-464.641 -461.828)" fill="#ffb300"/>
          </g>
          <g id="Group_5401" data-name="Group 5401" transform="translate(53.709)">
            <path id="Path_17855" data-name="Path 17855" d="M481.013,430.694c.333-2.28-2.387-3.26-2.387-3.26l-.555,1.441c1.638.418,1.787,2.622,1.787,2.622Z" transform="translate(-478.071 -427.434)" fill="#ffb300"/>
          </g>
          <g id="Group_5402" data-name="Group 5402" transform="translate(0 38.541)">
            <path id="Path_17856" data-name="Path 17856" d="M422.585,468.771c-.412,3.575,4.324,4.442,4.324,4.442l.855-2.34c-2.842-.257-3.252-3.6-3.252-3.6Z" transform="translate(-422.56 -467.268)" fill="#ffb300"/>
          </g>
          <g id="Group_5403" data-name="Group 5403" transform="translate(104.541 23.996)">
            <path id="Path_17857" data-name="Path 17857" d="M531.51,455.326c2.3.132,3.037-2.663,3.037-2.663l-1.483-.429c-.272,1.669-2.455,2.011-2.455,2.011Z" transform="translate(-530.609 -452.235)" fill="#ffb300"/>
          </g>
          <g id="Group_5498" data-name="Group 5498" transform="translate(15.835 21.269)">
            <g id="Group_5397" data-name="Group 5397" transform="translate(0 48.12)">
              <path id="Path_17851" data-name="Path 17851" d="M444.093,502.11c-.922-3.267-5.167-2.95-5.167-2.95l.116,2.272c2.454-.423,3.978,2.453,3.978,2.453Z" transform="translate(-438.926 -499.151)" fill="#4b378d"/>
            </g>
            <g id="Group_5398" data-name="Group 5398" transform="translate(53.375)">
              <path id="Path_17852" data-name="Path 17852" d="M495.489,455.311c4.924,1.492,7.988-4.187,7.988-4.187l-3-1.707c-1.466,3.483-6.386,3.076-6.386,3.076Z" transform="translate(-494.092 -449.417)" fill="#4b378d"/>
            </g>
            <g id="Group_5400" data-name="Group 5400" transform="translate(118.964 29.788)">
              <path id="Path_17854" data-name="Path 17854" d="M564.825,483.463c.333-2.28-2.386-3.259-2.386-3.259l-.557,1.441c1.639.417,1.787,2.622,1.787,2.622Z" transform="translate(-561.882 -480.204)" fill="#4b378d"/>
            </g>
            <g id="Group_5422" data-name="Group 5422" transform="translate(98.378 10.032)">
              <g id="Group_5408" data-name="Group 5408">
                <g id="Group_5405" data-name="Group 5405" transform="translate(0 4.979)">
                  <g id="Group_5404" data-name="Group 5404">
                    <path id="Path_17858" data-name="Path 17858" d="M544.4,465.117a9.769,9.769,0,0,1-3.8,0A9.845,9.845,0,0,1,544.4,465.117Z" transform="translate(-540.605 -464.932)" fill="#4b378d"/>
                  </g>
                </g>
                <g id="Group_5407" data-name="Group 5407" transform="translate(5.632)">
                  <g id="Group_5406" data-name="Group 5406">
                    <path id="Path_17859" data-name="Path 17859" d="M546.612,459.786a10.131,10.131,0,0,1,0,3.856A10.106,10.106,0,0,1,546.612,459.786Z" transform="translate(-546.426 -459.786)" fill="#4b378d"/>
                  </g>
                </g>
              </g>
              <g id="Group_5413" data-name="Group 5413" transform="translate(5.761 4.86)">
                <g id="Group_5410" data-name="Group 5410" transform="translate(2.205)">
                  <g id="Group_5409" data-name="Group 5409">
                    <path id="Path_17860" data-name="Path 17860" d="M548.838,464.994a9.846,9.846,0,0,1,3.8,0A9.806,9.806,0,0,1,548.838,464.994Z" transform="translate(-548.838 -464.809)" fill="#4b378d"/>
                  </g>
                </g>
                <g id="Group_5412" data-name="Group 5412" transform="translate(0 1.497)">
                  <g id="Group_5411" data-name="Group 5411">
                    <path id="Path_17861" data-name="Path 17861" d="M546.745,470.211a10.094,10.094,0,0,1,0-3.855A10.133,10.133,0,0,1,546.745,470.211Z" transform="translate(-546.559 -466.356)" fill="#4b378d"/>
                  </g>
                </g>
              </g>
              <g id="Group_5415" data-name="Group 5415" transform="translate(7.653 6.369)">
                <g id="Group_5414" data-name="Group 5414">
                  <path id="Path_17862" data-name="Path 17862" d="M549.881,468c-.079.066-.445-.244-.818-.69s-.612-.862-.533-.928.445.244.819.69S549.96,467.93,549.881,468Z" transform="translate(-548.515 -466.369)" fill="#4b378d"/>
                </g>
              </g>
              <g id="Group_5417" data-name="Group 5417" transform="translate(7.425 2.122)">
                <g id="Group_5416" data-name="Group 5416">
                  <path id="Path_17863" data-name="Path 17863" d="M549.695,461.992c.073.072-.182.447-.569.837s-.76.648-.834.581.183-.448.57-.839S549.624,461.919,549.695,461.992Z" transform="translate(-548.279 -461.979)" fill="#4b378d"/>
                </g>
              </g>
              <g id="Group_5419" data-name="Group 5419" transform="translate(3.141 2.497)">
                <g id="Group_5418" data-name="Group 5418">
                  <path id="Path_17864" data-name="Path 17864" d="M545.2,463.5c-.067.078-.418-.106-.786-.413s-.615-.62-.55-.7.418.105.787.413S545.263,463.418,545.2,463.5Z" transform="translate(-543.851 -462.367)" fill="#4b378d"/>
                </g>
              </g>
              <g id="Group_5421" data-name="Group 5421" transform="translate(3.027 6.199)">
                <g id="Group_5420" data-name="Group 5420">
                  <path id="Path_17865" data-name="Path 17865" d="M545.023,466.2c.077.07-.148.438-.5.824s-.7.642-.774.574.147-.438.5-.824S544.946,466.135,545.023,466.2Z" transform="translate(-543.734 -466.192)" fill="#4b378d"/>
                </g>
              </g>
            </g>
          </g>
          <g id="Group_5441" data-name="Group 5441" transform="translate(10.751 20.711)">
            <g id="Group_5427" data-name="Group 5427">
              <g id="Group_5424" data-name="Group 5424" transform="translate(0 4.985)">
                <g id="Group_5423" data-name="Group 5423">
                  <path id="Path_17866" data-name="Path 17866" d="M437.471,454.177a9.771,9.771,0,0,1-3.8,0A9.84,9.84,0,0,1,437.471,454.177Z" transform="translate(-433.671 -453.992)" fill="#ffb300"/>
                </g>
              </g>
              <g id="Group_5426" data-name="Group 5426" transform="translate(5.63)">
                <g id="Group_5425" data-name="Group 5425">
                  <path id="Path_17867" data-name="Path 17867" d="M439.676,448.84a10.09,10.09,0,0,1,0,3.855A10.091,10.091,0,0,1,439.676,448.84Z" transform="translate(-439.49 -448.84)" fill="#ffb300"/>
                </g>
              </g>
            </g>
            <g id="Group_5432" data-name="Group 5432" transform="translate(5.762 4.862)">
              <g id="Group_5429" data-name="Group 5429" transform="translate(2.204)">
                <g id="Group_5428" data-name="Group 5428">
                  <path id="Path_17868" data-name="Path 17868" d="M441.9,454.05a9.84,9.84,0,0,1,3.8,0A9.807,9.807,0,0,1,441.9,454.05Z" transform="translate(-441.904 -453.865)" fill="#ffb300"/>
                </g>
              </g>
              <g id="Group_5431" data-name="Group 5431" transform="translate(0 1.498)">
                <g id="Group_5430" data-name="Group 5430">
                  <path id="Path_17869" data-name="Path 17869" d="M439.812,459.268a10.09,10.09,0,0,1,0-3.855A10.131,10.131,0,0,1,439.812,459.268Z" transform="translate(-439.626 -455.413)" fill="#ffb300"/>
                </g>
              </g>
            </g>
            <g id="Group_5434" data-name="Group 5434" transform="translate(7.655 6.372)">
              <g id="Group_5433" data-name="Group 5433">
                <path id="Path_17870" data-name="Path 17870" d="M442.948,457.052c-.078.066-.444-.244-.818-.69s-.612-.862-.533-.928.444.244.819.69S443.025,456.987,442.948,457.052Z" transform="translate(-441.583 -455.426)" fill="#ffb300"/>
              </g>
            </g>
            <g id="Group_5436" data-name="Group 5436" transform="translate(7.426 2.123)">
              <g id="Group_5435" data-name="Group 5435">
                <path id="Path_17871" data-name="Path 17871" d="M442.761,451.046c.073.072-.183.447-.57.837s-.761.648-.832.58.182-.448.569-.839S442.687,450.976,442.761,451.046Z" transform="translate(-441.347 -451.034)" fill="#ffb300"/>
              </g>
            </g>
            <g id="Group_5438" data-name="Group 5438" transform="translate(3.141 2.501)">
              <g id="Group_5437" data-name="Group 5437">
                <path id="Path_17872" data-name="Path 17872" d="M438.263,452.555c-.066.078-.417-.106-.787-.413s-.614-.619-.548-.7.418.106.786.413S438.328,452.476,438.263,452.555Z" transform="translate(-436.917 -451.425)" fill="#ffb300"/>
              </g>
            </g>
            <g id="Group_5440" data-name="Group 5440" transform="translate(3.027 6.201)">
              <g id="Group_5439" data-name="Group 5439">
                <path id="Path_17873" data-name="Path 17873" d="M438.088,455.261c.076.07-.147.438-.5.824s-.7.642-.774.574.148-.438.5-.824S438.012,455.192,438.088,455.261Z" transform="translate(-436.8 -455.249)" fill="#ffb300"/>
              </g>
            </g>
          </g>
        </g>
        <g id="Group_5449" data-name="Group 5449" transform="translate(27.228 43.408)">
          <g id="Group_5444" data-name="Group 5444">
            <g id="Group_5443" data-name="Group 5443">
              <path id="Path_17874" data-name="Path 17874" d="M405.469,357.685c0,.171,3.757.309,8.388.309s8.388-.137,8.388-.309-3.754-.31-8.388-.31S405.469,357.514,405.469,357.685Z" transform="translate(-405.469 -357.375)" fill="#030504"/>
            </g>
          </g>
          <g id="Group_5446" data-name="Group 5446" transform="translate(0 3.496)">
            <g id="Group_5445" data-name="Group 5445">
              <path id="Path_17875" data-name="Path 17875" d="M405.469,361.3c0,.171,3.757.31,8.388.31s8.388-.139,8.388-.31-3.754-.309-8.388-.309S405.469,361.127,405.469,361.3Z" transform="translate(-405.469 -360.988)" fill="#030504"/>
            </g>
          </g>
          <g id="Group_5448" data-name="Group 5448" transform="translate(0 6.99)">
            <g id="Group_5447" data-name="Group 5447">
              <path id="Path_17876" data-name="Path 17876" d="M405.469,364.909c0,.171,3.757.31,8.388.31s8.388-.139,8.388-.31-3.754-.309-8.388-.309S405.469,364.737,405.469,364.909Z" transform="translate(-405.469 -364.6)" fill="#030504"/>
            </g>
          </g>
        </g>
      </g>
    </g>
    <g id="Plant" transform="translate(257.302 670.342)">
      <g id="Group_5495" data-name="Group 5495" transform="translate(0)">
        <g id="Group_5481" data-name="Group 5481" transform="translate(19.908)">
          <g id="Group_5480" data-name="Group 5480">
            <path id="Path_17891" data-name="Path 17891" d="M287.532,685.148a14.733,14.733,0,0,0-7.635,8.647,26,26,0,0,0-1.013,11.714c.861,7.6,5.18,15.274,9.831,21.35,6.4-5.587,7.873-15.332,8.31-20.323.69-7.887-2.852-22.563-9.494-21.387" transform="translate(-278.623 -685.081)" fill="#ffb700"/>
          </g>
        </g>
        <g id="Group_5483" data-name="Group 5483" transform="translate(0 38.456)">
          <g id="Group_5482" data-name="Group 5482">
            <path id="Path_17892" data-name="Path 17892" d="M280.606,740.694a12.574,12.574,0,0,0-4.064-11.948,16.7,16.7,0,0,0-12.309-3.844c-2.037.156-4.237.75-5.4,2.426a5.373,5.373,0,0,0-.083,5.446,10.882,10.882,0,0,0,4.032,3.967c5.546,3.483,11.552,5.831,17.824,3.948" transform="translate(-258.047 -724.828)" fill="#ffb700"/>
          </g>
        </g>
        <g id="Group_5486" data-name="Group 5486" transform="translate(10.245 45.991)">
          <g id="Group_5485" data-name="Group 5485">
            <g id="Group_5484" data-name="Group 5484">
              <path id="Path_17893" data-name="Path 17893" d="M289.158,764.255a9.043,9.043,0,0,0-.229-1.56c-.2-1.1-.461-2.516-.774-4.222-.708-3.528-1.617-8.581-4.354-13.485a27.011,27.011,0,0,0-9.675-10.284,18.4,18.4,0,0,0-3.947-1.742,11.588,11.588,0,0,0-1.137-.29,1.159,1.159,0,0,0-.406-.056,28.719,28.719,0,0,1,5.287,2.427,27.887,27.887,0,0,1,9.4,10.217c2.688,4.8,3.652,9.786,4.456,13.3.387,1.769.7,3.2.948,4.187A8.136,8.136,0,0,0,289.158,764.255Z" transform="translate(-268.636 -732.615)" fill="#1c262a"/>
            </g>
          </g>
        </g>
        <g id="Group_5489" data-name="Group 5489" transform="translate(29.724 11.481)">
          <g id="Group_5488" data-name="Group 5488">
            <g id="Group_5487" data-name="Group 5487">
              <path id="Path_17894" data-name="Path 17894" d="M289.572,696.947a3.076,3.076,0,0,0-.078.677c-.031.506-.069,1.155-.116,1.958-.092,1.7-.194,4.166-.29,7.211-.194,6.091-.351,14.513-.312,23.809s.27,17.719.519,23.809c.125,3.044.246,5.507.351,7.208.054.8.1,1.451.133,1.958.037.448-.019,0,0,0-.084-.678.113.444.111,0q-.01-.76-.028-1.962c-.043-1.771-.1-4.218-.176-7.211-.15-6.089-.314-14.5-.356-23.8s.053-17.706.15-23.8c.047-2.995.085-5.44.113-7.214.006-.805.01-1.451.013-1.962A3.314,3.314,0,0,0,289.572,696.947Z" transform="translate(-288.769 -696.947)" fill="#1c262a"/>
            </g>
          </g>
        </g>
        <g id="Group_5491" data-name="Group 5491" transform="translate(33.63 36.362)">
          <g id="Group_5490" data-name="Group 5490">
            <path id="Path_17895" data-name="Path 17895" d="M292.806,745.251a29.4,29.4,0,0,1,16.061-21.536c2.139-1.023,4.934-1.693,6.691-.1s1.366,4.451.505,6.667a25.119,25.119,0,0,1-23.1,15.6" transform="translate(-292.806 -722.663)" fill="#ffb700"/>
          </g>
        </g>
        <g id="Group_5494" data-name="Group 5494" transform="translate(30.439 44.625)">
          <g id="Group_5493" data-name="Group 5493">
            <g id="Group_5492" data-name="Group 5492">
              <path id="Path_17896" data-name="Path 17896" d="M307.719,731.2a7.567,7.567,0,0,0-1.355.591,14.815,14.815,0,0,0-1.534.818c-.575.36-1.269.71-1.953,1.226a25.9,25.9,0,0,0-2.235,1.683,28.808,28.808,0,0,0-2.38,2.161,32.7,32.7,0,0,0-4.52,5.805,32.009,32.009,0,0,0-2.979,6.734,27.8,27.8,0,0,0-.752,3.127,23.526,23.526,0,0,0-.387,2.773,21.551,21.551,0,0,0-.106,2.3,13.079,13.079,0,0,0,.052,1.741,7.46,7.46,0,0,0,.163,1.473c.125,0-.1-2.114.281-5.476a25.186,25.186,0,0,1,.445-2.724,29.15,29.15,0,0,1,.789-3.065,33.343,33.343,0,0,1,2.966-6.6,34.057,34.057,0,0,1,4.411-5.737,30.376,30.376,0,0,1,2.31-2.166,27.531,27.531,0,0,1,2.165-1.714C305.847,732.188,307.775,731.31,307.719,731.2Z" transform="translate(-289.508 -731.204)" fill="#1c262a"/>
            </g>
          </g>
        </g>
      </g>
    </g>
    <g id="Payment_Successful" data-name="Payment Successful" transform="translate(412.501 559.715)" style="isolation: isolate">
      <g id="Group_5503" data-name="Group 5503" transform="translate(14.792 0)" style="isolation: isolate">
        <path id="Path_17933" data-name="Path 17933" d="M433.742,589.976V570.742h8.072a5.343,5.343,0,0,1,2.4.542,6.155,6.155,0,0,1,1.883,1.422,6.7,6.7,0,0,1,1.234,2,6.167,6.167,0,0,1,.447,2.289,6.653,6.653,0,0,1-.42,2.343,6.555,6.555,0,0,1-1.179,2,5.729,5.729,0,0,1-1.828,1.409,5.286,5.286,0,0,1-2.372.528h-5.2v6.691Zm3.033-9.373h5.013a2.534,2.534,0,0,0,1.178-.271,2.684,2.684,0,0,0,.907-.759,3.784,3.784,0,0,0,.6-1.138,4.522,4.522,0,0,0,.216-1.436,4.143,4.143,0,0,0-.244-1.463,3.441,3.441,0,0,0-.676-1.124,3.128,3.128,0,0,0-.989-.732,2.72,2.72,0,0,0-1.151-.257h-4.85Z" transform="translate(-433.742 -570.742)" fill="#1b1b1b"/>
        <path id="Path_17934" data-name="Path 17934" d="M454.384,590.409a5.282,5.282,0,0,1-1.91-.339,4.6,4.6,0,0,1-1.517-.935,4.345,4.345,0,0,1-1-1.409,4.239,4.239,0,0,1-.366-1.76,3.8,3.8,0,0,1,.433-1.816,4.221,4.221,0,0,1,1.233-1.408,5.955,5.955,0,0,1,1.9-.922,8.51,8.51,0,0,1,2.425-.325,11.125,11.125,0,0,1,1.978.176,10.023,10.023,0,0,1,1.761.474v-.975a3.285,3.285,0,0,0-.894-2.452,3.519,3.519,0,0,0-2.574-.88,6.21,6.21,0,0,0-2.235.42,11.346,11.346,0,0,0-2.262,1.205l-.921-1.9a10.047,10.047,0,0,1,5.689-1.842,6.487,6.487,0,0,1,4.551,1.49,5.517,5.517,0,0,1,1.625,4.28v5.12q0,.949.786.975v2.547c-.289.054-.537.09-.745.109s-.411.027-.609.027a1.916,1.916,0,0,1-1.341-.433,1.852,1.852,0,0,1-.583-1.111l-.081-.894a6.3,6.3,0,0,1-2.343,1.91A6.885,6.885,0,0,1,454.384,590.409Zm.813-2.194a5.37,5.37,0,0,0,2.045-.392,3.522,3.522,0,0,0,1.5-1.1,1.375,1.375,0,0,0,.569-1.03v-1.869a9.037,9.037,0,0,0-1.612-.461,8.9,8.9,0,0,0-1.666-.162,4.556,4.556,0,0,0-2.614.691,2.118,2.118,0,0,0-1.016,1.829,2.306,2.306,0,0,0,.786,1.774A2.855,2.855,0,0,0,455.2,588.215Z" transform="translate(-434.257 -570.904)" fill="#1b1b1b"/>
        <path id="Path_17935" data-name="Path 17935" d="M466.518,593.479c.271.054.537.1.8.135a4.919,4.919,0,0,0,.637.054,1.205,1.205,0,0,0,.61-.149,1.84,1.84,0,0,0,.528-.527,5.528,5.528,0,0,0,.555-1.071q.284-.691.664-1.774l-5.825-14.168h3.061l4.389,11.54,3.9-11.54h2.818l-6.421,17.445a4.271,4.271,0,0,1-4.253,2.873,6.149,6.149,0,0,1-.677-.041,4.317,4.317,0,0,1-.786-.177Z" transform="translate(-434.74 -570.912)" fill="#1b1b1b"/>
        <path id="Path_17936" data-name="Path 17936" d="M503.071,590.138H500.09V582.2a5.1,5.1,0,0,0-.65-2.9,2.177,2.177,0,0,0-1.9-.921,3.388,3.388,0,0,0-2.316.935,5.266,5.266,0,0,0-1.5,2.424v8.4h-2.98V582.2a5.088,5.088,0,0,0-.65-2.912,2.16,2.16,0,0,0-1.869-.907,3.471,3.471,0,0,0-2.33.921,5.116,5.116,0,0,0-1.516,2.411v8.425H481.4V575.971h2.709v2.844a6,6,0,0,1,2.208-2.289,6.1,6.1,0,0,1,3.129-.8,3.79,3.79,0,0,1,4.037,3.224,6.493,6.493,0,0,1,2.249-2.4,5.819,5.819,0,0,1,3.088-.826,4.127,4.127,0,0,1,2.073.474,3.674,3.674,0,0,1,1.313,1.261,5.2,5.2,0,0,1,.678,1.828,12.405,12.405,0,0,1,.19,2.208Z" transform="translate(-435.289 -570.904)" fill="#1b1b1b"/>
        <path id="Path_17937" data-name="Path 17937" d="M513.743,590.409a7.534,7.534,0,0,1-3.006-.583,7,7,0,0,1-2.317-1.585,7.161,7.161,0,0,1-1.49-2.33,7.565,7.565,0,0,1-.528-2.817,7.673,7.673,0,0,1,.528-2.831,7.3,7.3,0,0,1,1.49-2.357,6.9,6.9,0,0,1,2.317-1.6,7.606,7.606,0,0,1,3.034-.582,7.3,7.3,0,0,1,2.993.6,7.183,7.183,0,0,1,2.29,1.585,6.8,6.8,0,0,1,1.449,2.3,7.66,7.66,0,0,1,.5,2.75q0,.325-.026.61t-.055.474h-11.35a4.829,4.829,0,0,0,.447,1.707,4.492,4.492,0,0,0,.947,1.314,4.161,4.161,0,0,0,2.886,1.151,4.708,4.708,0,0,0,1.177-.149,4.1,4.1,0,0,0,1.071-.433,3.785,3.785,0,0,0,.866-.691,3.214,3.214,0,0,0,.6-.893l2.547.73a5.907,5.907,0,0,1-2.425,2.615A7.521,7.521,0,0,1,513.743,590.409Zm4.307-8.425a4.748,4.748,0,0,0-.447-1.653,4.27,4.27,0,0,0-.934-1.287,4.189,4.189,0,0,0-1.327-.826,4.345,4.345,0,0,0-1.6-.3,4.242,4.242,0,0,0-2.9,1.124,4.093,4.093,0,0,0-.92,1.287,4.933,4.933,0,0,0-.433,1.653Z" transform="translate(-436.101 -570.904)" fill="#1b1b1b"/>
        <path id="Path_17938" data-name="Path 17938" d="M536.719,590.138h-2.981V582.2a5.183,5.183,0,0,0-.636-2.912,2.154,2.154,0,0,0-1.883-.907,3.675,3.675,0,0,0-1.3.244,4.546,4.546,0,0,0-1.22.692,5.364,5.364,0,0,0-1.015,1.056,4.836,4.836,0,0,0-.691,1.341v8.425h-2.98V575.971h2.708v2.844a5.765,5.765,0,0,1,2.358-2.262,7.122,7.122,0,0,1,3.413-.826,4.2,4.2,0,0,1,2.087.461,3.458,3.458,0,0,1,1.287,1.26,5.536,5.536,0,0,1,.664,1.842,12.411,12.411,0,0,1,.19,2.208Z" transform="translate(-436.673 -570.904)" fill="#1b1b1b"/>
        <path id="Path_17939" data-name="Path 17939" d="M548.434,589.259a14.761,14.761,0,0,1-1.571.609,6.65,6.65,0,0,1-2.14.339,4.56,4.56,0,0,1-1.328-.19,3.268,3.268,0,0,1-1.1-.568,2.594,2.594,0,0,1-.745-.99,3.619,3.619,0,0,1-.271-1.476v-8.859h-1.869v-2.3h1.869v-4.661h2.98v4.661h3.089v2.3h-3.089v7.911a1.467,1.467,0,0,0,.474,1.1,1.609,1.609,0,0,0,1.043.34,3.33,3.33,0,0,0,1.192-.218q.569-.216.84-.352Z" transform="translate(-437.173 -570.756)" fill="#1b1b1b"/>
      </g>
      <g id="Group_5504" data-name="Group 5504" transform="translate(0 31.116)" style="isolation: isolate">
        <path id="Path_17940" data-name="Path 17940" d="M431.3,608.262a4.234,4.234,0,0,0-.786-.637,7.838,7.838,0,0,0-1.206-.636,8.687,8.687,0,0,0-1.516-.489,7.591,7.591,0,0,0-1.693-.19,4.613,4.613,0,0,0-2.831.7,2.331,2.331,0,0,0-.908,1.951,2.1,2.1,0,0,0,.285,1.152,2.433,2.433,0,0,0,.88.785,6.856,6.856,0,0,0,1.49.6q.9.257,2.087.555a24.1,24.1,0,0,1,2.641.786,7.546,7.546,0,0,1,1.991,1.057,4.328,4.328,0,0,1,1.26,1.531,4.96,4.96,0,0,1,.446,2.208,5.356,5.356,0,0,1-.554,2.519,4.727,4.727,0,0,1-1.518,1.72,6.691,6.691,0,0,1-2.235.975,11.505,11.505,0,0,1-2.735.312,13.646,13.646,0,0,1-4.241-.664,12.127,12.127,0,0,1-3.7-1.937l1.381-2.6a6.4,6.4,0,0,0,1.017.785,9.421,9.421,0,0,0,1.543.8,13.518,13.518,0,0,0,1.91.623,8.811,8.811,0,0,0,2.14.257,5.139,5.139,0,0,0,2.764-.623,2.046,2.046,0,0,0,.975-1.842,1.977,1.977,0,0,0-.366-1.219,3.143,3.143,0,0,0-1.043-.853,9.1,9.1,0,0,0-1.653-.664q-.975-.3-2.222-.623a23.11,23.11,0,0,1-2.507-.8,6.321,6.321,0,0,1-1.774-1.017,3.985,3.985,0,0,1-1.07-1.4,4.633,4.633,0,0,1-.366-1.937,5.572,5.572,0,0,1,.543-2.505,5.351,5.351,0,0,1,1.476-1.843,6.469,6.469,0,0,1,2.209-1.124,9.617,9.617,0,0,1,2.763-.378,10.122,10.122,0,0,1,3.6.622,12,12,0,0,1,2.9,1.544Z" transform="translate(-418.454 -602.925)" fill="#1b1b1b"/>
        <path id="Path_17941" data-name="Path 17941" d="M441.038,623.417a4.011,4.011,0,0,1-3.359-1.449,6.919,6.919,0,0,1-1.137-4.321v-8.668h2.98v8.072q0,3.82,2.708,3.821a4.172,4.172,0,0,0,2.412-.787,5.035,5.035,0,0,0,1.76-2.276v-8.831h2.98v10.646a1.167,1.167,0,0,0,.177.732.844.844,0,0,0,.636.244v2.547q-.46.081-.757.108c-.2.018-.389.027-.569.027a2.168,2.168,0,0,1-1.382-.447,1.476,1.476,0,0,1-.6-1.151l-.053-1.409a6.326,6.326,0,0,1-2.466,2.343A7.044,7.044,0,0,1,441.038,623.417Z" transform="translate(-419.041 -603.099)" fill="#1b1b1b"/>
        <path id="Path_17942" data-name="Path 17942" d="M452.781,616.041a7.722,7.722,0,0,1,.515-2.818,6.9,6.9,0,0,1,3.793-3.915,7.611,7.611,0,0,1,3.034-.583,7.153,7.153,0,0,1,3.779.962,6.1,6.1,0,0,1,2.37,2.56l-2.9.921a3.728,3.728,0,0,0-1.382-1.4,3.777,3.777,0,0,0-1.924-.5,3.961,3.961,0,0,0-1.666.352,4.028,4.028,0,0,0-1.341.989,4.721,4.721,0,0,0-.894,1.5,5.444,5.444,0,0,0-.325,1.924,5.279,5.279,0,0,0,.339,1.91,4.894,4.894,0,0,0,.921,1.531,4.237,4.237,0,0,0,1.355,1.016,3.768,3.768,0,0,0,1.639.367,4.059,4.059,0,0,0,1.084-.15,3.855,3.855,0,0,0,.989-.42,3.808,3.808,0,0,0,.786-.623,2.358,2.358,0,0,0,.5-.758l2.926.867a5.793,5.793,0,0,1-2.357,2.615,7.31,7.31,0,0,1-3.9,1.015,7.4,7.4,0,0,1-3.007-.6A7.065,7.065,0,0,1,454.8,621.2a7.311,7.311,0,0,1-1.49-2.343A7.548,7.548,0,0,1,452.781,616.041Z" transform="translate(-419.568 -603.091)" fill="#1b1b1b"/>
        <path id="Path_17943" data-name="Path 17943" d="M468.293,616.041a7.723,7.723,0,0,1,.516-2.818,6.9,6.9,0,0,1,3.793-3.915,7.607,7.607,0,0,1,3.033-.583,7.156,7.156,0,0,1,3.78.962,6.1,6.1,0,0,1,2.369,2.56l-2.9.921a3.731,3.731,0,0,0-1.383-1.4,3.775,3.775,0,0,0-1.922-.5,3.954,3.954,0,0,0-1.666.352,4.021,4.021,0,0,0-1.342.989,4.757,4.757,0,0,0-.894,1.5,5.447,5.447,0,0,0-.324,1.924,5.258,5.258,0,0,0,.339,1.91,4.888,4.888,0,0,0,.92,1.531,4.242,4.242,0,0,0,1.355,1.016,3.763,3.763,0,0,0,1.639.367,4.06,4.06,0,0,0,1.084-.15,3.873,3.873,0,0,0,1.775-1.043,2.375,2.375,0,0,0,.5-.758l2.926.867a5.8,5.8,0,0,1-2.357,2.615,7.313,7.313,0,0,1-3.9,1.015,7.4,7.4,0,0,1-3.007-.6,7.062,7.062,0,0,1-2.316-1.612,7.325,7.325,0,0,1-1.49-2.343A7.567,7.567,0,0,1,468.293,616.041Z" transform="translate(-420.072 -603.091)" fill="#1b1b1b"/>
        <path id="Path_17944" data-name="Path 17944" d="M491.147,623.409a7.538,7.538,0,0,1-3.007-.582,7.009,7.009,0,0,1-2.316-1.585,7.152,7.152,0,0,1-1.49-2.33,7.549,7.549,0,0,1-.528-2.818,7.655,7.655,0,0,1,.528-2.831,7.279,7.279,0,0,1,1.49-2.357,6.9,6.9,0,0,1,2.316-1.6,7.611,7.611,0,0,1,3.034-.583,7.3,7.3,0,0,1,2.994.6,7.164,7.164,0,0,1,2.289,1.585,6.792,6.792,0,0,1,1.449,2.3,7.638,7.638,0,0,1,.5,2.75q0,.325-.027.609c-.017.19-.036.347-.054.474H486.975a4.848,4.848,0,0,0,.447,1.707,4.5,4.5,0,0,0,.948,1.314,4.1,4.1,0,0,0,1.327.853,4.162,4.162,0,0,0,1.558.3,4.717,4.717,0,0,0,1.178-.149,4.086,4.086,0,0,0,1.07-.434,3.807,3.807,0,0,0,.867-.691,3.253,3.253,0,0,0,.6-.893l2.547.73a5.907,5.907,0,0,1-2.425,2.615A7.523,7.523,0,0,1,491.147,623.409Zm4.307-8.425a4.768,4.768,0,0,0-.447-1.653,4.28,4.28,0,0,0-.935-1.287,4.189,4.189,0,0,0-1.327-.826,4.333,4.333,0,0,0-1.6-.3,4.241,4.241,0,0,0-2.9,1.124,4.085,4.085,0,0,0-.921,1.287,4.953,4.953,0,0,0-.433,1.653Z" transform="translate(-420.576 -603.091)" fill="#1b1b1b"/>
        <path id="Path_17945" data-name="Path 17945" d="M506.524,623.409a10.865,10.865,0,0,1-3.4-.555,8.635,8.635,0,0,1-2.912-1.585l1.192-1.9a10.934,10.934,0,0,0,2.519,1.4,7.1,7.1,0,0,0,2.547.474,3.748,3.748,0,0,0,2.1-.515,1.657,1.657,0,0,0,.77-1.463,1.354,1.354,0,0,0-.866-1.3,17.452,17.452,0,0,0-2.709-.894q-1.328-.352-2.275-.677a5.821,5.821,0,0,1-1.545-.759,2.656,2.656,0,0,1-.867-1,3.192,3.192,0,0,1-.271-1.382,4.236,4.236,0,0,1,.42-1.923,4.14,4.14,0,0,1,1.165-1.422,5.211,5.211,0,0,1,1.747-.88,7.582,7.582,0,0,1,2.167-.3,8.916,8.916,0,0,1,2.98.488,7.74,7.74,0,0,1,2.465,1.41l-1.274,1.787a6.641,6.641,0,0,0-4.2-1.571,3.583,3.583,0,0,0-1.909.474,1.635,1.635,0,0,0-.772,1.5,1.521,1.521,0,0,0,.162.732,1.367,1.367,0,0,0,.528.515,4.313,4.313,0,0,0,.947.393c.39.118.872.249,1.449.393q1.438.352,2.48.7a6.781,6.781,0,0,1,1.719.826,3.074,3.074,0,0,1,1,1.111,3.333,3.333,0,0,1,.325,1.531,3.833,3.833,0,0,1-1.531,3.21A6.658,6.658,0,0,1,506.524,623.409Z" transform="translate(-421.108 -603.091)" fill="#1b1b1b"/>
        <path id="Path_17946" data-name="Path 17946" d="M520.413,623.409a10.877,10.877,0,0,1-3.4-.555,8.613,8.613,0,0,1-2.911-1.585l1.191-1.9a10.98,10.98,0,0,0,2.52,1.4,7.1,7.1,0,0,0,2.546.474,3.739,3.739,0,0,0,2.1-.515,1.656,1.656,0,0,0,.773-1.463,1.355,1.355,0,0,0-.867-1.3,17.516,17.516,0,0,0-2.71-.894q-1.326-.352-2.276-.677a5.837,5.837,0,0,1-1.543-.759,2.677,2.677,0,0,1-.868-1,3.206,3.206,0,0,1-.27-1.382,4.248,4.248,0,0,1,.419-1.923,4.138,4.138,0,0,1,1.165-1.422,5.22,5.22,0,0,1,1.747-.88,7.6,7.6,0,0,1,2.168-.3,8.912,8.912,0,0,1,2.98.488,7.743,7.743,0,0,1,2.465,1.41l-1.272,1.787a6.649,6.649,0,0,0-4.2-1.571,3.587,3.587,0,0,0-1.911.474,1.636,1.636,0,0,0-.771,1.5,1.5,1.5,0,0,0,.163.732,1.369,1.369,0,0,0,.527.515,4.29,4.29,0,0,0,.949.393q.58.177,1.449.393,1.434.352,2.478.7a6.814,6.814,0,0,1,1.721.826,3.069,3.069,0,0,1,1,1.111,3.321,3.321,0,0,1,.325,1.531,3.833,3.833,0,0,1-1.531,3.21A6.652,6.652,0,0,1,520.413,623.409Z" transform="translate(-421.559 -603.091)" fill="#1b1b1b"/>
        <path id="Path_17947" data-name="Path 17947" d="M529.968,622.949V611.435h-1.9v-2.3h1.9v-.569a6.433,6.433,0,0,1,1.22-4.145,4.015,4.015,0,0,1,3.3-1.517,6.421,6.421,0,0,1,1.708.23,7.731,7.731,0,0,1,1.6.637l-.65,2.221a4.1,4.1,0,0,0-.962-.406,3.835,3.835,0,0,0-1.07-.163,1.851,1.851,0,0,0-1.612.786,3.918,3.918,0,0,0-.555,2.276v.65h3.63v2.3h-3.63v11.514Z" transform="translate(-422.013 -602.902)" fill="#1b1b1b"/>
        <path id="Path_17948" data-name="Path 17948" d="M543.517,623.417a4.012,4.012,0,0,1-3.36-1.449,6.92,6.92,0,0,1-1.137-4.321v-8.668H542v8.072q0,3.82,2.708,3.821a4.172,4.172,0,0,0,2.412-.787,5.035,5.035,0,0,0,1.76-2.276v-8.831h2.98v10.646a1.168,1.168,0,0,0,.177.732.845.845,0,0,0,.636.244v2.547q-.46.081-.757.108c-.2.018-.39.027-.569.027a2.166,2.166,0,0,1-1.382-.447,1.475,1.475,0,0,1-.6-1.151l-.053-1.409a6.333,6.333,0,0,1-2.466,2.343A7.043,7.043,0,0,1,543.517,623.417Z" transform="translate(-422.368 -603.099)" fill="#1b1b1b"/>
        <path id="Path_17949" data-name="Path 17949" d="M556.24,603.182h2.98v15.687a1.764,1.764,0,0,0,.406,1.232,1.46,1.46,0,0,0,1.138.447,2.667,2.667,0,0,0,.691-.107c.261-.074.509-.155.745-.245l.433,2.33a6.908,6.908,0,0,1-1.544.474,8.4,8.4,0,0,1-1.6.176,3.278,3.278,0,0,1-2.4-.839,3.2,3.2,0,0,1-.852-2.385Z" transform="translate(-422.927 -602.911)" fill="#1b1b1b"/>
      </g>
    </g>
    <g id="Group_5501" data-name="Group 5501" transform="translate(545.349 333.814)">
      <path id="Path_17913" data-name="Path 17913" d="M632.039,405.893s6.7,11.03-5.893,17.983c0,0,9.675,3.49,13.047,2.173a7.319,7.319,0,0,1-1.471,1.187s9.095,2.888,13.628,1.311,14.3-45.61-12.548-47.934c0,0-21.174-7.581-25.65,16.048S600.52,418,600.52,418a12.754,12.754,0,0,0,3.073,1.978s1.759-.113,2.3-.841a5.221,5.221,0,0,1-1.2,1.486s8.585,3.246,13.843,1.416S631.955,411,632.039,405.893Z" transform="translate(-557.213 -338.631)" fill="#030504"/>
      <path id="Path_17914" data-name="Path 17914" d="M605.243,765.462h34.251s.821-5.219-.968-9.179c-1.714-3.8-4.383-6.145-4.625-9.056-2.177,2.241-4.854,3.683-9.806,3.016-.606.983-3.916,6.246-5.942,7.7C615.911,759.554,605.932,758.985,605.243,765.462Z" transform="translate(-557.366 -350.571)" fill="#122b50"/>
      <path id="Path_17915" data-name="Path 17915" d="M633.141,745.08a31.018,31.018,0,0,1-5.971,1.217c-5.4.484-6.18-1.125-6.18-1.125s-5.361-47.719-22.713-138.932a253.365,253.365,0,0,1-4.4-32.174c-.271-3.506-.534-7.405-.824-11.98-.786-12.294,1.08-32.983,10.305-38.421,4.193-2.475,9.909-1.8,17.593,4.258.6.477,1.225.988,1.854,1.533,22.484,19.447,13.266,75.308,14.174,101.57.152,4.354.581,7.894,1.48,10.321,1.161,3.135,3.651,7.486,4.215,11.584C647.4,686.984,633.141,745.08,633.141,745.08Z" transform="translate(-556.965 -343.269)" fill="#292332"/>
      <path id="Path_17916" data-name="Path 17916" d="M636.983,631.066l-43.1-56.956c-.271-3.506-.534-7.406-.826-11.98-.786-12.291,1.08-32.983,10.305-38.42l17.593,4.257c.6.477,1.225.988,1.854,1.532C645.292,548.947,636.075,604.8,636.983,631.066Z" transform="translate(-556.965 -343.314)" fill="#1a171f"/>
      <path id="Path_17917" data-name="Path 17917" d="M763.272,690.538,749.018,659.4s-5.087,1.426-7.943,4.7c-2.741,3.141-4.726,2.583-10.973-1.752,2.351,3.631,2.669,5.77,4.123,10.546,1.147.142,7.677,6.46,14.365,8.2C751.259,681.79,757.09,692.609,763.272,690.538Z" transform="translate(-561.42 -347.719)" fill="#122b50"/>
      <path id="Path_17918" data-name="Path 17918" d="M609.929,537.717S640.617,644.4,651.861,651.266s70.362,16.311,82.379,21.462c0,0,1.463-2.1.6-6.579a39.3,39.3,0,0,0-1.885-4.578s-36.712-27.6-60.876-30.381c-6-.691,12.209-92.265-28.312-95.922C606.754,531.921,609.929,537.717,609.929,537.717Z" transform="translate(-557.516 -343.655)" fill="#292332"/>
      <path id="Path_17919" data-name="Path 17919" d="M564.39,356.3s.825-4.117,1.754-7.257c.412-1.389-2.456-10.519-4.439-11.643s-7.151,5.024-5.689,9.746c.751,2.425,1.985,10.316,1.985,10.316Z" transform="translate(-555.759 -337.261)" fill="#fa9f68"/>
      <path id="Path_17920" data-name="Path 17920" d="M564.681,356.633s1.079-2.387,2.051-2.774,2.017-4.289,2.733-5.837c0,0-.691-1.012-1.9.29-.737.794-2.38,3.123-2.38,3.123Z" transform="translate(-556.049 -337.598)" fill="#fa9f68"/>
      <path id="Path_17921" data-name="Path 17921" d="M710.739,370.958c.21.433.5,1.207.761,1.935,0-.2.008-.395.01-.588.013-1.451,5.427-9.341,7.653-9.834s5.367,6.9,2.587,10.983c-1.428,2.1-4.917,9.283-4.917,9.283l-5.768-2.979s-.333-2.6-1.15-3.253-.677-4.693-.9-6.381C709.008,370.125,709.964,369.363,710.739,370.958Z" transform="translate(-560.735 -338.078)" fill="#fa9f68"/>
      <path id="Path_17922" data-name="Path 17922" d="M616.273,435.373c-.075.021,6.165,4.538,11.458,3.9,4.977-.593,9.025-6.33,8.961-6.354-1.965-.7-2.136-3.574-.312-15.53l-.943.044-15.853.759s-.371,4.9-1.038,9.464C617.985,431.492,617.212,435.093,616.273,435.373Z" transform="translate(-557.724 -339.862)" fill="#fa9f68"/>
      <path id="Path_17923" data-name="Path 17923" d="M619.661,418.194s-.371,4.9-1.039,9.464c8.653,1.039,14.377-6.144,16.891-10.224Z" transform="translate(-557.8 -339.864)" fill="#ea8249"/>
      <path id="Path_17924" data-name="Path 17924" d="M637.164,414.833s5.577-6.463,7.568-12.4c1.421-4.241,1.6-20.716-14.965-20.8a22.3,22.3,0,0,0-9.656,2.1c-3.876,1.855-9.724,6.235-6.135,21.169l.769,4.979Z" transform="translate(-557.613 -338.701)" fill="#030504"/>
      <path id="Path_17925" data-name="Path 17925" d="M595.724,530.245s15.547,9.812,41.447,3.509c.3-.074,14.725-2.374,14.725-2.374-.362-.989-15.516-26.027-15.869-26.934-4.595-11.857,6.046-68.466-.968-71.64-1.79,1.95-6.91,3.289-11.293,2.9-5.046-.446-6.736-2.626-6.317-4.97-5.584,2.64-9.875,5.094-9.875,5.094C602.466,443.477,595.724,530.245,595.724,530.245Z" transform="translate(-557.057 -340.295)" fill="#fa9f68"/>
      <path id="Path_17926" data-name="Path 17926" d="M615.923,421.116s20.339,3.369,22.24-9.328,5.805-20.814-7.095-23.5-16.158,1.778-17.825,5.861S610.682,419.912,615.923,421.116Z" transform="translate(-557.584 -338.891)" fill="#fa9f68"/>
      <path id="Path_17927" data-name="Path 17927" d="M622.161,386.5s3.366,15.729,11.6,19.206,12.3,1.735,12.3,1.735a24.52,24.52,0,0,1-5.805-15.512S627.425,380.035,622.161,386.5Z" transform="translate(-557.915 -338.797)" fill="#030504"/>
      <path id="Path_17928" data-name="Path 17928" d="M623.014,387.926s-4.663,2.709-6.16,5.789-2.944,9.675-4.851,9.157c0,0-2.7-10.752,2.88-15.778C620.8,381.765,623.014,387.926,623.014,387.926Z" transform="translate(-557.564 -338.808)" fill="#030504"/>
      <path id="Path_17929" data-name="Path 17929" d="M710.557,382.531s-13.113,39.862-16.6,46.029c-2.1,3.72-25.727,18.428-39.441,28.123a2.343,2.343,0,0,0-.526.63.062.062,0,0,1-.016.019c-3.422,5.291-14.059,38.05-11.514,43.926,10.694,24.713,18.023,34.269,20.691,41.2a6.589,6.589,0,0,1-3.779,8.515c-.053.02-.105.04-.159.058a112.639,112.639,0,0,1-18.505,4.838q-2.186.377-4.49.671c-21.076,2.675-35.345-2.27-42.591-5.925a9.649,9.649,0,0,1-5.281-9.157c.435-7.818,4.346-15.555,6.109-34.357,1.335-14.265-10.973-35.975-10.454-43.568.206-3,2.568-6.6,3.845-8.923V454.6c2.262-4.121,3.507-7.844,2-9.913-10.03-13.766-31.687-32.747-32.571-37.486-1.294-6.966-.71-50.016-.71-50.016a12.98,12.98,0,0,1,3.636-1.122,11.419,11.419,0,0,1,3.193.332s5.738,35.67,6.166,37.558,24.609,29.134,31.129,29.026c5.888-.1,14.19,4.451,15.481,5.322a62.551,62.551,0,0,0-6.6,22.015c-.919,8.847,4.991,4.914,8.7-1.145,5.025-8.2,15.139-19.882,15.139-19.882s8.23-2.14,14.361.084,37.856-15.692,38.871-17.341,18.009-33.307,18.009-33.307,1.408-.817,3.667.358A4.14,4.14,0,0,1,710.557,382.531Z" transform="translate(-555.781 -337.871)" fill="#ffd04e"/>
      <path id="Path_17930" data-name="Path 17930" d="M621.923,415.088s-.871,1.755-2.039,1.787-4.142-.25-4.344-.552a16.543,16.543,0,0,1-.7-2.137S619.758,413.988,621.923,415.088Z" transform="translate(-557.678 -339.758)" fill="#fff"/>
      <path id="Path_17931" data-name="Path 17931" d="M661.466,554.435a112.625,112.625,0,0,1-18.505,4.838c-7.272-10.026-19.579-22.64-16.413-45.842,3.273-23.983,26.85-49.225,29.681-52.706-3.421,5.292-14.059,38.05-11.514,43.926,10.694,24.713,18.024,34.27,20.691,41.2a6.587,6.587,0,0,1-3.771,8.518C661.579,554.394,661.523,554.414,661.466,554.435Z" transform="translate(-558.041 -341.269)" fill="#ffb600"/>
      <path id="Path_17932" data-name="Path 17932" d="M587.873,456.328c2.262-4.121,3.506-7.844,2-9.912-10.031-13.766-31.686-32.747-32.571-37.486,2.148,5.15,28.375,20.538,35.749,27.154C600.341,442.615,588.17,456.006,587.873,456.328Z" transform="translate(-555.809 -339.588)" fill="#ffb600"/>
    </g>
  </g>
</svg>
