<svg id="Creators_Card" data-name="Creators Card" xmlns="http://www.w3.org/2000/svg" width="37.466" height="32" viewBox="0 0 37.466 32">
  <circle id="Ellipse_338" data-name="Ellipse 338" cx="16" cy="16" r="16" fill="#f5f4f0"/>
  <path id="Icon_awesome-user-friends" data-name="Icon awesome-user-friends" d="M10.94,15.013A6.382,6.382,0,1,0,4.558,8.632,6.378,6.378,0,0,0,10.94,15.013Zm4.376,1.823h-.473a8.811,8.811,0,0,1-7.806,0H6.564A6.566,6.566,0,0,0,0,23.4v1.641a2.736,2.736,0,0,0,2.735,2.735h16.41a2.736,2.736,0,0,0,2.735-2.735V23.4A6.566,6.566,0,0,0,15.316,16.836Zm12.034-1.823a5.47,5.47,0,1,0-5.47-5.47A5.471,5.471,0,0,0,27.349,15.013Zm2.735,1.823h-.217a7.185,7.185,0,0,1-5.037,0h-.217a6.328,6.328,0,0,0-3.174.877A8.338,8.338,0,0,1,23.7,23.4v2.188c0,.125-.028.245-.034.365H33.731a2.736,2.736,0,0,0,2.735-2.735,6.378,6.378,0,0,0-6.382-6.382Z" transform="translate(0 2.283)" fill="#e1e1e1"/>
  <path id="Icon_awesome-user-friends-2" data-name="Icon awesome-user-friends" d="M10.94,15.013A6.382,6.382,0,1,0,4.558,8.632,6.378,6.378,0,0,0,10.94,15.013Zm4.376,1.823h-.473a8.811,8.811,0,0,1-7.806,0H6.564A6.566,6.566,0,0,0,0,23.4v1.641a2.736,2.736,0,0,0,2.735,2.735h16.41a2.736,2.736,0,0,0,2.735-2.735V23.4A6.566,6.566,0,0,0,15.316,16.836Zm12.034-1.823a5.47,5.47,0,1,0-5.47-5.47A5.471,5.471,0,0,0,27.349,15.013Zm2.735,1.823h-.217a7.185,7.185,0,0,1-5.037,0h-.217a6.328,6.328,0,0,0-3.174.877A8.338,8.338,0,0,1,23.7,23.4v2.188c0,.125-.028.245-.034.365H33.731a2.736,2.736,0,0,0,2.735-2.735,6.378,6.378,0,0,0-6.382-6.382Z" transform="translate(1 1.283)" fill="#48acf8"/>
</svg>
