<svg id="Revenue_Card" data-name="Revenue Card" xmlns="http://www.w3.org/2000/svg" width="37.306" height="32" viewBox="0 0 37.306 32">
  <circle id="Ellipse_338" data-name="Ellipse 338" cx="16" cy="16" r="16" fill="#f5f4f0"/>
  <g id="noun_revenue_2655115" transform="translate(0.8 -9.832)">
    <g id="Group_4666" data-name="Group 4666" transform="translate(1.2 15.5)">
      <path id="Path_17048" data-name="Path 17048" d="M35.655,28.943c0,.11-.055.164-.055.274h0c0,1.918,3.507,3.507,7.727,3.507,4.165,0,7.727-1.644,7.727-3.562S47.547,25.6,43.327,25.6C40.916,25.71,36.038,26.586,35.655,28.943Z" transform="translate(-16.748 -20.065)" fill="#e1e1e1"/>
      <path id="Path_17049" data-name="Path 17049" d="M30.349,44.223V39.4a17.573,17.573,0,0,1-4.549.438,7.761,7.761,0,0,1,1.206,4.823A15.9,15.9,0,0,0,30.349,44.223Z" transform="translate(-12.319 -26.302)" fill="#e1e1e1"/>
      <path id="Path_17050" data-name="Path 17050" d="M13.374,29.994a7.706,7.706,0,0,1,5.973,2.685,14.923,14.923,0,0,0,5.206-.384V29.227h0v-.164a3.43,3.43,0,0,1,.877-1.808c-3.617,1.151-9.81.932-12.331-1.754C13.264,29.172,13.045,29.281,13.374,29.994Z" transform="translate(-6.579 -20.02)" fill="#e1e1e1"/>
      <path id="Path_17051" data-name="Path 17051" d="M13.255,19.391h0c.932,3.781,13.481,4.6,15.345,0,.329-2.85-4.768-3.891-7.672-3.891-4.165,0-7.727,1.644-7.727,3.562a1.938,1.938,0,0,1,.055.329Z" transform="translate(-6.624 -15.5)" fill="#e1e1e1"/>
      <path id="Path_17052" data-name="Path 17052" d="M28.9,49.7a14.185,14.185,0,0,1-3.453.438A7.79,7.79,0,0,1,22.6,54.8a13.252,13.252,0,0,0,2.576.219,14.147,14.147,0,0,0,5.316-.986C28.135,52.385,29.176,50.467,28.9,49.7Z" transform="translate(-10.872 -30.958)" fill="#e1e1e1"/>
      <path id="Path_17053" data-name="Path 17053" d="M43.327,38.166c-2.466,0-6.028-.6-7.727-2.466v3.781c0,1.918,3.507,3.562,7.727,3.562,4.165,0,7.727-1.644,7.727-3.562V35.7C49.3,37.563,45.848,38.166,43.327,38.166Z" transform="translate(-16.748 -24.63)" fill="#e1e1e1"/>
      <path id="Path_17054" data-name="Path 17054" d="M35.6,46v3.781c0,1.1,1.206,1.863,1.26,1.918a11.863,11.863,0,0,0,6.467,1.644c4.165,0,7.727-1.644,7.727-3.562V46c-1.37,1.48-4.275,2.466-7.727,2.466S36.97,47.48,35.6,46Z" transform="translate(-16.748 -29.285)" fill="#e1e1e1"/>
      <path id="Path_17055" data-name="Path 17055" d="M8,35.2A6.933,6.933,0,0,0,8.16,49.063a6.444,6.444,0,0,0,3.672-1.1c.11-.055.219-.164.329-.219A6.91,6.91,0,0,0,8,35.2ZM8.16,41.72a1.848,1.848,0,0,1,1.863,1.863A1.83,1.83,0,0,1,8.6,45.391v1.041H7.776V45.391A1.878,1.878,0,0,1,6.3,43.583h.822A1.041,1.041,0,1,0,8.16,42.542,1.848,1.848,0,0,1,6.3,40.678a1.823,1.823,0,0,1,1.48-1.808V37.829H8.6V38.87a1.829,1.829,0,0,1,1.425,1.808H9.2A1.041,1.041,0,1,0,8.16,41.72Z" transform="translate(-1.2 -24.402)" fill="#e1e1e1"/>
    </g>
  </g>
  <g id="noun_revenue_2655115-2" data-name="noun_revenue_2655115" transform="translate(1.8 -10.832)">
    <g id="Group_4666-2" data-name="Group 4666" transform="translate(1.2 15.5)">
      <path id="Path_17048-2" data-name="Path 17048" d="M35.655,28.943c0,.11-.055.164-.055.274h0c0,1.918,3.507,3.507,7.727,3.507,4.165,0,7.727-1.644,7.727-3.562S47.547,25.6,43.327,25.6C40.916,25.71,36.038,26.586,35.655,28.943Z" transform="translate(-16.748 -20.065)" fill="#48acf8"/>
      <path id="Path_17049-2" data-name="Path 17049" d="M30.349,44.223V39.4a17.573,17.573,0,0,1-4.549.438,7.761,7.761,0,0,1,1.206,4.823A15.9,15.9,0,0,0,30.349,44.223Z" transform="translate(-12.319 -26.302)" fill="#48acf8"/>
      <path id="Path_17050-2" data-name="Path 17050" d="M13.374,29.994a7.706,7.706,0,0,1,5.973,2.685,14.923,14.923,0,0,0,5.206-.384V29.227h0v-.164a3.43,3.43,0,0,1,.877-1.808c-3.617,1.151-9.81.932-12.331-1.754C13.264,29.172,13.045,29.281,13.374,29.994Z" transform="translate(-6.579 -20.02)" fill="#48acf8"/>
      <path id="Path_17051-2" data-name="Path 17051" d="M13.255,19.391h0c.932,3.781,13.481,4.6,15.345,0,.329-2.85-4.768-3.891-7.672-3.891-4.165,0-7.727,1.644-7.727,3.562a1.938,1.938,0,0,1,.055.329Z" transform="translate(-6.624 -15.5)" fill="#48acf8"/>
      <path id="Path_17052-2" data-name="Path 17052" d="M28.9,49.7a14.185,14.185,0,0,1-3.453.438A7.79,7.79,0,0,1,22.6,54.8a13.252,13.252,0,0,0,2.576.219,14.147,14.147,0,0,0,5.316-.986C28.135,52.385,29.176,50.467,28.9,49.7Z" transform="translate(-10.872 -30.958)" fill="#48acf8"/>
      <path id="Path_17053-2" data-name="Path 17053" d="M43.327,38.166c-2.466,0-6.028-.6-7.727-2.466v3.781c0,1.918,3.507,3.562,7.727,3.562,4.165,0,7.727-1.644,7.727-3.562V35.7C49.3,37.563,45.848,38.166,43.327,38.166Z" transform="translate(-16.748 -24.63)" fill="#48acf8"/>
      <path id="Path_17054-2" data-name="Path 17054" d="M35.6,46v3.781c0,1.1,1.206,1.863,1.26,1.918a11.863,11.863,0,0,0,6.467,1.644c4.165,0,7.727-1.644,7.727-3.562V46c-1.37,1.48-4.275,2.466-7.727,2.466S36.97,47.48,35.6,46Z" transform="translate(-16.748 -29.285)" fill="#48acf8"/>
      <path id="Path_17055-2" data-name="Path 17055" d="M8,35.2A6.933,6.933,0,0,0,8.16,49.063a6.444,6.444,0,0,0,3.672-1.1c.11-.055.219-.164.329-.219A6.91,6.91,0,0,0,8,35.2ZM8.16,41.72a1.848,1.848,0,0,1,1.863,1.863A1.83,1.83,0,0,1,8.6,45.391v1.041H7.776V45.391A1.878,1.878,0,0,1,6.3,43.583h.822A1.041,1.041,0,1,0,8.16,42.542,1.848,1.848,0,0,1,6.3,40.678a1.823,1.823,0,0,1,1.48-1.808V37.829H8.6V38.87a1.829,1.829,0,0,1,1.425,1.808H9.2A1.041,1.041,0,1,0,8.16,41.72Z" transform="translate(-1.2 -24.402)" fill="#48acf8"/>
    </g>
  </g>
</svg>
