<svg id="Categories_card" data-name="Categories card" xmlns="http://www.w3.org/2000/svg" width="32" height="32" viewBox="0 0 32 32">
  <circle id="Ellipse_338" data-name="Ellipse 338" cx="16" cy="16" r="16" fill="#f5f4f0"/>
  <g id="noun_Category_2426190" transform="translate(-1.209 -1.114)">
    <path id="Path_17058" data-name="Path 17058" d="M6.563,4.561A3.247,3.247,0,1,0,9.81,7.808h0A3.247,3.247,0,0,0,6.563,4.561Zm6.79.009a.713.713,0,0,0-.727.7v5.074a.713.713,0,0,0,.727.7H30.028a.713.713,0,0,0,.727-.7V5.271a.713.713,0,0,0-.727-.7Zm-6.79,9.984A3.247,3.247,0,1,0,9.81,17.8h0a3.247,3.247,0,0,0-3.248-3.246Zm6.79.009a.713.713,0,0,0-.727.7v5.074a.713.713,0,0,0,.727.7H30.028a.713.713,0,0,0,.727-.7V15.263a.713.713,0,0,0-.727-.7H13.353Zm-6.79,9.984A3.247,3.247,0,1,0,9.81,27.792h0a3.247,3.247,0,0,0-3.248-3.246Zm6.79.009a.713.713,0,0,0-.727.7v5.074a.713.713,0,0,0,.727.7H30.028a.713.713,0,0,0,.727-.7V25.255a.713.713,0,0,0-.727-.7Z" transform="translate(0)" fill="#e1e1e1"/>
  </g>
  <g id="noun_Category_2426190-2" data-name="noun_Category_2426190" transform="translate(-0.209 -2.114)">
    <path id="Path_17058-2" data-name="Path 17058" d="M6.563,4.561A3.247,3.247,0,1,0,9.81,7.808h0A3.247,3.247,0,0,0,6.563,4.561Zm6.79.009a.713.713,0,0,0-.727.7v5.074a.713.713,0,0,0,.727.7H30.028a.713.713,0,0,0,.727-.7V5.271a.713.713,0,0,0-.727-.7Zm-6.79,9.984A3.247,3.247,0,1,0,9.81,17.8h0a3.247,3.247,0,0,0-3.248-3.246Zm6.79.009a.713.713,0,0,0-.727.7v5.074a.713.713,0,0,0,.727.7H30.028a.713.713,0,0,0,.727-.7V15.263a.713.713,0,0,0-.727-.7H13.353Zm-6.79,9.984A3.247,3.247,0,1,0,9.81,27.792h0a3.247,3.247,0,0,0-3.248-3.246Zm6.79.009a.713.713,0,0,0-.727.7v5.074a.713.713,0,0,0,.727.7H30.028a.713.713,0,0,0,.727-.7V25.255a.713.713,0,0,0-.727-.7Z" transform="translate(0)" fill="#48acf8"/>
  </g>
</svg>
