<svg id="Courses_purchased_card" data-name="Courses purchased card" xmlns="http://www.w3.org/2000/svg" width="32" height="32" viewBox="0 0 32 32">
  <circle id="Ellipse_338" data-name="Ellipse 338" cx="16" cy="16" r="16" fill="#f5f4f0"/>
  <path id="Icon_material-class" data-name="Icon material-class" d="M25.622,3H8.8A2.811,2.811,0,0,0,6,5.8V28.229a2.811,2.811,0,0,0,2.8,2.8H25.622a2.811,2.811,0,0,0,2.8-2.8V5.8A2.811,2.811,0,0,0,25.622,3ZM8.8,5.8h7.008V17.016l-3.5-2.1-3.5,2.1Z" transform="translate(-4 -0.553)" fill="#e1e1e1"/>
  <path id="Icon_material-class-2" data-name="Icon material-class" d="M25.622,3H8.8A2.811,2.811,0,0,0,6,5.8V28.229a2.811,2.811,0,0,0,2.8,2.8H25.622a2.811,2.811,0,0,0,2.8-2.8V5.8A2.811,2.811,0,0,0,25.622,3ZM8.8,5.8h7.008V17.016l-3.5-2.1-3.5,2.1Z" transform="translate(-3 -1.553)" fill="#48acf8"/>
</svg>
