<svg id="Classes_purchased_card" data-name="Classes purchased card" xmlns="http://www.w3.org/2000/svg" width="32" height="32" viewBox="0 0 32 32">
  <circle id="Ellipse_338" data-name="Ellipse 338" cx="16" cy="16" r="16" fill="#f5f4f0"/>
  <path id="Icon_awesome-file-video" data-name="Icon awesome-file-video" d="M21.415,6.8v.338H14.277V0h.338a1.339,1.339,0,0,1,.946.392l5.462,5.462a1.339,1.339,0,0,1,.392.946Zm-8.923.784V0H1.338A1.338,1.338,0,0,0,0,1.338V27.215a1.338,1.338,0,0,0,1.338,1.338H20.077a1.338,1.338,0,0,0,1.338-1.338V8.923H13.83A1.342,1.342,0,0,1,12.492,7.584Zm5.354,8.032V21.86a1.339,1.339,0,0,1-2.285.946l-3.069-3.068v2.122A1.338,1.338,0,0,1,11.154,23.2H4.908a1.338,1.338,0,0,1-1.338-1.338V15.615a1.338,1.338,0,0,1,1.338-1.338h6.246a1.338,1.338,0,0,1,1.338,1.338v2.122l3.069-3.068A1.339,1.339,0,0,1,17.846,15.616Z" transform="translate(2.5 1.447)" fill="#e1e1e1"/>
  <path id="Icon_awesome-file-video-2" data-name="Icon awesome-file-video" d="M21.415,6.8v.338H14.277V0h.338a1.339,1.339,0,0,1,.946.392l5.462,5.462a1.339,1.339,0,0,1,.392.946Zm-8.923.784V0H1.338A1.338,1.338,0,0,0,0,1.338V27.215a1.338,1.338,0,0,0,1.338,1.338H20.077a1.338,1.338,0,0,0,1.338-1.338V8.923H13.83A1.342,1.342,0,0,1,12.492,7.584Zm5.354,8.032V21.86a1.339,1.339,0,0,1-2.285.946l-3.069-3.068v2.122A1.338,1.338,0,0,1,11.154,23.2H4.908a1.338,1.338,0,0,1-1.338-1.338V15.615a1.338,1.338,0,0,1,1.338-1.338h6.246a1.338,1.338,0,0,1,1.338,1.338v2.122l3.069-3.068A1.339,1.339,0,0,1,17.846,15.616Z" transform="translate(3.5 0.447)" fill="#48acf8"/>
</svg>
