<svg xmlns="http://www.w3.org/2000/svg" width="17.719" height="17.719" viewBox="0 0 17.719 17.719">
  <g id="Coupon_active" data-name="Coupon active" transform="translate(-2.5 -2.5)">
    <path id="Path_17057" data-name="Path 17057" d="M20.125,9.166,18.389,7.429a.406.406,0,0,0-.56,0,1.782,1.782,0,0,1-2.521-2.521.406.406,0,0,0,0-.56L13.572,2.612a.406.406,0,0,0-.56,0l-10.4,10.4a.406.406,0,0,0,0,.56l1.736,1.736a.406.406,0,0,0,.56,0,1.769,1.769,0,1,1,2.5,2.5.406.406,0,0,0,0,.56l1.736,1.736a.406.406,0,0,0,.56,0l10.4-10.4a.38.38,0,0,0,.112-.28A.325.325,0,0,0,20.125,9.166Z" fill="#6708ba"/>
  </g>
</svg>
