<svg xmlns="http://www.w3.org/2000/svg" width="16" height="16" viewBox="0 0 16 16">
  <g id="help" transform="translate(-3.375 -3.375)">
    <path id="Subtraction_4" data-name="Subtraction 4" d="M8,16a8,8,0,1,1,8-8A8.009,8.009,0,0,1,8,16Zm-.159-5.915a.8.8,0,0,0-.815.784.817.817,0,1,0,.815-.784ZM7.935,5.5a.918.918,0,0,1,1.024.818c0,.473-.282.722-.913,1.1a1.578,1.578,0,0,0-.9,1.675l.012.327H8.48v-.3c0-.483.215-.764.887-1.153a1.865,1.865,0,0,0,1.069-1.689c0-1.136-.99-1.929-2.408-1.929A2.18,2.18,0,0,0,5.566,6.437h1.35A.962.962,0,0,1,7.935,5.5Z" transform="translate(3.375 3.375)" fill="#404040"/>
  </g>
</svg>
