<svg xmlns="http://www.w3.org/2000/svg" width="16.661" height="14.146" viewBox="0 0 16.661 14.146">
  <g id="Wallet_active" data-name="Wallet active" transform="translate(-6.715 -13.25)">
    <g id="Group_4665" data-name="Group 4665" transform="translate(6.715 13.25)">
      <path id="Path_17046" data-name="Path 17046" d="M17.551,22.091a2.272,2.272,0,0,1-2.269-2.269V17.861a2.272,2.272,0,0,1,2.269-2.269h.916l.064,0H22.4V14.557a1.28,1.28,0,0,0-1.307-1.307H8.022a1.308,1.308,0,0,0-1.307,1.307V26.088A1.308,1.308,0,0,0,8.022,27.4H21.093A1.28,1.28,0,0,0,22.4,26.088v-4Z" transform="translate(-6.715 -13.25)" fill="#6708ba"/>
      <path id="Path_17047" data-name="Path 17047" d="M62.956,30.409h0l-.016,0H58.515l-.02,0h-.96a1.308,1.308,0,0,0-1.307,1.307v1.961a1.308,1.308,0,0,0,1.307,1.307h5.421v0a.416.416,0,0,0,.4-.421V30.829A.416.416,0,0,0,62.956,30.409Zm-4.874,3.026a.739.739,0,1,1,.739-.739A.739.739,0,0,1,58.082,33.435Z" transform="translate(-46.699 -27.104)" fill="#6708ba"/>
    </g>
  </g>
</svg>
