<svg xmlns="http://www.w3.org/2000/svg" width="16.661" height="16.554" viewBox="0 0 16.661 16.554">
  <g id="Request_active" data-name="Request active" transform="translate(-11 -11.24)">
    <path id="Path_17056" data-name="Path 17056" d="M25.1,11.24H13.563A2.563,2.563,0,0,0,11,13.8v7.69a2.563,2.563,0,0,0,2.563,2.563h4.1l3.576,3.524a.728.728,0,0,0,.511.214.6.6,0,0,0,.284-.07.551.551,0,0,0,.291-.564l-.081-3.1H25.1a2.563,2.563,0,0,0,2.563-2.563V13.8A2.563,2.563,0,0,0,25.1,11.24Zm-9.334,2.35,1.124.963s-.066.224,0,.288L18.542,16.5l-.31.31-1.655-1.655c-.053-.053-.288,0-.288,0l-.968-1.119Zm7.218,7.263-.387.387a.491.491,0,0,1-.7,0l-2.377-2.36,1.092-1.092,2.371,2.373a.491.491,0,0,1,0,.7Zm-1.472-3.8a1.828,1.828,0,0,1-.737-.169L16.447,21.2a.665.665,0,0,1-.94-.94l4.325-4.321a1.828,1.828,0,0,1-.169-.737,1.86,1.86,0,0,1,1.846-1.846,1.828,1.828,0,0,1,.737.169l-1.04,1.04a.665.665,0,1,0,.94.94l1.03-1.042a1.828,1.828,0,0,1,.169.737,1.86,1.86,0,0,1-1.835,1.846Z" fill="#6708ba"/>
  </g>
</svg>
