<svg xmlns="http://www.w3.org/2000/svg" width="19.125" height="13.748" viewBox="0 0 19.125 13.748">
  <g id="Revenue" transform="translate(-1.2 -15.5)">
    <g id="Group_4666" data-name="Group 4666" transform="translate(1.2 15.5)">
      <path id="Path_17048" data-name="Path 17048" d="M35.631,27.464c0,.061-.031.092-.031.153h0c0,1.069,1.955,1.955,4.308,1.955,2.322,0,4.308-.917,4.308-1.986S42.26,25.6,39.908,25.6C38.563,25.661,35.844,26.15,35.631,27.464Z" transform="translate(-25.091 -22.514)" fill="#404040"/>
      <path id="Path_17049" data-name="Path 17049" d="M28.336,42.088V39.4a9.8,9.8,0,0,1-2.536.244,4.327,4.327,0,0,1,.672,2.688A8.865,8.865,0,0,0,28.336,42.088Z" transform="translate(-18.285 -32.098)" fill="#404040"/>
      <path id="Path_17050" data-name="Path 17050" d="M13.253,28.005a4.3,4.3,0,0,1,3.33,1.5,8.319,8.319,0,0,0,2.9-.214V27.577h0v-.092a1.912,1.912,0,0,1,.489-1.008c-2.016.642-5.469.519-6.874-.978C13.192,27.547,13.069,27.608,13.253,28.005Z" transform="translate(-9.464 -22.445)" fill="#404040"/>
      <path id="Path_17051" data-name="Path 17051" d="M13.231,17.669h0c.519,2.108,7.515,2.566,8.554,0,.183-1.589-2.658-2.169-4.277-2.169-2.322,0-4.308.917-4.308,1.986a1.08,1.08,0,0,1,.031.183Z" transform="translate(-9.534 -15.5)" fill="#404040"/>
      <path id="Path_17052" data-name="Path 17052" d="M26.113,49.7a7.908,7.908,0,0,1-1.925.244,4.343,4.343,0,0,1-1.589,2.6,7.388,7.388,0,0,0,1.436.122A7.887,7.887,0,0,0,27,52.114C25.686,51.2,26.266,50.128,26.113,49.7Z" transform="translate(-16.062 -39.252)" fill="#404040"/>
      <path id="Path_17053" data-name="Path 17053" d="M39.908,37.075c-1.375,0-3.361-.336-4.308-1.375v2.108c0,1.069,1.955,1.986,4.308,1.986,2.322,0,4.308-.917,4.308-1.986V35.7C43.238,36.739,41.313,37.075,39.908,37.075Z" transform="translate(-25.091 -29.529)" fill="#404040"/>
      <path id="Path_17054" data-name="Path 17054" d="M35.6,46v2.108c0,.611.672,1.039.7,1.069a6.613,6.613,0,0,0,3.6.917c2.322,0,4.308-.917,4.308-1.986V46a6.086,6.086,0,0,1-4.308,1.375A6.086,6.086,0,0,1,35.6,46Z" transform="translate(-25.091 -36.682)" fill="#404040"/>
      <path id="Path_17055" data-name="Path 17055" d="M4.988,35.2a3.865,3.865,0,0,0,.092,7.729,3.592,3.592,0,0,0,2.047-.611c.061-.031.122-.092.183-.122A3.852,3.852,0,0,0,4.988,35.2Zm.092,3.636a1.03,1.03,0,0,1,1.039,1.039,1.02,1.02,0,0,1-.794,1.008v.58H4.866v-.58a1.047,1.047,0,0,1-.825-1.008H4.5a.58.58,0,1,0,.58-.58,1.03,1.03,0,0,1-1.039-1.039,1.016,1.016,0,0,1,.825-1.008v-.58h.458v.58a1.02,1.02,0,0,1,.794,1.008H5.66a.58.58,0,1,0-.58.58Z" transform="translate(-1.2 -29.179)" fill="#404040"/>
    </g>
  </g>
</svg>
