<svg xmlns="http://www.w3.org/2000/svg" width="19.487" height="13.641" viewBox="0 0 19.487 13.641">
  <path id="Users" d="M5.846,9.07a3.41,3.41,0,1,0-3.41-3.41A3.408,3.408,0,0,0,5.846,9.07Zm2.338.974H7.932a4.708,4.708,0,0,1-4.171,0H3.508A3.508,3.508,0,0,0,0,13.552v.877a1.462,1.462,0,0,0,1.461,1.461H10.23a1.462,1.462,0,0,0,1.461-1.461v-.877A3.508,3.508,0,0,0,8.184,10.045Zm6.431-.974a2.923,2.923,0,1,0-2.923-2.923A2.924,2.924,0,0,0,14.615,9.07Zm1.461.974h-.116a3.84,3.84,0,0,1-2.692,0h-.116a3.382,3.382,0,0,0-1.7.469,4.456,4.456,0,0,1,1.209,3.039v1.169c0,.067-.015.131-.018.195h5.377a1.462,1.462,0,0,0,1.461-1.461,3.408,3.408,0,0,0-3.41-3.41Z" transform="translate(0 -2.25)" fill="#404040"/>
</svg>
